<svg xmlns="http://www.w3.org/2000/svg" viewBox="0 0 112 148">
<polygon points="21.000,6.000 69.000,4.000 78.000,15.000 75.000,55.000 78.000,109.000 67.000,138.000 24.000,140.000 15.000,116.000 18.000,62.000" fill="#171b19" opacity="0.64"/>
<polygon points="24.014,8.300 66.014,6.300 65.986,5.700 23.986,7.700" fill="#6c7266" opacity="0.6"/>
<polygon points="20.978,134.299 61.978,137.299 62.022,136.701 21.022,133.701" fill="#6c7266" opacity="0.4"/>
<polygon points="36.052,110.859 31.758,109.459 27.638,107.609 23.739,105.330 20.105,102.649 16.778,99.596 13.795,96.205 11.190,92.516 8.994,88.570 7.231,84.412 5.921,80.090 5.079,75.653 4.716,71.152 4.834,66.637 5.433,62.161 6.505,57.774 8.040,53.526 10.018,49.467 12.418,45.641 15.212,42.093 18.368,38.863 21.851,35.988 25.620,33.501 29.633,31.429 33.844,29.798 38.205,28.624 38.330,29.211 34.031,30.368 29.880,31.977 25.924,34.018 22.208,36.471 18.774,39.305 15.663,42.489 12.908,45.987 10.542,49.758 8.592,53.760 7.080,57.947 6.022,62.272 5.432,66.685 5.315,71.135 5.674,75.573 6.504,79.947 7.795,84.208 9.533,88.306 11.698,92.196 14.266,95.833 17.206,99.176 20.487,102.186 24.069,104.829 27.913,107.075 31.975,108.899 36.207,110.279" fill="#6c7266" opacity="0.4"/>
<polygon points="14.000,24.350 17.000,24.350 17.000,23.650 14.000,23.650" fill="#d6cab0" opacity="0.55"/>
<polygon points="14.000,49.350 17.000,49.350 17.000,48.650 14.000,48.650" fill="#d6cab0" opacity="0.55"/>
<polygon points="14.000,74.350 17.000,74.350 17.000,73.650 14.000,73.650" fill="#d6cab0" opacity="0.55"/>
<polygon points="14.000,99.350 17.000,99.350 17.000,98.650 14.000,98.650" fill="#d6cab0" opacity="0.55"/>
<polygon points="14.000,124.350 17.000,124.350 17.000,123.650 14.000,123.650" fill="#d6cab0" opacity="0.55"/>
</svg>
