# iron_dagger.obj -- generated from modelScript/models/IronDagger.bbmodel
# Keep this file in sync with the source bbmodel and its embedded atlas.
mtllib iron_dagger.mtl
o iron_dagger
v 0.443750 0.318750 0.443750
v 0.556250 0.318750 0.443750
v 0.556250 0.350000 0.443750
v 0.443750 0.350000 0.443750
v 0.443750 0.318750 0.556250
v 0.556250 0.318750 0.556250
v 0.556250 0.350000 0.556250
v 0.443750 0.350000 0.556250
v 0.420450 0.318750 0.500000
v 0.500000 0.318750 0.420450
v 0.500000 0.350000 0.420450
v 0.420450 0.350000 0.500000
v 0.500000 0.318750 0.579550
v 0.579550 0.318750 0.500000
v 0.579550 0.350000 0.500000
v 0.500000 0.350000 0.579550
v 0.453125 0.350000 0.453125
v 0.546875 0.350000 0.453125
v 0.546875 0.393750 0.453125
v 0.453125 0.393750 0.453125
v 0.453125 0.350000 0.546875
v 0.546875 0.350000 0.546875
v 0.546875 0.393750 0.546875
v 0.453125 0.393750 0.546875
v 0.433709 0.350000 0.500000
v 0.500000 0.350000 0.433709
v 0.500000 0.393750 0.433709
v 0.433709 0.393750 0.500000
v 0.500000 0.350000 0.566291
v 0.566291 0.350000 0.500000
v 0.566291 0.393750 0.500000
v 0.500000 0.393750 0.566291
v 0.481250 0.311250 0.481250
v 0.518750 0.311250 0.481250
v 0.518750 0.325000 0.481250
v 0.481250 0.325000 0.481250
v 0.481250 0.311250 0.518750
v 0.518750 0.311250 0.518750
v 0.518750 0.325000 0.518750
v 0.481250 0.325000 0.518750
v 0.465625 0.393750 0.471875
v 0.534375 0.393750 0.471875
v 0.534375 0.468750 0.471875
v 0.465625 0.468750 0.471875
v 0.465625 0.393750 0.528125
v 0.534375 0.393750 0.528125
v 0.534375 0.468750 0.528125
v 0.465625 0.468750 0.528125
v 0.468750 0.468750 0.473750
v 0.531250 0.468750 0.473750
v 0.531250 0.537500 0.473750
v 0.468750 0.537500 0.473750
v 0.468750 0.468750 0.526250
v 0.531250 0.468750 0.526250
v 0.531250 0.537500 0.526250
v 0.468750 0.537500 0.526250
v 0.463750 0.537500 0.470000
v 0.536250 0.537500 0.470000
v 0.536250 0.606250 0.470000
v 0.463750 0.606250 0.470000
v 0.463750 0.537500 0.530000
v 0.536250 0.537500 0.530000
v 0.536250 0.606250 0.530000
v 0.463750 0.606250 0.530000
v 0.453125 0.397500 0.461562
v 0.546875 0.397500 0.461562
v 0.546875 0.432500 0.461562
v 0.453125 0.432500 0.461562
v 0.453125 0.397500 0.538438
v 0.546875 0.397500 0.538438
v 0.546875 0.432500 0.538438
v 0.453125 0.432500 0.538438
v 0.455000 0.440000 0.463100
v 0.545000 0.440000 0.463100
v 0.545000 0.475000 0.463100
v 0.455000 0.475000 0.463100
v 0.455000 0.440000 0.536900
v 0.545000 0.440000 0.536900
v 0.545000 0.475000 0.536900
v 0.455000 0.475000 0.536900
v 0.457500 0.482500 0.465150
v 0.542500 0.482500 0.465150
v 0.542500 0.517500 0.465150
v 0.457500 0.517500 0.465150
v 0.457500 0.482500 0.534850
v 0.542500 0.482500 0.534850
v 0.542500 0.517500 0.534850
v 0.457500 0.517500 0.534850
v 0.455000 0.525000 0.463100
v 0.545000 0.525000 0.463100
v 0.545000 0.560000 0.463100
v 0.455000 0.560000 0.463100
v 0.455000 0.525000 0.536900
v 0.545000 0.525000 0.536900
v 0.545000 0.560000 0.536900
v 0.455000 0.560000 0.536900
v 0.453125 0.567500 0.461562
v 0.546875 0.567500 0.461562
v 0.546875 0.602500 0.461562
v 0.453125 0.602500 0.461562
v 0.453125 0.567500 0.538438
v 0.546875 0.567500 0.538438
v 0.546875 0.602500 0.538438
v 0.453125 0.602500 0.538438
v 0.453125 0.606250 0.465625
v 0.546875 0.606250 0.465625
v 0.546875 0.621875 0.465625
v 0.453125 0.621875 0.465625
v 0.453125 0.606250 0.534375
v 0.546875 0.606250 0.534375
v 0.546875 0.621875 0.534375
v 0.453125 0.621875 0.534375
v 0.375000 0.618750 0.468750
v 0.625000 0.618750 0.468750
v 0.625000 0.656250 0.468750
v 0.375000 0.656250 0.468750
v 0.375000 0.618750 0.531250
v 0.625000 0.618750 0.531250
v 0.625000 0.656250 0.531250
v 0.375000 0.656250 0.531250
v 0.365625 0.615625 0.465625
v 0.384375 0.615625 0.465625
v 0.384375 0.659375 0.465625
v 0.365625 0.659375 0.465625
v 0.365625 0.615625 0.534375
v 0.384375 0.615625 0.534375
v 0.384375 0.659375 0.534375
v 0.365625 0.659375 0.534375
v 0.615625 0.615625 0.465625
v 0.634375 0.615625 0.465625
v 0.634375 0.659375 0.465625
v 0.615625 0.659375 0.465625
v 0.615625 0.615625 0.534375
v 0.634375 0.615625 0.534375
v 0.634375 0.659375 0.534375
v 0.615625 0.659375 0.534375
v 0.456250 0.653125 0.478125
v 0.543750 0.653125 0.478125
v 0.543750 0.668750 0.478125
v 0.456250 0.668750 0.478125
v 0.456250 0.653125 0.521875
v 0.543750 0.653125 0.521875
v 0.543750 0.668750 0.521875
v 0.456250 0.668750 0.521875
v 0.462500 0.668750 0.486250
v 0.537500 0.668750 0.486250
v 0.537500 0.781250 0.486250
v 0.462500 0.781250 0.486250
v 0.462500 0.668750 0.513750
v 0.537500 0.668750 0.513750
v 0.537500 0.781250 0.513750
v 0.462500 0.781250 0.513750
v 0.446875 0.668750 0.492500
v 0.465625 0.668750 0.492500
v 0.465625 0.781250 0.492500
v 0.446875 0.781250 0.492500
v 0.446875 0.668750 0.507500
v 0.465625 0.668750 0.507500
v 0.465625 0.781250 0.507500
v 0.446875 0.781250 0.507500
v 0.534375 0.668750 0.492500
v 0.553125 0.668750 0.492500
v 0.553125 0.781250 0.492500
v 0.534375 0.781250 0.492500
v 0.534375 0.668750 0.507500
v 0.553125 0.668750 0.507500
v 0.553125 0.781250 0.507500
v 0.534375 0.781250 0.507500
v 0.475000 0.778125 0.483750
v 0.525000 0.778125 0.483750
v 0.525000 1.043750 0.483750
v 0.475000 1.043750 0.483750
v 0.475000 0.778125 0.516250
v 0.525000 0.778125 0.516250
v 0.525000 1.043750 0.516250
v 0.475000 1.043750 0.516250
v 0.450000 0.778125 0.490000
v 0.550000 0.778125 0.490000
v 0.550000 1.043750 0.490000
v 0.450000 1.043750 0.490000
v 0.450000 0.778125 0.510000
v 0.550000 0.778125 0.510000
v 0.550000 1.043750 0.510000
v 0.450000 1.043750 0.510000
v 0.434375 0.778125 0.495000
v 0.453125 0.778125 0.495000
v 0.453125 1.043750 0.495000
v 0.434375 1.043750 0.495000
v 0.434375 0.778125 0.505000
v 0.453125 0.778125 0.505000
v 0.453125 1.043750 0.505000
v 0.434375 1.043750 0.505000
v 0.546875 0.778125 0.495000
v 0.565625 0.778125 0.495000
v 0.565625 1.043750 0.495000
v 0.546875 1.043750 0.495000
v 0.546875 0.778125 0.505000
v 0.565625 0.778125 0.505000
v 0.565625 1.043750 0.505000
v 0.546875 1.043750 0.505000
v 0.481250 1.040625 0.487500
v 0.518750 1.040625 0.487500
v 0.518750 1.218750 0.487500
v 0.481250 1.218750 0.487500
v 0.481250 1.040625 0.512500
v 0.518750 1.040625 0.512500
v 0.518750 1.218750 0.512500
v 0.481250 1.218750 0.512500
v 0.465625 1.040625 0.492500
v 0.534375 1.040625 0.492500
v 0.534375 1.218750 0.492500
v 0.465625 1.218750 0.492500
v 0.465625 1.040625 0.507500
v 0.534375 1.040625 0.507500
v 0.534375 1.218750 0.507500
v 0.465625 1.218750 0.507500
v 0.453125 1.040625 0.496250
v 0.468750 1.040625 0.496250
v 0.468750 1.218750 0.496250
v 0.453125 1.218750 0.496250
v 0.453125 1.040625 0.503750
v 0.468750 1.040625 0.503750
v 0.468750 1.218750 0.503750
v 0.453125 1.218750 0.503750
v 0.531250 1.040625 0.496250
v 0.546875 1.040625 0.496250
v 0.546875 1.218750 0.496250
v 0.531250 1.218750 0.496250
v 0.531250 1.040625 0.503750
v 0.546875 1.040625 0.503750
v 0.546875 1.218750 0.503750
v 0.531250 1.218750 0.503750
v 0.488750 1.215625 0.491250
v 0.511250 1.215625 0.491250
v 0.511250 1.293750 0.491250
v 0.488750 1.293750 0.491250
v 0.488750 1.215625 0.508750
v 0.511250 1.215625 0.508750
v 0.511250 1.293750 0.508750
v 0.488750 1.293750 0.508750
v 0.480000 1.215625 0.495000
v 0.520000 1.215625 0.495000
v 0.520000 1.293750 0.495000
v 0.480000 1.293750 0.495000
v 0.480000 1.215625 0.505000
v 0.520000 1.215625 0.505000
v 0.520000 1.293750 0.505000
v 0.480000 1.293750 0.505000
v 0.492500 1.290625 0.495000
v 0.507500 1.290625 0.495000
v 0.507500 1.318750 0.495000
v 0.492500 1.318750 0.495000
v 0.492500 1.290625 0.505000
v 0.507500 1.290625 0.505000
v 0.507500 1.318750 0.505000
v 0.492500 1.318750 0.505000
vt 0.000000 0.406250
vt 0.093750 0.406250
vt 0.093750 0.500000
vt 0.000000 0.500000
vn 0.000000 0.000000 1.000000
vt 0.000000 0.406250
vt 0.093750 0.406250
vt 0.093750 0.500000
vt 0.000000 0.500000
vn 0.000000 0.000000 -1.000000
vt 0.000000 0.406250
vt 0.093750 0.406250
vt 0.093750 0.500000
vt 0.000000 0.500000
vn -1.000000 0.000000 0.000000
vt 0.000000 0.406250
vt 0.093750 0.406250
vt 0.093750 0.500000
vt 0.000000 0.500000
vn 1.000000 0.000000 0.000000
vt 0.000000 0.406250
vt 0.093750 0.406250
vt 0.093750 0.500000
vt 0.000000 0.500000
vn 0.000000 1.000000 0.000000
vt 0.000000 0.406250
vt 0.093750 0.406250
vt 0.093750 0.500000
vt 0.000000 0.500000
vn 0.000000 -1.000000 0.000000
vt 0.109375 0.406250
vt 0.203125 0.406250
vt 0.203125 0.500000
vt 0.109375 0.500000
vn 0.707107 0.000000 0.707107
vt 0.109375 0.406250
vt 0.203125 0.406250
vt 0.203125 0.500000
vt 0.109375 0.500000
vn -0.707107 0.000000 -0.707107
vt 0.109375 0.406250
vt 0.203125 0.406250
vt 0.203125 0.500000
vt 0.109375 0.500000
vn -0.707107 0.000000 0.707107
vt 0.109375 0.406250
vt 0.203125 0.406250
vt 0.203125 0.500000
vt 0.109375 0.500000
vn 0.707107 0.000000 -0.707107
vt 0.109375 0.406250
vt 0.203125 0.406250
vt 0.203125 0.500000
vt 0.109375 0.500000
vn 0.000000 1.000000 0.000000
vt 0.109375 0.406250
vt 0.203125 0.406250
vt 0.203125 0.500000
vt 0.109375 0.500000
vn 0.000000 -1.000000 0.000000
vt 0.218750 0.406250
vt 0.312500 0.406250
vt 0.312500 0.500000
vt 0.218750 0.500000
vn 0.000000 0.000000 1.000000
vt 0.218750 0.406250
vt 0.312500 0.406250
vt 0.312500 0.500000
vt 0.218750 0.500000
vn 0.000000 0.000000 -1.000000
vt 0.218750 0.406250
vt 0.312500 0.406250
vt 0.312500 0.500000
vt 0.218750 0.500000
vn -1.000000 0.000000 0.000000
vt 0.218750 0.406250
vt 0.312500 0.406250
vt 0.312500 0.500000
vt 0.218750 0.500000
vn 1.000000 0.000000 0.000000
vt 0.218750 0.406250
vt 0.312500 0.406250
vt 0.312500 0.500000
vt 0.218750 0.500000
vn 0.000000 1.000000 0.000000
vt 0.218750 0.406250
vt 0.312500 0.406250
vt 0.312500 0.500000
vt 0.218750 0.500000
vn 0.000000 -1.000000 0.000000
vt 0.328125 0.406250
vt 0.421875 0.406250
vt 0.421875 0.500000
vt 0.328125 0.500000
vn 0.707107 0.000000 0.707107
vt 0.328125 0.406250
vt 0.421875 0.406250
vt 0.421875 0.500000
vt 0.328125 0.500000
vn -0.707107 0.000000 -0.707107
vt 0.328125 0.406250
vt 0.421875 0.406250
vt 0.421875 0.500000
vt 0.328125 0.500000
vn -0.707107 0.000000 0.707107
vt 0.328125 0.406250
vt 0.421875 0.406250
vt 0.421875 0.500000
vt 0.328125 0.500000
vn 0.707107 0.000000 -0.707107
vt 0.328125 0.406250
vt 0.421875 0.406250
vt 0.421875 0.500000
vt 0.328125 0.500000
vn 0.000000 1.000000 0.000000
vt 0.328125 0.406250
vt 0.421875 0.406250
vt 0.421875 0.500000
vt 0.328125 0.500000
vn 0.000000 -1.000000 0.000000
vt 0.000000 0.296875
vt 0.093750 0.296875
vt 0.093750 0.390625
vt 0.000000 0.390625
vn 0.000000 0.000000 1.000000
vt 0.000000 0.296875
vt 0.093750 0.296875
vt 0.093750 0.390625
vt 0.000000 0.390625
vn 0.000000 0.000000 -1.000000
vt 0.000000 0.296875
vt 0.093750 0.296875
vt 0.093750 0.390625
vt 0.000000 0.390625
vn -1.000000 0.000000 0.000000
vt 0.000000 0.296875
vt 0.093750 0.296875
vt 0.093750 0.390625
vt 0.000000 0.390625
vn 1.000000 0.000000 0.000000
vt 0.000000 0.296875
vt 0.093750 0.296875
vt 0.093750 0.390625
vt 0.000000 0.390625
vn 0.000000 1.000000 0.000000
vt 0.000000 0.296875
vt 0.093750 0.296875
vt 0.093750 0.390625
vt 0.000000 0.390625
vn 0.000000 -1.000000 0.000000
vt 0.609375 0.296875
vt 0.703125 0.296875
vt 0.703125 0.390625
vt 0.609375 0.390625
vn 0.000000 0.000000 1.000000
vt 0.609375 0.296875
vt 0.703125 0.296875
vt 0.703125 0.390625
vt 0.609375 0.390625
vn 0.000000 0.000000 -1.000000
vt 0.609375 0.296875
vt 0.703125 0.296875
vt 0.703125 0.390625
vt 0.609375 0.390625
vn -1.000000 0.000000 0.000000
vt 0.609375 0.296875
vt 0.703125 0.296875
vt 0.703125 0.390625
vt 0.609375 0.390625
vn 1.000000 0.000000 0.000000
vt 0.609375 0.296875
vt 0.703125 0.296875
vt 0.703125 0.390625
vt 0.609375 0.390625
vn 0.000000 1.000000 0.000000
vt 0.609375 0.296875
vt 0.703125 0.296875
vt 0.703125 0.390625
vt 0.609375 0.390625
vn 0.000000 -1.000000 0.000000
vt 0.718750 0.296875
vt 0.812500 0.296875
vt 0.812500 0.390625
vt 0.718750 0.390625
vn 0.000000 0.000000 1.000000
vt 0.718750 0.296875
vt 0.812500 0.296875
vt 0.812500 0.390625
vt 0.718750 0.390625
vn 0.000000 0.000000 -1.000000
vt 0.718750 0.296875
vt 0.812500 0.296875
vt 0.812500 0.390625
vt 0.718750 0.390625
vn -1.000000 0.000000 0.000000
vt 0.718750 0.296875
vt 0.812500 0.296875
vt 0.812500 0.390625
vt 0.718750 0.390625
vn 1.000000 0.000000 0.000000
vt 0.718750 0.296875
vt 0.812500 0.296875
vt 0.812500 0.390625
vt 0.718750 0.390625
vn 0.000000 1.000000 0.000000
vt 0.718750 0.296875
vt 0.812500 0.296875
vt 0.812500 0.390625
vt 0.718750 0.390625
vn 0.000000 -1.000000 0.000000
vt 0.828125 0.296875
vt 0.921875 0.296875
vt 0.921875 0.390625
vt 0.828125 0.390625
vn 0.000000 0.000000 1.000000
vt 0.828125 0.296875
vt 0.921875 0.296875
vt 0.921875 0.390625
vt 0.828125 0.390625
vn 0.000000 0.000000 -1.000000
vt 0.828125 0.296875
vt 0.921875 0.296875
vt 0.921875 0.390625
vt 0.828125 0.390625
vn -1.000000 0.000000 0.000000
vt 0.828125 0.296875
vt 0.921875 0.296875
vt 0.921875 0.390625
vt 0.828125 0.390625
vn 1.000000 0.000000 0.000000
vt 0.828125 0.296875
vt 0.921875 0.296875
vt 0.921875 0.390625
vt 0.828125 0.390625
vn 0.000000 1.000000 0.000000
vt 0.828125 0.296875
vt 0.921875 0.296875
vt 0.921875 0.390625
vt 0.828125 0.390625
vn 0.000000 -1.000000 0.000000
vt 0.500000 0.687500
vt 0.593750 0.687500
vt 0.593750 0.781250
vt 0.500000 0.781250
vn 0.000000 0.000000 1.000000
vt 0.500000 0.687500
vt 0.593750 0.687500
vt 0.593750 0.781250
vt 0.500000 0.781250
vn 0.000000 0.000000 -1.000000
vt 0.500000 0.687500
vt 0.593750 0.687500
vt 0.593750 0.781250
vt 0.500000 0.781250
vn -1.000000 0.000000 0.000000
vt 0.500000 0.687500
vt 0.593750 0.687500
vt 0.593750 0.781250
vt 0.500000 0.781250
vn 1.000000 0.000000 0.000000
vt 0.500000 0.687500
vt 0.593750 0.687500
vt 0.593750 0.781250
vt 0.500000 0.781250
vn 0.000000 1.000000 0.000000
vt 0.500000 0.687500
vt 0.593750 0.687500
vt 0.593750 0.781250
vt 0.500000 0.781250
vn 0.000000 -1.000000 0.000000
vt 0.609375 0.687500
vt 0.703125 0.687500
vt 0.703125 0.781250
vt 0.609375 0.781250
vn 0.000000 0.000000 1.000000
vt 0.609375 0.687500
vt 0.703125 0.687500
vt 0.703125 0.781250
vt 0.609375 0.781250
vn 0.000000 0.000000 -1.000000
vt 0.609375 0.687500
vt 0.703125 0.687500
vt 0.703125 0.781250
vt 0.609375 0.781250
vn -1.000000 0.000000 0.000000
vt 0.609375 0.687500
vt 0.703125 0.687500
vt 0.703125 0.781250
vt 0.609375 0.781250
vn 1.000000 0.000000 0.000000
vt 0.609375 0.687500
vt 0.703125 0.687500
vt 0.703125 0.781250
vt 0.609375 0.781250
vn 0.000000 1.000000 0.000000
vt 0.609375 0.687500
vt 0.703125 0.687500
vt 0.703125 0.781250
vt 0.609375 0.781250
vn 0.000000 -1.000000 0.000000
vt 0.718750 0.687500
vt 0.812500 0.687500
vt 0.812500 0.781250
vt 0.718750 0.781250
vn 0.000000 0.000000 1.000000
vt 0.718750 0.687500
vt 0.812500 0.687500
vt 0.812500 0.781250
vt 0.718750 0.781250
vn 0.000000 0.000000 -1.000000
vt 0.718750 0.687500
vt 0.812500 0.687500
vt 0.812500 0.781250
vt 0.718750 0.781250
vn -1.000000 0.000000 0.000000
vt 0.718750 0.687500
vt 0.812500 0.687500
vt 0.812500 0.781250
vt 0.718750 0.781250
vn 1.000000 0.000000 0.000000
vt 0.718750 0.687500
vt 0.812500 0.687500
vt 0.812500 0.781250
vt 0.718750 0.781250
vn 0.000000 1.000000 0.000000
vt 0.718750 0.687500
vt 0.812500 0.687500
vt 0.812500 0.781250
vt 0.718750 0.781250
vn 0.000000 -1.000000 0.000000
vt 0.828125 0.687500
vt 0.921875 0.687500
vt 0.921875 0.781250
vt 0.828125 0.781250
vn 0.000000 0.000000 1.000000
vt 0.828125 0.687500
vt 0.921875 0.687500
vt 0.921875 0.781250
vt 0.828125 0.781250
vn 0.000000 0.000000 -1.000000
vt 0.828125 0.687500
vt 0.921875 0.687500
vt 0.921875 0.781250
vt 0.828125 0.781250
vn -1.000000 0.000000 0.000000
vt 0.828125 0.687500
vt 0.921875 0.687500
vt 0.921875 0.781250
vt 0.828125 0.781250
vn 1.000000 0.000000 0.000000
vt 0.828125 0.687500
vt 0.921875 0.687500
vt 0.921875 0.781250
vt 0.828125 0.781250
vn 0.000000 1.000000 0.000000
vt 0.828125 0.687500
vt 0.921875 0.687500
vt 0.921875 0.781250
vt 0.828125 0.781250
vn 0.000000 -1.000000 0.000000
vt 0.500000 0.578125
vt 0.593750 0.578125
vt 0.593750 0.671875
vt 0.500000 0.671875
vn 0.000000 0.000000 1.000000
vt 0.500000 0.578125
vt 0.593750 0.578125
vt 0.593750 0.671875
vt 0.500000 0.671875
vn 0.000000 0.000000 -1.000000
vt 0.500000 0.578125
vt 0.593750 0.578125
vt 0.593750 0.671875
vt 0.500000 0.671875
vn -1.000000 0.000000 0.000000
vt 0.500000 0.578125
vt 0.593750 0.578125
vt 0.593750 0.671875
vt 0.500000 0.671875
vn 1.000000 0.000000 0.000000
vt 0.500000 0.578125
vt 0.593750 0.578125
vt 0.593750 0.671875
vt 0.500000 0.671875
vn 0.000000 1.000000 0.000000
vt 0.500000 0.578125
vt 0.593750 0.578125
vt 0.593750 0.671875
vt 0.500000 0.671875
vn 0.000000 -1.000000 0.000000
vt 0.109375 0.078125
vt 0.203125 0.078125
vt 0.203125 0.171875
vt 0.109375 0.171875
vn 0.000000 0.000000 1.000000
vt 0.109375 0.078125
vt 0.203125 0.078125
vt 0.203125 0.171875
vt 0.109375 0.171875
vn 0.000000 0.000000 -1.000000
vt 0.109375 0.078125
vt 0.203125 0.078125
vt 0.203125 0.171875
vt 0.109375 0.171875
vn -1.000000 0.000000 0.000000
vt 0.109375 0.078125
vt 0.203125 0.078125
vt 0.203125 0.171875
vt 0.109375 0.171875
vn 1.000000 0.000000 0.000000
vt 0.109375 0.078125
vt 0.203125 0.078125
vt 0.203125 0.171875
vt 0.109375 0.171875
vn 0.000000 1.000000 0.000000
vt 0.109375 0.078125
vt 0.203125 0.078125
vt 0.203125 0.171875
vt 0.109375 0.171875
vn 0.000000 -1.000000 0.000000
vt 0.218750 0.078125
vt 0.312500 0.078125
vt 0.312500 0.171875
vt 0.218750 0.171875
vn 0.000000 0.000000 1.000000
vt 0.218750 0.078125
vt 0.312500 0.078125
vt 0.312500 0.171875
vt 0.218750 0.171875
vn 0.000000 0.000000 -1.000000
vt 0.218750 0.078125
vt 0.312500 0.078125
vt 0.312500 0.171875
vt 0.218750 0.171875
vn -1.000000 0.000000 0.000000
vt 0.218750 0.078125
vt 0.312500 0.078125
vt 0.312500 0.171875
vt 0.218750 0.171875
vn 1.000000 0.000000 0.000000
vt 0.218750 0.078125
vt 0.312500 0.078125
vt 0.312500 0.171875
vt 0.218750 0.171875
vn 0.000000 1.000000 0.000000
vt 0.218750 0.078125
vt 0.312500 0.078125
vt 0.312500 0.171875
vt 0.218750 0.171875
vn 0.000000 -1.000000 0.000000
vt 0.328125 0.078125
vt 0.421875 0.078125
vt 0.421875 0.171875
vt 0.328125 0.171875
vn 0.000000 0.000000 1.000000
vt 0.328125 0.078125
vt 0.421875 0.078125
vt 0.421875 0.171875
vt 0.328125 0.171875
vn 0.000000 0.000000 -1.000000
vt 0.328125 0.078125
vt 0.421875 0.078125
vt 0.421875 0.171875
vt 0.328125 0.171875
vn -1.000000 0.000000 0.000000
vt 0.328125 0.078125
vt 0.421875 0.078125
vt 0.421875 0.171875
vt 0.328125 0.171875
vn 1.000000 0.000000 0.000000
vt 0.328125 0.078125
vt 0.421875 0.078125
vt 0.421875 0.171875
vt 0.328125 0.171875
vn 0.000000 1.000000 0.000000
vt 0.328125 0.078125
vt 0.421875 0.078125
vt 0.421875 0.171875
vt 0.328125 0.171875
vn 0.000000 -1.000000 0.000000
vt 0.000000 0.406250
vt 0.093750 0.406250
vt 0.093750 0.500000
vt 0.000000 0.500000
vn 0.000000 0.000000 1.000000
vt 0.000000 0.406250
vt 0.093750 0.406250
vt 0.093750 0.500000
vt 0.000000 0.500000
vn 0.000000 0.000000 -1.000000
vt 0.000000 0.406250
vt 0.093750 0.406250
vt 0.093750 0.500000
vt 0.000000 0.500000
vn -1.000000 0.000000 0.000000
vt 0.000000 0.406250
vt 0.093750 0.406250
vt 0.093750 0.500000
vt 0.000000 0.500000
vn 1.000000 0.000000 0.000000
vt 0.000000 0.406250
vt 0.093750 0.406250
vt 0.093750 0.500000
vt 0.000000 0.500000
vn 0.000000 1.000000 0.000000
vt 0.000000 0.406250
vt 0.093750 0.406250
vt 0.093750 0.500000
vt 0.000000 0.500000
vn 0.000000 -1.000000 0.000000
vt 0.109375 0.406250
vt 0.203125 0.406250
vt 0.203125 0.500000
vt 0.109375 0.500000
vn 0.000000 0.000000 1.000000
vt 0.109375 0.406250
vt 0.203125 0.406250
vt 0.203125 0.500000
vt 0.109375 0.500000
vn 0.000000 0.000000 -1.000000
vt 0.109375 0.406250
vt 0.203125 0.406250
vt 0.203125 0.500000
vt 0.109375 0.500000
vn -1.000000 0.000000 0.000000
vt 0.109375 0.406250
vt 0.203125 0.406250
vt 0.203125 0.500000
vt 0.109375 0.500000
vn 1.000000 0.000000 0.000000
vt 0.109375 0.406250
vt 0.203125 0.406250
vt 0.203125 0.500000
vt 0.109375 0.500000
vn 0.000000 1.000000 0.000000
vt 0.109375 0.406250
vt 0.203125 0.406250
vt 0.203125 0.500000
vt 0.109375 0.500000
vn 0.000000 -1.000000 0.000000
vt 0.218750 0.906250
vt 0.312500 0.906250
vt 0.312500 1.000000
vt 0.218750 1.000000
vn 0.000000 0.000000 1.000000
vt 0.218750 0.906250
vt 0.312500 0.906250
vt 0.312500 1.000000
vt 0.218750 1.000000
vn 0.000000 0.000000 -1.000000
vt 0.218750 0.906250
vt 0.312500 0.906250
vt 0.312500 1.000000
vt 0.218750 1.000000
vn -1.000000 0.000000 0.000000
vt 0.218750 0.906250
vt 0.312500 0.906250
vt 0.312500 1.000000
vt 0.218750 1.000000
vn 1.000000 0.000000 0.000000
vt 0.218750 0.906250
vt 0.312500 0.906250
vt 0.312500 1.000000
vt 0.218750 1.000000
vn 0.000000 1.000000 0.000000
vt 0.218750 0.906250
vt 0.312500 0.906250
vt 0.312500 1.000000
vt 0.218750 1.000000
vn 0.000000 -1.000000 0.000000
vt 0.328125 0.906250
vt 0.421875 0.906250
vt 0.421875 1.000000
vt 0.328125 1.000000
vn 0.000000 0.000000 1.000000
vt 0.328125 0.906250
vt 0.421875 0.906250
vt 0.421875 1.000000
vt 0.328125 1.000000
vn 0.000000 0.000000 -1.000000
vt 0.328125 0.906250
vt 0.421875 0.906250
vt 0.421875 1.000000
vt 0.328125 1.000000
vn -1.000000 0.000000 0.000000
vt 0.328125 0.906250
vt 0.421875 0.906250
vt 0.421875 1.000000
vt 0.328125 1.000000
vn 1.000000 0.000000 0.000000
vt 0.328125 0.906250
vt 0.421875 0.906250
vt 0.421875 1.000000
vt 0.328125 1.000000
vn 0.000000 1.000000 0.000000
vt 0.328125 0.906250
vt 0.421875 0.906250
vt 0.421875 1.000000
vt 0.328125 1.000000
vn 0.000000 -1.000000 0.000000
vt 0.000000 0.796875
vt 0.093750 0.796875
vt 0.093750 0.890625
vt 0.000000 0.890625
vn 0.000000 0.000000 1.000000
vt 0.000000 0.796875
vt 0.093750 0.796875
vt 0.093750 0.890625
vt 0.000000 0.890625
vn 0.000000 0.000000 -1.000000
vt 0.000000 0.796875
vt 0.093750 0.796875
vt 0.093750 0.890625
vt 0.000000 0.890625
vn -1.000000 0.000000 0.000000
vt 0.000000 0.796875
vt 0.093750 0.796875
vt 0.093750 0.890625
vt 0.000000 0.890625
vn 1.000000 0.000000 0.000000
vt 0.000000 0.796875
vt 0.093750 0.796875
vt 0.093750 0.890625
vt 0.000000 0.890625
vn 0.000000 1.000000 0.000000
vt 0.000000 0.796875
vt 0.093750 0.796875
vt 0.093750 0.890625
vt 0.000000 0.890625
vn 0.000000 -1.000000 0.000000
vt 0.109375 0.796875
vt 0.203125 0.796875
vt 0.203125 0.890625
vt 0.109375 0.890625
vn 0.000000 0.000000 1.000000
vt 0.109375 0.796875
vt 0.203125 0.796875
vt 0.203125 0.890625
vt 0.109375 0.890625
vn 0.000000 0.000000 -1.000000
vt 0.109375 0.796875
vt 0.203125 0.796875
vt 0.203125 0.890625
vt 0.109375 0.890625
vn -1.000000 0.000000 0.000000
vt 0.109375 0.796875
vt 0.203125 0.796875
vt 0.203125 0.890625
vt 0.109375 0.890625
vn 1.000000 0.000000 0.000000
vt 0.109375 0.796875
vt 0.203125 0.796875
vt 0.203125 0.890625
vt 0.109375 0.890625
vn 0.000000 1.000000 0.000000
vt 0.109375 0.796875
vt 0.203125 0.796875
vt 0.203125 0.890625
vt 0.109375 0.890625
vn 0.000000 -1.000000 0.000000
vt 0.218750 0.796875
vt 0.312500 0.796875
vt 0.312500 0.890625
vt 0.218750 0.890625
vn 0.000000 0.000000 1.000000
vt 0.218750 0.796875
vt 0.312500 0.796875
vt 0.312500 0.890625
vt 0.218750 0.890625
vn 0.000000 0.000000 -1.000000
vt 0.218750 0.796875
vt 0.312500 0.796875
vt 0.312500 0.890625
vt 0.218750 0.890625
vn -1.000000 0.000000 0.000000
vt 0.218750 0.796875
vt 0.312500 0.796875
vt 0.312500 0.890625
vt 0.218750 0.890625
vn 1.000000 0.000000 0.000000
vt 0.218750 0.796875
vt 0.312500 0.796875
vt 0.312500 0.890625
vt 0.218750 0.890625
vn 0.000000 1.000000 0.000000
vt 0.218750 0.796875
vt 0.312500 0.796875
vt 0.312500 0.890625
vt 0.218750 0.890625
vn 0.000000 -1.000000 0.000000
vt 0.328125 0.796875
vt 0.421875 0.796875
vt 0.421875 0.890625
vt 0.328125 0.890625
vn 0.000000 0.000000 1.000000
vt 0.328125 0.796875
vt 0.421875 0.796875
vt 0.421875 0.890625
vt 0.328125 0.890625
vn 0.000000 0.000000 -1.000000
vt 0.328125 0.796875
vt 0.421875 0.796875
vt 0.421875 0.890625
vt 0.328125 0.890625
vn -1.000000 0.000000 0.000000
vt 0.328125 0.796875
vt 0.421875 0.796875
vt 0.421875 0.890625
vt 0.328125 0.890625
vn 1.000000 0.000000 0.000000
vt 0.328125 0.796875
vt 0.421875 0.796875
vt 0.421875 0.890625
vt 0.328125 0.890625
vn 0.000000 1.000000 0.000000
vt 0.328125 0.796875
vt 0.421875 0.796875
vt 0.421875 0.890625
vt 0.328125 0.890625
vn 0.000000 -1.000000 0.000000
vt 0.000000 0.687500
vt 0.093750 0.687500
vt 0.093750 0.781250
vt 0.000000 0.781250
vn 0.000000 0.000000 1.000000
vt 0.000000 0.687500
vt 0.093750 0.687500
vt 0.093750 0.781250
vt 0.000000 0.781250
vn 0.000000 0.000000 -1.000000
vt 0.000000 0.687500
vt 0.093750 0.687500
vt 0.093750 0.781250
vt 0.000000 0.781250
vn -1.000000 0.000000 0.000000
vt 0.000000 0.687500
vt 0.093750 0.687500
vt 0.093750 0.781250
vt 0.000000 0.781250
vn 1.000000 0.000000 0.000000
vt 0.000000 0.687500
vt 0.093750 0.687500
vt 0.093750 0.781250
vt 0.000000 0.781250
vn 0.000000 1.000000 0.000000
vt 0.000000 0.687500
vt 0.093750 0.687500
vt 0.093750 0.781250
vt 0.000000 0.781250
vn 0.000000 -1.000000 0.000000
vt 0.109375 0.687500
vt 0.203125 0.687500
vt 0.203125 0.781250
vt 0.109375 0.781250
vn 0.000000 0.000000 1.000000
vt 0.109375 0.687500
vt 0.203125 0.687500
vt 0.203125 0.781250
vt 0.109375 0.781250
vn 0.000000 0.000000 -1.000000
vt 0.109375 0.687500
vt 0.203125 0.687500
vt 0.203125 0.781250
vt 0.109375 0.781250
vn -1.000000 0.000000 0.000000
vt 0.109375 0.687500
vt 0.203125 0.687500
vt 0.203125 0.781250
vt 0.109375 0.781250
vn 1.000000 0.000000 0.000000
vt 0.109375 0.687500
vt 0.203125 0.687500
vt 0.203125 0.781250
vt 0.109375 0.781250
vn 0.000000 1.000000 0.000000
vt 0.109375 0.687500
vt 0.203125 0.687500
vt 0.203125 0.781250
vt 0.109375 0.781250
vn 0.000000 -1.000000 0.000000
vt 0.218750 0.687500
vt 0.312500 0.687500
vt 0.312500 0.781250
vt 0.218750 0.781250
vn 0.000000 0.000000 1.000000
vt 0.218750 0.687500
vt 0.312500 0.687500
vt 0.312500 0.781250
vt 0.218750 0.781250
vn 0.000000 0.000000 -1.000000
vt 0.218750 0.687500
vt 0.312500 0.687500
vt 0.312500 0.781250
vt 0.218750 0.781250
vn -1.000000 0.000000 0.000000
vt 0.218750 0.687500
vt 0.312500 0.687500
vt 0.312500 0.781250
vt 0.218750 0.781250
vn 1.000000 0.000000 0.000000
vt 0.218750 0.687500
vt 0.312500 0.687500
vt 0.312500 0.781250
vt 0.218750 0.781250
vn 0.000000 1.000000 0.000000
vt 0.218750 0.687500
vt 0.312500 0.687500
vt 0.312500 0.781250
vt 0.218750 0.781250
vn 0.000000 -1.000000 0.000000
vt 0.328125 0.687500
vt 0.421875 0.687500
vt 0.421875 0.781250
vt 0.328125 0.781250
vn 0.000000 0.000000 1.000000
vt 0.328125 0.687500
vt 0.421875 0.687500
vt 0.421875 0.781250
vt 0.328125 0.781250
vn 0.000000 0.000000 -1.000000
vt 0.328125 0.687500
vt 0.421875 0.687500
vt 0.421875 0.781250
vt 0.328125 0.781250
vn -1.000000 0.000000 0.000000
vt 0.328125 0.687500
vt 0.421875 0.687500
vt 0.421875 0.781250
vt 0.328125 0.781250
vn 1.000000 0.000000 0.000000
vt 0.328125 0.687500
vt 0.421875 0.687500
vt 0.421875 0.781250
vt 0.328125 0.781250
vn 0.000000 1.000000 0.000000
vt 0.328125 0.687500
vt 0.421875 0.687500
vt 0.421875 0.781250
vt 0.328125 0.781250
vn 0.000000 -1.000000 0.000000
vt 0.000000 0.578125
vt 0.093750 0.578125
vt 0.093750 0.671875
vt 0.000000 0.671875
vn 0.000000 0.000000 1.000000
vt 0.000000 0.578125
vt 0.093750 0.578125
vt 0.093750 0.671875
vt 0.000000 0.671875
vn 0.000000 0.000000 -1.000000
vt 0.000000 0.578125
vt 0.093750 0.578125
vt 0.093750 0.671875
vt 0.000000 0.671875
vn -1.000000 0.000000 0.000000
vt 0.000000 0.578125
vt 0.093750 0.578125
vt 0.093750 0.671875
vt 0.000000 0.671875
vn 1.000000 0.000000 0.000000
vt 0.000000 0.578125
vt 0.093750 0.578125
vt 0.093750 0.671875
vt 0.000000 0.671875
vn 0.000000 1.000000 0.000000
vt 0.000000 0.578125
vt 0.093750 0.578125
vt 0.093750 0.671875
vt 0.000000 0.671875
vn 0.000000 -1.000000 0.000000
vt 0.109375 0.578125
vt 0.203125 0.578125
vt 0.203125 0.671875
vt 0.109375 0.671875
vn 0.000000 0.000000 1.000000
vt 0.109375 0.578125
vt 0.203125 0.578125
vt 0.203125 0.671875
vt 0.109375 0.671875
vn 0.000000 0.000000 -1.000000
vt 0.109375 0.578125
vt 0.203125 0.578125
vt 0.203125 0.671875
vt 0.109375 0.671875
vn -1.000000 0.000000 0.000000
vt 0.109375 0.578125
vt 0.203125 0.578125
vt 0.203125 0.671875
vt 0.109375 0.671875
vn 1.000000 0.000000 0.000000
vt 0.109375 0.578125
vt 0.203125 0.578125
vt 0.203125 0.671875
vt 0.109375 0.671875
vn 0.000000 1.000000 0.000000
vt 0.109375 0.578125
vt 0.203125 0.578125
vt 0.203125 0.671875
vt 0.109375 0.671875
vn 0.000000 -1.000000 0.000000
vt 0.218750 0.578125
vt 0.312500 0.578125
vt 0.312500 0.671875
vt 0.218750 0.671875
vn 0.000000 0.000000 1.000000
vt 0.218750 0.578125
vt 0.312500 0.578125
vt 0.312500 0.671875
vt 0.218750 0.671875
vn 0.000000 0.000000 -1.000000
vt 0.218750 0.578125
vt 0.312500 0.578125
vt 0.312500 0.671875
vt 0.218750 0.671875
vn -1.000000 0.000000 0.000000
vt 0.218750 0.578125
vt 0.312500 0.578125
vt 0.312500 0.671875
vt 0.218750 0.671875
vn 1.000000 0.000000 0.000000
vt 0.218750 0.578125
vt 0.312500 0.578125
vt 0.312500 0.671875
vt 0.218750 0.671875
vn 0.000000 1.000000 0.000000
vt 0.218750 0.578125
vt 0.312500 0.578125
vt 0.312500 0.671875
vt 0.218750 0.671875
vn 0.000000 -1.000000 0.000000
vt 0.328125 0.578125
vt 0.421875 0.578125
vt 0.421875 0.671875
vt 0.328125 0.671875
vn 0.000000 0.000000 1.000000
vt 0.328125 0.578125
vt 0.421875 0.578125
vt 0.421875 0.671875
vt 0.328125 0.671875
vn 0.000000 0.000000 -1.000000
vt 0.328125 0.578125
vt 0.421875 0.578125
vt 0.421875 0.671875
vt 0.328125 0.671875
vn -1.000000 0.000000 0.000000
vt 0.328125 0.578125
vt 0.421875 0.578125
vt 0.421875 0.671875
vt 0.328125 0.671875
vn 1.000000 0.000000 0.000000
vt 0.328125 0.578125
vt 0.421875 0.578125
vt 0.421875 0.671875
vt 0.328125 0.671875
vn 0.000000 1.000000 0.000000
vt 0.328125 0.578125
vt 0.421875 0.578125
vt 0.421875 0.671875
vt 0.328125 0.671875
vn 0.000000 -1.000000 0.000000
# part: pommel_cap_0
usemtl iron_dagger_atlas
f 5/1/1 6/2/1 7/3/1 8/4/1
f 2/5/2 1/6/2 4/7/2 3/8/2
f 1/9/3 5/10/3 8/11/3 4/12/3
f 6/13/4 2/14/4 3/15/4 7/16/4
f 8/17/5 7/18/5 3/19/5 4/20/5
f 1/21/6 2/22/6 6/23/6 5/24/6
# part: pommel_cap_45
usemtl iron_dagger_atlas
f 13/25/7 14/26/7 15/27/7 16/28/7
f 10/29/8 9/30/8 12/31/8 11/32/8
f 9/33/9 13/34/9 16/35/9 12/36/9
f 14/37/10 10/38/10 11/39/10 15/40/10
f 16/41/11 15/42/11 11/43/11 12/44/11
f 9/45/12 10/46/12 14/47/12 13/48/12
# part: pommel_ring_0
usemtl iron_dagger_atlas
f 21/49/13 22/50/13 23/51/13 24/52/13
f 18/53/14 17/54/14 20/55/14 19/56/14
f 17/57/15 21/58/15 24/59/15 20/60/15
f 22/61/16 18/62/16 19/63/16 23/64/16
f 24/65/17 23/66/17 19/67/17 20/68/17
f 17/69/18 18/70/18 22/71/18 21/72/18
# part: pommel_ring_45
usemtl iron_dagger_atlas
f 29/73/19 30/74/19 31/75/19 32/76/19
f 26/77/20 25/78/20 28/79/20 27/80/20
f 25/81/21 29/82/21 32/83/21 28/84/21
f 30/85/22 26/86/22 27/87/22 31/88/22
f 32/89/23 31/90/23 27/91/23 28/92/23
f 25/93/24 26/94/24 30/95/24 29/96/24
# part: pommel_rivet
usemtl iron_dagger_atlas
f 37/97/25 38/98/25 39/99/25 40/100/25
f 34/101/26 33/102/26 36/103/26 35/104/26
f 33/105/27 37/106/27 40/107/27 36/108/27
f 38/109/28 34/110/28 35/111/28 39/112/28
f 40/113/29 39/114/29 35/115/29 36/116/29
f 33/117/30 34/118/30 38/119/30 37/120/30
# part: grip_core_low
usemtl iron_dagger_atlas
f 45/121/31 46/122/31 47/123/31 48/124/31
f 42/125/32 41/126/32 44/127/32 43/128/32
f 41/129/33 45/130/33 48/131/33 44/132/33
f 46/133/34 42/134/34 43/135/34 47/136/34
f 48/137/35 47/138/35 43/139/35 44/140/35
f 41/141/36 42/142/36 46/143/36 45/144/36
# part: grip_core_mid
usemtl iron_dagger_atlas
f 53/145/37 54/146/37 55/147/37 56/148/37
f 50/149/38 49/150/38 52/151/38 51/152/38
f 49/153/39 53/154/39 56/155/39 52/156/39
f 54/157/40 50/158/40 51/159/40 55/160/40
f 56/161/41 55/162/41 51/163/41 52/164/41
f 49/165/42 50/166/42 54/167/42 53/168/42
# part: grip_core_up
usemtl iron_dagger_atlas
f 61/169/43 62/170/43 63/171/43 64/172/43
f 58/173/44 57/174/44 60/175/44 59/176/44
f 57/177/45 61/178/45 64/179/45 60/180/45
f 62/181/46 58/182/46 59/183/46 63/184/46
f 64/185/47 63/186/47 59/187/47 60/188/47
f 57/189/48 58/190/48 62/191/48 61/192/48
# part: grip_wrap_0
usemtl iron_dagger_atlas
f 69/193/49 70/194/49 71/195/49 72/196/49
f 66/197/50 65/198/50 68/199/50 67/200/50
f 65/201/51 69/202/51 72/203/51 68/204/51
f 70/205/52 66/206/52 67/207/52 71/208/52
f 72/209/53 71/210/53 67/211/53 68/212/53
f 65/213/54 66/214/54 70/215/54 69/216/54
# part: grip_wrap_1
usemtl iron_dagger_atlas
f 77/217/55 78/218/55 79/219/55 80/220/55
f 74/221/56 73/222/56 76/223/56 75/224/56
f 73/225/57 77/226/57 80/227/57 76/228/57
f 78/229/58 74/230/58 75/231/58 79/232/58
f 80/233/59 79/234/59 75/235/59 76/236/59
f 73/237/60 74/238/60 78/239/60 77/240/60
# part: grip_wrap_2
usemtl iron_dagger_atlas
f 85/241/61 86/242/61 87/243/61 88/244/61
f 82/245/62 81/246/62 84/247/62 83/248/62
f 81/249/63 85/250/63 88/251/63 84/252/63
f 86/253/64 82/254/64 83/255/64 87/256/64
f 88/257/65 87/258/65 83/259/65 84/260/65
f 81/261/66 82/262/66 86/263/66 85/264/66
# part: grip_wrap_3
usemtl iron_dagger_atlas
f 93/265/67 94/266/67 95/267/67 96/268/67
f 90/269/68 89/270/68 92/271/68 91/272/68
f 89/273/69 93/274/69 96/275/69 92/276/69
f 94/277/70 90/278/70 91/279/70 95/280/70
f 96/281/71 95/282/71 91/283/71 92/284/71
f 89/285/72 90/286/72 94/287/72 93/288/72
# part: grip_wrap_4
usemtl iron_dagger_atlas
f 101/289/73 102/290/73 103/291/73 104/292/73
f 98/293/74 97/294/74 100/295/74 99/296/74
f 97/297/75 101/298/75 104/299/75 100/300/75
f 102/301/76 98/302/76 99/303/76 103/304/76
f 104/305/77 103/306/77 99/307/77 100/308/77
f 97/309/78 98/310/78 102/311/78 101/312/78
# part: guard_collar
usemtl iron_dagger_atlas
f 109/313/79 110/314/79 111/315/79 112/316/79
f 106/317/80 105/318/80 108/319/80 107/320/80
f 105/321/81 109/322/81 112/323/81 108/324/81
f 110/325/82 106/326/82 107/327/82 111/328/82
f 112/329/83 111/330/83 107/331/83 108/332/83
f 105/333/84 106/334/84 110/335/84 109/336/84
# part: guard_cross
usemtl iron_dagger_atlas
f 117/337/85 118/338/85 119/339/85 120/340/85
f 114/341/86 113/342/86 116/343/86 115/344/86
f 113/345/87 117/346/87 120/347/87 116/348/87
f 118/349/88 114/350/88 115/351/88 119/352/88
f 120/353/89 119/354/89 115/355/89 116/356/89
f 113/357/90 114/358/90 118/359/90 117/360/90
# part: guard_tip_l
usemtl iron_dagger_atlas
f 125/361/91 126/362/91 127/363/91 128/364/91
f 122/365/92 121/366/92 124/367/92 123/368/92
f 121/369/93 125/370/93 128/371/93 124/372/93
f 126/373/94 122/374/94 123/375/94 127/376/94
f 128/377/95 127/378/95 123/379/95 124/380/95
f 121/381/96 122/382/96 126/383/96 125/384/96
# part: guard_tip_r
usemtl iron_dagger_atlas
f 133/385/97 134/386/97 135/387/97 136/388/97
f 130/389/98 129/390/98 132/391/98 131/392/98
f 129/393/99 133/394/99 136/395/99 132/396/99
f 134/397/100 130/398/100 131/399/100 135/400/100
f 136/401/101 135/402/101 131/403/101 132/404/101
f 129/405/102 130/406/102 134/407/102 133/408/102
# part: guard_blade_ferrule
usemtl iron_dagger_atlas
f 141/409/103 142/410/103 143/411/103 144/412/103
f 138/413/104 137/414/104 140/415/104 139/416/104
f 137/417/105 141/418/105 144/419/105 140/420/105
f 142/421/106 138/422/106 139/423/106 143/424/106
f 144/425/107 143/426/107 139/427/107 140/428/107
f 137/429/108 138/430/108 142/431/108 141/432/108
# part: blade_root_core
usemtl iron_dagger_atlas
f 149/433/109 150/434/109 151/435/109 152/436/109
f 146/437/110 145/438/110 148/439/110 147/440/110
f 145/441/111 149/442/111 152/443/111 148/444/111
f 150/445/112 146/446/112 147/447/112 151/448/112
f 152/449/113 151/450/113 147/451/113 148/452/113
f 145/453/114 146/454/114 150/455/114 149/456/114
# part: blade_root_edge_l
usemtl iron_dagger_atlas
f 157/457/115 158/458/115 159/459/115 160/460/115
f 154/461/116 153/462/116 156/463/116 155/464/116
f 153/465/117 157/466/117 160/467/117 156/468/117
f 158/469/118 154/470/118 155/471/118 159/472/118
f 160/473/119 159/474/119 155/475/119 156/476/119
f 153/477/120 154/478/120 158/479/120 157/480/120
# part: blade_root_edge_r
usemtl iron_dagger_atlas
f 165/481/121 166/482/121 167/483/121 168/484/121
f 162/485/122 161/486/122 164/487/122 163/488/122
f 161/489/123 165/490/123 168/491/123 164/492/123
f 166/493/124 162/494/124 163/495/124 167/496/124
f 168/497/125 167/498/125 163/499/125 164/500/125
f 161/501/126 162/502/126 166/503/126 165/504/126
# part: blade_spine_core
usemtl iron_dagger_atlas
f 173/505/127 174/506/127 175/507/127 176/508/127
f 170/509/128 169/510/128 172/511/128 171/512/128
f 169/513/129 173/514/129 176/515/129 172/516/129
f 174/517/130 170/518/130 171/519/130 175/520/130
f 176/521/131 175/522/131 171/523/131 172/524/131
f 169/525/132 170/526/132 174/527/132 173/528/132
# part: blade_belly_main
usemtl iron_dagger_atlas
f 181/529/133 182/530/133 183/531/133 184/532/133
f 178/533/134 177/534/134 180/535/134 179/536/134
f 177/537/135 181/538/135 184/539/135 180/540/135
f 182/541/136 178/542/136 179/543/136 183/544/136
f 184/545/137 183/546/137 179/547/137 180/548/137
f 177/549/138 178/550/138 182/551/138 181/552/138
# part: blade_belly_edge_l
usemtl iron_dagger_atlas
f 189/553/139 190/554/139 191/555/139 192/556/139
f 186/557/140 185/558/140 188/559/140 187/560/140
f 185/561/141 189/562/141 192/563/141 188/564/141
f 190/565/142 186/566/142 187/567/142 191/568/142
f 192/569/143 191/570/143 187/571/143 188/572/143
f 185/573/144 186/574/144 190/575/144 189/576/144
# part: blade_belly_edge_r
usemtl iron_dagger_atlas
f 197/577/145 198/578/145 199/579/145 200/580/145
f 194/581/146 193/582/146 196/583/146 195/584/146
f 193/585/147 197/586/147 200/587/147 196/588/147
f 198/589/148 194/590/148 195/591/148 199/592/148
f 200/593/149 199/594/149 195/595/149 196/596/149
f 193/597/150 194/598/150 198/599/150 197/600/150
# part: blade_taper_core
usemtl iron_dagger_atlas
f 205/601/151 206/602/151 207/603/151 208/604/151
f 202/605/152 201/606/152 204/607/152 203/608/152
f 201/609/153 205/610/153 208/611/153 204/612/153
f 206/613/154 202/614/154 203/615/154 207/616/154
f 208/617/155 207/618/155 203/619/155 204/620/155
f 201/621/156 202/622/156 206/623/156 205/624/156
# part: blade_taper_main
usemtl iron_dagger_atlas
f 213/625/157 214/626/157 215/627/157 216/628/157
f 210/629/158 209/630/158 212/631/158 211/632/158
f 209/633/159 213/634/159 216/635/159 212/636/159
f 214/637/160 210/638/160 211/639/160 215/640/160
f 216/641/161 215/642/161 211/643/161 212/644/161
f 209/645/162 210/646/162 214/647/162 213/648/162
# part: blade_taper_edge_l
usemtl iron_dagger_atlas
f 221/649/163 222/650/163 223/651/163 224/652/163
f 218/653/164 217/654/164 220/655/164 219/656/164
f 217/657/165 221/658/165 224/659/165 220/660/165
f 222/661/166 218/662/166 219/663/166 223/664/166
f 224/665/167 223/666/167 219/667/167 220/668/167
f 217/669/168 218/670/168 222/671/168 221/672/168
# part: blade_taper_edge_r
usemtl iron_dagger_atlas
f 229/673/169 230/674/169 231/675/169 232/676/169
f 226/677/170 225/678/170 228/679/170 227/680/170
f 225/681/171 229/682/171 232/683/171 228/684/171
f 230/685/172 226/686/172 227/687/172 231/688/172
f 232/689/173 231/690/173 227/691/173 228/692/173
f 225/693/174 226/694/174 230/695/174 229/696/174
# part: blade_tip_core
usemtl iron_dagger_atlas
f 237/697/175 238/698/175 239/699/175 240/700/175
f 234/701/176 233/702/176 236/703/176 235/704/176
f 233/705/177 237/706/177 240/707/177 236/708/177
f 238/709/178 234/710/178 235/711/178 239/712/178
f 240/713/179 239/714/179 235/715/179 236/716/179
f 233/717/180 234/718/180 238/719/180 237/720/180
# part: blade_tip_mid
usemtl iron_dagger_atlas
f 245/721/181 246/722/181 247/723/181 248/724/181
f 242/725/182 241/726/182 244/727/182 243/728/182
f 241/729/183 245/730/183 248/731/183 244/732/183
f 246/733/184 242/734/184 243/735/184 247/736/184
f 248/737/185 247/738/185 243/739/185 244/740/185
f 241/741/186 242/742/186 246/743/186 245/744/186
# part: blade_point_sharp
usemtl iron_dagger_atlas
f 253/745/187 254/746/187 255/747/187 256/748/187
f 250/749/188 249/750/188 252/751/188 251/752/188
f 249/753/189 253/754/189 256/755/189 252/756/189
f 254/757/190 250/758/190 251/759/190 255/760/190
f 256/761/191 255/762/191 251/763/191 252/764/191
f 249/765/192 250/766/192 254/767/192 253/768/192
