# wooden_shield.obj -- shield held-model #3 (gen_shield_models.py)
mtllib wooden_shield.mtl
o wooden_shield
vt 0.0000 0.0000
vt 1.0000 0.0000
vt 1.0000 1.0000
vt 0.0000 1.0000
vn 0.0000 0.0000 1.0000
vn 0.0000 0.0000 -1.0000
vn -1.0000 0.0000 0.0000
vn 1.0000 0.0000 0.0000
vn 0.0000 1.0000 0.0000
vn 0.0000 -1.0000 0.0000
# part: face
v -0.3200 -0.4600 -0.0350
v 0.3200 -0.4600 -0.0350
v 0.3200 0.4600 -0.0350
v -0.3200 0.4600 -0.0350
v -0.3200 -0.4600 0.0350
v 0.3200 -0.4600 0.0350
v 0.3200 0.4600 0.0350
v -0.3200 0.4600 0.0350
usemtl wooden_shield_face
f 5/1/1 6/2/1 7/3/1 8/4/1
f 2/1/2 1/2/2 4/3/2 3/4/2
f 1/1/3 5/2/3 8/3/3 4/4/3
f 6/1/4 2/2/4 3/3/4 7/4/4
f 8/1/5 7/2/5 3/3/5 4/4/5
f 1/1/6 2/2/6 6/3/6 5/4/6
# part: boss
v -0.1100 -0.1100 0.0270
v 0.1100 -0.1100 0.0270
v 0.1100 0.1100 0.0270
v -0.1100 0.1100 0.0270
v -0.1100 -0.1100 0.0830
v 0.1100 -0.1100 0.0830
v 0.1100 0.1100 0.0830
v -0.1100 0.1100 0.0830
usemtl wooden_shield_boss
f 13/1/1 14/2/1 15/3/1 16/4/1
f 10/1/2 9/2/2 12/3/2 11/4/2
f 9/1/3 13/2/3 16/3/3 12/4/3
f 14/1/4 10/2/4 11/3/4 15/4/4
f 16/1/5 15/2/5 11/3/5 12/4/5
f 9/1/6 10/2/6 14/3/6 13/4/6
# part: grip
v -0.0450 -0.1600 -0.0700
v 0.0450 -0.1600 -0.0700
v 0.0450 0.1600 -0.0700
v -0.0450 0.1600 -0.0700
v -0.0450 -0.1600 -0.0300
v 0.0450 -0.1600 -0.0300
v 0.0450 0.1600 -0.0300
v -0.0450 0.1600 -0.0300
usemtl wooden_shield_boss
f 21/1/1 22/2/1 23/3/1 24/4/1
f 18/1/2 17/2/2 20/3/2 19/4/2
f 17/1/3 21/2/3 24/3/3 20/4/3
f 22/1/4 18/2/4 19/3/4 23/4/4
f 24/1/5 23/2/5 19/3/5 20/4/5
f 17/1/6 18/2/6 22/3/6 21/4/6
