# huo_xue_dan.obj -- generated from modelScript/models/HuoXueDan.bbmodel
# Keep this file in sync with the source bbmodel and its embedded atlas.
mtllib huo_xue_dan.mtl
o huo_xue_dan
# part: sack_bottom_x
v 0.225000 0.000000 0.125000
v 0.525000 0.000000 0.125000
v 0.525000 0.050000 0.125000
v 0.225000 0.050000 0.125000
v 0.225000 0.000000 0.350000
v 0.525000 0.000000 0.350000
v 0.525000 0.050000 0.350000
v 0.225000 0.050000 0.350000
vt 0.265625 0.984375
vt 0.359375 0.984375
vt 0.359375 0.890625
vt 0.265625 0.890625
vn 0.000000 0.000000 1.000000
usemtl huo_xue_dan_atlas
f 5/1/1 6/2/1 7/3/1 8/4/1
vt 0.265625 0.984375
vt 0.359375 0.984375
vt 0.359375 0.890625
vt 0.265625 0.890625
vn 0.000000 0.000000 -1.000000
f 2/5/2 1/6/2 4/7/2 3/8/2
vt 0.265625 0.984375
vt 0.359375 0.984375
vt 0.359375 0.890625
vt 0.265625 0.890625
vn -1.000000 0.000000 0.000000
f 1/9/3 5/10/3 8/11/3 4/12/3
vt 0.265625 0.984375
vt 0.359375 0.984375
vt 0.359375 0.890625
vt 0.265625 0.890625
vn 1.000000 0.000000 0.000000
f 6/13/4 2/14/4 3/15/4 7/16/4
vt 0.265625 0.984375
vt 0.359375 0.984375
vt 0.359375 0.890625
vt 0.265625 0.890625
vn 0.000000 1.000000 0.000000
f 8/17/5 7/18/5 3/19/5 4/20/5
vt 0.265625 0.984375
vt 0.359375 0.984375
vt 0.359375 0.890625
vt 0.265625 0.890625
vn 0.000000 -1.000000 0.000000
f 1/21/6 2/22/6 6/23/6 5/24/6
# part: sack_bottom_z
v 0.262500 0.000000 0.087500
v 0.487500 0.000000 0.087500
v 0.487500 0.050000 0.087500
v 0.262500 0.050000 0.087500
v 0.262500 0.000000 0.387500
v 0.487500 0.000000 0.387500
v 0.487500 0.050000 0.387500
v 0.262500 0.050000 0.387500
vt 0.265625 0.984375
vt 0.359375 0.984375
vt 0.359375 0.890625
vt 0.265625 0.890625
vn 0.000000 0.000000 1.000000
usemtl huo_xue_dan_atlas
f 13/25/7 14/26/7 15/27/7 16/28/7
vt 0.265625 0.984375
vt 0.359375 0.984375
vt 0.359375 0.890625
vt 0.265625 0.890625
vn 0.000000 0.000000 -1.000000
f 10/29/8 9/30/8 12/31/8 11/32/8
vt 0.265625 0.984375
vt 0.359375 0.984375
vt 0.359375 0.890625
vt 0.265625 0.890625
vn -1.000000 0.000000 0.000000
f 9/33/9 13/34/9 16/35/9 12/36/9
vt 0.265625 0.984375
vt 0.359375 0.984375
vt 0.359375 0.890625
vt 0.265625 0.890625
vn 1.000000 0.000000 0.000000
f 14/37/10 10/38/10 11/39/10 15/40/10
vt 0.265625 0.984375
vt 0.359375 0.984375
vt 0.359375 0.890625
vt 0.265625 0.890625
vn 0.000000 1.000000 0.000000
f 16/41/11 15/42/11 11/43/11 12/44/11
vt 0.265625 0.984375
vt 0.359375 0.984375
vt 0.359375 0.890625
vt 0.265625 0.890625
vn 0.000000 -1.000000 0.000000
f 9/45/12 10/46/12 14/47/12 13/48/12
# part: sack_belly_low_x
v 0.175000 0.050000 0.087500
v 0.575000 0.050000 0.087500
v 0.575000 0.150000 0.087500
v 0.175000 0.150000 0.087500
v 0.175000 0.050000 0.387500
v 0.575000 0.050000 0.387500
v 0.575000 0.150000 0.387500
v 0.175000 0.150000 0.387500
vt 0.015625 0.984375
vt 0.109375 0.984375
vt 0.109375 0.890625
vt 0.015625 0.890625
vn 0.000000 0.000000 1.000000
usemtl huo_xue_dan_atlas
f 21/49/13 22/50/13 23/51/13 24/52/13
vt 0.015625 0.984375
vt 0.109375 0.984375
vt 0.109375 0.890625
vt 0.015625 0.890625
vn 0.000000 0.000000 -1.000000
f 18/53/14 17/54/14 20/55/14 19/56/14
vt 0.015625 0.984375
vt 0.109375 0.984375
vt 0.109375 0.890625
vt 0.015625 0.890625
vn -1.000000 0.000000 0.000000
f 17/57/15 21/58/15 24/59/15 20/60/15
vt 0.015625 0.984375
vt 0.109375 0.984375
vt 0.109375 0.890625
vt 0.015625 0.890625
vn 1.000000 0.000000 0.000000
f 22/61/16 18/62/16 19/63/16 23/64/16
vt 0.015625 0.984375
vt 0.109375 0.984375
vt 0.109375 0.890625
vt 0.015625 0.890625
vn 0.000000 1.000000 0.000000
f 24/65/17 23/66/17 19/67/17 20/68/17
vt 0.015625 0.984375
vt 0.109375 0.984375
vt 0.109375 0.890625
vt 0.015625 0.890625
vn 0.000000 -1.000000 0.000000
f 17/69/18 18/70/18 22/71/18 21/72/18
# part: sack_belly_low_z
v 0.225000 0.050000 0.037500
v 0.525000 0.050000 0.037500
v 0.525000 0.150000 0.037500
v 0.225000 0.150000 0.037500
v 0.225000 0.050000 0.437500
v 0.525000 0.050000 0.437500
v 0.525000 0.150000 0.437500
v 0.225000 0.150000 0.437500
vt 0.140625 0.984375
vt 0.234375 0.984375
vt 0.234375 0.890625
vt 0.140625 0.890625
vn 0.000000 0.000000 1.000000
usemtl huo_xue_dan_atlas
f 29/73/19 30/74/19 31/75/19 32/76/19
vt 0.140625 0.984375
vt 0.234375 0.984375
vt 0.234375 0.890625
vt 0.140625 0.890625
vn 0.000000 0.000000 -1.000000
f 26/77/20 25/78/20 28/79/20 27/80/20
vt 0.140625 0.984375
vt 0.234375 0.984375
vt 0.234375 0.890625
vt 0.140625 0.890625
vn -1.000000 0.000000 0.000000
f 25/81/21 29/82/21 32/83/21 28/84/21
vt 0.140625 0.984375
vt 0.234375 0.984375
vt 0.234375 0.890625
vt 0.140625 0.890625
vn 1.000000 0.000000 0.000000
f 30/85/22 26/86/22 27/87/22 31/88/22
vt 0.140625 0.984375
vt 0.234375 0.984375
vt 0.234375 0.890625
vt 0.140625 0.890625
vn 0.000000 1.000000 0.000000
f 32/89/23 31/90/23 27/91/23 28/92/23
vt 0.140625 0.984375
vt 0.234375 0.984375
vt 0.234375 0.890625
vt 0.140625 0.890625
vn 0.000000 -1.000000 0.000000
f 25/93/24 26/94/24 30/95/24 29/96/24
# part: sack_belly_mid_x
v 0.150000 0.150000 0.068750
v 0.600000 0.150000 0.068750
v 0.600000 0.300000 0.068750
v 0.150000 0.300000 0.068750
v 0.150000 0.150000 0.406250
v 0.600000 0.150000 0.406250
v 0.600000 0.300000 0.406250
v 0.150000 0.300000 0.406250
vt 0.015625 0.984375
vt 0.109375 0.984375
vt 0.109375 0.890625
vt 0.015625 0.890625
vn 0.000000 0.000000 1.000000
usemtl huo_xue_dan_atlas
f 37/97/25 38/98/25 39/99/25 40/100/25
vt 0.015625 0.984375
vt 0.109375 0.984375
vt 0.109375 0.890625
vt 0.015625 0.890625
vn 0.000000 0.000000 -1.000000
f 34/101/26 33/102/26 36/103/26 35/104/26
vt 0.015625 0.984375
vt 0.109375 0.984375
vt 0.109375 0.890625
vt 0.015625 0.890625
vn -1.000000 0.000000 0.000000
f 33/105/27 37/106/27 40/107/27 36/108/27
vt 0.015625 0.984375
vt 0.109375 0.984375
vt 0.109375 0.890625
vt 0.015625 0.890625
vn 1.000000 0.000000 0.000000
f 38/109/28 34/110/28 35/111/28 39/112/28
vt 0.015625 0.984375
vt 0.109375 0.984375
vt 0.109375 0.890625
vt 0.015625 0.890625
vn 0.000000 1.000000 0.000000
f 40/113/29 39/114/29 35/115/29 36/116/29
vt 0.015625 0.984375
vt 0.109375 0.984375
vt 0.109375 0.890625
vt 0.015625 0.890625
vn 0.000000 -1.000000 0.000000
f 33/117/30 34/118/30 38/119/30 37/120/30
# part: sack_belly_mid_z
v 0.206250 0.150000 0.012500
v 0.543750 0.150000 0.012500
v 0.543750 0.300000 0.012500
v 0.206250 0.300000 0.012500
v 0.206250 0.150000 0.462500
v 0.543750 0.150000 0.462500
v 0.543750 0.300000 0.462500
v 0.206250 0.300000 0.462500
vt 0.140625 0.984375
vt 0.234375 0.984375
vt 0.234375 0.890625
vt 0.140625 0.890625
vn 0.000000 0.000000 1.000000
usemtl huo_xue_dan_atlas
f 45/121/31 46/122/31 47/123/31 48/124/31
vt 0.140625 0.984375
vt 0.234375 0.984375
vt 0.234375 0.890625
vt 0.140625 0.890625
vn 0.000000 0.000000 -1.000000
f 42/125/32 41/126/32 44/127/32 43/128/32
vt 0.140625 0.984375
vt 0.234375 0.984375
vt 0.234375 0.890625
vt 0.140625 0.890625
vn -1.000000 0.000000 0.000000
f 41/129/33 45/130/33 48/131/33 44/132/33
vt 0.140625 0.984375
vt 0.234375 0.984375
vt 0.234375 0.890625
vt 0.140625 0.890625
vn 1.000000 0.000000 0.000000
f 46/133/34 42/134/34 43/135/34 47/136/34
vt 0.140625 0.984375
vt 0.234375 0.984375
vt 0.234375 0.890625
vt 0.140625 0.890625
vn 0.000000 1.000000 0.000000
f 48/137/35 47/138/35 43/139/35 44/140/35
vt 0.140625 0.984375
vt 0.234375 0.984375
vt 0.234375 0.890625
vt 0.140625 0.890625
vn 0.000000 -1.000000 0.000000
f 41/141/36 42/142/36 46/143/36 45/144/36
# part: sack_belly_up_x
v 0.200000 0.300000 0.106250
v 0.550000 0.300000 0.106250
v 0.550000 0.375000 0.106250
v 0.200000 0.375000 0.106250
v 0.200000 0.300000 0.368750
v 0.550000 0.300000 0.368750
v 0.550000 0.375000 0.368750
v 0.200000 0.375000 0.368750
vt 0.140625 0.984375
vt 0.234375 0.984375
vt 0.234375 0.890625
vt 0.140625 0.890625
vn 0.000000 0.000000 1.000000
usemtl huo_xue_dan_atlas
f 53/145/37 54/146/37 55/147/37 56/148/37
vt 0.140625 0.984375
vt 0.234375 0.984375
vt 0.234375 0.890625
vt 0.140625 0.890625
vn 0.000000 0.000000 -1.000000
f 50/149/38 49/150/38 52/151/38 51/152/38
vt 0.140625 0.984375
vt 0.234375 0.984375
vt 0.234375 0.890625
vt 0.140625 0.890625
vn -1.000000 0.000000 0.000000
f 49/153/39 53/154/39 56/155/39 52/156/39
vt 0.140625 0.984375
vt 0.234375 0.984375
vt 0.234375 0.890625
vt 0.140625 0.890625
vn 1.000000 0.000000 0.000000
f 54/157/40 50/158/40 51/159/40 55/160/40
vt 0.140625 0.984375
vt 0.234375 0.984375
vt 0.234375 0.890625
vt 0.140625 0.890625
vn 0.000000 1.000000 0.000000
f 56/161/41 55/162/41 51/163/41 52/164/41
vt 0.140625 0.984375
vt 0.234375 0.984375
vt 0.234375 0.890625
vt 0.140625 0.890625
vn 0.000000 -1.000000 0.000000
f 49/165/42 50/166/42 54/167/42 53/168/42
# part: sack_belly_up_z
v 0.243750 0.300000 0.062500
v 0.506250 0.300000 0.062500
v 0.506250 0.375000 0.062500
v 0.243750 0.375000 0.062500
v 0.243750 0.300000 0.412500
v 0.506250 0.300000 0.412500
v 0.506250 0.375000 0.412500
v 0.243750 0.375000 0.412500
vt 0.265625 0.984375
vt 0.359375 0.984375
vt 0.359375 0.890625
vt 0.265625 0.890625
vn 0.000000 0.000000 1.000000
usemtl huo_xue_dan_atlas
f 61/169/43 62/170/43 63/171/43 64/172/43
vt 0.265625 0.984375
vt 0.359375 0.984375
vt 0.359375 0.890625
vt 0.265625 0.890625
vn 0.000000 0.000000 -1.000000
f 58/173/44 57/174/44 60/175/44 59/176/44
vt 0.265625 0.984375
vt 0.359375 0.984375
vt 0.359375 0.890625
vt 0.265625 0.890625
vn -1.000000 0.000000 0.000000
f 57/177/45 61/178/45 64/179/45 60/180/45
vt 0.265625 0.984375
vt 0.359375 0.984375
vt 0.359375 0.890625
vt 0.265625 0.890625
vn 1.000000 0.000000 0.000000
f 62/181/46 58/182/46 59/183/46 63/184/46
vt 0.265625 0.984375
vt 0.359375 0.984375
vt 0.359375 0.890625
vt 0.265625 0.890625
vn 0.000000 1.000000 0.000000
f 64/185/47 63/186/47 59/187/47 60/188/47
vt 0.265625 0.984375
vt 0.359375 0.984375
vt 0.359375 0.890625
vt 0.265625 0.890625
vn 0.000000 -1.000000 0.000000
f 57/189/48 58/190/48 62/191/48 61/192/48
# part: sack_neck_x
v 0.256250 0.375000 0.150000
v 0.493750 0.375000 0.150000
v 0.493750 0.418750 0.150000
v 0.256250 0.418750 0.150000
v 0.256250 0.375000 0.325000
v 0.493750 0.375000 0.325000
v 0.493750 0.418750 0.325000
v 0.256250 0.418750 0.325000
vt 0.265625 0.984375
vt 0.359375 0.984375
vt 0.359375 0.890625
vt 0.265625 0.890625
vn 0.000000 0.000000 1.000000
usemtl huo_xue_dan_atlas
f 69/193/49 70/194/49 71/195/49 72/196/49
vt 0.265625 0.984375
vt 0.359375 0.984375
vt 0.359375 0.890625
vt 0.265625 0.890625
vn 0.000000 0.000000 -1.000000
f 66/197/50 65/198/50 68/199/50 67/200/50
vt 0.265625 0.984375
vt 0.359375 0.984375
vt 0.359375 0.890625
vt 0.265625 0.890625
vn -1.000000 0.000000 0.000000
f 65/201/51 69/202/51 72/203/51 68/204/51
vt 0.265625 0.984375
vt 0.359375 0.984375
vt 0.359375 0.890625
vt 0.265625 0.890625
vn 1.000000 0.000000 0.000000
f 70/205/52 66/206/52 67/207/52 71/208/52
vt 0.265625 0.984375
vt 0.359375 0.984375
vt 0.359375 0.890625
vt 0.265625 0.890625
vn 0.000000 1.000000 0.000000
f 72/209/53 71/210/53 67/211/53 68/212/53
vt 0.265625 0.984375
vt 0.359375 0.984375
vt 0.359375 0.890625
vt 0.265625 0.890625
vn 0.000000 -1.000000 0.000000
f 65/213/54 66/214/54 70/215/54 69/216/54
# part: sack_neck_z
v 0.287500 0.375000 0.118750
v 0.462500 0.375000 0.118750
v 0.462500 0.418750 0.118750
v 0.287500 0.418750 0.118750
v 0.287500 0.375000 0.356250
v 0.462500 0.375000 0.356250
v 0.462500 0.418750 0.356250
v 0.287500 0.418750 0.356250
vt 0.265625 0.984375
vt 0.359375 0.984375
vt 0.359375 0.890625
vt 0.265625 0.890625
vn 0.000000 0.000000 1.000000
usemtl huo_xue_dan_atlas
f 77/217/55 78/218/55 79/219/55 80/220/55
vt 0.265625 0.984375
vt 0.359375 0.984375
vt 0.359375 0.890625
vt 0.265625 0.890625
vn 0.000000 0.000000 -1.000000
f 74/221/56 73/222/56 76/223/56 75/224/56
vt 0.265625 0.984375
vt 0.359375 0.984375
vt 0.359375 0.890625
vt 0.265625 0.890625
vn -1.000000 0.000000 0.000000
f 73/225/57 77/226/57 80/227/57 76/228/57
vt 0.265625 0.984375
vt 0.359375 0.984375
vt 0.359375 0.890625
vt 0.265625 0.890625
vn 1.000000 0.000000 0.000000
f 78/229/58 74/230/58 75/231/58 79/232/58
vt 0.265625 0.984375
vt 0.359375 0.984375
vt 0.359375 0.890625
vt 0.265625 0.890625
vn 0.000000 1.000000 0.000000
f 80/233/59 79/234/59 75/235/59 76/236/59
vt 0.265625 0.984375
vt 0.359375 0.984375
vt 0.359375 0.890625
vt 0.265625 0.890625
vn 0.000000 -1.000000 0.000000
f 73/237/60 74/238/60 78/239/60 77/240/60
# part: sack_cord_x
v 0.240625 0.400000 0.134375
v 0.509375 0.400000 0.134375
v 0.509375 0.437500 0.134375
v 0.240625 0.437500 0.134375
v 0.240625 0.400000 0.340625
v 0.509375 0.400000 0.340625
v 0.509375 0.437500 0.340625
v 0.240625 0.437500 0.340625
vt 0.390625 0.984375
vt 0.484375 0.984375
vt 0.484375 0.890625
vt 0.390625 0.890625
vn 0.000000 0.000000 1.000000
usemtl huo_xue_dan_atlas
f 85/241/61 86/242/61 87/243/61 88/244/61
vt 0.390625 0.984375
vt 0.484375 0.984375
vt 0.484375 0.890625
vt 0.390625 0.890625
vn 0.000000 0.000000 -1.000000
f 82/245/62 81/246/62 84/247/62 83/248/62
vt 0.390625 0.984375
vt 0.484375 0.984375
vt 0.484375 0.890625
vt 0.390625 0.890625
vn -1.000000 0.000000 0.000000
f 81/249/63 85/250/63 88/251/63 84/252/63
vt 0.390625 0.984375
vt 0.484375 0.984375
vt 0.484375 0.890625
vt 0.390625 0.890625
vn 1.000000 0.000000 0.000000
f 86/253/64 82/254/64 83/255/64 87/256/64
vt 0.390625 0.984375
vt 0.484375 0.984375
vt 0.484375 0.890625
vt 0.390625 0.890625
vn 0.000000 1.000000 0.000000
f 88/257/65 87/258/65 83/259/65 84/260/65
vt 0.390625 0.984375
vt 0.484375 0.984375
vt 0.484375 0.890625
vt 0.390625 0.890625
vn 0.000000 -1.000000 0.000000
f 81/261/66 82/262/66 86/263/66 85/264/66
# part: sack_cord_z
v 0.271875 0.400000 0.103125
v 0.478125 0.400000 0.103125
v 0.478125 0.437500 0.103125
v 0.271875 0.437500 0.103125
v 0.271875 0.400000 0.371875
v 0.478125 0.400000 0.371875
v 0.478125 0.437500 0.371875
v 0.271875 0.437500 0.371875
vt 0.390625 0.984375
vt 0.484375 0.984375
vt 0.484375 0.890625
vt 0.390625 0.890625
vn 0.000000 0.000000 1.000000
usemtl huo_xue_dan_atlas
f 93/265/67 94/266/67 95/267/67 96/268/67
vt 0.390625 0.984375
vt 0.484375 0.984375
vt 0.484375 0.890625
vt 0.390625 0.890625
vn 0.000000 0.000000 -1.000000
f 90/269/68 89/270/68 92/271/68 91/272/68
vt 0.390625 0.984375
vt 0.484375 0.984375
vt 0.484375 0.890625
vt 0.390625 0.890625
vn -1.000000 0.000000 0.000000
f 89/273/69 93/274/69 96/275/69 92/276/69
vt 0.390625 0.984375
vt 0.484375 0.984375
vt 0.484375 0.890625
vt 0.390625 0.890625
vn 1.000000 0.000000 0.000000
f 94/277/70 90/278/70 91/279/70 95/280/70
vt 0.390625 0.984375
vt 0.484375 0.984375
vt 0.484375 0.890625
vt 0.390625 0.890625
vn 0.000000 1.000000 0.000000
f 96/281/71 95/282/71 91/283/71 92/284/71
vt 0.390625 0.984375
vt 0.484375 0.984375
vt 0.484375 0.890625
vt 0.390625 0.890625
vn 0.000000 -1.000000 0.000000
f 89/285/72 90/286/72 94/287/72 93/288/72
# part: cord_knot
v 0.475000 0.393750 0.256250
v 0.518750 0.393750 0.256250
v 0.518750 0.443750 0.256250
v 0.475000 0.443750 0.256250
v 0.475000 0.393750 0.293750
v 0.518750 0.393750 0.293750
v 0.518750 0.443750 0.293750
v 0.475000 0.443750 0.293750
vt 0.390625 0.984375
vt 0.484375 0.984375
vt 0.484375 0.890625
vt 0.390625 0.890625
vn 0.000000 0.000000 1.000000
usemtl huo_xue_dan_atlas
f 101/289/73 102/290/73 103/291/73 104/292/73
vt 0.390625 0.984375
vt 0.484375 0.984375
vt 0.484375 0.890625
vt 0.390625 0.890625
vn 0.000000 0.000000 -1.000000
f 98/293/74 97/294/74 100/295/74 99/296/74
vt 0.390625 0.984375
vt 0.484375 0.984375
vt 0.484375 0.890625
vt 0.390625 0.890625
vn -1.000000 0.000000 0.000000
f 97/297/75 101/298/75 104/299/75 100/300/75
vt 0.390625 0.984375
vt 0.484375 0.984375
vt 0.484375 0.890625
vt 0.390625 0.890625
vn 1.000000 0.000000 0.000000
f 102/301/76 98/302/76 99/303/76 103/304/76
vt 0.390625 0.984375
vt 0.484375 0.984375
vt 0.484375 0.890625
vt 0.390625 0.890625
vn 0.000000 1.000000 0.000000
f 104/305/77 103/306/77 99/307/77 100/308/77
vt 0.390625 0.984375
vt 0.484375 0.984375
vt 0.484375 0.890625
vt 0.390625 0.890625
vn 0.000000 -1.000000 0.000000
f 97/309/78 98/310/78 102/311/78 101/312/78
# part: cord_tail1
v 0.458383 0.285083 0.262500
v 0.482531 0.278613 0.262500
v 0.511648 0.387280 0.262500
v 0.487500 0.393750 0.262500
v 0.458383 0.285083 0.281250
v 0.482531 0.278613 0.281250
v 0.511648 0.387280 0.281250
v 0.487500 0.393750 0.281250
vt 0.390625 0.984375
vt 0.484375 0.984375
vt 0.484375 0.890625
vt 0.390625 0.890625
vn 0.000000 0.000000 1.000000
usemtl huo_xue_dan_atlas
f 109/313/79 110/314/79 111/315/79 112/316/79
vt 0.390625 0.984375
vt 0.484375 0.984375
vt 0.484375 0.890625
vt 0.390625 0.890625
vn 0.000000 0.000000 -1.000000
f 106/317/80 105/318/80 108/319/80 107/320/80
vt 0.390625 0.984375
vt 0.484375 0.984375
vt 0.484375 0.890625
vt 0.390625 0.890625
vn -0.965926 0.258819 0.000000
f 105/321/81 109/322/81 112/323/81 108/324/81
vt 0.390625 0.984375
vt 0.484375 0.984375
vt 0.484375 0.890625
vt 0.390625 0.890625
vn 0.965926 -0.258819 0.000000
f 110/325/82 106/326/82 107/327/82 111/328/82
vt 0.390625 0.984375
vt 0.484375 0.984375
vt 0.484375 0.890625
vt 0.390625 0.890625
vn 0.258819 0.965926 0.000000
f 112/329/83 111/330/83 107/331/83 108/332/83
vt 0.390625 0.984375
vt 0.484375 0.984375
vt 0.484375 0.890625
vt 0.390625 0.890625
vn -0.258819 -0.965926 0.000000
f 105/333/84 106/334/84 110/335/84 109/336/84
# part: cord_tail2
v 0.484806 0.238829 0.268750
v 0.509426 0.234488 0.268750
v 0.524620 0.320659 0.268750
v 0.500000 0.325000 0.268750
v 0.484806 0.238829 0.287500
v 0.509426 0.234488 0.287500
v 0.524620 0.320659 0.287500
v 0.500000 0.325000 0.287500
vt 0.515625 0.984375
vt 0.609375 0.984375
vt 0.609375 0.890625
vt 0.515625 0.890625
vn 0.000000 0.000000 1.000000
usemtl huo_xue_dan_atlas
f 117/337/85 118/338/85 119/339/85 120/340/85
vt 0.515625 0.984375
vt 0.609375 0.984375
vt 0.609375 0.890625
vt 0.515625 0.890625
vn 0.000000 0.000000 -1.000000
f 114/341/86 113/342/86 116/343/86 115/344/86
vt 0.515625 0.984375
vt 0.609375 0.984375
vt 0.609375 0.890625
vt 0.515625 0.890625
vn -0.984808 0.173648 0.000000
f 113/345/87 117/346/87 120/347/87 116/348/87
vt 0.515625 0.984375
vt 0.609375 0.984375
vt 0.609375 0.890625
vt 0.515625 0.890625
vn 0.984808 -0.173648 0.000000
f 118/349/88 114/350/88 115/351/88 119/352/88
vt 0.515625 0.984375
vt 0.609375 0.984375
vt 0.609375 0.890625
vt 0.515625 0.890625
vn 0.173648 0.984808 0.000000
f 120/353/89 119/354/89 115/355/89 116/356/89
vt 0.515625 0.984375
vt 0.609375 0.984375
vt 0.609375 0.890625
vt 0.515625 0.890625
vn -0.173648 -0.984808 0.000000
f 113/357/90 114/358/90 118/359/90 117/360/90
# part: sack_frill_base_x
v 0.231250 0.418750 0.131250
v 0.518750 0.418750 0.131250
v 0.518750 0.475000 0.131250
v 0.231250 0.475000 0.131250
v 0.231250 0.418750 0.343750
v 0.518750 0.418750 0.343750
v 0.518750 0.475000 0.343750
v 0.231250 0.475000 0.343750
vt 0.015625 0.984375
vt 0.109375 0.984375
vt 0.109375 0.890625
vt 0.015625 0.890625
vn 0.000000 0.000000 1.000000
usemtl huo_xue_dan_atlas
f 125/361/91 126/362/91 127/363/91 128/364/91
vt 0.015625 0.984375
vt 0.109375 0.984375
vt 0.109375 0.890625
vt 0.015625 0.890625
vn 0.000000 0.000000 -1.000000
f 122/365/92 121/366/92 124/367/92 123/368/92
vt 0.015625 0.984375
vt 0.109375 0.984375
vt 0.109375 0.890625
vt 0.015625 0.890625
vn -1.000000 0.000000 0.000000
f 121/369/93 125/370/93 128/371/93 124/372/93
vt 0.015625 0.984375
vt 0.109375 0.984375
vt 0.109375 0.890625
vt 0.015625 0.890625
vn 1.000000 0.000000 0.000000
f 126/373/94 122/374/94 123/375/94 127/376/94
vt 0.015625 0.984375
vt 0.109375 0.984375
vt 0.109375 0.890625
vt 0.015625 0.890625
vn 0.000000 1.000000 0.000000
f 128/377/95 127/378/95 123/379/95 124/380/95
vt 0.015625 0.984375
vt 0.109375 0.984375
vt 0.109375 0.890625
vt 0.015625 0.890625
vn 0.000000 -1.000000 0.000000
f 121/381/96 122/382/96 126/383/96 125/384/96
# part: sack_frill_base_z
v 0.268750 0.418750 0.093750
v 0.481250 0.418750 0.093750
v 0.481250 0.475000 0.093750
v 0.268750 0.475000 0.093750
v 0.268750 0.418750 0.381250
v 0.481250 0.418750 0.381250
v 0.481250 0.475000 0.381250
v 0.268750 0.475000 0.381250
vt 0.140625 0.984375
vt 0.234375 0.984375
vt 0.234375 0.890625
vt 0.140625 0.890625
vn 0.000000 0.000000 1.000000
usemtl huo_xue_dan_atlas
f 133/385/97 134/386/97 135/387/97 136/388/97
vt 0.140625 0.984375
vt 0.234375 0.984375
vt 0.234375 0.890625
vt 0.140625 0.890625
vn 0.000000 0.000000 -1.000000
f 130/389/98 129/390/98 132/391/98 131/392/98
vt 0.140625 0.984375
vt 0.234375 0.984375
vt 0.234375 0.890625
vt 0.140625 0.890625
vn -1.000000 0.000000 0.000000
f 129/393/99 133/394/99 136/395/99 132/396/99
vt 0.140625 0.984375
vt 0.234375 0.984375
vt 0.234375 0.890625
vt 0.140625 0.890625
vn 1.000000 0.000000 0.000000
f 134/397/100 130/398/100 131/399/100 135/400/100
vt 0.140625 0.984375
vt 0.234375 0.984375
vt 0.234375 0.890625
vt 0.140625 0.890625
vn 0.000000 1.000000 0.000000
f 136/401/101 135/402/101 131/403/101 132/404/101
vt 0.140625 0.984375
vt 0.234375 0.984375
vt 0.234375 0.890625
vt 0.140625 0.890625
vn 0.000000 -1.000000 0.000000
f 129/405/102 130/406/102 134/407/102 133/408/102
# part: sack_frill_top_x
v 0.206250 0.475000 0.112500
v 0.543750 0.475000 0.112500
v 0.543750 0.537500 0.112500
v 0.206250 0.537500 0.112500
v 0.206250 0.475000 0.362500
v 0.543750 0.475000 0.362500
v 0.543750 0.537500 0.362500
v 0.206250 0.537500 0.362500
vt 0.015625 0.984375
vt 0.109375 0.984375
vt 0.109375 0.890625
vt 0.015625 0.890625
vn 0.000000 0.000000 1.000000
usemtl huo_xue_dan_atlas
f 141/409/103 142/410/103 143/411/103 144/412/103
vt 0.015625 0.984375
vt 0.109375 0.984375
vt 0.109375 0.890625
vt 0.015625 0.890625
vn 0.000000 0.000000 -1.000000
f 138/413/104 137/414/104 140/415/104 139/416/104
vt 0.015625 0.984375
vt 0.109375 0.984375
vt 0.109375 0.890625
vt 0.015625 0.890625
vn -1.000000 0.000000 0.000000
f 137/417/105 141/418/105 144/419/105 140/420/105
vt 0.015625 0.984375
vt 0.109375 0.984375
vt 0.109375 0.890625
vt 0.015625 0.890625
vn 1.000000 0.000000 0.000000
f 142/421/106 138/422/106 139/423/106 143/424/106
vt 0.015625 0.984375
vt 0.109375 0.984375
vt 0.109375 0.890625
vt 0.015625 0.890625
vn 0.000000 1.000000 0.000000
f 144/425/107 143/426/107 139/427/107 140/428/107
vt 0.015625 0.984375
vt 0.109375 0.984375
vt 0.109375 0.890625
vt 0.015625 0.890625
vn 0.000000 -1.000000 0.000000
f 137/429/108 138/430/108 142/431/108 141/432/108
# part: sack_frill_top_z
v 0.250000 0.475000 0.068750
v 0.500000 0.475000 0.068750
v 0.500000 0.537500 0.068750
v 0.250000 0.537500 0.068750
v 0.250000 0.475000 0.406250
v 0.500000 0.475000 0.406250
v 0.500000 0.537500 0.406250
v 0.250000 0.537500 0.406250
vt 0.140625 0.984375
vt 0.234375 0.984375
vt 0.234375 0.890625
vt 0.140625 0.890625
vn 0.000000 0.000000 1.000000
usemtl huo_xue_dan_atlas
f 149/433/109 150/434/109 151/435/109 152/436/109
vt 0.140625 0.984375
vt 0.234375 0.984375
vt 0.234375 0.890625
vt 0.140625 0.890625
vn 0.000000 0.000000 -1.000000
f 146/437/110 145/438/110 148/439/110 147/440/110
vt 0.140625 0.984375
vt 0.234375 0.984375
vt 0.234375 0.890625
vt 0.140625 0.890625
vn -1.000000 0.000000 0.000000
f 145/441/111 149/442/111 152/443/111 148/444/111
vt 0.140625 0.984375
vt 0.234375 0.984375
vt 0.234375 0.890625
vt 0.140625 0.890625
vn 1.000000 0.000000 0.000000
f 150/445/112 146/446/112 147/447/112 151/448/112
vt 0.140625 0.984375
vt 0.234375 0.984375
vt 0.234375 0.890625
vt 0.140625 0.890625
vn 0.000000 1.000000 0.000000
f 152/449/113 151/450/113 147/451/113 148/452/113
vt 0.140625 0.984375
vt 0.234375 0.984375
vt 0.234375 0.890625
vt 0.140625 0.890625
vn 0.000000 -1.000000 0.000000
f 145/453/114 146/454/114 150/455/114 149/456/114
# part: b_foot_y
v 0.218750 -0.006250 0.543750
v 0.268750 -0.006250 0.543750
v 0.268750 0.243750 0.543750
v 0.218750 0.243750 0.543750
v 0.218750 -0.006250 0.731250
v 0.268750 -0.006250 0.731250
v 0.268750 0.243750 0.731250
v 0.218750 0.243750 0.731250
vt 0.890625 0.984375
vt 0.984375 0.984375
vt 0.984375 0.890625
vt 0.890625 0.890625
vn 0.000000 0.000000 1.000000
usemtl huo_xue_dan_atlas
f 157/457/115 158/458/115 159/459/115 160/460/115
vt 0.890625 0.984375
vt 0.984375 0.984375
vt 0.984375 0.890625
vt 0.890625 0.890625
vn 0.000000 0.000000 -1.000000
f 154/461/116 153/462/116 156/463/116 155/464/116
vt 0.890625 0.984375
vt 0.984375 0.984375
vt 0.984375 0.890625
vt 0.890625 0.890625
vn -1.000000 0.000000 0.000000
f 153/465/117 157/466/117 160/467/117 156/468/117
vt 0.890625 0.984375
vt 0.984375 0.984375
vt 0.984375 0.890625
vt 0.890625 0.890625
vn 1.000000 0.000000 0.000000
f 158/469/118 154/470/118 155/471/118 159/472/118
vt 0.890625 0.984375
vt 0.984375 0.984375
vt 0.984375 0.890625
vt 0.890625 0.890625
vn 0.000000 1.000000 0.000000
f 160/473/119 159/474/119 155/475/119 156/476/119
vt 0.890625 0.984375
vt 0.984375 0.984375
vt 0.984375 0.890625
vt 0.890625 0.890625
vn 0.000000 -1.000000 0.000000
f 153/477/120 154/478/120 158/479/120 157/480/120
# part: b_foot_z
v 0.218750 0.025000 0.512500
v 0.268750 0.025000 0.512500
v 0.268750 0.212500 0.512500
v 0.218750 0.212500 0.512500
v 0.218750 0.025000 0.762500
v 0.268750 0.025000 0.762500
v 0.268750 0.212500 0.762500
v 0.218750 0.212500 0.762500
vt 0.890625 0.984375
vt 0.984375 0.984375
vt 0.984375 0.890625
vt 0.890625 0.890625
vn 0.000000 0.000000 1.000000
usemtl huo_xue_dan_atlas
f 165/481/121 166/482/121 167/483/121 168/484/121
vt 0.890625 0.984375
vt 0.984375 0.984375
vt 0.984375 0.890625
vt 0.890625 0.890625
vn 0.000000 0.000000 -1.000000
f 162/485/122 161/486/122 164/487/122 163/488/122
vt 0.890625 0.984375
vt 0.984375 0.984375
vt 0.984375 0.890625
vt 0.890625 0.890625
vn -1.000000 0.000000 0.000000
f 161/489/123 165/490/123 168/491/123 164/492/123
vt 0.890625 0.984375
vt 0.984375 0.984375
vt 0.984375 0.890625
vt 0.890625 0.890625
vn 1.000000 0.000000 0.000000
f 166/493/124 162/494/124 163/495/124 167/496/124
vt 0.890625 0.984375
vt 0.984375 0.984375
vt 0.984375 0.890625
vt 0.890625 0.890625
vn 0.000000 1.000000 0.000000
f 168/497/125 167/498/125 163/499/125 164/500/125
vt 0.890625 0.984375
vt 0.984375 0.984375
vt 0.984375 0.890625
vt 0.890625 0.890625
vn 0.000000 -1.000000 0.000000
f 161/501/126 162/502/126 166/503/126 165/504/126
# part: b_wall_top
v 0.268750 0.212500 0.543750
v 0.412500 0.212500 0.543750
v 0.412500 0.262500 0.543750
v 0.268750 0.262500 0.543750
v 0.268750 0.212500 0.731250
v 0.412500 0.212500 0.731250
v 0.412500 0.262500 0.731250
v 0.268750 0.262500 0.731250
vt 0.765625 0.984375
vt 0.859375 0.984375
vt 0.859375 0.890625
vt 0.765625 0.890625
vn 0.000000 0.000000 1.000000
usemtl huo_xue_dan_atlas
f 173/505/127 174/506/127 175/507/127 176/508/127
vt 0.765625 0.984375
vt 0.859375 0.984375
vt 0.859375 0.890625
vt 0.765625 0.890625
vn 0.000000 0.000000 -1.000000
f 170/509/128 169/510/128 172/511/128 171/512/128
vt 0.765625 0.984375
vt 0.859375 0.984375
vt 0.859375 0.890625
vt 0.765625 0.890625
vn -1.000000 0.000000 0.000000
f 169/513/129 173/514/129 176/515/129 172/516/129
vt 0.765625 0.984375
vt 0.859375 0.984375
vt 0.859375 0.890625
vt 0.765625 0.890625
vn 1.000000 0.000000 0.000000
f 174/517/130 170/518/130 171/519/130 175/520/130
vt 0.765625 0.984375
vt 0.859375 0.984375
vt 0.859375 0.890625
vt 0.765625 0.890625
vn 0.000000 1.000000 0.000000
f 176/521/131 175/522/131 171/523/131 172/524/131
vt 0.765625 0.984375
vt 0.859375 0.984375
vt 0.859375 0.890625
vt 0.765625 0.890625
vn 0.000000 -1.000000 0.000000
f 169/525/132 170/526/132 174/527/132 173/528/132
# part: b_wall_bot
v 0.268750 -0.025000 0.543750
v 0.412500 -0.025000 0.543750
v 0.412500 0.025000 0.543750
v 0.268750 0.025000 0.543750
v 0.268750 -0.025000 0.731250
v 0.412500 -0.025000 0.731250
v 0.412500 0.025000 0.731250
v 0.268750 0.025000 0.731250
vt 0.890625 0.984375
vt 0.984375 0.984375
vt 0.984375 0.890625
vt 0.890625 0.890625
vn 0.000000 0.000000 1.000000
usemtl huo_xue_dan_atlas
f 181/529/133 182/530/133 183/531/133 184/532/133
vt 0.890625 0.984375
vt 0.984375 0.984375
vt 0.984375 0.890625
vt 0.890625 0.890625
vn 0.000000 0.000000 -1.000000
f 178/533/134 177/534/134 180/535/134 179/536/134
vt 0.890625 0.984375
vt 0.984375 0.984375
vt 0.984375 0.890625
vt 0.890625 0.890625
vn -1.000000 0.000000 0.000000
f 177/537/135 181/538/135 184/539/135 180/540/135
vt 0.890625 0.984375
vt 0.984375 0.984375
vt 0.984375 0.890625
vt 0.890625 0.890625
vn 1.000000 0.000000 0.000000
f 182/541/136 178/542/136 179/543/136 183/544/136
vt 0.890625 0.984375
vt 0.984375 0.984375
vt 0.984375 0.890625
vt 0.890625 0.890625
vn 0.000000 1.000000 0.000000
f 184/545/137 183/546/137 179/547/137 180/548/137
vt 0.890625 0.984375
vt 0.984375 0.984375
vt 0.984375 0.890625
vt 0.890625 0.890625
vn 0.000000 -1.000000 0.000000
f 177/549/138 178/550/138 182/551/138 181/552/138
# part: b_wall_front
v 0.268750 0.025000 0.731250
v 0.412500 0.025000 0.731250
v 0.412500 0.212500 0.731250
v 0.268750 0.212500 0.731250
v 0.268750 0.025000 0.781250
v 0.412500 0.025000 0.781250
v 0.412500 0.212500 0.781250
v 0.268750 0.212500 0.781250
vt 0.640625 0.984375
vt 0.734375 0.984375
vt 0.734375 0.890625
vt 0.640625 0.890625
vn 0.000000 0.000000 1.000000
usemtl huo_xue_dan_atlas
f 189/553/139 190/554/139 191/555/139 192/556/139
vt 0.640625 0.984375
vt 0.734375 0.984375
vt 0.734375 0.890625
vt 0.640625 0.890625
vn 0.000000 0.000000 -1.000000
f 186/557/140 185/558/140 188/559/140 187/560/140
vt 0.640625 0.984375
vt 0.734375 0.984375
vt 0.734375 0.890625
vt 0.640625 0.890625
vn -1.000000 0.000000 0.000000
f 185/561/141 189/562/141 192/563/141 188/564/141
vt 0.640625 0.984375
vt 0.734375 0.984375
vt 0.734375 0.890625
vt 0.640625 0.890625
vn 1.000000 0.000000 0.000000
f 190/565/142 186/566/142 187/567/142 191/568/142
vt 0.640625 0.984375
vt 0.734375 0.984375
vt 0.734375 0.890625
vt 0.640625 0.890625
vn 0.000000 1.000000 0.000000
f 192/569/143 191/570/143 187/571/143 188/572/143
vt 0.640625 0.984375
vt 0.734375 0.984375
vt 0.734375 0.890625
vt 0.640625 0.890625
vn 0.000000 -1.000000 0.000000
f 185/573/144 186/574/144 190/575/144 189/576/144
# part: b_wall_back
v 0.268750 0.025000 0.493750
v 0.412500 0.025000 0.493750
v 0.412500 0.212500 0.493750
v 0.268750 0.212500 0.493750
v 0.268750 0.025000 0.543750
v 0.412500 0.025000 0.543750
v 0.412500 0.212500 0.543750
v 0.268750 0.212500 0.543750
vt 0.890625 0.984375
vt 0.984375 0.984375
vt 0.984375 0.890625
vt 0.890625 0.890625
vn 0.000000 0.000000 1.000000
usemtl huo_xue_dan_atlas
f 197/577/145 198/578/145 199/579/145 200/580/145
vt 0.890625 0.984375
vt 0.984375 0.984375
vt 0.984375 0.890625
vt 0.890625 0.890625
vn 0.000000 0.000000 -1.000000
f 194/581/146 193/582/146 196/583/146 195/584/146
vt 0.890625 0.984375
vt 0.984375 0.984375
vt 0.984375 0.890625
vt 0.890625 0.890625
vn -1.000000 0.000000 0.000000
f 193/585/147 197/586/147 200/587/147 196/588/147
vt 0.890625 0.984375
vt 0.984375 0.984375
vt 0.984375 0.890625
vt 0.890625 0.890625
vn 1.000000 0.000000 0.000000
f 198/589/148 194/590/148 195/591/148 199/592/148
vt 0.890625 0.984375
vt 0.984375 0.984375
vt 0.984375 0.890625
vt 0.890625 0.890625
vn 0.000000 1.000000 0.000000
f 200/593/149 199/594/149 195/595/149 196/596/149
vt 0.890625 0.984375
vt 0.984375 0.984375
vt 0.984375 0.890625
vt 0.890625 0.890625
vn 0.000000 -1.000000 0.000000
f 193/597/150 194/598/150 198/599/150 197/600/150
# part: b_inner_bed
v 0.268750 0.031250 0.550000
v 0.287500 0.031250 0.550000
v 0.287500 0.206250 0.550000
v 0.268750 0.206250 0.550000
v 0.268750 0.031250 0.725000
v 0.287500 0.031250 0.725000
v 0.287500 0.206250 0.725000
v 0.268750 0.206250 0.725000
vt 0.890625 0.984375
vt 0.984375 0.984375
vt 0.984375 0.890625
vt 0.890625 0.890625
vn 0.000000 0.000000 1.000000
usemtl huo_xue_dan_atlas
f 205/601/151 206/602/151 207/603/151 208/604/151
vt 0.890625 0.984375
vt 0.984375 0.984375
vt 0.984375 0.890625
vt 0.890625 0.890625
vn 0.000000 0.000000 -1.000000
f 202/605/152 201/606/152 204/607/152 203/608/152
vt 0.890625 0.984375
vt 0.984375 0.984375
vt 0.984375 0.890625
vt 0.890625 0.890625
vn -1.000000 0.000000 0.000000
f 201/609/153 205/610/153 208/611/153 204/612/153
vt 0.890625 0.984375
vt 0.984375 0.984375
vt 0.984375 0.890625
vt 0.890625 0.890625
vn 1.000000 0.000000 0.000000
f 206/613/154 202/614/154 203/615/154 207/616/154
vt 0.890625 0.984375
vt 0.984375 0.984375
vt 0.984375 0.890625
vt 0.890625 0.890625
vn 0.000000 1.000000 0.000000
f 208/617/155 207/618/155 203/619/155 204/620/155
vt 0.890625 0.984375
vt 0.984375 0.984375
vt 0.984375 0.890625
vt 0.890625 0.890625
vn 0.000000 -1.000000 0.000000
f 201/621/156 202/622/156 206/623/156 205/624/156
# part: b_rim_t
v 0.412500 0.218750 0.537500
v 0.450000 0.218750 0.537500
v 0.450000 0.275000 0.537500
v 0.412500 0.275000 0.537500
v 0.412500 0.218750 0.737500
v 0.450000 0.218750 0.737500
v 0.450000 0.275000 0.737500
v 0.412500 0.275000 0.737500
vt 0.765625 0.984375
vt 0.859375 0.984375
vt 0.859375 0.890625
vt 0.765625 0.890625
vn 0.000000 0.000000 1.000000
usemtl huo_xue_dan_atlas
f 213/625/157 214/626/157 215/627/157 216/628/157
vt 0.765625 0.984375
vt 0.859375 0.984375
vt 0.859375 0.890625
vt 0.765625 0.890625
vn 0.000000 0.000000 -1.000000
f 210/629/158 209/630/158 212/631/158 211/632/158
vt 0.765625 0.984375
vt 0.859375 0.984375
vt 0.859375 0.890625
vt 0.765625 0.890625
vn -1.000000 0.000000 0.000000
f 209/633/159 213/634/159 216/635/159 212/636/159
vt 0.765625 0.984375
vt 0.859375 0.984375
vt 0.859375 0.890625
vt 0.765625 0.890625
vn 1.000000 0.000000 0.000000
f 214/637/160 210/638/160 211/639/160 215/640/160
vt 0.765625 0.984375
vt 0.859375 0.984375
vt 0.859375 0.890625
vt 0.765625 0.890625
vn 0.000000 1.000000 0.000000
f 216/641/161 215/642/161 211/643/161 212/644/161
vt 0.765625 0.984375
vt 0.859375 0.984375
vt 0.859375 0.890625
vt 0.765625 0.890625
vn 0.000000 -1.000000 0.000000
f 209/645/162 210/646/162 214/647/162 213/648/162
# part: b_rim_b
v 0.412500 -0.037500 0.537500
v 0.450000 -0.037500 0.537500
v 0.450000 0.018750 0.537500
v 0.412500 0.018750 0.537500
v 0.412500 -0.037500 0.737500
v 0.450000 -0.037500 0.737500
v 0.450000 0.018750 0.737500
v 0.412500 0.018750 0.737500
vt 0.890625 0.984375
vt 0.984375 0.984375
vt 0.984375 0.890625
vt 0.890625 0.890625
vn 0.000000 0.000000 1.000000
usemtl huo_xue_dan_atlas
f 221/649/163 222/650/163 223/651/163 224/652/163
vt 0.890625 0.984375
vt 0.984375 0.984375
vt 0.984375 0.890625
vt 0.890625 0.890625
vn 0.000000 0.000000 -1.000000
f 218/653/164 217/654/164 220/655/164 219/656/164
vt 0.890625 0.984375
vt 0.984375 0.984375
vt 0.984375 0.890625
vt 0.890625 0.890625
vn -1.000000 0.000000 0.000000
f 217/657/165 221/658/165 224/659/165 220/660/165
vt 0.890625 0.984375
vt 0.984375 0.984375
vt 0.984375 0.890625
vt 0.890625 0.890625
vn 1.000000 0.000000 0.000000
f 222/661/166 218/662/166 219/663/166 223/664/166
vt 0.890625 0.984375
vt 0.984375 0.984375
vt 0.984375 0.890625
vt 0.890625 0.890625
vn 0.000000 1.000000 0.000000
f 224/665/167 223/666/167 219/667/167 220/668/167
vt 0.890625 0.984375
vt 0.984375 0.984375
vt 0.984375 0.890625
vt 0.890625 0.890625
vn 0.000000 -1.000000 0.000000
f 217/669/168 218/670/168 222/671/168 221/672/168
# part: b_rim_f
v 0.412500 0.018750 0.737500
v 0.450000 0.018750 0.737500
v 0.450000 0.218750 0.737500
v 0.412500 0.218750 0.737500
v 0.412500 0.018750 0.793750
v 0.450000 0.018750 0.793750
v 0.450000 0.218750 0.793750
v 0.412500 0.218750 0.793750
vt 0.765625 0.984375
vt 0.859375 0.984375
vt 0.859375 0.890625
vt 0.765625 0.890625
vn 0.000000 0.000000 1.000000
usemtl huo_xue_dan_atlas
f 229/673/169 230/674/169 231/675/169 232/676/169
vt 0.765625 0.984375
vt 0.859375 0.984375
vt 0.859375 0.890625
vt 0.765625 0.890625
vn 0.000000 0.000000 -1.000000
f 226/677/170 225/678/170 228/679/170 227/680/170
vt 0.765625 0.984375
vt 0.859375 0.984375
vt 0.859375 0.890625
vt 0.765625 0.890625
vn -1.000000 0.000000 0.000000
f 225/681/171 229/682/171 232/683/171 228/684/171
vt 0.765625 0.984375
vt 0.859375 0.984375
vt 0.859375 0.890625
vt 0.765625 0.890625
vn 1.000000 0.000000 0.000000
f 230/685/172 226/686/172 227/687/172 231/688/172
vt 0.765625 0.984375
vt 0.859375 0.984375
vt 0.859375 0.890625
vt 0.765625 0.890625
vn 0.000000 1.000000 0.000000
f 232/689/173 231/690/173 227/691/173 228/692/173
vt 0.765625 0.984375
vt 0.859375 0.984375
vt 0.859375 0.890625
vt 0.765625 0.890625
vn 0.000000 -1.000000 0.000000
f 225/693/174 226/694/174 230/695/174 229/696/174
# part: b_rim_bk
v 0.412500 0.018750 0.481250
v 0.450000 0.018750 0.481250
v 0.450000 0.218750 0.481250
v 0.412500 0.218750 0.481250
v 0.412500 0.018750 0.537500
v 0.450000 0.018750 0.537500
v 0.450000 0.218750 0.537500
v 0.412500 0.218750 0.537500
vt 0.890625 0.984375
vt 0.984375 0.984375
vt 0.984375 0.890625
vt 0.890625 0.890625
vn 0.000000 0.000000 1.000000
usemtl huo_xue_dan_atlas
f 237/697/175 238/698/175 239/699/175 240/700/175
vt 0.890625 0.984375
vt 0.984375 0.984375
vt 0.984375 0.890625
vt 0.890625 0.890625
vn 0.000000 0.000000 -1.000000
f 234/701/176 233/702/176 236/703/176 235/704/176
vt 0.890625 0.984375
vt 0.984375 0.984375
vt 0.984375 0.890625
vt 0.890625 0.890625
vn -1.000000 0.000000 0.000000
f 233/705/177 237/706/177 240/707/177 236/708/177
vt 0.890625 0.984375
vt 0.984375 0.984375
vt 0.984375 0.890625
vt 0.890625 0.890625
vn 1.000000 0.000000 0.000000
f 238/709/178 234/710/178 235/711/178 239/712/178
vt 0.890625 0.984375
vt 0.984375 0.984375
vt 0.984375 0.890625
vt 0.890625 0.890625
vn 0.000000 1.000000 0.000000
f 240/713/179 239/714/179 235/715/179 236/716/179
vt 0.890625 0.984375
vt 0.984375 0.984375
vt 0.984375 0.890625
vt 0.890625 0.890625
vn 0.000000 -1.000000 0.000000
f 233/717/180 234/718/180 238/719/180 237/720/180
# part: lid_rim_x
v 0.621322 0.070425 0.556250
v 0.816178 -0.042075 0.556250
v 0.828678 -0.020425 0.556250
v 0.633822 0.092075 0.556250
v 0.621322 0.070425 0.718750
v 0.816178 -0.042075 0.718750
v 0.828678 -0.020425 0.718750
v 0.633822 0.092075 0.718750
vt 0.640625 0.984375
vt 0.734375 0.984375
vt 0.734375 0.890625
vt 0.640625 0.890625
vn 0.000000 0.000000 1.000000
usemtl huo_xue_dan_atlas
f 245/721/181 246/722/181 247/723/181 248/724/181
vt 0.640625 0.984375
vt 0.734375 0.984375
vt 0.734375 0.890625
vt 0.640625 0.890625
vn 0.000000 0.000000 -1.000000
f 242/725/182 241/726/182 244/727/182 243/728/182
vt 0.640625 0.984375
vt 0.734375 0.984375
vt 0.734375 0.890625
vt 0.640625 0.890625
vn -0.866025 0.500000 0.000000
f 241/729/183 245/730/183 248/731/183 244/732/183
vt 0.640625 0.984375
vt 0.734375 0.984375
vt 0.734375 0.890625
vt 0.640625 0.890625
vn 0.866025 -0.500000 0.000000
f 246/733/184 242/734/184 243/735/184 247/736/184
vt 0.640625 0.984375
vt 0.734375 0.984375
vt 0.734375 0.890625
vt 0.640625 0.890625
vn 0.500000 0.866025 0.000000
f 248/737/185 247/738/185 243/739/185 244/740/185
vt 0.640625 0.984375
vt 0.734375 0.984375
vt 0.734375 0.890625
vt 0.640625 0.890625
vn -0.500000 -0.866025 0.000000
f 241/741/186 242/742/186 246/743/186 245/744/186
# part: lid_rim_z
v 0.648385 0.054800 0.525000
v 0.789115 -0.026450 0.525000
v 0.801615 -0.004800 0.525000
v 0.660885 0.076450 0.525000
v 0.648385 0.054800 0.750000
v 0.789115 -0.026450 0.750000
v 0.801615 -0.004800 0.750000
v 0.660885 0.076450 0.750000
vt 0.640625 0.984375
vt 0.734375 0.984375
vt 0.734375 0.890625
vt 0.640625 0.890625
vn 0.000000 0.000000 1.000000
usemtl huo_xue_dan_atlas
f 253/745/187 254/746/187 255/747/187 256/748/187
vt 0.640625 0.984375
vt 0.734375 0.984375
vt 0.734375 0.890625
vt 0.640625 0.890625
vn 0.000000 0.000000 -1.000000
f 250/749/188 249/750/188 252/751/188 251/752/188
vt 0.640625 0.984375
vt 0.734375 0.984375
vt 0.734375 0.890625
vt 0.640625 0.890625
vn -0.866025 0.500000 0.000000
f 249/753/189 253/754/189 256/755/189 252/756/189
vt 0.640625 0.984375
vt 0.734375 0.984375
vt 0.734375 0.890625
vt 0.640625 0.890625
vn 0.866025 -0.500000 0.000000
f 254/757/190 250/758/190 251/759/190 255/760/190
vt 0.640625 0.984375
vt 0.734375 0.984375
vt 0.734375 0.890625
vt 0.640625 0.890625
vn 0.500000 0.866025 0.000000
f 256/761/191 255/762/191 251/763/191 252/764/191
vt 0.640625 0.984375
vt 0.734375 0.984375
vt 0.734375 0.890625
vt 0.640625 0.890625
vn -0.500000 -0.866025 0.000000
f 249/765/192 250/766/192 254/767/192 253/768/192
# part: lid_dome_x
v 0.660885 0.076450 0.581250
v 0.801615 -0.004800 0.581250
v 0.810990 0.011438 0.581250
v 0.670260 0.092688 0.581250
v 0.660885 0.076450 0.693750
v 0.801615 -0.004800 0.693750
v 0.810990 0.011438 0.693750
v 0.670260 0.092688 0.693750
vt 0.765625 0.984375
vt 0.859375 0.984375
vt 0.859375 0.890625
vt 0.765625 0.890625
vn 0.000000 0.000000 1.000000
usemtl huo_xue_dan_atlas
f 261/769/193 262/770/193 263/771/193 264/772/193
vt 0.765625 0.984375
vt 0.859375 0.984375
vt 0.859375 0.890625
vt 0.765625 0.890625
vn 0.000000 0.000000 -1.000000
f 258/773/194 257/774/194 260/775/194 259/776/194
vt 0.765625 0.984375
vt 0.859375 0.984375
vt 0.859375 0.890625
vt 0.765625 0.890625
vn -0.866025 0.500000 0.000000
f 257/777/195 261/778/195 264/779/195 260/780/195
vt 0.765625 0.984375
vt 0.859375 0.984375
vt 0.859375 0.890625
vt 0.765625 0.890625
vn 0.866025 -0.500000 0.000000
f 262/781/196 258/782/196 259/783/196 263/784/196
vt 0.765625 0.984375
vt 0.859375 0.984375
vt 0.859375 0.890625
vt 0.765625 0.890625
vn 0.500000 0.866025 0.000000
f 264/785/197 263/786/197 259/787/197 260/788/197
vt 0.765625 0.984375
vt 0.859375 0.984375
vt 0.859375 0.890625
vt 0.765625 0.890625
vn -0.500000 -0.866025 0.000000
f 257/789/198 258/790/198 262/791/198 261/792/198
# part: lid_dome_z
v 0.682536 0.063950 0.556250
v 0.779964 0.007700 0.556250
v 0.789339 0.023938 0.556250
v 0.691911 0.080188 0.556250
v 0.682536 0.063950 0.718750
v 0.779964 0.007700 0.718750
v 0.789339 0.023938 0.718750
v 0.691911 0.080188 0.718750
vt 0.765625 0.984375
vt 0.859375 0.984375
vt 0.859375 0.890625
vt 0.765625 0.890625
vn 0.000000 0.000000 1.000000
usemtl huo_xue_dan_atlas
f 269/793/199 270/794/199 271/795/199 272/796/199
vt 0.765625 0.984375
vt 0.859375 0.984375
vt 0.859375 0.890625
vt 0.765625 0.890625
vn 0.000000 0.000000 -1.000000
f 266/797/200 265/798/200 268/799/200 267/800/200
vt 0.765625 0.984375
vt 0.859375 0.984375
vt 0.859375 0.890625
vt 0.765625 0.890625
vn -0.866025 0.500000 0.000000
f 265/801/201 269/802/201 272/803/201 268/804/201
vt 0.765625 0.984375
vt 0.859375 0.984375
vt 0.859375 0.890625
vt 0.765625 0.890625
vn 0.866025 -0.500000 0.000000
f 270/805/202 266/806/202 267/807/202 271/808/202
vt 0.765625 0.984375
vt 0.859375 0.984375
vt 0.859375 0.890625
vt 0.765625 0.890625
vn 0.500000 0.866025 0.000000
f 272/809/203 271/810/203 267/811/203 268/812/203
vt 0.765625 0.984375
vt 0.859375 0.984375
vt 0.859375 0.890625
vt 0.765625 0.890625
vn -0.500000 -0.866025 0.000000
f 265/813/204 266/814/204 270/815/204 269/816/204
# part: lid_knob
v 0.724387 0.061438 0.618750
v 0.756863 0.042688 0.618750
v 0.769363 0.064339 0.618750
v 0.736887 0.083089 0.618750
v 0.724387 0.061438 0.656250
v 0.756863 0.042688 0.656250
v 0.769363 0.064339 0.656250
v 0.736887 0.083089 0.656250
vt 0.890625 0.984375
vt 0.984375 0.984375
vt 0.984375 0.890625
vt 0.890625 0.890625
vn 0.000000 0.000000 1.000000
usemtl huo_xue_dan_atlas
f 277/817/205 278/818/205 279/819/205 280/820/205
vt 0.890625 0.984375
vt 0.984375 0.984375
vt 0.984375 0.890625
vt 0.890625 0.890625
vn 0.000000 0.000000 -1.000000
f 274/821/206 273/822/206 276/823/206 275/824/206
vt 0.890625 0.984375
vt 0.984375 0.984375
vt 0.984375 0.890625
vt 0.890625 0.890625
vn -0.866025 0.500000 0.000000
f 273/825/207 277/826/207 280/827/207 276/828/207
vt 0.890625 0.984375
vt 0.984375 0.984375
vt 0.984375 0.890625
vt 0.890625 0.890625
vn 0.866025 -0.500000 0.000000
f 278/829/208 274/830/208 275/831/208 279/832/208
vt 0.890625 0.984375
vt 0.984375 0.984375
vt 0.984375 0.890625
vt 0.890625 0.890625
vn 0.500000 0.866025 0.000000
f 280/833/209 279/834/209 275/835/209 276/836/209
vt 0.890625 0.984375
vt 0.984375 0.984375
vt 0.984375 0.890625
vt 0.890625 0.890625
vn -0.500000 -0.866025 0.000000
f 273/837/210 274/838/210 278/839/210 277/840/210
# part: p_exit_mx
v 0.430000 0.036750 0.598562
v 0.532500 0.036750 0.598562
v 0.532500 0.069500 0.598562
v 0.430000 0.069500 0.598562
v 0.430000 0.036750 0.676438
v 0.532500 0.036750 0.676438
v 0.532500 0.069500 0.676438
v 0.430000 0.069500 0.676438
vt 0.015625 0.859375
vt 0.109375 0.859375
vt 0.109375 0.765625
vt 0.015625 0.765625
vn 0.000000 0.000000 1.000000
usemtl huo_xue_dan_atlas
f 285/841/211 286/842/211 287/843/211 288/844/211
vt 0.015625 0.859375
vt 0.109375 0.859375
vt 0.109375 0.765625
vt 0.015625 0.765625
vn 0.000000 0.000000 -1.000000
f 282/845/212 281/846/212 284/847/212 283/848/212
vt 0.015625 0.859375
vt 0.109375 0.859375
vt 0.109375 0.765625
vt 0.015625 0.765625
vn -1.000000 0.000000 0.000000
f 281/849/213 285/850/213 288/851/213 284/852/213
vt 0.015625 0.859375
vt 0.109375 0.859375
vt 0.109375 0.765625
vt 0.015625 0.765625
vn 1.000000 0.000000 0.000000
f 286/853/214 282/854/214 283/855/214 287/856/214
vt 0.015625 0.859375
vt 0.109375 0.859375
vt 0.109375 0.765625
vt 0.015625 0.765625
vn 0.000000 1.000000 0.000000
f 288/857/215 287/858/215 283/859/215 284/860/215
vt 0.015625 0.859375
vt 0.109375 0.859375
vt 0.109375 0.765625
vt 0.015625 0.765625
vn 0.000000 -1.000000 0.000000
f 281/861/216 282/862/216 286/863/216 285/864/216
# part: p_exit_mz
v 0.442312 0.036750 0.586250
v 0.520188 0.036750 0.586250
v 0.520188 0.069500 0.586250
v 0.442312 0.069500 0.586250
v 0.442312 0.036750 0.688750
v 0.520188 0.036750 0.688750
v 0.520188 0.069500 0.688750
v 0.442312 0.069500 0.688750
vt 0.015625 0.859375
vt 0.109375 0.859375
vt 0.109375 0.765625
vt 0.015625 0.765625
vn 0.000000 0.000000 1.000000
usemtl huo_xue_dan_atlas
f 293/865/217 294/866/217 295/867/217 296/868/217
vt 0.015625 0.859375
vt 0.109375 0.859375
vt 0.109375 0.765625
vt 0.015625 0.765625
vn 0.000000 0.000000 -1.000000
f 290/869/218 289/870/218 292/871/218 291/872/218
vt 0.015625 0.859375
vt 0.109375 0.859375
vt 0.109375 0.765625
vt 0.015625 0.765625
vn -1.000000 0.000000 0.000000
f 289/873/219 293/874/219 296/875/219 292/876/219
vt 0.015625 0.859375
vt 0.109375 0.859375
vt 0.109375 0.765625
vt 0.015625 0.765625
vn 1.000000 0.000000 0.000000
f 294/877/220 290/878/220 291/879/220 295/880/220
vt 0.015625 0.859375
vt 0.109375 0.859375
vt 0.109375 0.765625
vt 0.015625 0.765625
vn 0.000000 1.000000 0.000000
f 296/881/221 295/882/221 291/883/221 292/884/221
vt 0.015625 0.859375
vt 0.109375 0.859375
vt 0.109375 0.765625
vt 0.015625 0.765625
vn 0.000000 -1.000000 0.000000
f 289/885/222 290/886/222 294/887/222 293/888/222
# part: p_exit_top
v 0.450500 0.069500 0.606750
v 0.512000 0.069500 0.606750
v 0.512000 0.104375 0.606750
v 0.450500 0.104375 0.606750
v 0.450500 0.069500 0.668250
v 0.512000 0.069500 0.668250
v 0.512000 0.104375 0.668250
v 0.450500 0.104375 0.668250
vt 0.140625 0.859375
vt 0.234375 0.859375
vt 0.234375 0.765625
vt 0.140625 0.765625
vn 0.000000 0.000000 1.000000
usemtl huo_xue_dan_atlas
f 301/889/223 302/890/223 303/891/223 304/892/223
vt 0.140625 0.859375
vt 0.234375 0.859375
vt 0.234375 0.765625
vt 0.140625 0.765625
vn 0.000000 0.000000 -1.000000
f 298/893/224 297/894/224 300/895/224 299/896/224
vt 0.140625 0.859375
vt 0.234375 0.859375
vt 0.234375 0.765625
vt 0.140625 0.765625
vn -1.000000 0.000000 0.000000
f 297/897/225 301/898/225 304/899/225 300/900/225
vt 0.140625 0.859375
vt 0.234375 0.859375
vt 0.234375 0.765625
vt 0.140625 0.765625
vn 1.000000 0.000000 0.000000
f 302/901/226 298/902/226 299/903/226 303/904/226
vt 0.140625 0.859375
vt 0.234375 0.859375
vt 0.234375 0.765625
vt 0.140625 0.765625
vn 0.000000 1.000000 0.000000
f 304/905/227 303/906/227 299/907/227 300/908/227
vt 0.140625 0.859375
vt 0.234375 0.859375
vt 0.234375 0.765625
vt 0.140625 0.765625
vn 0.000000 -1.000000 0.000000
f 297/909/228 298/910/228 302/911/228 301/912/228
# part: p_exit_bot
v 0.450500 0.001875 0.606750
v 0.512000 0.001875 0.606750
v 0.512000 0.036750 0.606750
v 0.450500 0.036750 0.606750
v 0.450500 0.001875 0.668250
v 0.512000 0.001875 0.668250
v 0.512000 0.036750 0.668250
v 0.450500 0.036750 0.668250
vt 0.265625 0.859375
vt 0.359375 0.859375
vt 0.359375 0.765625
vt 0.265625 0.765625
vn 0.000000 0.000000 1.000000
usemtl huo_xue_dan_atlas
f 309/913/229 310/914/229 311/915/229 312/916/229
vt 0.265625 0.859375
vt 0.359375 0.859375
vt 0.359375 0.765625
vt 0.265625 0.765625
vn 0.000000 0.000000 -1.000000
f 306/917/230 305/918/230 308/919/230 307/920/230
vt 0.265625 0.859375
vt 0.359375 0.859375
vt 0.359375 0.765625
vt 0.265625 0.765625
vn -1.000000 0.000000 0.000000
f 305/921/231 309/922/231 312/923/231 308/924/231
vt 0.265625 0.859375
vt 0.359375 0.859375
vt 0.359375 0.765625
vt 0.265625 0.765625
vn 1.000000 0.000000 0.000000
f 310/925/232 306/926/232 307/927/232 311/928/232
vt 0.265625 0.859375
vt 0.359375 0.859375
vt 0.359375 0.765625
vt 0.265625 0.765625
vn 0.000000 1.000000 0.000000
f 312/929/233 311/930/233 307/931/233 308/932/233
vt 0.265625 0.859375
vt 0.359375 0.859375
vt 0.359375 0.765625
vt 0.265625 0.765625
vn 0.000000 -1.000000 0.000000
f 305/933/234 306/934/234 310/935/234 309/936/234
# part: p_front_main_mx
v 0.480000 0.039125 0.662562
v 0.595000 0.039125 0.662562
v 0.595000 0.075875 0.662562
v 0.480000 0.075875 0.662562
v 0.480000 0.039125 0.749938
v 0.595000 0.039125 0.749938
v 0.595000 0.075875 0.749938
v 0.480000 0.075875 0.749938
vt 0.015625 0.859375
vt 0.109375 0.859375
vt 0.109375 0.765625
vt 0.015625 0.765625
vn 0.000000 0.000000 1.000000
usemtl huo_xue_dan_atlas
f 317/937/235 318/938/235 319/939/235 320/940/235
vt 0.015625 0.859375
vt 0.109375 0.859375
vt 0.109375 0.765625
vt 0.015625 0.765625
vn 0.000000 0.000000 -1.000000
f 314/941/236 313/942/236 316/943/236 315/944/236
vt 0.015625 0.859375
vt 0.109375 0.859375
vt 0.109375 0.765625
vt 0.015625 0.765625
vn -1.000000 0.000000 0.000000
f 313/945/237 317/946/237 320/947/237 316/948/237
vt 0.015625 0.859375
vt 0.109375 0.859375
vt 0.109375 0.765625
vt 0.015625 0.765625
vn 1.000000 0.000000 0.000000
f 318/949/238 314/950/238 315/951/238 319/952/238
vt 0.015625 0.859375
vt 0.109375 0.859375
vt 0.109375 0.765625
vt 0.015625 0.765625
vn 0.000000 1.000000 0.000000
f 320/953/239 319/954/239 315/955/239 316/956/239
vt 0.015625 0.859375
vt 0.109375 0.859375
vt 0.109375 0.765625
vt 0.015625 0.765625
vn 0.000000 -1.000000 0.000000
f 313/957/240 314/958/240 318/959/240 317/960/240
# part: p_front_main_mz
v 0.493812 0.039125 0.648750
v 0.581187 0.039125 0.648750
v 0.581187 0.075875 0.648750
v 0.493812 0.075875 0.648750
v 0.493812 0.039125 0.763750
v 0.581187 0.039125 0.763750
v 0.581187 0.075875 0.763750
v 0.493812 0.075875 0.763750
vt 0.015625 0.859375
vt 0.109375 0.859375
vt 0.109375 0.765625
vt 0.015625 0.765625
vn 0.000000 0.000000 1.000000
usemtl huo_xue_dan_atlas
f 325/961/241 326/962/241 327/963/241 328/964/241
vt 0.015625 0.859375
vt 0.109375 0.859375
vt 0.109375 0.765625
vt 0.015625 0.765625
vn 0.000000 0.000000 -1.000000
f 322/965/242 321/966/242 324/967/242 323/968/242
vt 0.015625 0.859375
vt 0.109375 0.859375
vt 0.109375 0.765625
vt 0.015625 0.765625
vn -1.000000 0.000000 0.000000
f 321/969/243 325/970/243 328/971/243 324/972/243
vt 0.015625 0.859375
vt 0.109375 0.859375
vt 0.109375 0.765625
vt 0.015625 0.765625
vn 1.000000 0.000000 0.000000
f 326/973/244 322/974/244 323/975/244 327/976/244
vt 0.015625 0.859375
vt 0.109375 0.859375
vt 0.109375 0.765625
vt 0.015625 0.765625
vn 0.000000 1.000000 0.000000
f 328/977/245 327/978/245 323/979/245 324/980/245
vt 0.015625 0.859375
vt 0.109375 0.859375
vt 0.109375 0.765625
vt 0.015625 0.765625
vn 0.000000 -1.000000 0.000000
f 321/981/246 322/982/246 326/983/246 325/984/246
# part: p_front_main_top
v 0.503000 0.075875 0.671750
v 0.572000 0.075875 0.671750
v 0.572000 0.115000 0.671750
v 0.503000 0.115000 0.671750
v 0.503000 0.075875 0.740750
v 0.572000 0.075875 0.740750
v 0.572000 0.115000 0.740750
v 0.503000 0.115000 0.740750
vt 0.140625 0.859375
vt 0.234375 0.859375
vt 0.234375 0.765625
vt 0.140625 0.765625
vn 0.000000 0.000000 1.000000
usemtl huo_xue_dan_atlas
f 333/985/247 334/986/247 335/987/247 336/988/247
vt 0.140625 0.859375
vt 0.234375 0.859375
vt 0.234375 0.765625
vt 0.140625 0.765625
vn 0.000000 0.000000 -1.000000
f 330/989/248 329/990/248 332/991/248 331/992/248
vt 0.140625 0.859375
vt 0.234375 0.859375
vt 0.234375 0.765625
vt 0.140625 0.765625
vn -1.000000 0.000000 0.000000
f 329/993/249 333/994/249 336/995/249 332/996/249
vt 0.140625 0.859375
vt 0.234375 0.859375
vt 0.234375 0.765625
vt 0.140625 0.765625
vn 1.000000 0.000000 0.000000
f 334/997/250 330/998/250 331/999/250 335/1000/250
vt 0.140625 0.859375
vt 0.234375 0.859375
vt 0.234375 0.765625
vt 0.140625 0.765625
vn 0.000000 1.000000 0.000000
f 336/1001/251 335/1002/251 331/1003/251 332/1004/251
vt 0.140625 0.859375
vt 0.234375 0.859375
vt 0.234375 0.765625
vt 0.140625 0.765625
vn 0.000000 -1.000000 0.000000
f 329/1005/252 330/1006/252 334/1007/252 333/1008/252
# part: p_front_main_bot
v 0.503000 0.000000 0.671750
v 0.572000 0.000000 0.671750
v 0.572000 0.039125 0.671750
v 0.503000 0.039125 0.671750
v 0.503000 0.000000 0.740750
v 0.572000 0.000000 0.740750
v 0.572000 0.039125 0.740750
v 0.503000 0.039125 0.740750
vt 0.265625 0.859375
vt 0.359375 0.859375
vt 0.359375 0.765625
vt 0.265625 0.765625
vn 0.000000 0.000000 1.000000
usemtl huo_xue_dan_atlas
f 341/1009/253 342/1010/253 343/1011/253 344/1012/253
vt 0.265625 0.859375
vt 0.359375 0.859375
vt 0.359375 0.765625
vt 0.265625 0.765625
vn 0.000000 0.000000 -1.000000
f 338/1013/254 337/1014/254 340/1015/254 339/1016/254
vt 0.265625 0.859375
vt 0.359375 0.859375
vt 0.359375 0.765625
vt 0.265625 0.765625
vn -1.000000 0.000000 0.000000
f 337/1017/255 341/1018/255 344/1019/255 340/1020/255
vt 0.265625 0.859375
vt 0.359375 0.859375
vt 0.359375 0.765625
vt 0.265625 0.765625
vn 1.000000 0.000000 0.000000
f 342/1021/256 338/1022/256 339/1023/256 343/1024/256
vt 0.265625 0.859375
vt 0.359375 0.859375
vt 0.359375 0.765625
vt 0.265625 0.765625
vn 0.000000 1.000000 0.000000
f 344/1025/257 343/1026/257 339/1027/257 340/1028/257
vt 0.265625 0.859375
vt 0.359375 0.859375
vt 0.359375 0.765625
vt 0.265625 0.765625
vn 0.000000 -1.000000 0.000000
f 337/1029/258 338/1030/258 342/1031/258 341/1032/258
# part: p_out_r1_mx
v 0.511250 0.034875 0.586063
v 0.613750 0.034875 0.586063
v 0.613750 0.067625 0.586063
v 0.511250 0.067625 0.586063
v 0.511250 0.034875 0.663938
v 0.613750 0.034875 0.663938
v 0.613750 0.067625 0.663938
v 0.511250 0.067625 0.663938
vt 0.015625 0.859375
vt 0.109375 0.859375
vt 0.109375 0.765625
vt 0.015625 0.765625
vn 0.000000 0.000000 1.000000
usemtl huo_xue_dan_atlas
f 349/1033/259 350/1034/259 351/1035/259 352/1036/259
vt 0.015625 0.859375
vt 0.109375 0.859375
vt 0.109375 0.765625
vt 0.015625 0.765625
vn 0.000000 0.000000 -1.000000
f 346/1037/260 345/1038/260 348/1039/260 347/1040/260
vt 0.015625 0.859375
vt 0.109375 0.859375
vt 0.109375 0.765625
vt 0.015625 0.765625
vn -1.000000 0.000000 0.000000
f 345/1041/261 349/1042/261 352/1043/261 348/1044/261
vt 0.015625 0.859375
vt 0.109375 0.859375
vt 0.109375 0.765625
vt 0.015625 0.765625
vn 1.000000 0.000000 0.000000
f 350/1045/262 346/1046/262 347/1047/262 351/1048/262
vt 0.015625 0.859375
vt 0.109375 0.859375
vt 0.109375 0.765625
vt 0.015625 0.765625
vn 0.000000 1.000000 0.000000
f 352/1049/263 351/1050/263 347/1051/263 348/1052/263
vt 0.015625 0.859375
vt 0.109375 0.859375
vt 0.109375 0.765625
vt 0.015625 0.765625
vn 0.000000 -1.000000 0.000000
f 345/1053/264 346/1054/264 350/1055/264 349/1056/264
# part: p_out_r1_mz
v 0.523563 0.034875 0.573750
v 0.601437 0.034875 0.573750
v 0.601437 0.067625 0.573750
v 0.523563 0.067625 0.573750
v 0.523563 0.034875 0.676250
v 0.601437 0.034875 0.676250
v 0.601437 0.067625 0.676250
v 0.523563 0.067625 0.676250
vt 0.015625 0.859375
vt 0.109375 0.859375
vt 0.109375 0.765625
vt 0.015625 0.765625
vn 0.000000 0.000000 1.000000
usemtl huo_xue_dan_atlas
f 357/1057/265 358/1058/265 359/1059/265 360/1060/265
vt 0.015625 0.859375
vt 0.109375 0.859375
vt 0.109375 0.765625
vt 0.015625 0.765625
vn 0.000000 0.000000 -1.000000
f 354/1061/266 353/1062/266 356/1063/266 355/1064/266
vt 0.015625 0.859375
vt 0.109375 0.859375
vt 0.109375 0.765625
vt 0.015625 0.765625
vn -1.000000 0.000000 0.000000
f 353/1065/267 357/1066/267 360/1067/267 356/1068/267
vt 0.015625 0.859375
vt 0.109375 0.859375
vt 0.109375 0.765625
vt 0.015625 0.765625
vn 1.000000 0.000000 0.000000
f 358/1069/268 354/1070/268 355/1071/268 359/1072/268
vt 0.015625 0.859375
vt 0.109375 0.859375
vt 0.109375 0.765625
vt 0.015625 0.765625
vn 0.000000 1.000000 0.000000
f 360/1073/269 359/1074/269 355/1075/269 356/1076/269
vt 0.015625 0.859375
vt 0.109375 0.859375
vt 0.109375 0.765625
vt 0.015625 0.765625
vn 0.000000 -1.000000 0.000000
f 353/1077/270 354/1078/270 358/1079/270 357/1080/270
# part: p_out_r1_top
v 0.531750 0.067625 0.594250
v 0.593250 0.067625 0.594250
v 0.593250 0.102500 0.594250
v 0.531750 0.102500 0.594250
v 0.531750 0.067625 0.655750
v 0.593250 0.067625 0.655750
v 0.593250 0.102500 0.655750
v 0.531750 0.102500 0.655750
vt 0.140625 0.859375
vt 0.234375 0.859375
vt 0.234375 0.765625
vt 0.140625 0.765625
vn 0.000000 0.000000 1.000000
usemtl huo_xue_dan_atlas
f 365/1081/271 366/1082/271 367/1083/271 368/1084/271
vt 0.140625 0.859375
vt 0.234375 0.859375
vt 0.234375 0.765625
vt 0.140625 0.765625
vn 0.000000 0.000000 -1.000000
f 362/1085/272 361/1086/272 364/1087/272 363/1088/272
vt 0.140625 0.859375
vt 0.234375 0.859375
vt 0.234375 0.765625
vt 0.140625 0.765625
vn -1.000000 0.000000 0.000000
f 361/1089/273 365/1090/273 368/1091/273 364/1092/273
vt 0.140625 0.859375
vt 0.234375 0.859375
vt 0.234375 0.765625
vt 0.140625 0.765625
vn 1.000000 0.000000 0.000000
f 366/1093/274 362/1094/274 363/1095/274 367/1096/274
vt 0.140625 0.859375
vt 0.234375 0.859375
vt 0.234375 0.765625
vt 0.140625 0.765625
vn 0.000000 1.000000 0.000000
f 368/1097/275 367/1098/275 363/1099/275 364/1100/275
vt 0.140625 0.859375
vt 0.234375 0.859375
vt 0.234375 0.765625
vt 0.140625 0.765625
vn 0.000000 -1.000000 0.000000
f 361/1101/276 362/1102/276 366/1103/276 365/1104/276
# part: p_out_r1_bot
v 0.531750 0.000000 0.594250
v 0.593250 0.000000 0.594250
v 0.593250 0.034875 0.594250
v 0.531750 0.034875 0.594250
v 0.531750 0.000000 0.655750
v 0.593250 0.000000 0.655750
v 0.593250 0.034875 0.655750
v 0.531750 0.034875 0.655750
vt 0.265625 0.859375
vt 0.359375 0.859375
vt 0.359375 0.765625
vt 0.265625 0.765625
vn 0.000000 0.000000 1.000000
usemtl huo_xue_dan_atlas
f 373/1105/277 374/1106/277 375/1107/277 376/1108/277
vt 0.265625 0.859375
vt 0.359375 0.859375
vt 0.359375 0.765625
vt 0.265625 0.765625
vn 0.000000 0.000000 -1.000000
f 370/1109/278 369/1110/278 372/1111/278 371/1112/278
vt 0.265625 0.859375
vt 0.359375 0.859375
vt 0.359375 0.765625
vt 0.265625 0.765625
vn -1.000000 0.000000 0.000000
f 369/1113/279 373/1114/279 376/1115/279 372/1116/279
vt 0.265625 0.859375
vt 0.359375 0.859375
vt 0.359375 0.765625
vt 0.265625 0.765625
vn 1.000000 0.000000 0.000000
f 374/1117/280 370/1118/280 371/1119/280 375/1120/280
vt 0.265625 0.859375
vt 0.359375 0.859375
vt 0.359375 0.765625
vt 0.265625 0.765625
vn 0.000000 1.000000 0.000000
f 376/1121/281 375/1122/281 371/1123/281 372/1124/281
vt 0.265625 0.859375
vt 0.359375 0.859375
vt 0.359375 0.765625
vt 0.265625 0.765625
vn 0.000000 -1.000000 0.000000
f 369/1125/282 370/1126/282 374/1127/282 373/1128/282
# part: p_out_mid_mx
v 0.467500 0.034875 0.529813
v 0.570000 0.034875 0.529813
v 0.570000 0.067625 0.529813
v 0.467500 0.067625 0.529813
v 0.467500 0.034875 0.607688
v 0.570000 0.034875 0.607688
v 0.570000 0.067625 0.607688
v 0.467500 0.067625 0.607688
vt 0.015625 0.859375
vt 0.109375 0.859375
vt 0.109375 0.765625
vt 0.015625 0.765625
vn 0.000000 0.000000 1.000000
usemtl huo_xue_dan_atlas
f 381/1129/283 382/1130/283 383/1131/283 384/1132/283
vt 0.015625 0.859375
vt 0.109375 0.859375
vt 0.109375 0.765625
vt 0.015625 0.765625
vn 0.000000 0.000000 -1.000000
f 378/1133/284 377/1134/284 380/1135/284 379/1136/284
vt 0.015625 0.859375
vt 0.109375 0.859375
vt 0.109375 0.765625
vt 0.015625 0.765625
vn -1.000000 0.000000 0.000000
f 377/1137/285 381/1138/285 384/1139/285 380/1140/285
vt 0.015625 0.859375
vt 0.109375 0.859375
vt 0.109375 0.765625
vt 0.015625 0.765625
vn 1.000000 0.000000 0.000000
f 382/1141/286 378/1142/286 379/1143/286 383/1144/286
vt 0.015625 0.859375
vt 0.109375 0.859375
vt 0.109375 0.765625
vt 0.015625 0.765625
vn 0.000000 1.000000 0.000000
f 384/1145/287 383/1146/287 379/1147/287 380/1148/287
vt 0.015625 0.859375
vt 0.109375 0.859375
vt 0.109375 0.765625
vt 0.015625 0.765625
vn 0.000000 -1.000000 0.000000
f 377/1149/288 378/1150/288 382/1151/288 381/1152/288
# part: p_out_mid_mz
v 0.479812 0.034875 0.517500
v 0.557688 0.034875 0.517500
v 0.557688 0.067625 0.517500
v 0.479812 0.067625 0.517500
v 0.479812 0.034875 0.620000
v 0.557688 0.034875 0.620000
v 0.557688 0.067625 0.620000
v 0.479812 0.067625 0.620000
vt 0.015625 0.859375
vt 0.109375 0.859375
vt 0.109375 0.765625
vt 0.015625 0.765625
vn 0.000000 0.000000 1.000000
usemtl huo_xue_dan_atlas
f 389/1153/289 390/1154/289 391/1155/289 392/1156/289
vt 0.015625 0.859375
vt 0.109375 0.859375
vt 0.109375 0.765625
vt 0.015625 0.765625
vn 0.000000 0.000000 -1.000000
f 386/1157/290 385/1158/290 388/1159/290 387/1160/290
vt 0.015625 0.859375
vt 0.109375 0.859375
vt 0.109375 0.765625
vt 0.015625 0.765625
vn -1.000000 0.000000 0.000000
f 385/1161/291 389/1162/291 392/1163/291 388/1164/291
vt 0.015625 0.859375
vt 0.109375 0.859375
vt 0.109375 0.765625
vt 0.015625 0.765625
vn 1.000000 0.000000 0.000000
f 390/1165/292 386/1166/292 387/1167/292 391/1168/292
vt 0.015625 0.859375
vt 0.109375 0.859375
vt 0.109375 0.765625
vt 0.015625 0.765625
vn 0.000000 1.000000 0.000000
f 392/1169/293 391/1170/293 387/1171/293 388/1172/293
vt 0.015625 0.859375
vt 0.109375 0.859375
vt 0.109375 0.765625
vt 0.015625 0.765625
vn 0.000000 -1.000000 0.000000
f 385/1173/294 386/1174/294 390/1175/294 389/1176/294
# part: p_out_mid_top
v 0.488000 0.067625 0.538000
v 0.549500 0.067625 0.538000
v 0.549500 0.102500 0.538000
v 0.488000 0.102500 0.538000
v 0.488000 0.067625 0.599500
v 0.549500 0.067625 0.599500
v 0.549500 0.102500 0.599500
v 0.488000 0.102500 0.599500
vt 0.140625 0.859375
vt 0.234375 0.859375
vt 0.234375 0.765625
vt 0.140625 0.765625
vn 0.000000 0.000000 1.000000
usemtl huo_xue_dan_atlas
f 397/1177/295 398/1178/295 399/1179/295 400/1180/295
vt 0.140625 0.859375
vt 0.234375 0.859375
vt 0.234375 0.765625
vt 0.140625 0.765625
vn 0.000000 0.000000 -1.000000
f 394/1181/296 393/1182/296 396/1183/296 395/1184/296
vt 0.140625 0.859375
vt 0.234375 0.859375
vt 0.234375 0.765625
vt 0.140625 0.765625
vn -1.000000 0.000000 0.000000
f 393/1185/297 397/1186/297 400/1187/297 396/1188/297
vt 0.140625 0.859375
vt 0.234375 0.859375
vt 0.234375 0.765625
vt 0.140625 0.765625
vn 1.000000 0.000000 0.000000
f 398/1189/298 394/1190/298 395/1191/298 399/1192/298
vt 0.140625 0.859375
vt 0.234375 0.859375
vt 0.234375 0.765625
vt 0.140625 0.765625
vn 0.000000 1.000000 0.000000
f 400/1193/299 399/1194/299 395/1195/299 396/1196/299
vt 0.140625 0.859375
vt 0.234375 0.859375
vt 0.234375 0.765625
vt 0.140625 0.765625
vn 0.000000 -1.000000 0.000000
f 393/1197/300 394/1198/300 398/1199/300 397/1200/300
# part: p_out_mid_bot
v 0.488000 0.000000 0.538000
v 0.549500 0.000000 0.538000
v 0.549500 0.034875 0.538000
v 0.488000 0.034875 0.538000
v 0.488000 0.000000 0.599500
v 0.549500 0.000000 0.599500
v 0.549500 0.034875 0.599500
v 0.488000 0.034875 0.599500
vt 0.265625 0.859375
vt 0.359375 0.859375
vt 0.359375 0.765625
vt 0.265625 0.765625
vn 0.000000 0.000000 1.000000
usemtl huo_xue_dan_atlas
f 405/1201/301 406/1202/301 407/1203/301 408/1204/301
vt 0.265625 0.859375
vt 0.359375 0.859375
vt 0.359375 0.765625
vt 0.265625 0.765625
vn 0.000000 0.000000 -1.000000
f 402/1205/302 401/1206/302 404/1207/302 403/1208/302
vt 0.265625 0.859375
vt 0.359375 0.859375
vt 0.359375 0.765625
vt 0.265625 0.765625
vn -1.000000 0.000000 0.000000
f 401/1209/303 405/1210/303 408/1211/303 404/1212/303
vt 0.265625 0.859375
vt 0.359375 0.859375
vt 0.359375 0.765625
vt 0.265625 0.765625
vn 1.000000 0.000000 0.000000
f 406/1213/304 402/1214/304 403/1215/304 407/1216/304
vt 0.265625 0.859375
vt 0.359375 0.859375
vt 0.359375 0.765625
vt 0.265625 0.765625
vn 0.000000 1.000000 0.000000
f 408/1217/305 407/1218/305 403/1219/305 404/1220/305
vt 0.265625 0.859375
vt 0.359375 0.859375
vt 0.359375 0.765625
vt 0.265625 0.765625
vn 0.000000 -1.000000 0.000000
f 401/1221/306 402/1222/306 406/1223/306 405/1224/306
