# jin_zhong_dan.obj -- generated from modelScript/models/JinZhongDan.bbmodel
# Keep this file in sync with the source bbmodel and its embedded atlas.
mtllib jin_zhong_dan.mtl
o jin_zhong_dan
# part: p_base_fl_mx
v 0.271875 0.083000 0.469875
v 0.515625 0.083000 0.469875
v 0.515625 0.160750 0.469875
v 0.271875 0.160750 0.469875
v 0.271875 0.083000 0.655125
v 0.515625 0.083000 0.655125
v 0.515625 0.160750 0.655125
v 0.271875 0.160750 0.655125
vt 0.265625 0.984375
vt 0.359375 0.984375
vt 0.359375 0.890625
vt 0.265625 0.890625
vn 0.000000 0.000000 1.000000
usemtl jin_zhong_dan_atlas
f 5/1/1 6/2/1 7/3/1 8/4/1
vt 0.265625 0.984375
vt 0.359375 0.984375
vt 0.359375 0.890625
vt 0.265625 0.890625
vn 0.000000 0.000000 -1.000000
f 2/5/2 1/6/2 4/7/2 3/8/2
vt 0.265625 0.984375
vt 0.359375 0.984375
vt 0.359375 0.890625
vt 0.265625 0.890625
vn -1.000000 0.000000 0.000000
f 1/9/3 5/10/3 8/11/3 4/12/3
vt 0.265625 0.984375
vt 0.359375 0.984375
vt 0.359375 0.890625
vt 0.265625 0.890625
vn 1.000000 0.000000 0.000000
f 6/13/4 2/14/4 3/15/4 7/16/4
vt 0.265625 0.984375
vt 0.359375 0.984375
vt 0.359375 0.890625
vt 0.265625 0.890625
vn 0.000000 1.000000 0.000000
f 8/17/5 7/18/5 3/19/5 4/20/5
vt 0.265625 0.984375
vt 0.359375 0.984375
vt 0.359375 0.890625
vt 0.265625 0.890625
vn 0.000000 -1.000000 0.000000
f 1/21/6 2/22/6 6/23/6 5/24/6
# part: p_base_fl_mz
v 0.301125 0.083000 0.440625
v 0.486375 0.083000 0.440625
v 0.486375 0.160750 0.440625
v 0.301125 0.160750 0.440625
v 0.301125 0.083000 0.684375
v 0.486375 0.083000 0.684375
v 0.486375 0.160750 0.684375
v 0.301125 0.160750 0.684375
vt 0.265625 0.984375
vt 0.359375 0.984375
vt 0.359375 0.890625
vt 0.265625 0.890625
vn 0.000000 0.000000 1.000000
usemtl jin_zhong_dan_atlas
f 13/25/7 14/26/7 15/27/7 16/28/7
vt 0.265625 0.984375
vt 0.359375 0.984375
vt 0.359375 0.890625
vt 0.265625 0.890625
vn 0.000000 0.000000 -1.000000
f 10/29/8 9/30/8 12/31/8 11/32/8
vt 0.265625 0.984375
vt 0.359375 0.984375
vt 0.359375 0.890625
vt 0.265625 0.890625
vn -1.000000 0.000000 0.000000
f 9/33/9 13/34/9 16/35/9 12/36/9
vt 0.265625 0.984375
vt 0.359375 0.984375
vt 0.359375 0.890625
vt 0.265625 0.890625
vn 1.000000 0.000000 0.000000
f 14/37/10 10/38/10 11/39/10 15/40/10
vt 0.265625 0.984375
vt 0.359375 0.984375
vt 0.359375 0.890625
vt 0.265625 0.890625
vn 0.000000 1.000000 0.000000
f 16/41/11 15/42/11 11/43/11 12/44/11
vt 0.265625 0.984375
vt 0.359375 0.984375
vt 0.359375 0.890625
vt 0.265625 0.890625
vn 0.000000 -1.000000 0.000000
f 9/45/12 10/46/12 14/47/12 13/48/12
# part: p_base_fl_top_mid
v 0.318188 0.160750 0.486938
v 0.469313 0.160750 0.486938
v 0.469313 0.225438 0.486938
v 0.318188 0.225438 0.486938
v 0.318188 0.160750 0.638062
v 0.469313 0.160750 0.638062
v 0.469313 0.225438 0.638062
v 0.318188 0.225438 0.638062
vt 0.140625 0.984375
vt 0.234375 0.984375
vt 0.234375 0.890625
vt 0.140625 0.890625
vn 0.000000 0.000000 1.000000
usemtl jin_zhong_dan_atlas
f 21/49/13 22/50/13 23/51/13 24/52/13
vt 0.140625 0.984375
vt 0.234375 0.984375
vt 0.234375 0.890625
vt 0.140625 0.890625
vn 0.000000 0.000000 -1.000000
f 18/53/14 17/54/14 20/55/14 19/56/14
vt 0.140625 0.984375
vt 0.234375 0.984375
vt 0.234375 0.890625
vt 0.140625 0.890625
vn -1.000000 0.000000 0.000000
f 17/57/15 21/58/15 24/59/15 20/60/15
vt 0.140625 0.984375
vt 0.234375 0.984375
vt 0.234375 0.890625
vt 0.140625 0.890625
vn 1.000000 0.000000 0.000000
f 22/61/16 18/62/16 19/63/16 23/64/16
vt 0.140625 0.984375
vt 0.234375 0.984375
vt 0.234375 0.890625
vt 0.140625 0.890625
vn 0.000000 1.000000 0.000000
f 24/65/17 23/66/17 19/67/17 20/68/17
vt 0.140625 0.984375
vt 0.234375 0.984375
vt 0.234375 0.890625
vt 0.140625 0.890625
vn 0.000000 -1.000000 0.000000
f 17/69/18 18/70/18 22/71/18 21/72/18
# part: p_base_fl_top_spec
v 0.347438 0.225438 0.516188
v 0.440063 0.225438 0.516188
v 0.440063 0.243750 0.516188
v 0.347438 0.243750 0.516188
v 0.347438 0.225438 0.608812
v 0.440063 0.225438 0.608812
v 0.440063 0.243750 0.608812
v 0.347438 0.243750 0.608812
vt 0.015625 0.984375
vt 0.109375 0.984375
vt 0.109375 0.890625
vt 0.015625 0.890625
vn 0.000000 0.000000 1.000000
usemtl jin_zhong_dan_atlas
f 29/73/19 30/74/19 31/75/19 32/76/19
vt 0.015625 0.984375
vt 0.109375 0.984375
vt 0.109375 0.890625
vt 0.015625 0.890625
vn 0.000000 0.000000 -1.000000
f 26/77/20 25/78/20 28/79/20 27/80/20
vt 0.015625 0.984375
vt 0.109375 0.984375
vt 0.109375 0.890625
vt 0.015625 0.890625
vn -1.000000 0.000000 0.000000
f 25/81/21 29/82/21 32/83/21 28/84/21
vt 0.015625 0.984375
vt 0.109375 0.984375
vt 0.109375 0.890625
vt 0.015625 0.890625
vn 1.000000 0.000000 0.000000
f 30/85/22 26/86/22 27/87/22 31/88/22
vt 0.015625 0.984375
vt 0.109375 0.984375
vt 0.109375 0.890625
vt 0.015625 0.890625
vn 0.000000 1.000000 0.000000
f 32/89/23 31/90/23 27/91/23 28/92/23
vt 0.015625 0.984375
vt 0.109375 0.984375
vt 0.109375 0.890625
vt 0.015625 0.890625
vn 0.000000 -1.000000 0.000000
f 25/93/24 26/94/24 30/95/24 29/96/24
# part: p_base_fl_bot
v 0.318188 0.000000 0.486938
v 0.469313 0.000000 0.486938
v 0.469313 0.083000 0.486938
v 0.318188 0.083000 0.486938
v 0.318188 0.000000 0.638062
v 0.469313 0.000000 0.638062
v 0.469313 0.083000 0.638062
v 0.318188 0.083000 0.638062
vt 0.515625 0.984375
vt 0.609375 0.984375
vt 0.609375 0.890625
vt 0.515625 0.890625
vn 0.000000 0.000000 1.000000
usemtl jin_zhong_dan_atlas
f 37/97/25 38/98/25 39/99/25 40/100/25
vt 0.515625 0.984375
vt 0.609375 0.984375
vt 0.609375 0.890625
vt 0.515625 0.890625
vn 0.000000 0.000000 -1.000000
f 34/101/26 33/102/26 36/103/26 35/104/26
vt 0.515625 0.984375
vt 0.609375 0.984375
vt 0.609375 0.890625
vt 0.515625 0.890625
vn -1.000000 0.000000 0.000000
f 33/105/27 37/106/27 40/107/27 36/108/27
vt 0.515625 0.984375
vt 0.609375 0.984375
vt 0.609375 0.890625
vt 0.515625 0.890625
vn 1.000000 0.000000 0.000000
f 38/109/28 34/110/28 35/111/28 39/112/28
vt 0.515625 0.984375
vt 0.609375 0.984375
vt 0.609375 0.890625
vt 0.515625 0.890625
vn 0.000000 1.000000 0.000000
f 40/113/29 39/114/29 35/115/29 36/116/29
vt 0.515625 0.984375
vt 0.609375 0.984375
vt 0.609375 0.890625
vt 0.515625 0.890625
vn 0.000000 -1.000000 0.000000
f 33/117/30 34/118/30 38/119/30 37/120/30
# part: p_base_fr_mx
v 0.484375 0.083000 0.469875
v 0.728125 0.083000 0.469875
v 0.728125 0.160750 0.469875
v 0.484375 0.160750 0.469875
v 0.484375 0.083000 0.655125
v 0.728125 0.083000 0.655125
v 0.728125 0.160750 0.655125
v 0.484375 0.160750 0.655125
vt 0.265625 0.984375
vt 0.359375 0.984375
vt 0.359375 0.890625
vt 0.265625 0.890625
vn 0.000000 0.000000 1.000000
usemtl jin_zhong_dan_atlas
f 45/121/31 46/122/31 47/123/31 48/124/31
vt 0.265625 0.984375
vt 0.359375 0.984375
vt 0.359375 0.890625
vt 0.265625 0.890625
vn 0.000000 0.000000 -1.000000
f 42/125/32 41/126/32 44/127/32 43/128/32
vt 0.265625 0.984375
vt 0.359375 0.984375
vt 0.359375 0.890625
vt 0.265625 0.890625
vn -1.000000 0.000000 0.000000
f 41/129/33 45/130/33 48/131/33 44/132/33
vt 0.265625 0.984375
vt 0.359375 0.984375
vt 0.359375 0.890625
vt 0.265625 0.890625
vn 1.000000 0.000000 0.000000
f 46/133/34 42/134/34 43/135/34 47/136/34
vt 0.265625 0.984375
vt 0.359375 0.984375
vt 0.359375 0.890625
vt 0.265625 0.890625
vn 0.000000 1.000000 0.000000
f 48/137/35 47/138/35 43/139/35 44/140/35
vt 0.265625 0.984375
vt 0.359375 0.984375
vt 0.359375 0.890625
vt 0.265625 0.890625
vn 0.000000 -1.000000 0.000000
f 41/141/36 42/142/36 46/143/36 45/144/36
# part: p_base_fr_mz
v 0.513625 0.083000 0.440625
v 0.698875 0.083000 0.440625
v 0.698875 0.160750 0.440625
v 0.513625 0.160750 0.440625
v 0.513625 0.083000 0.684375
v 0.698875 0.083000 0.684375
v 0.698875 0.160750 0.684375
v 0.513625 0.160750 0.684375
vt 0.265625 0.984375
vt 0.359375 0.984375
vt 0.359375 0.890625
vt 0.265625 0.890625
vn 0.000000 0.000000 1.000000
usemtl jin_zhong_dan_atlas
f 53/145/37 54/146/37 55/147/37 56/148/37
vt 0.265625 0.984375
vt 0.359375 0.984375
vt 0.359375 0.890625
vt 0.265625 0.890625
vn 0.000000 0.000000 -1.000000
f 50/149/38 49/150/38 52/151/38 51/152/38
vt 0.265625 0.984375
vt 0.359375 0.984375
vt 0.359375 0.890625
vt 0.265625 0.890625
vn -1.000000 0.000000 0.000000
f 49/153/39 53/154/39 56/155/39 52/156/39
vt 0.265625 0.984375
vt 0.359375 0.984375
vt 0.359375 0.890625
vt 0.265625 0.890625
vn 1.000000 0.000000 0.000000
f 54/157/40 50/158/40 51/159/40 55/160/40
vt 0.265625 0.984375
vt 0.359375 0.984375
vt 0.359375 0.890625
vt 0.265625 0.890625
vn 0.000000 1.000000 0.000000
f 56/161/41 55/162/41 51/163/41 52/164/41
vt 0.265625 0.984375
vt 0.359375 0.984375
vt 0.359375 0.890625
vt 0.265625 0.890625
vn 0.000000 -1.000000 0.000000
f 49/165/42 50/166/42 54/167/42 53/168/42
# part: p_base_fr_top_mid
v 0.530687 0.160750 0.486938
v 0.681812 0.160750 0.486938
v 0.681812 0.225438 0.486938
v 0.530687 0.225438 0.486938
v 0.530687 0.160750 0.638062
v 0.681812 0.160750 0.638062
v 0.681812 0.225438 0.638062
v 0.530687 0.225438 0.638062
vt 0.140625 0.984375
vt 0.234375 0.984375
vt 0.234375 0.890625
vt 0.140625 0.890625
vn 0.000000 0.000000 1.000000
usemtl jin_zhong_dan_atlas
f 61/169/43 62/170/43 63/171/43 64/172/43
vt 0.140625 0.984375
vt 0.234375 0.984375
vt 0.234375 0.890625
vt 0.140625 0.890625
vn 0.000000 0.000000 -1.000000
f 58/173/44 57/174/44 60/175/44 59/176/44
vt 0.140625 0.984375
vt 0.234375 0.984375
vt 0.234375 0.890625
vt 0.140625 0.890625
vn -1.000000 0.000000 0.000000
f 57/177/45 61/178/45 64/179/45 60/180/45
vt 0.140625 0.984375
vt 0.234375 0.984375
vt 0.234375 0.890625
vt 0.140625 0.890625
vn 1.000000 0.000000 0.000000
f 62/181/46 58/182/46 59/183/46 63/184/46
vt 0.140625 0.984375
vt 0.234375 0.984375
vt 0.234375 0.890625
vt 0.140625 0.890625
vn 0.000000 1.000000 0.000000
f 64/185/47 63/186/47 59/187/47 60/188/47
vt 0.140625 0.984375
vt 0.234375 0.984375
vt 0.234375 0.890625
vt 0.140625 0.890625
vn 0.000000 -1.000000 0.000000
f 57/189/48 58/190/48 62/191/48 61/192/48
# part: p_base_fr_top_spec
v 0.559937 0.225438 0.516188
v 0.652562 0.225438 0.516188
v 0.652562 0.243750 0.516188
v 0.559937 0.243750 0.516188
v 0.559937 0.225438 0.608812
v 0.652562 0.225438 0.608812
v 0.652562 0.243750 0.608812
v 0.559937 0.243750 0.608812
vt 0.015625 0.984375
vt 0.109375 0.984375
vt 0.109375 0.890625
vt 0.015625 0.890625
vn 0.000000 0.000000 1.000000
usemtl jin_zhong_dan_atlas
f 69/193/49 70/194/49 71/195/49 72/196/49
vt 0.015625 0.984375
vt 0.109375 0.984375
vt 0.109375 0.890625
vt 0.015625 0.890625
vn 0.000000 0.000000 -1.000000
f 66/197/50 65/198/50 68/199/50 67/200/50
vt 0.015625 0.984375
vt 0.109375 0.984375
vt 0.109375 0.890625
vt 0.015625 0.890625
vn -1.000000 0.000000 0.000000
f 65/201/51 69/202/51 72/203/51 68/204/51
vt 0.015625 0.984375
vt 0.109375 0.984375
vt 0.109375 0.890625
vt 0.015625 0.890625
vn 1.000000 0.000000 0.000000
f 70/205/52 66/206/52 67/207/52 71/208/52
vt 0.015625 0.984375
vt 0.109375 0.984375
vt 0.109375 0.890625
vt 0.015625 0.890625
vn 0.000000 1.000000 0.000000
f 72/209/53 71/210/53 67/211/53 68/212/53
vt 0.015625 0.984375
vt 0.109375 0.984375
vt 0.109375 0.890625
vt 0.015625 0.890625
vn 0.000000 -1.000000 0.000000
f 65/213/54 66/214/54 70/215/54 69/216/54
# part: p_base_fr_bot
v 0.530687 0.000000 0.486938
v 0.681812 0.000000 0.486938
v 0.681812 0.083000 0.486938
v 0.530687 0.083000 0.486938
v 0.530687 0.000000 0.638062
v 0.681812 0.000000 0.638062
v 0.681812 0.083000 0.638062
v 0.530687 0.083000 0.638062
vt 0.515625 0.984375
vt 0.609375 0.984375
vt 0.609375 0.890625
vt 0.515625 0.890625
vn 0.000000 0.000000 1.000000
usemtl jin_zhong_dan_atlas
f 77/217/55 78/218/55 79/219/55 80/220/55
vt 0.515625 0.984375
vt 0.609375 0.984375
vt 0.609375 0.890625
vt 0.515625 0.890625
vn 0.000000 0.000000 -1.000000
f 74/221/56 73/222/56 76/223/56 75/224/56
vt 0.515625 0.984375
vt 0.609375 0.984375
vt 0.609375 0.890625
vt 0.515625 0.890625
vn -1.000000 0.000000 0.000000
f 73/225/57 77/226/57 80/227/57 76/228/57
vt 0.515625 0.984375
vt 0.609375 0.984375
vt 0.609375 0.890625
vt 0.515625 0.890625
vn 1.000000 0.000000 0.000000
f 78/229/58 74/230/58 75/231/58 79/232/58
vt 0.515625 0.984375
vt 0.609375 0.984375
vt 0.609375 0.890625
vt 0.515625 0.890625
vn 0.000000 1.000000 0.000000
f 80/233/59 79/234/59 75/235/59 76/236/59
vt 0.515625 0.984375
vt 0.609375 0.984375
vt 0.609375 0.890625
vt 0.515625 0.890625
vn 0.000000 -1.000000 0.000000
f 73/237/60 74/238/60 78/239/60 77/240/60
# part: p_base_back_mx
v 0.378125 0.083000 0.288625
v 0.621875 0.083000 0.288625
v 0.621875 0.160750 0.288625
v 0.378125 0.160750 0.288625
v 0.378125 0.083000 0.473875
v 0.621875 0.083000 0.473875
v 0.621875 0.160750 0.473875
v 0.378125 0.160750 0.473875
vt 0.265625 0.984375
vt 0.359375 0.984375
vt 0.359375 0.890625
vt 0.265625 0.890625
vn 0.000000 0.000000 1.000000
usemtl jin_zhong_dan_atlas
f 85/241/61 86/242/61 87/243/61 88/244/61
vt 0.265625 0.984375
vt 0.359375 0.984375
vt 0.359375 0.890625
vt 0.265625 0.890625
vn 0.000000 0.000000 -1.000000
f 82/245/62 81/246/62 84/247/62 83/248/62
vt 0.265625 0.984375
vt 0.359375 0.984375
vt 0.359375 0.890625
vt 0.265625 0.890625
vn -1.000000 0.000000 0.000000
f 81/249/63 85/250/63 88/251/63 84/252/63
vt 0.265625 0.984375
vt 0.359375 0.984375
vt 0.359375 0.890625
vt 0.265625 0.890625
vn 1.000000 0.000000 0.000000
f 86/253/64 82/254/64 83/255/64 87/256/64
vt 0.265625 0.984375
vt 0.359375 0.984375
vt 0.359375 0.890625
vt 0.265625 0.890625
vn 0.000000 1.000000 0.000000
f 88/257/65 87/258/65 83/259/65 84/260/65
vt 0.265625 0.984375
vt 0.359375 0.984375
vt 0.359375 0.890625
vt 0.265625 0.890625
vn 0.000000 -1.000000 0.000000
f 81/261/66 82/262/66 86/263/66 85/264/66
# part: p_base_back_mz
v 0.407375 0.083000 0.259375
v 0.592625 0.083000 0.259375
v 0.592625 0.160750 0.259375
v 0.407375 0.160750 0.259375
v 0.407375 0.083000 0.503125
v 0.592625 0.083000 0.503125
v 0.592625 0.160750 0.503125
v 0.407375 0.160750 0.503125
vt 0.265625 0.984375
vt 0.359375 0.984375
vt 0.359375 0.890625
vt 0.265625 0.890625
vn 0.000000 0.000000 1.000000
usemtl jin_zhong_dan_atlas
f 93/265/67 94/266/67 95/267/67 96/268/67
vt 0.265625 0.984375
vt 0.359375 0.984375
vt 0.359375 0.890625
vt 0.265625 0.890625
vn 0.000000 0.000000 -1.000000
f 90/269/68 89/270/68 92/271/68 91/272/68
vt 0.265625 0.984375
vt 0.359375 0.984375
vt 0.359375 0.890625
vt 0.265625 0.890625
vn -1.000000 0.000000 0.000000
f 89/273/69 93/274/69 96/275/69 92/276/69
vt 0.265625 0.984375
vt 0.359375 0.984375
vt 0.359375 0.890625
vt 0.265625 0.890625
vn 1.000000 0.000000 0.000000
f 94/277/70 90/278/70 91/279/70 95/280/70
vt 0.265625 0.984375
vt 0.359375 0.984375
vt 0.359375 0.890625
vt 0.265625 0.890625
vn 0.000000 1.000000 0.000000
f 96/281/71 95/282/71 91/283/71 92/284/71
vt 0.265625 0.984375
vt 0.359375 0.984375
vt 0.359375 0.890625
vt 0.265625 0.890625
vn 0.000000 -1.000000 0.000000
f 89/285/72 90/286/72 94/287/72 93/288/72
# part: p_base_back_top_mid
v 0.424438 0.160750 0.305688
v 0.575562 0.160750 0.305688
v 0.575562 0.225438 0.305688
v 0.424438 0.225438 0.305688
v 0.424438 0.160750 0.456813
v 0.575562 0.160750 0.456813
v 0.575562 0.225438 0.456813
v 0.424438 0.225438 0.456813
vt 0.140625 0.984375
vt 0.234375 0.984375
vt 0.234375 0.890625
vt 0.140625 0.890625
vn 0.000000 0.000000 1.000000
usemtl jin_zhong_dan_atlas
f 101/289/73 102/290/73 103/291/73 104/292/73
vt 0.140625 0.984375
vt 0.234375 0.984375
vt 0.234375 0.890625
vt 0.140625 0.890625
vn 0.000000 0.000000 -1.000000
f 98/293/74 97/294/74 100/295/74 99/296/74
vt 0.140625 0.984375
vt 0.234375 0.984375
vt 0.234375 0.890625
vt 0.140625 0.890625
vn -1.000000 0.000000 0.000000
f 97/297/75 101/298/75 104/299/75 100/300/75
vt 0.140625 0.984375
vt 0.234375 0.984375
vt 0.234375 0.890625
vt 0.140625 0.890625
vn 1.000000 0.000000 0.000000
f 102/301/76 98/302/76 99/303/76 103/304/76
vt 0.140625 0.984375
vt 0.234375 0.984375
vt 0.234375 0.890625
vt 0.140625 0.890625
vn 0.000000 1.000000 0.000000
f 104/305/77 103/306/77 99/307/77 100/308/77
vt 0.140625 0.984375
vt 0.234375 0.984375
vt 0.234375 0.890625
vt 0.140625 0.890625
vn 0.000000 -1.000000 0.000000
f 97/309/78 98/310/78 102/311/78 101/312/78
# part: p_base_back_top_spec
v 0.453688 0.225438 0.334937
v 0.546312 0.225438 0.334937
v 0.546312 0.243750 0.334937
v 0.453688 0.243750 0.334937
v 0.453688 0.225438 0.427563
v 0.546312 0.225438 0.427563
v 0.546312 0.243750 0.427563
v 0.453688 0.243750 0.427563
vt 0.015625 0.984375
vt 0.109375 0.984375
vt 0.109375 0.890625
vt 0.015625 0.890625
vn 0.000000 0.000000 1.000000
usemtl jin_zhong_dan_atlas
f 109/313/79 110/314/79 111/315/79 112/316/79
vt 0.015625 0.984375
vt 0.109375 0.984375
vt 0.109375 0.890625
vt 0.015625 0.890625
vn 0.000000 0.000000 -1.000000
f 106/317/80 105/318/80 108/319/80 107/320/80
vt 0.015625 0.984375
vt 0.109375 0.984375
vt 0.109375 0.890625
vt 0.015625 0.890625
vn -1.000000 0.000000 0.000000
f 105/321/81 109/322/81 112/323/81 108/324/81
vt 0.015625 0.984375
vt 0.109375 0.984375
vt 0.109375 0.890625
vt 0.015625 0.890625
vn 1.000000 0.000000 0.000000
f 110/325/82 106/326/82 107/327/82 111/328/82
vt 0.015625 0.984375
vt 0.109375 0.984375
vt 0.109375 0.890625
vt 0.015625 0.890625
vn 0.000000 1.000000 0.000000
f 112/329/83 111/330/83 107/331/83 108/332/83
vt 0.015625 0.984375
vt 0.109375 0.984375
vt 0.109375 0.890625
vt 0.015625 0.890625
vn 0.000000 -1.000000 0.000000
f 105/333/84 106/334/84 110/335/84 109/336/84
# part: p_base_back_bot
v 0.424438 0.000000 0.305688
v 0.575562 0.000000 0.305688
v 0.575562 0.083000 0.305688
v 0.424438 0.083000 0.305688
v 0.424438 0.000000 0.456813
v 0.575562 0.000000 0.456813
v 0.575562 0.083000 0.456813
v 0.424438 0.083000 0.456813
vt 0.515625 0.984375
vt 0.609375 0.984375
vt 0.609375 0.890625
vt 0.515625 0.890625
vn 0.000000 0.000000 1.000000
usemtl jin_zhong_dan_atlas
f 117/337/85 118/338/85 119/339/85 120/340/85
vt 0.515625 0.984375
vt 0.609375 0.984375
vt 0.609375 0.890625
vt 0.515625 0.890625
vn 0.000000 0.000000 -1.000000
f 114/341/86 113/342/86 116/343/86 115/344/86
vt 0.515625 0.984375
vt 0.609375 0.984375
vt 0.609375 0.890625
vt 0.515625 0.890625
vn -1.000000 0.000000 0.000000
f 113/345/87 117/346/87 120/347/87 116/348/87
vt 0.515625 0.984375
vt 0.609375 0.984375
vt 0.609375 0.890625
vt 0.515625 0.890625
vn 1.000000 0.000000 0.000000
f 118/349/88 114/350/88 115/351/88 119/352/88
vt 0.515625 0.984375
vt 0.609375 0.984375
vt 0.609375 0.890625
vt 0.515625 0.890625
vn 0.000000 1.000000 0.000000
f 120/353/89 119/354/89 115/355/89 116/356/89
vt 0.515625 0.984375
vt 0.609375 0.984375
vt 0.609375 0.890625
vt 0.515625 0.890625
vn 0.000000 -1.000000 0.000000
f 113/357/90 114/358/90 118/359/90 117/360/90
# part: p_top_main_mx
v 0.371875 0.256000 0.402625
v 0.628125 0.256000 0.402625
v 0.628125 0.337750 0.402625
v 0.371875 0.337750 0.402625
v 0.371875 0.256000 0.597375
v 0.628125 0.256000 0.597375
v 0.628125 0.337750 0.597375
v 0.371875 0.337750 0.597375
vt 0.265625 0.984375
vt 0.359375 0.984375
vt 0.359375 0.890625
vt 0.265625 0.890625
vn 0.000000 0.000000 1.000000
usemtl jin_zhong_dan_atlas
f 125/361/91 126/362/91 127/363/91 128/364/91
vt 0.265625 0.984375
vt 0.359375 0.984375
vt 0.359375 0.890625
vt 0.265625 0.890625
vn 0.000000 0.000000 -1.000000
f 122/365/92 121/366/92 124/367/92 123/368/92
vt 0.265625 0.984375
vt 0.359375 0.984375
vt 0.359375 0.890625
vt 0.265625 0.890625
vn -1.000000 0.000000 0.000000
f 121/369/93 125/370/93 128/371/93 124/372/93
vt 0.265625 0.984375
vt 0.359375 0.984375
vt 0.359375 0.890625
vt 0.265625 0.890625
vn 1.000000 0.000000 0.000000
f 126/373/94 122/374/94 123/375/94 127/376/94
vt 0.265625 0.984375
vt 0.359375 0.984375
vt 0.359375 0.890625
vt 0.265625 0.890625
vn 0.000000 1.000000 0.000000
f 128/377/95 127/378/95 123/379/95 124/380/95
vt 0.265625 0.984375
vt 0.359375 0.984375
vt 0.359375 0.890625
vt 0.265625 0.890625
vn 0.000000 -1.000000 0.000000
f 121/381/96 122/382/96 126/383/96 125/384/96
# part: p_top_main_mz
v 0.402625 0.256000 0.371875
v 0.597375 0.256000 0.371875
v 0.597375 0.337750 0.371875
v 0.402625 0.337750 0.371875
v 0.402625 0.256000 0.628125
v 0.597375 0.256000 0.628125
v 0.597375 0.337750 0.628125
v 0.402625 0.337750 0.628125
vt 0.265625 0.984375
vt 0.359375 0.984375
vt 0.359375 0.890625
vt 0.265625 0.890625
vn 0.000000 0.000000 1.000000
usemtl jin_zhong_dan_atlas
f 133/385/97 134/386/97 135/387/97 136/388/97
vt 0.265625 0.984375
vt 0.359375 0.984375
vt 0.359375 0.890625
vt 0.265625 0.890625
vn 0.000000 0.000000 -1.000000
f 130/389/98 129/390/98 132/391/98 131/392/98
vt 0.265625 0.984375
vt 0.359375 0.984375
vt 0.359375 0.890625
vt 0.265625 0.890625
vn -1.000000 0.000000 0.000000
f 129/393/99 133/394/99 136/395/99 132/396/99
vt 0.265625 0.984375
vt 0.359375 0.984375
vt 0.359375 0.890625
vt 0.265625 0.890625
vn 1.000000 0.000000 0.000000
f 134/397/100 130/398/100 131/399/100 135/400/100
vt 0.265625 0.984375
vt 0.359375 0.984375
vt 0.359375 0.890625
vt 0.265625 0.890625
vn 0.000000 1.000000 0.000000
f 136/401/101 135/402/101 131/403/101 132/404/101
vt 0.265625 0.984375
vt 0.359375 0.984375
vt 0.359375 0.890625
vt 0.265625 0.890625
vn 0.000000 -1.000000 0.000000
f 129/405/102 130/406/102 134/407/102 133/408/102
# part: p_top_main_top_mid
v 0.420563 0.337750 0.420563
v 0.579438 0.337750 0.420563
v 0.579438 0.405750 0.420563
v 0.420563 0.405750 0.420563
v 0.420563 0.337750 0.579438
v 0.579438 0.337750 0.579438
v 0.579438 0.405750 0.579438
v 0.420563 0.405750 0.579438
vt 0.140625 0.984375
vt 0.234375 0.984375
vt 0.234375 0.890625
vt 0.140625 0.890625
vn 0.000000 0.000000 1.000000
usemtl jin_zhong_dan_atlas
f 141/409/103 142/410/103 143/411/103 144/412/103
vt 0.140625 0.984375
vt 0.234375 0.984375
vt 0.234375 0.890625
vt 0.140625 0.890625
vn 0.000000 0.000000 -1.000000
f 138/413/104 137/414/104 140/415/104 139/416/104
vt 0.140625 0.984375
vt 0.234375 0.984375
vt 0.234375 0.890625
vt 0.140625 0.890625
vn -1.000000 0.000000 0.000000
f 137/417/105 141/418/105 144/419/105 140/420/105
vt 0.140625 0.984375
vt 0.234375 0.984375
vt 0.234375 0.890625
vt 0.140625 0.890625
vn 1.000000 0.000000 0.000000
f 142/421/106 138/422/106 139/423/106 143/424/106
vt 0.140625 0.984375
vt 0.234375 0.984375
vt 0.234375 0.890625
vt 0.140625 0.890625
vn 0.000000 1.000000 0.000000
f 144/425/107 143/426/107 139/427/107 140/428/107
vt 0.140625 0.984375
vt 0.234375 0.984375
vt 0.234375 0.890625
vt 0.140625 0.890625
vn 0.000000 -1.000000 0.000000
f 137/429/108 138/430/108 142/431/108 141/432/108
# part: p_top_main_top_spec
v 0.451313 0.405750 0.451313
v 0.548687 0.405750 0.451313
v 0.548687 0.425000 0.451313
v 0.451313 0.425000 0.451313
v 0.451313 0.405750 0.548687
v 0.548687 0.405750 0.548687
v 0.548687 0.425000 0.548687
v 0.451313 0.425000 0.548687
vt 0.015625 0.984375
vt 0.109375 0.984375
vt 0.109375 0.890625
vt 0.015625 0.890625
vn 0.000000 0.000000 1.000000
usemtl jin_zhong_dan_atlas
f 149/433/109 150/434/109 151/435/109 152/436/109
vt 0.015625 0.984375
vt 0.109375 0.984375
vt 0.109375 0.890625
vt 0.015625 0.890625
vn 0.000000 0.000000 -1.000000
f 146/437/110 145/438/110 148/439/110 147/440/110
vt 0.015625 0.984375
vt 0.109375 0.984375
vt 0.109375 0.890625
vt 0.015625 0.890625
vn -1.000000 0.000000 0.000000
f 145/441/111 149/442/111 152/443/111 148/444/111
vt 0.015625 0.984375
vt 0.109375 0.984375
vt 0.109375 0.890625
vt 0.015625 0.890625
vn 1.000000 0.000000 0.000000
f 150/445/112 146/446/112 147/447/112 151/448/112
vt 0.015625 0.984375
vt 0.109375 0.984375
vt 0.109375 0.890625
vt 0.015625 0.890625
vn 0.000000 1.000000 0.000000
f 152/449/113 151/450/113 147/451/113 148/452/113
vt 0.015625 0.984375
vt 0.109375 0.984375
vt 0.109375 0.890625
vt 0.015625 0.890625
vn 0.000000 -1.000000 0.000000
f 145/453/114 146/454/114 150/455/114 149/456/114
# part: p_top_main_bot
v 0.420563 0.168750 0.420563
v 0.579438 0.168750 0.420563
v 0.579438 0.256000 0.420563
v 0.420563 0.256000 0.420563
v 0.420563 0.168750 0.579438
v 0.579438 0.168750 0.579438
v 0.579438 0.256000 0.579438
v 0.420563 0.256000 0.579438
vt 0.515625 0.984375
vt 0.609375 0.984375
vt 0.609375 0.890625
vt 0.515625 0.890625
vn 0.000000 0.000000 1.000000
usemtl jin_zhong_dan_atlas
f 157/457/115 158/458/115 159/459/115 160/460/115
vt 0.515625 0.984375
vt 0.609375 0.984375
vt 0.609375 0.890625
vt 0.515625 0.890625
vn 0.000000 0.000000 -1.000000
f 154/461/116 153/462/116 156/463/116 155/464/116
vt 0.515625 0.984375
vt 0.609375 0.984375
vt 0.609375 0.890625
vt 0.515625 0.890625
vn -1.000000 0.000000 0.000000
f 153/465/117 157/466/117 160/467/117 156/468/117
vt 0.515625 0.984375
vt 0.609375 0.984375
vt 0.609375 0.890625
vt 0.515625 0.890625
vn 1.000000 0.000000 0.000000
f 158/469/118 154/470/118 155/471/118 159/472/118
vt 0.515625 0.984375
vt 0.609375 0.984375
vt 0.609375 0.890625
vt 0.515625 0.890625
vn 0.000000 1.000000 0.000000
f 160/473/119 159/474/119 155/475/119 156/476/119
vt 0.515625 0.984375
vt 0.609375 0.984375
vt 0.609375 0.890625
vt 0.515625 0.890625
vn 0.000000 -1.000000 0.000000
f 153/477/120 154/478/120 158/479/120 157/480/120
# part: p_out_front_mx
v 0.437500 0.063812 0.641250
v 0.625000 0.063812 0.641250
v 0.625000 0.123688 0.641250
v 0.437500 0.123688 0.641250
v 0.437500 0.063812 0.783750
v 0.625000 0.063812 0.783750
v 0.625000 0.123688 0.783750
v 0.437500 0.123688 0.783750
vt 0.265625 0.984375
vt 0.359375 0.984375
vt 0.359375 0.890625
vt 0.265625 0.890625
vn 0.000000 0.000000 1.000000
usemtl jin_zhong_dan_atlas
f 165/481/121 166/482/121 167/483/121 168/484/121
vt 0.265625 0.984375
vt 0.359375 0.984375
vt 0.359375 0.890625
vt 0.265625 0.890625
vn 0.000000 0.000000 -1.000000
f 162/485/122 161/486/122 164/487/122 163/488/122
vt 0.265625 0.984375
vt 0.359375 0.984375
vt 0.359375 0.890625
vt 0.265625 0.890625
vn -1.000000 0.000000 0.000000
f 161/489/123 165/490/123 168/491/123 164/492/123
vt 0.265625 0.984375
vt 0.359375 0.984375
vt 0.359375 0.890625
vt 0.265625 0.890625
vn 1.000000 0.000000 0.000000
f 166/493/124 162/494/124 163/495/124 167/496/124
vt 0.265625 0.984375
vt 0.359375 0.984375
vt 0.359375 0.890625
vt 0.265625 0.890625
vn 0.000000 1.000000 0.000000
f 168/497/125 167/498/125 163/499/125 164/500/125
vt 0.265625 0.984375
vt 0.359375 0.984375
vt 0.359375 0.890625
vt 0.265625 0.890625
vn 0.000000 -1.000000 0.000000
f 161/501/126 162/502/126 166/503/126 165/504/126
# part: p_out_front_mz
v 0.460000 0.063812 0.618750
v 0.602500 0.063812 0.618750
v 0.602500 0.123688 0.618750
v 0.460000 0.123688 0.618750
v 0.460000 0.063812 0.806250
v 0.602500 0.063812 0.806250
v 0.602500 0.123688 0.806250
v 0.460000 0.123688 0.806250
vt 0.265625 0.984375
vt 0.359375 0.984375
vt 0.359375 0.890625
vt 0.265625 0.890625
vn 0.000000 0.000000 1.000000
usemtl jin_zhong_dan_atlas
f 173/505/127 174/506/127 175/507/127 176/508/127
vt 0.265625 0.984375
vt 0.359375 0.984375
vt 0.359375 0.890625
vt 0.265625 0.890625
vn 0.000000 0.000000 -1.000000
f 170/509/128 169/510/128 172/511/128 171/512/128
vt 0.265625 0.984375
vt 0.359375 0.984375
vt 0.359375 0.890625
vt 0.265625 0.890625
vn -1.000000 0.000000 0.000000
f 169/513/129 173/514/129 176/515/129 172/516/129
vt 0.265625 0.984375
vt 0.359375 0.984375
vt 0.359375 0.890625
vt 0.265625 0.890625
vn 1.000000 0.000000 0.000000
f 174/517/130 170/518/130 171/519/130 175/520/130
vt 0.265625 0.984375
vt 0.359375 0.984375
vt 0.359375 0.890625
vt 0.265625 0.890625
vn 0.000000 1.000000 0.000000
f 176/521/131 175/522/131 171/523/131 172/524/131
vt 0.265625 0.984375
vt 0.359375 0.984375
vt 0.359375 0.890625
vt 0.265625 0.890625
vn 0.000000 -1.000000 0.000000
f 169/525/132 170/526/132 174/527/132 173/528/132
# part: p_out_front_top_mid
v 0.473125 0.123688 0.654375
v 0.589375 0.123688 0.654375
v 0.589375 0.173437 0.654375
v 0.473125 0.173437 0.654375
v 0.473125 0.123688 0.770625
v 0.589375 0.123688 0.770625
v 0.589375 0.173437 0.770625
v 0.473125 0.173437 0.770625
vt 0.140625 0.984375
vt 0.234375 0.984375
vt 0.234375 0.890625
vt 0.140625 0.890625
vn 0.000000 0.000000 1.000000
usemtl jin_zhong_dan_atlas
f 181/529/133 182/530/133 183/531/133 184/532/133
vt 0.140625 0.984375
vt 0.234375 0.984375
vt 0.234375 0.890625
vt 0.140625 0.890625
vn 0.000000 0.000000 -1.000000
f 178/533/134 177/534/134 180/535/134 179/536/134
vt 0.140625 0.984375
vt 0.234375 0.984375
vt 0.234375 0.890625
vt 0.140625 0.890625
vn -1.000000 0.000000 0.000000
f 177/537/135 181/538/135 184/539/135 180/540/135
vt 0.140625 0.984375
vt 0.234375 0.984375
vt 0.234375 0.890625
vt 0.140625 0.890625
vn 1.000000 0.000000 0.000000
f 182/541/136 178/542/136 179/543/136 183/544/136
vt 0.140625 0.984375
vt 0.234375 0.984375
vt 0.234375 0.890625
vt 0.140625 0.890625
vn 0.000000 1.000000 0.000000
f 184/545/137 183/546/137 179/547/137 180/548/137
vt 0.140625 0.984375
vt 0.234375 0.984375
vt 0.234375 0.890625
vt 0.140625 0.890625
vn 0.000000 -1.000000 0.000000
f 177/549/138 178/550/138 182/551/138 181/552/138
# part: p_out_front_top_spec
v 0.495625 0.173437 0.676875
v 0.566875 0.173437 0.676875
v 0.566875 0.187500 0.676875
v 0.495625 0.187500 0.676875
v 0.495625 0.173437 0.748125
v 0.566875 0.173437 0.748125
v 0.566875 0.187500 0.748125
v 0.495625 0.187500 0.748125
vt 0.015625 0.984375
vt 0.109375 0.984375
vt 0.109375 0.890625
vt 0.015625 0.890625
vn 0.000000 0.000000 1.000000
usemtl jin_zhong_dan_atlas
f 189/553/139 190/554/139 191/555/139 192/556/139
vt 0.015625 0.984375
vt 0.109375 0.984375
vt 0.109375 0.890625
vt 0.015625 0.890625
vn 0.000000 0.000000 -1.000000
f 186/557/140 185/558/140 188/559/140 187/560/140
vt 0.015625 0.984375
vt 0.109375 0.984375
vt 0.109375 0.890625
vt 0.015625 0.890625
vn -1.000000 0.000000 0.000000
f 185/561/141 189/562/141 192/563/141 188/564/141
vt 0.015625 0.984375
vt 0.109375 0.984375
vt 0.109375 0.890625
vt 0.015625 0.890625
vn 1.000000 0.000000 0.000000
f 190/565/142 186/566/142 187/567/142 191/568/142
vt 0.015625 0.984375
vt 0.109375 0.984375
vt 0.109375 0.890625
vt 0.015625 0.890625
vn 0.000000 1.000000 0.000000
f 192/569/143 191/570/143 187/571/143 188/572/143
vt 0.015625 0.984375
vt 0.109375 0.984375
vt 0.109375 0.890625
vt 0.015625 0.890625
vn 0.000000 -1.000000 0.000000
f 185/573/144 186/574/144 190/575/144 189/576/144
# part: p_out_front_bot
v 0.473125 0.000000 0.654375
v 0.589375 0.000000 0.654375
v 0.589375 0.063812 0.654375
v 0.473125 0.063812 0.654375
v 0.473125 0.000000 0.770625
v 0.589375 0.000000 0.770625
v 0.589375 0.063812 0.770625
v 0.473125 0.063812 0.770625
vt 0.515625 0.984375
vt 0.609375 0.984375
vt 0.609375 0.890625
vt 0.515625 0.890625
vn 0.000000 0.000000 1.000000
usemtl jin_zhong_dan_atlas
f 197/577/145 198/578/145 199/579/145 200/580/145
vt 0.515625 0.984375
vt 0.609375 0.984375
vt 0.609375 0.890625
vt 0.515625 0.890625
vn 0.000000 0.000000 -1.000000
f 194/581/146 193/582/146 196/583/146 195/584/146
vt 0.515625 0.984375
vt 0.609375 0.984375
vt 0.609375 0.890625
vt 0.515625 0.890625
vn -1.000000 0.000000 0.000000
f 193/585/147 197/586/147 200/587/147 196/588/147
vt 0.515625 0.984375
vt 0.609375 0.984375
vt 0.609375 0.890625
vt 0.515625 0.890625
vn 1.000000 0.000000 0.000000
f 198/589/148 194/590/148 195/591/148 199/592/148
vt 0.515625 0.984375
vt 0.609375 0.984375
vt 0.609375 0.890625
vt 0.515625 0.890625
vn 0.000000 1.000000 0.000000
f 200/593/149 199/594/149 195/595/149 196/596/149
vt 0.515625 0.984375
vt 0.609375 0.984375
vt 0.609375 0.890625
vt 0.515625 0.890625
vn 0.000000 -1.000000 0.000000
f 193/597/150 194/598/150 198/599/150 197/600/150
