# herb_knife_iron.obj -- generated from modelScript/models/HerbKnifeIron.bbmodel
# Keep this file in sync with the source bbmodel and its embedded atlas.
mtllib herb_knife_iron.mtl
o herb_knife_iron
v 0.434375 0.700000 0.450000
v 0.455000 0.700000 0.450000
v 0.455000 0.800000 0.450000
v 0.434375 0.800000 0.450000
v 0.434375 0.700000 0.550000
v 0.455000 0.700000 0.550000
v 0.455000 0.800000 0.550000
v 0.434375 0.800000 0.550000
v 0.421875 0.725000 0.475000
v 0.434375 0.725000 0.475000
v 0.434375 0.775000 0.475000
v 0.421875 0.775000 0.475000
v 0.421875 0.725000 0.525000
v 0.434375 0.725000 0.525000
v 0.434375 0.775000 0.525000
v 0.421875 0.775000 0.525000
v 0.459375 0.720000 0.470000
v 0.540625 0.720000 0.470000
v 0.540625 0.780000 0.470000
v 0.459375 0.780000 0.470000
v 0.459375 0.720000 0.530000
v 0.540625 0.720000 0.530000
v 0.540625 0.780000 0.530000
v 0.459375 0.780000 0.530000
v 0.545000 0.700000 0.450000
v 0.565625 0.700000 0.450000
v 0.565625 0.800000 0.450000
v 0.545000 0.800000 0.450000
v 0.545000 0.700000 0.550000
v 0.565625 0.700000 0.550000
v 0.565625 0.800000 0.550000
v 0.545000 0.800000 0.550000
v 0.565625 0.725000 0.475000
v 0.578125 0.725000 0.475000
v 0.578125 0.775000 0.475000
v 0.565625 0.775000 0.475000
v 0.565625 0.725000 0.525000
v 0.578125 0.725000 0.525000
v 0.578125 0.775000 0.525000
v 0.565625 0.775000 0.525000
v 0.456250 0.781250 0.456250
v 0.486250 0.781250 0.456250
v 0.486250 0.825000 0.456250
v 0.456250 0.825000 0.456250
v 0.456250 0.781250 0.543750
v 0.486250 0.781250 0.543750
v 0.486250 0.825000 0.543750
v 0.456250 0.825000 0.543750
v 0.513750 0.781250 0.456250
v 0.543750 0.781250 0.456250
v 0.543750 0.825000 0.456250
v 0.513750 0.825000 0.456250
v 0.513750 0.781250 0.543750
v 0.543750 0.781250 0.543750
v 0.543750 0.825000 0.543750
v 0.513750 0.825000 0.543750
v 0.455000 0.593750 0.450000
v 0.488750 0.593750 0.450000
v 0.488750 0.781250 0.450000
v 0.455000 0.781250 0.450000
v 0.455000 0.593750 0.550000
v 0.488750 0.593750 0.550000
v 0.488750 0.781250 0.550000
v 0.455000 0.781250 0.550000
v 0.452500 0.406250 0.446875
v 0.488750 0.406250 0.446875
v 0.488750 0.593750 0.446875
v 0.452500 0.593750 0.446875
v 0.452500 0.406250 0.553125
v 0.488750 0.406250 0.553125
v 0.488750 0.593750 0.553125
v 0.452500 0.593750 0.553125
v 0.455000 0.262500 0.453125
v 0.488750 0.262500 0.453125
v 0.488750 0.406250 0.453125
v 0.455000 0.406250 0.453125
v 0.455000 0.262500 0.546875
v 0.488750 0.262500 0.546875
v 0.488750 0.406250 0.546875
v 0.455000 0.406250 0.546875
v 0.511250 0.593750 0.450000
v 0.545000 0.593750 0.450000
v 0.545000 0.781250 0.450000
v 0.511250 0.781250 0.450000
v 0.511250 0.593750 0.550000
v 0.545000 0.593750 0.550000
v 0.545000 0.781250 0.550000
v 0.511250 0.781250 0.550000
v 0.511250 0.406250 0.446875
v 0.547500 0.406250 0.446875
v 0.547500 0.593750 0.446875
v 0.511250 0.593750 0.446875
v 0.511250 0.406250 0.553125
v 0.547500 0.406250 0.553125
v 0.547500 0.593750 0.553125
v 0.511250 0.593750 0.553125
v 0.511250 0.262500 0.453125
v 0.545000 0.262500 0.453125
v 0.545000 0.406250 0.453125
v 0.511250 0.406250 0.453125
v 0.511250 0.262500 0.546875
v 0.545000 0.262500 0.546875
v 0.545000 0.406250 0.546875
v 0.511250 0.406250 0.546875
v 0.488750 0.637500 0.526250
v 0.511250 0.637500 0.526250
v 0.511250 0.787500 0.526250
v 0.488750 0.787500 0.526250
v 0.488750 0.637500 0.551250
v 0.511250 0.637500 0.551250
v 0.511250 0.787500 0.551250
v 0.488750 0.787500 0.551250
v 0.488750 0.425000 0.528125
v 0.511250 0.425000 0.528125
v 0.511250 0.637500 0.528125
v 0.488750 0.637500 0.528125
v 0.488750 0.425000 0.553125
v 0.511250 0.425000 0.553125
v 0.511250 0.637500 0.553125
v 0.488750 0.637500 0.553125
v 0.488750 0.262500 0.521875
v 0.511250 0.262500 0.521875
v 0.511250 0.425000 0.521875
v 0.488750 0.425000 0.521875
v 0.488750 0.262500 0.546875
v 0.511250 0.262500 0.546875
v 0.511250 0.425000 0.546875
v 0.488750 0.425000 0.546875
v 0.488750 0.262500 0.453125
v 0.511250 0.262500 0.453125
v 0.511250 0.325000 0.453125
v 0.488750 0.325000 0.453125
v 0.488750 0.262500 0.478125
v 0.511250 0.262500 0.478125
v 0.511250 0.325000 0.478125
v 0.488750 0.325000 0.478125
v 0.448750 0.487500 0.487500
v 0.452500 0.487500 0.487500
v 0.452500 0.525000 0.487500
v 0.448750 0.525000 0.487500
v 0.448750 0.487500 0.525000
v 0.452500 0.487500 0.525000
v 0.452500 0.525000 0.525000
v 0.448750 0.525000 0.525000
v 0.547500 0.487500 0.487500
v 0.551250 0.487500 0.487500
v 0.551250 0.525000 0.487500
v 0.547500 0.525000 0.487500
v 0.547500 0.487500 0.525000
v 0.551250 0.487500 0.525000
v 0.551250 0.525000 0.525000
v 0.547500 0.525000 0.525000
v 0.448750 0.325000 0.481250
v 0.452500 0.325000 0.481250
v 0.452500 0.362500 0.481250
v 0.448750 0.362500 0.481250
v 0.448750 0.325000 0.518750
v 0.452500 0.325000 0.518750
v 0.452500 0.362500 0.518750
v 0.448750 0.362500 0.518750
v 0.547500 0.325000 0.481250
v 0.551250 0.325000 0.481250
v 0.551250 0.362500 0.481250
v 0.547500 0.362500 0.481250
v 0.547500 0.325000 0.518750
v 0.551250 0.325000 0.518750
v 0.551250 0.362500 0.518750
v 0.547500 0.362500 0.518750
v 0.450000 0.237500 0.462500
v 0.455000 0.237500 0.462500
v 0.455000 0.262500 0.462500
v 0.450000 0.262500 0.462500
v 0.450000 0.237500 0.537500
v 0.455000 0.237500 0.537500
v 0.455000 0.262500 0.537500
v 0.450000 0.262500 0.537500
v 0.545000 0.237500 0.462500
v 0.550000 0.237500 0.462500
v 0.550000 0.262500 0.462500
v 0.545000 0.262500 0.462500
v 0.545000 0.237500 0.537500
v 0.550000 0.237500 0.537500
v 0.550000 0.262500 0.537500
v 0.545000 0.262500 0.537500
v 0.480000 0.700000 0.451250
v 0.520000 0.700000 0.451250
v 0.520000 0.787500 0.451250
v 0.480000 0.787500 0.451250
v 0.480000 0.700000 0.523750
v 0.520000 0.700000 0.523750
v 0.520000 0.787500 0.523750
v 0.480000 0.787500 0.523750
v 0.481250 0.650000 0.420000
v 0.518750 0.650000 0.420000
v 0.518750 0.737500 0.420000
v 0.481250 0.737500 0.420000
v 0.481250 0.650000 0.467500
v 0.518750 0.650000 0.467500
v 0.518750 0.737500 0.467500
v 0.481250 0.737500 0.467500
v 0.482500 0.600000 0.377500
v 0.517500 0.600000 0.377500
v 0.517500 0.687500 0.377500
v 0.482500 0.687500 0.377500
v 0.482500 0.600000 0.438750
v 0.517500 0.600000 0.438750
v 0.517500 0.687500 0.438750
v 0.482500 0.687500 0.438750
v 0.483750 0.512500 0.327500
v 0.516250 0.512500 0.327500
v 0.516250 0.612500 0.327500
v 0.483750 0.612500 0.327500
v 0.483750 0.512500 0.390000
v 0.516250 0.512500 0.390000
v 0.516250 0.612500 0.390000
v 0.483750 0.612500 0.390000
v 0.484375 0.425000 0.290000
v 0.515625 0.425000 0.290000
v 0.515625 0.525000 0.290000
v 0.484375 0.525000 0.290000
v 0.484375 0.425000 0.340000
v 0.515625 0.425000 0.340000
v 0.515625 0.525000 0.340000
v 0.484375 0.525000 0.340000
v 0.485000 0.350000 0.265000
v 0.515000 0.350000 0.265000
v 0.515000 0.437500 0.265000
v 0.485000 0.437500 0.265000
v 0.485000 0.350000 0.302500
v 0.515000 0.350000 0.302500
v 0.515000 0.437500 0.302500
v 0.485000 0.437500 0.302500
v 0.492500 0.587500 0.338750
v 0.507500 0.587500 0.338750
v 0.507500 0.675000 0.338750
v 0.492500 0.675000 0.338750
v 0.492500 0.587500 0.385000
v 0.507500 0.587500 0.385000
v 0.507500 0.675000 0.385000
v 0.492500 0.675000 0.385000
v 0.493125 0.487500 0.286250
v 0.506875 0.487500 0.286250
v 0.506875 0.593750 0.286250
v 0.493125 0.593750 0.286250
v 0.493125 0.487500 0.335000
v 0.506875 0.487500 0.335000
v 0.506875 0.593750 0.335000
v 0.493125 0.593750 0.335000
v 0.493750 0.400000 0.248750
v 0.506250 0.400000 0.248750
v 0.506250 0.500000 0.248750
v 0.493750 0.500000 0.248750
v 0.493750 0.400000 0.296250
v 0.506250 0.400000 0.296250
v 0.506250 0.500000 0.296250
v 0.493750 0.500000 0.296250
v 0.494375 0.325000 0.236250
v 0.505625 0.325000 0.236250
v 0.505625 0.412500 0.236250
v 0.494375 0.412500 0.236250
v 0.494375 0.325000 0.263750
v 0.505625 0.325000 0.263750
v 0.505625 0.412500 0.263750
v 0.494375 0.412500 0.263750
v 0.486250 0.550000 0.341250
v 0.513750 0.550000 0.341250
v 0.513750 0.650000 0.341250
v 0.486250 0.650000 0.341250
v 0.486250 0.550000 0.370000
v 0.513750 0.550000 0.370000
v 0.513750 0.650000 0.370000
v 0.486250 0.650000 0.370000
v 0.487500 0.450000 0.297500
v 0.512500 0.450000 0.297500
v 0.512500 0.550000 0.297500
v 0.487500 0.550000 0.297500
v 0.487500 0.450000 0.326250
v 0.512500 0.450000 0.326250
v 0.512500 0.550000 0.326250
v 0.487500 0.550000 0.326250
v 0.478125 0.200000 0.468750
v 0.521875 0.200000 0.468750
v 0.521875 0.237500 0.468750
v 0.478125 0.237500 0.468750
v 0.478125 0.200000 0.518750
v 0.521875 0.200000 0.518750
v 0.521875 0.237500 0.518750
v 0.478125 0.237500 0.518750
v 0.471875 0.112500 0.475000
v 0.496875 0.112500 0.475000
v 0.496875 0.200000 0.475000
v 0.471875 0.200000 0.475000
v 0.471875 0.112500 0.512500
v 0.496875 0.112500 0.512500
v 0.496875 0.200000 0.512500
v 0.471875 0.200000 0.512500
v 0.503125 0.112500 0.481250
v 0.528125 0.112500 0.481250
v 0.528125 0.200000 0.481250
v 0.503125 0.200000 0.481250
v 0.503125 0.112500 0.518750
v 0.528125 0.112500 0.518750
v 0.528125 0.200000 0.518750
v 0.503125 0.200000 0.518750
v 0.465625 0.050000 0.462500
v 0.534375 0.050000 0.462500
v 0.534375 0.112500 0.462500
v 0.465625 0.112500 0.462500
v 0.465625 0.050000 0.531250
v 0.534375 0.050000 0.531250
v 0.534375 0.112500 0.531250
v 0.465625 0.112500 0.531250
v 0.475000 0.000000 0.468750
v 0.496875 0.000000 0.468750
v 0.496875 0.050000 0.468750
v 0.475000 0.050000 0.468750
v 0.475000 0.000000 0.500000
v 0.496875 0.000000 0.500000
v 0.496875 0.050000 0.500000
v 0.475000 0.050000 0.500000
v 0.503125 0.000000 0.487500
v 0.525000 0.000000 0.487500
v 0.525000 0.050000 0.487500
v 0.503125 0.050000 0.487500
v 0.503125 0.000000 0.518750
v 0.525000 0.000000 0.518750
v 0.525000 0.050000 0.518750
v 0.503125 0.050000 0.518750
vt 0.015625 0.409375
vt 0.031094 0.409375
vt 0.031094 0.484375
vt 0.015625 0.484375
vn 0.000000 0.000000 1.000000
vt 0.015625 0.409375
vt 0.031094 0.409375
vt 0.031094 0.484375
vt 0.015625 0.484375
vn 0.000000 0.000000 -1.000000
vt 0.015625 0.409375
vt 0.090625 0.409375
vt 0.090625 0.484375
vt 0.015625 0.484375
vn -1.000000 0.000000 0.000000
vt 0.015625 0.409375
vt 0.090625 0.409375
vt 0.090625 0.484375
vt 0.015625 0.484375
vn 1.000000 0.000000 0.000000
vt 0.015625 0.409375
vt 0.031094 0.409375
vt 0.031094 0.484375
vt 0.015625 0.484375
vn 0.000000 1.000000 0.000000
vt 0.015625 0.409375
vt 0.031094 0.409375
vt 0.031094 0.484375
vt 0.015625 0.484375
vn 0.000000 -1.000000 0.000000
vt 0.015625 0.446875
vt 0.025000 0.446875
vt 0.025000 0.484375
vt 0.015625 0.484375
vn 0.000000 0.000000 1.000000
vt 0.015625 0.446875
vt 0.025000 0.446875
vt 0.025000 0.484375
vt 0.015625 0.484375
vn 0.000000 0.000000 -1.000000
vt 0.015625 0.446875
vt 0.053125 0.446875
vt 0.053125 0.484375
vt 0.015625 0.484375
vn -1.000000 0.000000 0.000000
vt 0.015625 0.446875
vt 0.053125 0.446875
vt 0.053125 0.484375
vt 0.015625 0.484375
vn 1.000000 0.000000 0.000000
vt 0.015625 0.446875
vt 0.025000 0.446875
vt 0.025000 0.484375
vt 0.015625 0.484375
vn 0.000000 1.000000 0.000000
vt 0.015625 0.446875
vt 0.025000 0.446875
vt 0.025000 0.484375
vt 0.015625 0.484375
vn 0.000000 -1.000000 0.000000
vt 0.015625 0.939375
vt 0.076563 0.939375
vt 0.076563 0.984375
vt 0.015625 0.984375
vn 0.000000 0.000000 1.000000
vt 0.015625 0.939375
vt 0.076563 0.939375
vt 0.076563 0.984375
vt 0.015625 0.984375
vn 0.000000 0.000000 -1.000000
vt 0.015625 0.939375
vt 0.060625 0.939375
vt 0.060625 0.984375
vt 0.015625 0.984375
vn -1.000000 0.000000 0.000000
vt 0.015625 0.939375
vt 0.060625 0.939375
vt 0.060625 0.984375
vt 0.015625 0.984375
vn 1.000000 0.000000 0.000000
vt 0.015625 0.939375
vt 0.076563 0.939375
vt 0.076563 0.984375
vt 0.015625 0.984375
vn 0.000000 1.000000 0.000000
vt 0.015625 0.939375
vt 0.076563 0.939375
vt 0.076563 0.984375
vt 0.015625 0.984375
vn 0.000000 -1.000000 0.000000
vt 0.015625 0.409375
vt 0.031094 0.409375
vt 0.031094 0.484375
vt 0.015625 0.484375
vn 0.000000 0.000000 1.000000
vt 0.015625 0.409375
vt 0.031094 0.409375
vt 0.031094 0.484375
vt 0.015625 0.484375
vn 0.000000 0.000000 -1.000000
vt 0.015625 0.409375
vt 0.090625 0.409375
vt 0.090625 0.484375
vt 0.015625 0.484375
vn -1.000000 0.000000 0.000000
vt 0.015625 0.409375
vt 0.090625 0.409375
vt 0.090625 0.484375
vt 0.015625 0.484375
vn 1.000000 0.000000 0.000000
vt 0.015625 0.409375
vt 0.031094 0.409375
vt 0.031094 0.484375
vt 0.015625 0.484375
vn 0.000000 1.000000 0.000000
vt 0.015625 0.409375
vt 0.031094 0.409375
vt 0.031094 0.484375
vt 0.015625 0.484375
vn 0.000000 -1.000000 0.000000
vt 0.015625 0.446875
vt 0.025000 0.446875
vt 0.025000 0.484375
vt 0.015625 0.484375
vn 0.000000 0.000000 1.000000
vt 0.015625 0.446875
vt 0.025000 0.446875
vt 0.025000 0.484375
vt 0.015625 0.484375
vn 0.000000 0.000000 -1.000000
vt 0.015625 0.446875
vt 0.053125 0.446875
vt 0.053125 0.484375
vt 0.015625 0.484375
vn -1.000000 0.000000 0.000000
vt 0.015625 0.446875
vt 0.053125 0.446875
vt 0.053125 0.484375
vt 0.015625 0.484375
vn 1.000000 0.000000 0.000000
vt 0.015625 0.446875
vt 0.025000 0.446875
vt 0.025000 0.484375
vt 0.015625 0.484375
vn 0.000000 1.000000 0.000000
vt 0.015625 0.446875
vt 0.025000 0.446875
vt 0.025000 0.484375
vt 0.015625 0.484375
vn 0.000000 -1.000000 0.000000
vt 0.515625 0.951563
vt 0.538125 0.951563
vt 0.538125 0.984375
vt 0.515625 0.984375
vn 0.000000 0.000000 1.000000
vt 0.515625 0.951563
vt 0.538125 0.951563
vt 0.538125 0.984375
vt 0.515625 0.984375
vn 0.000000 0.000000 -1.000000
vt 0.515625 0.951563
vt 0.581250 0.951563
vt 0.581250 0.984375
vt 0.515625 0.984375
vn -1.000000 0.000000 0.000000
vt 0.515625 0.951563
vt 0.581250 0.951563
vt 0.581250 0.984375
vt 0.515625 0.984375
vn 1.000000 0.000000 0.000000
vt 0.515625 0.918750
vt 0.538125 0.918750
vt 0.538125 0.984375
vt 0.515625 0.984375
vn 0.000000 1.000000 0.000000
vt 0.515625 0.918750
vt 0.538125 0.918750
vt 0.538125 0.984375
vt 0.515625 0.984375
vn 0.000000 -1.000000 0.000000
vt 0.515625 0.951563
vt 0.538125 0.951563
vt 0.538125 0.984375
vt 0.515625 0.984375
vn 0.000000 0.000000 1.000000
vt 0.515625 0.951563
vt 0.538125 0.951563
vt 0.538125 0.984375
vt 0.515625 0.984375
vn 0.000000 0.000000 -1.000000
vt 0.515625 0.951563
vt 0.581250 0.951563
vt 0.581250 0.984375
vt 0.515625 0.984375
vn -1.000000 0.000000 0.000000
vt 0.515625 0.951563
vt 0.581250 0.951563
vt 0.581250 0.984375
vt 0.515625 0.984375
vn 1.000000 0.000000 0.000000
vt 0.515625 0.918750
vt 0.538125 0.918750
vt 0.538125 0.984375
vt 0.515625 0.984375
vn 0.000000 1.000000 0.000000
vt 0.515625 0.918750
vt 0.538125 0.918750
vt 0.538125 0.984375
vt 0.515625 0.984375
vn 0.000000 -1.000000 0.000000
vt 0.515625 0.843750
vt 0.540937 0.843750
vt 0.540937 0.984375
vt 0.515625 0.984375
vn 0.000000 0.000000 1.000000
vt 0.515625 0.843750
vt 0.540937 0.843750
vt 0.540937 0.984375
vt 0.515625 0.984375
vn 0.000000 0.000000 -1.000000
vt 0.515625 0.843750
vt 0.590625 0.843750
vt 0.590625 0.984375
vt 0.515625 0.984375
vn -1.000000 0.000000 0.000000
vt 0.515625 0.843750
vt 0.590625 0.843750
vt 0.590625 0.984375
vt 0.515625 0.984375
vn 1.000000 0.000000 0.000000
vt 0.515625 0.909375
vt 0.540937 0.909375
vt 0.540937 0.984375
vt 0.515625 0.984375
vn 0.000000 1.000000 0.000000
vt 0.515625 0.909375
vt 0.540937 0.909375
vt 0.540937 0.984375
vt 0.515625 0.984375
vn 0.000000 -1.000000 0.000000
vt 0.515625 0.843750
vt 0.542813 0.843750
vt 0.542813 0.984375
vt 0.515625 0.984375
vn 0.000000 0.000000 1.000000
vt 0.515625 0.843750
vt 0.542813 0.843750
vt 0.542813 0.984375
vt 0.515625 0.984375
vn 0.000000 0.000000 -1.000000
vt 0.515625 0.843750
vt 0.595312 0.843750
vt 0.595312 0.984375
vt 0.515625 0.984375
vn -1.000000 0.000000 0.000000
vt 0.515625 0.843750
vt 0.595312 0.843750
vt 0.595312 0.984375
vt 0.515625 0.984375
vn 1.000000 0.000000 0.000000
vt 0.515625 0.904688
vt 0.542813 0.904688
vt 0.542813 0.984375
vt 0.515625 0.984375
vn 0.000000 1.000000 0.000000
vt 0.515625 0.904688
vt 0.542813 0.904688
vt 0.542813 0.984375
vt 0.515625 0.984375
vn 0.000000 -1.000000 0.000000
vt 0.515625 0.876563
vt 0.540937 0.876563
vt 0.540937 0.984375
vt 0.515625 0.984375
vn 0.000000 0.000000 1.000000
vt 0.515625 0.876563
vt 0.540937 0.876563
vt 0.540937 0.984375
vt 0.515625 0.984375
vn 0.000000 0.000000 -1.000000
vt 0.515625 0.876563
vt 0.585938 0.876563
vt 0.585938 0.984375
vt 0.515625 0.984375
vn -1.000000 0.000000 0.000000
vt 0.515625 0.876563
vt 0.585938 0.876563
vt 0.585938 0.984375
vt 0.515625 0.984375
vn 1.000000 0.000000 0.000000
vt 0.515625 0.914062
vt 0.540937 0.914062
vt 0.540937 0.984375
vt 0.515625 0.984375
vn 0.000000 1.000000 0.000000
vt 0.515625 0.914062
vt 0.540937 0.914062
vt 0.540937 0.984375
vt 0.515625 0.984375
vn 0.000000 -1.000000 0.000000
vt 0.515625 0.843750
vt 0.540938 0.843750
vt 0.540938 0.984375
vt 0.515625 0.984375
vn 0.000000 0.000000 1.000000
vt 0.515625 0.843750
vt 0.540938 0.843750
vt 0.540938 0.984375
vt 0.515625 0.984375
vn 0.000000 0.000000 -1.000000
vt 0.515625 0.843750
vt 0.590625 0.843750
vt 0.590625 0.984375
vt 0.515625 0.984375
vn -1.000000 0.000000 0.000000
vt 0.515625 0.843750
vt 0.590625 0.843750
vt 0.590625 0.984375
vt 0.515625 0.984375
vn 1.000000 0.000000 0.000000
vt 0.515625 0.909375
vt 0.540938 0.909375
vt 0.540938 0.984375
vt 0.515625 0.984375
vn 0.000000 1.000000 0.000000
vt 0.515625 0.909375
vt 0.540938 0.909375
vt 0.540938 0.984375
vt 0.515625 0.984375
vn 0.000000 -1.000000 0.000000
vt 0.515625 0.843750
vt 0.542813 0.843750
vt 0.542813 0.984375
vt 0.515625 0.984375
vn 0.000000 0.000000 1.000000
vt 0.515625 0.843750
vt 0.542813 0.843750
vt 0.542813 0.984375
vt 0.515625 0.984375
vn 0.000000 0.000000 -1.000000
vt 0.515625 0.843750
vt 0.595312 0.843750
vt 0.595312 0.984375
vt 0.515625 0.984375
vn -1.000000 0.000000 0.000000
vt 0.515625 0.843750
vt 0.595312 0.843750
vt 0.595312 0.984375
vt 0.515625 0.984375
vn 1.000000 0.000000 0.000000
vt 0.515625 0.904688
vt 0.542813 0.904688
vt 0.542813 0.984375
vt 0.515625 0.984375
vn 0.000000 1.000000 0.000000
vt 0.515625 0.904688
vt 0.542813 0.904688
vt 0.542813 0.984375
vt 0.515625 0.984375
vn 0.000000 -1.000000 0.000000
vt 0.515625 0.876563
vt 0.540938 0.876563
vt 0.540938 0.984375
vt 0.515625 0.984375
vn 0.000000 0.000000 1.000000
vt 0.515625 0.876563
vt 0.540938 0.876563
vt 0.540938 0.984375
vt 0.515625 0.984375
vn 0.000000 0.000000 -1.000000
vt 0.515625 0.876563
vt 0.585938 0.876563
vt 0.585938 0.984375
vt 0.515625 0.984375
vn -1.000000 0.000000 0.000000
vt 0.515625 0.876563
vt 0.585938 0.876563
vt 0.585938 0.984375
vt 0.515625 0.984375
vn 1.000000 0.000000 0.000000
vt 0.515625 0.914062
vt 0.540938 0.914062
vt 0.540938 0.984375
vt 0.515625 0.984375
vn 0.000000 1.000000 0.000000
vt 0.515625 0.914062
vt 0.540938 0.914062
vt 0.540938 0.984375
vt 0.515625 0.984375
vn 0.000000 -1.000000 0.000000
vt 0.015625 0.871875
vt 0.032500 0.871875
vt 0.032500 0.984375
vt 0.015625 0.984375
vn 0.000000 0.000000 1.000000
vt 0.015625 0.871875
vt 0.032500 0.871875
vt 0.032500 0.984375
vt 0.015625 0.984375
vn 0.000000 0.000000 -1.000000
vt 0.015625 0.871875
vt 0.034375 0.871875
vt 0.034375 0.984375
vt 0.015625 0.984375
vn -1.000000 0.000000 0.000000
vt 0.015625 0.871875
vt 0.034375 0.871875
vt 0.034375 0.984375
vt 0.015625 0.984375
vn 1.000000 0.000000 0.000000
vt 0.015625 0.965625
vt 0.032500 0.965625
vt 0.032500 0.984375
vt 0.015625 0.984375
vn 0.000000 1.000000 0.000000
vt 0.015625 0.965625
vt 0.032500 0.965625
vt 0.032500 0.984375
vt 0.015625 0.984375
vn 0.000000 -1.000000 0.000000
vt 0.015625 0.825000
vt 0.032500 0.825000
vt 0.032500 0.984375
vt 0.015625 0.984375
vn 0.000000 0.000000 1.000000
vt 0.015625 0.825000
vt 0.032500 0.825000
vt 0.032500 0.984375
vt 0.015625 0.984375
vn 0.000000 0.000000 -1.000000
vt 0.015625 0.825000
vt 0.034375 0.825000
vt 0.034375 0.984375
vt 0.015625 0.984375
vn -1.000000 0.000000 0.000000
vt 0.015625 0.825000
vt 0.034375 0.825000
vt 0.034375 0.984375
vt 0.015625 0.984375
vn 1.000000 0.000000 0.000000
vt 0.015625 0.965625
vt 0.032500 0.965625
vt 0.032500 0.984375
vt 0.015625 0.984375
vn 0.000000 1.000000 0.000000
vt 0.015625 0.965625
vt 0.032500 0.965625
vt 0.032500 0.984375
vt 0.015625 0.984375
vn 0.000000 -1.000000 0.000000
vt 0.015625 0.862500
vt 0.032500 0.862500
vt 0.032500 0.984375
vt 0.015625 0.984375
vn 0.000000 0.000000 1.000000
vt 0.015625 0.862500
vt 0.032500 0.862500
vt 0.032500 0.984375
vt 0.015625 0.984375
vn 0.000000 0.000000 -1.000000
vt 0.015625 0.862500
vt 0.034375 0.862500
vt 0.034375 0.984375
vt 0.015625 0.984375
vn -1.000000 0.000000 0.000000
vt 0.015625 0.862500
vt 0.034375 0.862500
vt 0.034375 0.984375
vt 0.015625 0.984375
vn 1.000000 0.000000 0.000000
vt 0.015625 0.965625
vt 0.032500 0.965625
vt 0.032500 0.984375
vt 0.015625 0.984375
vn 0.000000 1.000000 0.000000
vt 0.015625 0.965625
vt 0.032500 0.965625
vt 0.032500 0.984375
vt 0.015625 0.984375
vn 0.000000 -1.000000 0.000000
vt 0.015625 0.937500
vt 0.032500 0.937500
vt 0.032500 0.984375
vt 0.015625 0.984375
vn 0.000000 0.000000 1.000000
vt 0.015625 0.937500
vt 0.032500 0.937500
vt 0.032500 0.984375
vt 0.015625 0.984375
vn 0.000000 0.000000 -1.000000
vt 0.015625 0.937500
vt 0.034375 0.937500
vt 0.034375 0.984375
vt 0.015625 0.984375
vn -1.000000 0.000000 0.000000
vt 0.015625 0.937500
vt 0.034375 0.937500
vt 0.034375 0.984375
vt 0.015625 0.984375
vn 1.000000 0.000000 0.000000
vt 0.015625 0.965625
vt 0.032500 0.965625
vt 0.032500 0.984375
vt 0.015625 0.984375
vn 0.000000 1.000000 0.000000
vt 0.015625 0.965625
vt 0.032500 0.965625
vt 0.032500 0.984375
vt 0.015625 0.984375
vn 0.000000 -1.000000 0.000000
vt 0.015625 0.456250
vt 0.018438 0.456250
vt 0.018438 0.484375
vt 0.015625 0.484375
vn 0.000000 0.000000 1.000000
vt 0.015625 0.456250
vt 0.018438 0.456250
vt 0.018438 0.484375
vt 0.015625 0.484375
vn 0.000000 0.000000 -1.000000
vt 0.015625 0.456250
vt 0.043750 0.456250
vt 0.043750 0.484375
vt 0.015625 0.484375
vn -1.000000 0.000000 0.000000
vt 0.015625 0.456250
vt 0.043750 0.456250
vt 0.043750 0.484375
vt 0.015625 0.484375
vn 1.000000 0.000000 0.000000
vt 0.015625 0.456250
vt 0.018438 0.456250
vt 0.018438 0.484375
vt 0.015625 0.484375
vn 0.000000 1.000000 0.000000
vt 0.015625 0.456250
vt 0.018438 0.456250
vt 0.018438 0.484375
vt 0.015625 0.484375
vn 0.000000 -1.000000 0.000000
vt 0.015625 0.456250
vt 0.018438 0.456250
vt 0.018438 0.484375
vt 0.015625 0.484375
vn 0.000000 0.000000 1.000000
vt 0.015625 0.456250
vt 0.018438 0.456250
vt 0.018438 0.484375
vt 0.015625 0.484375
vn 0.000000 0.000000 -1.000000
vt 0.015625 0.456250
vt 0.043750 0.456250
vt 0.043750 0.484375
vt 0.015625 0.484375
vn -1.000000 0.000000 0.000000
vt 0.015625 0.456250
vt 0.043750 0.456250
vt 0.043750 0.484375
vt 0.015625 0.484375
vn 1.000000 0.000000 0.000000
vt 0.015625 0.456250
vt 0.018438 0.456250
vt 0.018438 0.484375
vt 0.015625 0.484375
vn 0.000000 1.000000 0.000000
vt 0.015625 0.456250
vt 0.018438 0.456250
vt 0.018438 0.484375
vt 0.015625 0.484375
vn 0.000000 -1.000000 0.000000
vt 0.015625 0.456250
vt 0.018438 0.456250
vt 0.018438 0.484375
vt 0.015625 0.484375
vn 0.000000 0.000000 1.000000
vt 0.015625 0.456250
vt 0.018438 0.456250
vt 0.018438 0.484375
vt 0.015625 0.484375
vn 0.000000 0.000000 -1.000000
vt 0.015625 0.456250
vt 0.043750 0.456250
vt 0.043750 0.484375
vt 0.015625 0.484375
vn -1.000000 0.000000 0.000000
vt 0.015625 0.456250
vt 0.043750 0.456250
vt 0.043750 0.484375
vt 0.015625 0.484375
vn 1.000000 0.000000 0.000000
vt 0.015625 0.456250
vt 0.018438 0.456250
vt 0.018438 0.484375
vt 0.015625 0.484375
vn 0.000000 1.000000 0.000000
vt 0.015625 0.456250
vt 0.018438 0.456250
vt 0.018438 0.484375
vt 0.015625 0.484375
vn 0.000000 -1.000000 0.000000
vt 0.015625 0.456250
vt 0.018438 0.456250
vt 0.018438 0.484375
vt 0.015625 0.484375
vn 0.000000 0.000000 1.000000
vt 0.015625 0.456250
vt 0.018438 0.456250
vt 0.018438 0.484375
vt 0.015625 0.484375
vn 0.000000 0.000000 -1.000000
vt 0.015625 0.456250
vt 0.043750 0.456250
vt 0.043750 0.484375
vt 0.015625 0.484375
vn -1.000000 0.000000 0.000000
vt 0.015625 0.456250
vt 0.043750 0.456250
vt 0.043750 0.484375
vt 0.015625 0.484375
vn 1.000000 0.000000 0.000000
vt 0.015625 0.456250
vt 0.018438 0.456250
vt 0.018438 0.484375
vt 0.015625 0.484375
vn 0.000000 1.000000 0.000000
vt 0.015625 0.456250
vt 0.018438 0.456250
vt 0.018438 0.484375
vt 0.015625 0.484375
vn 0.000000 -1.000000 0.000000
vt 0.015625 0.465625
vt 0.019375 0.465625
vt 0.019375 0.484375
vt 0.015625 0.484375
vn 0.000000 0.000000 1.000000
vt 0.015625 0.465625
vt 0.019375 0.465625
vt 0.019375 0.484375
vt 0.015625 0.484375
vn 0.000000 0.000000 -1.000000
vt 0.015625 0.465625
vt 0.071875 0.465625
vt 0.071875 0.484375
vt 0.015625 0.484375
vn -1.000000 0.000000 0.000000
vt 0.015625 0.465625
vt 0.071875 0.465625
vt 0.071875 0.484375
vt 0.015625 0.484375
vn 1.000000 0.000000 0.000000
vt 0.015625 0.428125
vt 0.019375 0.428125
vt 0.019375 0.484375
vt 0.015625 0.484375
vn 0.000000 1.000000 0.000000
vt 0.015625 0.428125
vt 0.019375 0.428125
vt 0.019375 0.484375
vt 0.015625 0.484375
vn 0.000000 -1.000000 0.000000
vt 0.015625 0.465625
vt 0.019375 0.465625
vt 0.019375 0.484375
vt 0.015625 0.484375
vn 0.000000 0.000000 1.000000
vt 0.015625 0.465625
vt 0.019375 0.465625
vt 0.019375 0.484375
vt 0.015625 0.484375
vn 0.000000 0.000000 -1.000000
vt 0.015625 0.465625
vt 0.071875 0.465625
vt 0.071875 0.484375
vt 0.015625 0.484375
vn -1.000000 0.000000 0.000000
vt 0.015625 0.465625
vt 0.071875 0.465625
vt 0.071875 0.484375
vt 0.015625 0.484375
vn 1.000000 0.000000 0.000000
vt 0.015625 0.428125
vt 0.019375 0.428125
vt 0.019375 0.484375
vt 0.015625 0.484375
vn 0.000000 1.000000 0.000000
vt 0.015625 0.428125
vt 0.019375 0.428125
vt 0.019375 0.484375
vt 0.015625 0.484375
vn 0.000000 -1.000000 0.000000
vt 0.015625 0.918750
vt 0.045625 0.918750
vt 0.045625 0.984375
vt 0.015625 0.984375
vn 0.000000 0.000000 1.000000
vt 0.015625 0.918750
vt 0.045625 0.918750
vt 0.045625 0.984375
vt 0.015625 0.984375
vn 0.000000 0.000000 -1.000000
vt 0.015625 0.918750
vt 0.070000 0.918750
vt 0.070000 0.984375
vt 0.015625 0.984375
vn -1.000000 0.000000 0.000000
vt 0.015625 0.918750
vt 0.070000 0.918750
vt 0.070000 0.984375
vt 0.015625 0.984375
vn 1.000000 0.000000 0.000000
vt 0.015625 0.930000
vt 0.045625 0.930000
vt 0.045625 0.984375
vt 0.015625 0.984375
vn 0.000000 1.000000 0.000000
vt 0.015625 0.930000
vt 0.045625 0.930000
vt 0.045625 0.984375
vt 0.015625 0.984375
vn 0.000000 -1.000000 0.000000
vt 0.015625 0.918750
vt 0.043750 0.918750
vt 0.043750 0.984375
vt 0.015625 0.984375
vn 0.000000 0.000000 1.000000
vt 0.015625 0.918750
vt 0.043750 0.918750
vt 0.043750 0.984375
vt 0.015625 0.984375
vn 0.000000 0.000000 -1.000000
vt 0.015625 0.918750
vt 0.051250 0.918750
vt 0.051250 0.984375
vt 0.015625 0.984375
vn -1.000000 0.000000 0.000000
vt 0.015625 0.918750
vt 0.051250 0.918750
vt 0.051250 0.984375
vt 0.015625 0.984375
vn 1.000000 0.000000 0.000000
vt 0.015625 0.948750
vt 0.043750 0.948750
vt 0.043750 0.984375
vt 0.015625 0.984375
vn 0.000000 1.000000 0.000000
vt 0.015625 0.948750
vt 0.043750 0.948750
vt 0.043750 0.984375
vt 0.015625 0.984375
vn 0.000000 -1.000000 0.000000
vt 0.015625 0.918750
vt 0.041875 0.918750
vt 0.041875 0.984375
vt 0.015625 0.984375
vn 0.000000 0.000000 1.000000
vt 0.015625 0.918750
vt 0.041875 0.918750
vt 0.041875 0.984375
vt 0.015625 0.984375
vn 0.000000 0.000000 -1.000000
vt 0.015625 0.918750
vt 0.061562 0.918750
vt 0.061562 0.984375
vt 0.015625 0.984375
vn -1.000000 0.000000 0.000000
vt 0.015625 0.918750
vt 0.061562 0.918750
vt 0.061562 0.984375
vt 0.015625 0.984375
vn 1.000000 0.000000 0.000000
vt 0.015625 0.938438
vt 0.041875 0.938438
vt 0.041875 0.984375
vt 0.015625 0.984375
vn 0.000000 1.000000 0.000000
vt 0.015625 0.938438
vt 0.041875 0.938438
vt 0.041875 0.984375
vt 0.015625 0.984375
vn 0.000000 -1.000000 0.000000
vt 0.015625 0.909375
vt 0.040000 0.909375
vt 0.040000 0.984375
vt 0.015625 0.984375
vn 0.000000 0.000000 1.000000
vt 0.015625 0.909375
vt 0.040000 0.909375
vt 0.040000 0.984375
vt 0.015625 0.984375
vn 0.000000 0.000000 -1.000000
vt 0.015625 0.909375
vt 0.062500 0.909375
vt 0.062500 0.984375
vt 0.015625 0.984375
vn -1.000000 0.000000 0.000000
vt 0.015625 0.909375
vt 0.062500 0.909375
vt 0.062500 0.984375
vt 0.015625 0.984375
vn 1.000000 0.000000 0.000000
vt 0.015625 0.937500
vt 0.040000 0.937500
vt 0.040000 0.984375
vt 0.015625 0.984375
vn 0.000000 1.000000 0.000000
vt 0.015625 0.937500
vt 0.040000 0.937500
vt 0.040000 0.984375
vt 0.015625 0.984375
vn 0.000000 -1.000000 0.000000
vt 0.015625 0.909375
vt 0.039062 0.909375
vt 0.039062 0.984375
vt 0.015625 0.984375
vn 0.000000 0.000000 1.000000
vt 0.015625 0.909375
vt 0.039062 0.909375
vt 0.039062 0.984375
vt 0.015625 0.984375
vn 0.000000 0.000000 -1.000000
vt 0.015625 0.909375
vt 0.053125 0.909375
vt 0.053125 0.984375
vt 0.015625 0.984375
vn -1.000000 0.000000 0.000000
vt 0.015625 0.909375
vt 0.053125 0.909375
vt 0.053125 0.984375
vt 0.015625 0.984375
vn 1.000000 0.000000 0.000000
vt 0.015625 0.946875
vt 0.039062 0.946875
vt 0.039062 0.984375
vt 0.015625 0.984375
vn 0.000000 1.000000 0.000000
vt 0.015625 0.946875
vt 0.039062 0.946875
vt 0.039062 0.984375
vt 0.015625 0.984375
vn 0.000000 -1.000000 0.000000
vt 0.015625 0.918750
vt 0.038125 0.918750
vt 0.038125 0.984375
vt 0.015625 0.984375
vn 0.000000 0.000000 1.000000
vt 0.015625 0.918750
vt 0.038125 0.918750
vt 0.038125 0.984375
vt 0.015625 0.984375
vn 0.000000 0.000000 -1.000000
vt 0.015625 0.918750
vt 0.043750 0.918750
vt 0.043750 0.984375
vt 0.015625 0.984375
vn -1.000000 0.000000 0.000000
vt 0.015625 0.918750
vt 0.043750 0.918750
vt 0.043750 0.984375
vt 0.015625 0.984375
vn 1.000000 0.000000 0.000000
vt 0.015625 0.956250
vt 0.038125 0.956250
vt 0.038125 0.984375
vt 0.015625 0.984375
vn 0.000000 1.000000 0.000000
vt 0.015625 0.956250
vt 0.038125 0.956250
vt 0.038125 0.984375
vt 0.015625 0.984375
vn 0.000000 -1.000000 0.000000
vt 0.015625 0.918750
vt 0.026875 0.918750
vt 0.026875 0.984375
vt 0.015625 0.984375
vn 0.000000 0.000000 1.000000
vt 0.015625 0.918750
vt 0.026875 0.918750
vt 0.026875 0.984375
vt 0.015625 0.984375
vn 0.000000 0.000000 -1.000000
vt 0.015625 0.918750
vt 0.050313 0.918750
vt 0.050313 0.984375
vt 0.015625 0.984375
vn -1.000000 0.000000 0.000000
vt 0.015625 0.918750
vt 0.050313 0.918750
vt 0.050313 0.984375
vt 0.015625 0.984375
vn 1.000000 0.000000 0.000000
vt 0.015625 0.949688
vt 0.026875 0.949688
vt 0.026875 0.984375
vt 0.015625 0.984375
vn 0.000000 1.000000 0.000000
vt 0.015625 0.949688
vt 0.026875 0.949688
vt 0.026875 0.984375
vt 0.015625 0.984375
vn 0.000000 -1.000000 0.000000
vt 0.015625 0.904687
vt 0.025937 0.904687
vt 0.025937 0.984375
vt 0.015625 0.984375
vn 0.000000 0.000000 1.000000
vt 0.015625 0.904687
vt 0.025937 0.904687
vt 0.025937 0.984375
vt 0.015625 0.984375
vn 0.000000 0.000000 -1.000000
vt 0.015625 0.904687
vt 0.052188 0.904687
vt 0.052188 0.984375
vt 0.015625 0.984375
vn -1.000000 0.000000 0.000000
vt 0.015625 0.904687
vt 0.052188 0.904687
vt 0.052188 0.984375
vt 0.015625 0.984375
vn 1.000000 0.000000 0.000000
vt 0.015625 0.947812
vt 0.025937 0.947812
vt 0.025937 0.984375
vt 0.015625 0.984375
vn 0.000000 1.000000 0.000000
vt 0.015625 0.947812
vt 0.025937 0.947812
vt 0.025937 0.984375
vt 0.015625 0.984375
vn 0.000000 -1.000000 0.000000
vt 0.015625 0.909375
vt 0.025000 0.909375
vt 0.025000 0.984375
vt 0.015625 0.984375
vn 0.000000 0.000000 1.000000
vt 0.015625 0.909375
vt 0.025000 0.909375
vt 0.025000 0.984375
vt 0.015625 0.984375
vn 0.000000 0.000000 -1.000000
vt 0.015625 0.909375
vt 0.051250 0.909375
vt 0.051250 0.984375
vt 0.015625 0.984375
vn -1.000000 0.000000 0.000000
vt 0.015625 0.909375
vt 0.051250 0.909375
vt 0.051250 0.984375
vt 0.015625 0.984375
vn 1.000000 0.000000 0.000000
vt 0.015625 0.948750
vt 0.025000 0.948750
vt 0.025000 0.984375
vt 0.015625 0.984375
vn 0.000000 1.000000 0.000000
vt 0.015625 0.948750
vt 0.025000 0.948750
vt 0.025000 0.984375
vt 0.015625 0.984375
vn 0.000000 -1.000000 0.000000
vt 0.015625 0.918750
vt 0.024062 0.918750
vt 0.024062 0.984375
vt 0.015625 0.984375
vn 0.000000 0.000000 1.000000
vt 0.015625 0.918750
vt 0.024062 0.918750
vt 0.024062 0.984375
vt 0.015625 0.984375
vn 0.000000 0.000000 -1.000000
vt 0.015625 0.918750
vt 0.036250 0.918750
vt 0.036250 0.984375
vt 0.015625 0.984375
vn -1.000000 0.000000 0.000000
vt 0.015625 0.918750
vt 0.036250 0.918750
vt 0.036250 0.984375
vt 0.015625 0.984375
vn 1.000000 0.000000 0.000000
vt 0.015625 0.963750
vt 0.024062 0.963750
vt 0.024062 0.984375
vt 0.015625 0.984375
vn 0.000000 1.000000 0.000000
vt 0.015625 0.963750
vt 0.024062 0.963750
vt 0.024062 0.984375
vt 0.015625 0.984375
vn 0.000000 -1.000000 0.000000
vt 0.015625 0.909375
vt 0.036250 0.909375
vt 0.036250 0.984375
vt 0.015625 0.984375
vn 0.000000 0.000000 1.000000
vt 0.015625 0.909375
vt 0.036250 0.909375
vt 0.036250 0.984375
vt 0.015625 0.984375
vn 0.000000 0.000000 -1.000000
vt 0.015625 0.909375
vt 0.037187 0.909375
vt 0.037187 0.984375
vt 0.015625 0.984375
vn -1.000000 0.000000 0.000000
vt 0.015625 0.909375
vt 0.037187 0.909375
vt 0.037187 0.984375
vt 0.015625 0.984375
vn 1.000000 0.000000 0.000000
vt 0.015625 0.962812
vt 0.036250 0.962812
vt 0.036250 0.984375
vt 0.015625 0.984375
vn 0.000000 1.000000 0.000000
vt 0.015625 0.962812
vt 0.036250 0.962812
vt 0.036250 0.984375
vt 0.015625 0.984375
vn 0.000000 -1.000000 0.000000
vt 0.015625 0.909375
vt 0.034375 0.909375
vt 0.034375 0.984375
vt 0.015625 0.984375
vn 0.000000 0.000000 1.000000
vt 0.015625 0.909375
vt 0.034375 0.909375
vt 0.034375 0.984375
vt 0.015625 0.984375
vn 0.000000 0.000000 -1.000000
vt 0.015625 0.909375
vt 0.037187 0.909375
vt 0.037187 0.984375
vt 0.015625 0.984375
vn -1.000000 0.000000 0.000000
vt 0.015625 0.909375
vt 0.037187 0.909375
vt 0.037187 0.984375
vt 0.015625 0.984375
vn 1.000000 0.000000 0.000000
vt 0.015625 0.962812
vt 0.034375 0.962812
vt 0.034375 0.984375
vt 0.015625 0.984375
vn 0.000000 1.000000 0.000000
vt 0.015625 0.962812
vt 0.034375 0.962812
vt 0.034375 0.984375
vt 0.015625 0.984375
vn 0.000000 -1.000000 0.000000
vt 0.515625 0.456250
vt 0.548437 0.456250
vt 0.548437 0.484375
vt 0.515625 0.484375
vn 0.000000 0.000000 1.000000
vt 0.515625 0.456250
vt 0.548437 0.456250
vt 0.548437 0.484375
vt 0.515625 0.484375
vn 0.000000 0.000000 -1.000000
vt 0.515625 0.456250
vt 0.553125 0.456250
vt 0.553125 0.484375
vt 0.515625 0.484375
vn -1.000000 0.000000 0.000000
vt 0.515625 0.456250
vt 0.553125 0.456250
vt 0.553125 0.484375
vt 0.515625 0.484375
vn 1.000000 0.000000 0.000000
vt 0.515625 0.446875
vt 0.548437 0.446875
vt 0.548437 0.484375
vt 0.515625 0.484375
vn 0.000000 1.000000 0.000000
vt 0.515625 0.446875
vt 0.548437 0.446875
vt 0.548437 0.484375
vt 0.515625 0.484375
vn 0.000000 -1.000000 0.000000
vt 0.515625 0.418750
vt 0.534375 0.418750
vt 0.534375 0.484375
vt 0.515625 0.484375
vn 0.000000 0.000000 1.000000
vt 0.515625 0.418750
vt 0.534375 0.418750
vt 0.534375 0.484375
vt 0.515625 0.484375
vn 0.000000 0.000000 -1.000000
vt 0.515625 0.418750
vt 0.543750 0.418750
vt 0.543750 0.484375
vt 0.515625 0.484375
vn -1.000000 0.000000 0.000000
vt 0.515625 0.418750
vt 0.543750 0.418750
vt 0.543750 0.484375
vt 0.515625 0.484375
vn 1.000000 0.000000 0.000000
vt 0.515625 0.456250
vt 0.534375 0.456250
vt 0.534375 0.484375
vt 0.515625 0.484375
vn 0.000000 1.000000 0.000000
vt 0.515625 0.456250
vt 0.534375 0.456250
vt 0.534375 0.484375
vt 0.515625 0.484375
vn 0.000000 -1.000000 0.000000
vt 0.515625 0.418750
vt 0.534375 0.418750
vt 0.534375 0.484375
vt 0.515625 0.484375
vn 0.000000 0.000000 1.000000
vt 0.515625 0.418750
vt 0.534375 0.418750
vt 0.534375 0.484375
vt 0.515625 0.484375
vn 0.000000 0.000000 -1.000000
vt 0.515625 0.418750
vt 0.543750 0.418750
vt 0.543750 0.484375
vt 0.515625 0.484375
vn -1.000000 0.000000 0.000000
vt 0.515625 0.418750
vt 0.543750 0.418750
vt 0.543750 0.484375
vt 0.515625 0.484375
vn 1.000000 0.000000 0.000000
vt 0.515625 0.456250
vt 0.534375 0.456250
vt 0.534375 0.484375
vt 0.515625 0.484375
vn 0.000000 1.000000 0.000000
vt 0.515625 0.456250
vt 0.534375 0.456250
vt 0.534375 0.484375
vt 0.515625 0.484375
vn 0.000000 -1.000000 0.000000
vt 0.515625 0.437500
vt 0.567188 0.437500
vt 0.567188 0.484375
vt 0.515625 0.484375
vn 0.000000 0.000000 1.000000
vt 0.515625 0.437500
vt 0.567188 0.437500
vt 0.567188 0.484375
vt 0.515625 0.484375
vn 0.000000 0.000000 -1.000000
vt 0.515625 0.437500
vt 0.567187 0.437500
vt 0.567187 0.484375
vt 0.515625 0.484375
vn -1.000000 0.000000 0.000000
vt 0.515625 0.437500
vt 0.567187 0.437500
vt 0.567187 0.484375
vt 0.515625 0.484375
vn 1.000000 0.000000 0.000000
vt 0.515625 0.432813
vt 0.567188 0.432813
vt 0.567188 0.484375
vt 0.515625 0.484375
vn 0.000000 1.000000 0.000000
vt 0.515625 0.432813
vt 0.567188 0.432813
vt 0.567188 0.484375
vt 0.515625 0.484375
vn 0.000000 -1.000000 0.000000
vt 0.515625 0.446875
vt 0.532031 0.446875
vt 0.532031 0.484375
vt 0.515625 0.484375
vn 0.000000 0.000000 1.000000
vt 0.515625 0.446875
vt 0.532031 0.446875
vt 0.532031 0.484375
vt 0.515625 0.484375
vn 0.000000 0.000000 -1.000000
vt 0.515625 0.446875
vt 0.539062 0.446875
vt 0.539062 0.484375
vt 0.515625 0.484375
vn -1.000000 0.000000 0.000000
vt 0.515625 0.446875
vt 0.539062 0.446875
vt 0.539062 0.484375
vt 0.515625 0.484375
vn 1.000000 0.000000 0.000000
vt 0.515625 0.460938
vt 0.532031 0.460938
vt 0.532031 0.484375
vt 0.515625 0.484375
vn 0.000000 1.000000 0.000000
vt 0.515625 0.460938
vt 0.532031 0.460938
vt 0.532031 0.484375
vt 0.515625 0.484375
vn 0.000000 -1.000000 0.000000
vt 0.515625 0.446875
vt 0.532031 0.446875
vt 0.532031 0.484375
vt 0.515625 0.484375
vn 0.000000 0.000000 1.000000
vt 0.515625 0.446875
vt 0.532031 0.446875
vt 0.532031 0.484375
vt 0.515625 0.484375
vn 0.000000 0.000000 -1.000000
vt 0.515625 0.446875
vt 0.539062 0.446875
vt 0.539062 0.484375
vt 0.515625 0.484375
vn -1.000000 0.000000 0.000000
vt 0.515625 0.446875
vt 0.539062 0.446875
vt 0.539062 0.484375
vt 0.515625 0.484375
vn 1.000000 0.000000 0.000000
vt 0.515625 0.460938
vt 0.532031 0.460938
vt 0.532031 0.484375
vt 0.515625 0.484375
vn 0.000000 1.000000 0.000000
vt 0.515625 0.460938
vt 0.532031 0.460938
vt 0.532031 0.484375
vt 0.515625 0.484375
vn 0.000000 -1.000000 0.000000
# part: pivot_washer_left
usemtl herb_knife_iron_atlas
f 5/1/1 6/2/1 7/3/1 8/4/1
f 2/5/2 1/6/2 4/7/2 3/8/2
f 1/9/3 5/10/3 8/11/3 4/12/3
f 6/13/4 2/14/4 3/15/4 7/16/4
f 8/17/5 7/18/5 3/19/5 4/20/5
f 1/21/6 2/22/6 6/23/6 5/24/6
# part: pivot_pin_left
usemtl herb_knife_iron_atlas
f 13/25/7 14/26/7 15/27/7 16/28/7
f 10/29/8 9/30/8 12/31/8 11/32/8
f 9/33/9 13/34/9 16/35/9 12/36/9
f 14/37/10 10/38/10 11/39/10 15/40/10
f 16/41/11 15/42/11 11/43/11 12/44/11
f 9/45/12 10/46/12 14/47/12 13/48/12
# part: pivot_internal_axle
usemtl herb_knife_iron_atlas
f 21/49/13 22/50/13 23/51/13 24/52/13
f 18/53/14 17/54/14 20/55/14 19/56/14
f 17/57/15 21/58/15 24/59/15 20/60/15
f 22/61/16 18/62/16 19/63/16 23/64/16
f 24/65/17 23/66/17 19/67/17 20/68/17
f 17/69/18 18/70/18 22/71/18 21/72/18
# part: pivot_washer_right
usemtl herb_knife_iron_atlas
f 29/73/19 30/74/19 31/75/19 32/76/19
f 26/77/20 25/78/20 28/79/20 27/80/20
f 25/81/21 29/82/21 32/83/21 28/84/21
f 30/85/22 26/86/22 27/87/22 31/88/22
f 32/89/23 31/90/23 27/91/23 28/92/23
f 25/93/24 26/94/24 30/95/24 29/96/24
# part: pivot_pin_right
usemtl herb_knife_iron_atlas
f 37/97/25 38/98/25 39/99/25 40/100/25
f 34/101/26 33/102/26 36/103/26 35/104/26
f 33/105/27 37/106/27 40/107/27 36/108/27
f 38/109/28 34/110/28 35/111/28 39/112/28
f 40/113/29 39/114/29 35/115/29 36/116/29
f 33/117/30 34/118/30 38/119/30 37/120/30
# part: handle_top_crown_left
usemtl herb_knife_iron_atlas
f 45/121/31 46/122/31 47/123/31 48/124/31
f 42/125/32 41/126/32 44/127/32 43/128/32
f 41/129/33 45/130/33 48/131/33 44/132/33
f 46/133/34 42/134/34 43/135/34 47/136/34
f 48/137/35 47/138/35 43/139/35 44/140/35
f 41/141/36 42/142/36 46/143/36 45/144/36
# part: handle_top_crown_right
usemtl herb_knife_iron_atlas
f 53/145/37 54/146/37 55/147/37 56/148/37
f 50/149/38 49/150/38 52/151/38 51/152/38
f 49/153/39 53/154/39 56/155/39 52/156/39
f 54/157/40 50/158/40 51/159/40 55/160/40
f 56/161/41 55/162/41 51/163/41 52/164/41
f 49/165/42 50/166/42 54/167/42 53/168/42
# part: handle_left_upper
usemtl herb_knife_iron_atlas
f 61/169/43 62/170/43 63/171/43 64/172/43
f 58/173/44 57/174/44 60/175/44 59/176/44
f 57/177/45 61/178/45 64/179/45 60/180/45
f 62/181/46 58/182/46 59/183/46 63/184/46
f 64/185/47 63/186/47 59/187/47 60/188/47
f 57/189/48 58/190/48 62/191/48 61/192/48
# part: handle_left_mid
usemtl herb_knife_iron_atlas
f 69/193/49 70/194/49 71/195/49 72/196/49
f 66/197/50 65/198/50 68/199/50 67/200/50
f 65/201/51 69/202/51 72/203/51 68/204/51
f 70/205/52 66/206/52 67/207/52 71/208/52
f 72/209/53 71/210/53 67/211/53 68/212/53
f 65/213/54 66/214/54 70/215/54 69/216/54
# part: handle_left_lower
usemtl herb_knife_iron_atlas
f 77/217/55 78/218/55 79/219/55 80/220/55
f 74/221/56 73/222/56 76/223/56 75/224/56
f 73/225/57 77/226/57 80/227/57 76/228/57
f 78/229/58 74/230/58 75/231/58 79/232/58
f 80/233/59 79/234/59 75/235/59 76/236/59
f 73/237/60 74/238/60 78/239/60 77/240/60
# part: handle_right_upper
usemtl herb_knife_iron_atlas
f 85/241/61 86/242/61 87/243/61 88/244/61
f 82/245/62 81/246/62 84/247/62 83/248/62
f 81/249/63 85/250/63 88/251/63 84/252/63
f 86/253/64 82/254/64 83/255/64 87/256/64
f 88/257/65 87/258/65 83/259/65 84/260/65
f 81/261/66 82/262/66 86/263/66 85/264/66
# part: handle_right_mid
usemtl herb_knife_iron_atlas
f 93/265/67 94/266/67 95/267/67 96/268/67
f 90/269/68 89/270/68 92/271/68 91/272/68
f 89/273/69 93/274/69 96/275/69 92/276/69
f 94/277/70 90/278/70 91/279/70 95/280/70
f 96/281/71 95/282/71 91/283/71 92/284/71
f 89/285/72 90/286/72 94/287/72 93/288/72
# part: handle_right_lower
usemtl herb_knife_iron_atlas
f 101/289/73 102/290/73 103/291/73 104/292/73
f 98/293/74 97/294/74 100/295/74 99/296/74
f 97/297/75 101/298/75 104/299/75 100/300/75
f 102/301/76 98/302/76 99/303/76 103/304/76
f 104/305/77 103/306/77 99/307/77 100/308/77
f 97/309/78 98/310/78 102/311/78 101/312/78
# part: handle_back_spring_top
usemtl herb_knife_iron_atlas
f 109/313/79 110/314/79 111/315/79 112/316/79
f 106/317/80 105/318/80 108/319/80 107/320/80
f 105/321/81 109/322/81 112/323/81 108/324/81
f 110/325/82 106/326/82 107/327/82 111/328/82
f 112/329/83 111/330/83 107/331/83 108/332/83
f 105/333/84 106/334/84 110/335/84 109/336/84
# part: handle_back_spring_mid
usemtl herb_knife_iron_atlas
f 117/337/85 118/338/85 119/339/85 120/340/85
f 114/341/86 113/342/86 116/343/86 115/344/86
f 113/345/87 117/346/87 120/347/87 116/348/87
f 118/349/88 114/350/88 115/351/88 119/352/88
f 120/353/89 119/354/89 115/355/89 116/356/89
f 113/357/90 114/358/90 118/359/90 117/360/90
# part: handle_back_spring_bot
usemtl herb_knife_iron_atlas
f 125/361/91 126/362/91 127/363/91 128/364/91
f 122/365/92 121/366/92 124/367/92 123/368/92
f 121/369/93 125/370/93 128/371/93 124/372/93
f 126/373/94 122/374/94 123/375/94 127/376/94
f 128/377/95 127/378/95 123/379/95 124/380/95
f 121/381/96 122/382/96 126/383/96 125/384/96
# part: handle_front_bottom_spacer
usemtl herb_knife_iron_atlas
f 133/385/97 134/386/97 135/387/97 136/388/97
f 130/389/98 129/390/98 132/391/98 131/392/98
f 129/393/99 133/394/99 136/395/99 132/396/99
f 134/397/100 130/398/100 131/399/100 135/400/100
f 136/401/101 135/402/101 131/403/101 132/404/101
f 129/405/102 130/406/102 134/407/102 133/408/102
# part: handle_rivet_mid_left
usemtl herb_knife_iron_atlas
f 141/409/103 142/410/103 143/411/103 144/412/103
f 138/413/104 137/414/104 140/415/104 139/416/104
f 137/417/105 141/418/105 144/419/105 140/420/105
f 142/421/106 138/422/106 139/423/106 143/424/106
f 144/425/107 143/426/107 139/427/107 140/428/107
f 137/429/108 138/430/108 142/431/108 141/432/108
# part: handle_rivet_mid_right
usemtl herb_knife_iron_atlas
f 149/433/109 150/434/109 151/435/109 152/436/109
f 146/437/110 145/438/110 148/439/110 147/440/110
f 145/441/111 149/442/111 152/443/111 148/444/111
f 150/445/112 146/446/112 147/447/112 151/448/112
f 152/449/113 151/450/113 147/451/113 148/452/113
f 145/453/114 146/454/114 150/455/114 149/456/114
# part: handle_rivet_bot_left
usemtl herb_knife_iron_atlas
f 157/457/115 158/458/115 159/459/115 160/460/115
f 154/461/116 153/462/116 156/463/116 155/464/116
f 153/465/117 157/466/117 160/467/117 156/468/117
f 158/469/118 154/470/118 155/471/118 159/472/118
f 160/473/119 159/474/119 155/475/119 156/476/119
f 153/477/120 154/478/120 158/479/120 157/480/120
# part: handle_rivet_bot_right
usemtl herb_knife_iron_atlas
f 165/481/121 166/482/121 167/483/121 168/484/121
f 162/485/122 161/486/122 164/487/122 163/488/122
f 161/489/123 165/490/123 168/491/123 164/492/123
f 166/493/124 162/494/124 163/495/124 167/496/124
f 168/497/125 167/498/125 163/499/125 164/500/125
f 161/501/126 162/502/126 166/503/126 165/504/126
# part: handle_tail_ferrule_left
usemtl herb_knife_iron_atlas
f 173/505/127 174/506/127 175/507/127 176/508/127
f 170/509/128 169/510/128 172/511/128 171/512/128
f 169/513/129 173/514/129 176/515/129 172/516/129
f 174/517/130 170/518/130 171/519/130 175/520/130
f 176/521/131 175/522/131 171/523/131 172/524/131
f 169/525/132 170/526/132 174/527/132 173/528/132
# part: handle_tail_ferrule_right
usemtl herb_knife_iron_atlas
f 181/529/133 182/530/133 183/531/133 184/532/133
f 178/533/134 177/534/134 180/535/134 179/536/134
f 177/537/135 181/538/135 184/539/135 180/540/135
f 182/541/136 178/542/136 179/543/136 183/544/136
f 184/545/137 183/546/137 179/547/137 180/548/137
f 177/549/138 178/550/138 182/551/138 181/552/138
# part: blade_tang_hub
usemtl herb_knife_iron_atlas
f 189/553/139 190/554/139 191/555/139 192/556/139
f 186/557/140 185/558/140 188/559/140 187/560/140
f 185/561/141 189/562/141 192/563/141 188/564/141
f 190/565/142 186/566/142 187/567/142 191/568/142
f 192/569/143 191/570/143 187/571/143 188/572/143
f 185/573/144 186/574/144 190/575/144 189/576/144
# part: blade_tang_neck
usemtl herb_knife_iron_atlas
f 197/577/145 198/578/145 199/579/145 200/580/145
f 194/581/146 193/582/146 196/583/146 195/584/146
f 193/585/147 197/586/147 200/587/147 196/588/147
f 198/589/148 194/590/148 195/591/148 199/592/148
f 200/593/149 199/594/149 195/595/149 196/596/149
f 193/597/150 194/598/150 198/599/150 197/600/150
# part: blade_spine_1
usemtl herb_knife_iron_atlas
f 205/601/151 206/602/151 207/603/151 208/604/151
f 202/605/152 201/606/152 204/607/152 203/608/152
f 201/609/153 205/610/153 208/611/153 204/612/153
f 206/613/154 202/614/154 203/615/154 207/616/154
f 208/617/155 207/618/155 203/619/155 204/620/155
f 201/621/156 202/622/156 206/623/156 205/624/156
# part: blade_spine_2
usemtl herb_knife_iron_atlas
f 213/625/157 214/626/157 215/627/157 216/628/157
f 210/629/158 209/630/158 212/631/158 211/632/158
f 209/633/159 213/634/159 216/635/159 212/636/159
f 214/637/160 210/638/160 211/639/160 215/640/160
f 216/641/161 215/642/161 211/643/161 212/644/161
f 209/645/162 210/646/162 214/647/162 213/648/162
# part: blade_spine_3
usemtl herb_knife_iron_atlas
f 221/649/163 222/650/163 223/651/163 224/652/163
f 218/653/164 217/654/164 220/655/164 219/656/164
f 217/657/165 221/658/165 224/659/165 220/660/165
f 222/661/166 218/662/166 219/663/166 223/664/166
f 224/665/167 223/666/167 219/667/167 220/668/167
f 217/669/168 218/670/168 222/671/168 221/672/168
# part: blade_spine_4
usemtl herb_knife_iron_atlas
f 229/673/169 230/674/169 231/675/169 232/676/169
f 226/677/170 225/678/170 228/679/170 227/680/170
f 225/681/171 229/682/171 232/683/171 228/684/171
f 230/685/172 226/686/172 227/687/172 231/688/172
f 232/689/173 231/690/173 227/691/173 228/692/173
f 225/693/174 226/694/174 230/695/174 229/696/174
# part: blade_edge_1
usemtl herb_knife_iron_atlas
f 237/697/175 238/698/175 239/699/175 240/700/175
f 234/701/176 233/702/176 236/703/176 235/704/176
f 233/705/177 237/706/177 240/707/177 236/708/177
f 238/709/178 234/710/178 235/711/178 239/712/178
f 240/713/179 239/714/179 235/715/179 236/716/179
f 233/717/180 234/718/180 238/719/180 237/720/180
# part: blade_edge_2
usemtl herb_knife_iron_atlas
f 245/721/181 246/722/181 247/723/181 248/724/181
f 242/725/182 241/726/182 244/727/182 243/728/182
f 241/729/183 245/730/183 248/731/183 244/732/183
f 246/733/184 242/734/184 243/735/184 247/736/184
f 248/737/185 247/738/185 243/739/185 244/740/185
f 241/741/186 242/742/186 246/743/186 245/744/186
# part: blade_edge_3
usemtl herb_knife_iron_atlas
f 253/745/187 254/746/187 255/747/187 256/748/187
f 250/749/188 249/750/188 252/751/188 251/752/188
f 249/753/189 253/754/189 256/755/189 252/756/189
f 254/757/190 250/758/190 251/759/190 255/760/190
f 256/761/191 255/762/191 251/763/191 252/764/191
f 249/765/192 250/766/192 254/767/192 253/768/192
# part: blade_edge_hook_tip
usemtl herb_knife_iron_atlas
f 261/769/193 262/770/193 263/771/193 264/772/193
f 258/773/194 257/774/194 260/775/194 259/776/194
f 257/777/195 261/778/195 264/779/195 260/780/195
f 262/781/196 258/782/196 259/783/196 263/784/196
f 264/785/197 263/786/197 259/787/197 260/788/197
f 257/789/198 258/790/198 262/791/198 261/792/198
# part: blade_bevel_ridge_upper
usemtl herb_knife_iron_atlas
f 269/793/199 270/794/199 271/795/199 272/796/199
f 266/797/200 265/798/200 268/799/200 267/800/200
f 265/801/201 269/802/201 272/803/201 268/804/201
f 270/805/202 266/806/202 267/807/202 271/808/202
f 272/809/203 271/810/203 267/811/203 268/812/203
f 265/813/204 266/814/204 270/815/204 269/816/204
# part: blade_bevel_ridge_lower
usemtl herb_knife_iron_atlas
f 277/817/205 278/818/205 279/819/205 280/820/205
f 274/821/206 273/822/206 276/823/206 275/824/206
f 273/825/207 277/826/207 280/827/207 276/828/207
f 278/829/208 274/830/208 275/831/208 279/832/208
f 280/833/209 279/834/209 275/835/209 276/836/209
f 273/837/210 274/838/210 278/839/210 277/840/210
# part: cord_loop_collar
usemtl herb_knife_iron_atlas
f 285/841/211 286/842/211 287/843/211 288/844/211
f 282/845/212 281/846/212 284/847/212 283/848/212
f 281/849/213 285/850/213 288/851/213 284/852/213
f 286/853/214 282/854/214 283/855/214 287/856/214
f 288/857/215 287/858/215 283/859/215 284/860/215
f 281/861/216 282/862/216 286/863/216 285/864/216
# part: cord_strand_left
usemtl herb_knife_iron_atlas
f 293/865/217 294/866/217 295/867/217 296/868/217
f 290/869/218 289/870/218 292/871/218 291/872/218
f 289/873/219 293/874/219 296/875/219 292/876/219
f 294/877/220 290/878/220 291/879/220 295/880/220
f 296/881/221 295/882/221 291/883/221 292/884/221
f 289/885/222 290/886/222 294/887/222 293/888/222
# part: cord_strand_right
usemtl herb_knife_iron_atlas
f 301/889/223 302/890/223 303/891/223 304/892/223
f 298/893/224 297/894/224 300/895/224 299/896/224
f 297/897/225 301/898/225 304/899/225 300/900/225
f 302/901/226 298/902/226 299/903/226 303/904/226
f 304/905/227 303/906/227 299/907/227 300/908/227
f 297/909/228 298/910/228 302/911/228 301/912/228
# part: cord_knot_main
usemtl herb_knife_iron_atlas
f 309/913/229 310/914/229 311/915/229 312/916/229
f 306/917/230 305/918/230 308/919/230 307/920/230
f 305/921/231 309/922/231 312/923/231 308/924/231
f 310/925/232 306/926/232 307/927/232 311/928/232
f 312/929/233 311/930/233 307/931/233 308/932/233
f 305/933/234 306/934/234 310/935/234 309/936/234
# part: cord_fringe_1
usemtl herb_knife_iron_atlas
f 317/937/235 318/938/235 319/939/235 320/940/235
f 314/941/236 313/942/236 316/943/236 315/944/236
f 313/945/237 317/946/237 320/947/237 316/948/237
f 318/949/238 314/950/238 315/951/238 319/952/238
f 320/953/239 319/954/239 315/955/239 316/956/239
f 313/957/240 314/958/240 318/959/240 317/960/240
# part: cord_fringe_2
usemtl herb_knife_iron_atlas
f 325/961/241 326/962/241 327/963/241 328/964/241
f 322/965/242 321/966/242 324/967/242 323/968/242
f 321/969/243 325/970/243 328/971/243 324/972/243
f 326/973/244 322/974/244 323/975/244 327/976/244
f 328/977/245 327/978/245 323/979/245 324/980/245
f 321/981/246 322/982/246 326/983/246 325/984/246
