# bone_sword_v2.obj -- generated from modelScript/models/BoneSwordV2.bbmodel
# Keep this file in sync with the source bbmodel and its embedded atlas.
mtllib bone_sword_v2.mtl
o bone_sword_v2
# part: pommel_leather_collar_0
v 0.445000 0.309375 0.445000
v 0.555000 0.309375 0.445000
v 0.555000 0.345000 0.445000
v 0.445000 0.345000 0.445000
v 0.445000 0.309375 0.555000
v 0.555000 0.309375 0.555000
v 0.555000 0.345000 0.555000
v 0.445000 0.345000 0.555000
vt 0.000000 0.500000
vt 0.062500 0.500000
vt 0.062500 0.437500
vt 0.000000 0.437500
vn 0.000000 0.000000 1.000000
usemtl bone_sword_v2_atlas
f 5/1/1 6/2/1 7/3/1 8/4/1
vt 0.000000 0.500000
vt 0.062500 0.500000
vt 0.062500 0.437500
vt 0.000000 0.437500
vn 0.000000 0.000000 -1.000000
f 2/5/2 1/6/2 4/7/2 3/8/2
vt 0.000000 0.500000
vt 0.062500 0.500000
vt 0.062500 0.437500
vt 0.000000 0.437500
vn -1.000000 0.000000 0.000000
f 1/9/3 5/10/3 8/11/3 4/12/3
vt 0.000000 0.500000
vt 0.062500 0.500000
vt 0.062500 0.437500
vt 0.000000 0.437500
vn 1.000000 0.000000 0.000000
f 6/13/4 2/14/4 3/15/4 7/16/4
vt 0.000000 0.500000
vt 0.062500 0.500000
vt 0.062500 0.437500
vt 0.000000 0.437500
vn 0.000000 1.000000 0.000000
f 8/17/5 7/18/5 3/19/5 4/20/5
vt 0.000000 0.500000
vt 0.062500 0.500000
vt 0.062500 0.437500
vt 0.000000 0.437500
vn 0.000000 -1.000000 0.000000
f 1/21/6 2/22/6 6/23/6 5/24/6
# part: pommel_leather_collar_45
v 0.424870 0.310000 0.500000
v 0.500000 0.310000 0.424870
v 0.500000 0.344375 0.424870
v 0.424870 0.344375 0.500000
v 0.500000 0.310000 0.575130
v 0.575130 0.310000 0.500000
v 0.575130 0.344375 0.500000
v 0.500000 0.344375 0.575130
vt 0.031250 0.453125
vt 0.093750 0.453125
vt 0.093750 0.390625
vt 0.031250 0.390625
vn 0.707107 0.000000 0.707107
usemtl bone_sword_v2_atlas
f 13/25/7 14/26/7 15/27/7 16/28/7
vt 0.031250 0.453125
vt 0.093750 0.453125
vt 0.093750 0.390625
vt 0.031250 0.390625
vn -0.707107 0.000000 -0.707107
f 10/29/8 9/30/8 12/31/8 11/32/8
vt 0.031250 0.453125
vt 0.093750 0.453125
vt 0.093750 0.390625
vt 0.031250 0.390625
vn -0.707107 0.000000 0.707107
f 9/33/9 13/34/9 16/35/9 12/36/9
vt 0.031250 0.453125
vt 0.093750 0.453125
vt 0.093750 0.390625
vt 0.031250 0.390625
vn 0.707107 0.000000 -0.707107
f 14/37/10 10/38/10 11/39/10 15/40/10
vt 0.031250 0.453125
vt 0.093750 0.453125
vt 0.093750 0.390625
vt 0.031250 0.390625
vn 0.000000 1.000000 0.000000
f 16/41/11 15/42/11 11/43/11 12/44/11
vt 0.031250 0.453125
vt 0.093750 0.453125
vt 0.093750 0.390625
vt 0.031250 0.390625
vn 0.000000 -1.000000 0.000000
f 9/45/12 10/46/12 14/47/12 13/48/12
# part: pommel_neck_0
v 0.455000 0.268750 0.455000
v 0.545000 0.268750 0.455000
v 0.545000 0.306250 0.455000
v 0.455000 0.306250 0.455000
v 0.455000 0.268750 0.545000
v 0.545000 0.268750 0.545000
v 0.545000 0.306250 0.545000
v 0.455000 0.306250 0.545000
vt 0.562500 0.406250
vt 0.625000 0.406250
vt 0.625000 0.343750
vt 0.562500 0.343750
vn 0.000000 0.000000 1.000000
usemtl bone_sword_v2_atlas
f 21/49/13 22/50/13 23/51/13 24/52/13
vt 0.562500 0.406250
vt 0.625000 0.406250
vt 0.625000 0.343750
vt 0.562500 0.343750
vn 0.000000 0.000000 -1.000000
f 18/53/14 17/54/14 20/55/14 19/56/14
vt 0.562500 0.406250
vt 0.625000 0.406250
vt 0.625000 0.343750
vt 0.562500 0.343750
vn -1.000000 0.000000 0.000000
f 17/57/15 21/58/15 24/59/15 20/60/15
vt 0.562500 0.406250
vt 0.625000 0.406250
vt 0.625000 0.343750
vt 0.562500 0.343750
vn 1.000000 0.000000 0.000000
f 22/61/16 18/62/16 19/63/16 23/64/16
vt 0.562500 0.406250
vt 0.625000 0.406250
vt 0.625000 0.343750
vt 0.562500 0.343750
vn 0.000000 1.000000 0.000000
f 24/65/17 23/66/17 19/67/17 20/68/17
vt 0.562500 0.406250
vt 0.625000 0.406250
vt 0.625000 0.343750
vt 0.562500 0.343750
vn 0.000000 -1.000000 0.000000
f 17/69/18 18/70/18 22/71/18 21/72/18
# part: pommel_neck_45
v 0.439012 0.269375 0.500000
v 0.500000 0.269375 0.439012
v 0.500000 0.305625 0.439012
v 0.439012 0.305625 0.500000
v 0.500000 0.269375 0.560988
v 0.560988 0.269375 0.500000
v 0.560988 0.305625 0.500000
v 0.500000 0.305625 0.560988
vt 0.593750 0.359375
vt 0.656250 0.359375
vt 0.656250 0.296875
vt 0.593750 0.296875
vn 0.707107 0.000000 0.707107
usemtl bone_sword_v2_atlas
f 29/73/19 30/74/19 31/75/19 32/76/19
vt 0.593750 0.359375
vt 0.656250 0.359375
vt 0.656250 0.296875
vt 0.593750 0.296875
vn -0.707107 0.000000 -0.707107
f 26/77/20 25/78/20 28/79/20 27/80/20
vt 0.593750 0.359375
vt 0.656250 0.359375
vt 0.656250 0.296875
vt 0.593750 0.296875
vn -0.707107 0.000000 0.707107
f 25/81/21 29/82/21 32/83/21 28/84/21
vt 0.593750 0.359375
vt 0.656250 0.359375
vt 0.656250 0.296875
vt 0.593750 0.296875
vn 0.707107 0.000000 -0.707107
f 30/85/22 26/86/22 27/87/22 31/88/22
vt 0.593750 0.359375
vt 0.656250 0.359375
vt 0.656250 0.296875
vt 0.593750 0.296875
vn 0.000000 1.000000 0.000000
f 32/89/23 31/90/23 27/91/23 28/92/23
vt 0.593750 0.359375
vt 0.656250 0.359375
vt 0.656250 0.296875
vt 0.593750 0.296875
vn 0.000000 -1.000000 0.000000
f 25/93/24 26/94/24 30/95/24 29/96/24
# part: pommel_knob_left
v 0.424761 0.224327 0.450000
v 0.498122 0.239921 0.450000
v 0.481489 0.318173 0.450000
v 0.408128 0.302579 0.450000
v 0.424761 0.224327 0.550000
v 0.498122 0.239921 0.550000
v 0.481489 0.318173 0.550000
v 0.408128 0.302579 0.550000
vt 0.625000 0.312500
vt 0.687500 0.312500
vt 0.687500 0.250000
vt 0.625000 0.250000
vn 0.000000 0.000000 1.000000
usemtl bone_sword_v2_atlas
f 37/97/25 38/98/25 39/99/25 40/100/25
vt 0.625000 0.312500
vt 0.687500 0.312500
vt 0.687500 0.250000
vt 0.625000 0.250000
vn 0.000000 0.000000 -1.000000
f 34/101/26 33/102/26 36/103/26 35/104/26
vt 0.625000 0.312500
vt 0.687500 0.312500
vt 0.687500 0.250000
vt 0.625000 0.250000
vn -0.978148 -0.207912 0.000000
f 33/105/27 37/106/27 40/107/27 36/108/27
vt 0.625000 0.312500
vt 0.687500 0.312500
vt 0.687500 0.250000
vt 0.625000 0.250000
vn 0.978148 0.207912 0.000000
f 38/109/28 34/110/28 35/111/28 39/112/28
vt 0.625000 0.312500
vt 0.687500 0.312500
vt 0.687500 0.250000
vt 0.625000 0.250000
vn -0.207912 0.978148 0.000000
f 40/113/29 39/114/29 35/115/29 36/116/29
vt 0.625000 0.312500
vt 0.687500 0.312500
vt 0.687500 0.250000
vt 0.625000 0.250000
vn 0.207912 -0.978148 0.000000
f 33/117/30 34/118/30 38/119/30 37/120/30
# part: pommel_knob_right
v 0.501878 0.239921 0.450000
v 0.575239 0.224327 0.450000
v 0.591872 0.302579 0.450000
v 0.518511 0.318173 0.450000
v 0.501878 0.239921 0.550000
v 0.575239 0.224327 0.550000
v 0.591872 0.302579 0.550000
v 0.518511 0.318173 0.550000
vt 0.656250 0.265625
vt 0.718750 0.265625
vt 0.718750 0.203125
vt 0.656250 0.203125
vn 0.000000 0.000000 1.000000
usemtl bone_sword_v2_atlas
f 45/121/31 46/122/31 47/123/31 48/124/31
vt 0.656250 0.265625
vt 0.718750 0.265625
vt 0.718750 0.203125
vt 0.656250 0.203125
vn 0.000000 0.000000 -1.000000
f 42/125/32 41/126/32 44/127/32 43/128/32
vt 0.656250 0.265625
vt 0.718750 0.265625
vt 0.718750 0.203125
vt 0.656250 0.203125
vn -0.978148 0.207912 0.000000
f 41/129/33 45/130/33 48/131/33 44/132/33
vt 0.656250 0.265625
vt 0.718750 0.265625
vt 0.718750 0.203125
vt 0.656250 0.203125
vn 0.978148 -0.207912 0.000000
f 46/133/34 42/134/34 43/135/34 47/136/34
vt 0.656250 0.265625
vt 0.718750 0.265625
vt 0.718750 0.203125
vt 0.656250 0.203125
vn 0.207912 0.978148 0.000000
f 48/137/35 47/138/35 43/139/35 44/140/35
vt 0.656250 0.265625
vt 0.718750 0.265625
vt 0.718750 0.203125
vt 0.656250 0.203125
vn -0.207912 -0.978148 0.000000
f 41/141/36 42/142/36 46/143/36 45/144/36
# part: pommel_bump_front
v 0.459375 0.240625 0.540625
v 0.540625 0.240625 0.540625
v 0.540625 0.296875 0.540625
v 0.459375 0.296875 0.540625
v 0.459375 0.240625 0.565625
v 0.540625 0.240625 0.565625
v 0.540625 0.296875 0.565625
v 0.459375 0.296875 0.565625
vt 0.687500 0.218750
vt 0.750000 0.218750
vt 0.750000 0.156250
vt 0.687500 0.156250
vn 0.000000 0.000000 1.000000
usemtl bone_sword_v2_atlas
f 53/145/37 54/146/37 55/147/37 56/148/37
vt 0.687500 0.218750
vt 0.750000 0.218750
vt 0.750000 0.156250
vt 0.687500 0.156250
vn 0.000000 0.000000 -1.000000
f 50/149/38 49/150/38 52/151/38 51/152/38
vt 0.687500 0.218750
vt 0.750000 0.218750
vt 0.750000 0.156250
vt 0.687500 0.156250
vn -1.000000 0.000000 0.000000
f 49/153/39 53/154/39 56/155/39 52/156/39
vt 0.687500 0.218750
vt 0.750000 0.218750
vt 0.750000 0.156250
vt 0.687500 0.156250
vn 1.000000 0.000000 0.000000
f 54/157/40 50/158/40 51/159/40 55/160/40
vt 0.687500 0.218750
vt 0.750000 0.218750
vt 0.750000 0.156250
vt 0.687500 0.156250
vn 0.000000 1.000000 0.000000
f 56/161/41 55/162/41 51/163/41 52/164/41
vt 0.687500 0.218750
vt 0.750000 0.218750
vt 0.750000 0.156250
vt 0.687500 0.156250
vn 0.000000 -1.000000 0.000000
f 49/165/42 50/166/42 54/167/42 53/168/42
# part: pommel_bump_back
v 0.459375 0.240625 0.434375
v 0.540625 0.240625 0.434375
v 0.540625 0.296875 0.434375
v 0.459375 0.296875 0.434375
v 0.459375 0.240625 0.459375
v 0.540625 0.240625 0.459375
v 0.540625 0.296875 0.459375
v 0.459375 0.296875 0.459375
vt 0.718750 0.171875
vt 0.781250 0.171875
vt 0.781250 0.109375
vt 0.718750 0.109375
vn 0.000000 0.000000 1.000000
usemtl bone_sword_v2_atlas
f 61/169/43 62/170/43 63/171/43 64/172/43
vt 0.718750 0.171875
vt 0.781250 0.171875
vt 0.781250 0.109375
vt 0.718750 0.109375
vn 0.000000 0.000000 -1.000000
f 58/173/44 57/174/44 60/175/44 59/176/44
vt 0.718750 0.171875
vt 0.781250 0.171875
vt 0.781250 0.109375
vt 0.718750 0.109375
vn -1.000000 0.000000 0.000000
f 57/177/45 61/178/45 64/179/45 60/180/45
vt 0.718750 0.171875
vt 0.781250 0.171875
vt 0.781250 0.109375
vt 0.718750 0.109375
vn 1.000000 0.000000 0.000000
f 62/181/46 58/182/46 59/183/46 63/184/46
vt 0.718750 0.171875
vt 0.781250 0.171875
vt 0.781250 0.109375
vt 0.718750 0.109375
vn 0.000000 1.000000 0.000000
f 64/185/47 63/186/47 59/187/47 60/188/47
vt 0.718750 0.171875
vt 0.781250 0.171875
vt 0.781250 0.109375
vt 0.718750 0.109375
vn 0.000000 -1.000000 0.000000
f 57/189/48 58/190/48 62/191/48 61/192/48
# part: pommel_lobe_left
v 0.428125 0.207500 0.462500
v 0.478125 0.207500 0.462500
v 0.478125 0.237500 0.462500
v 0.428125 0.237500 0.462500
v 0.428125 0.207500 0.537500
v 0.478125 0.207500 0.537500
v 0.478125 0.237500 0.537500
v 0.428125 0.237500 0.537500
vt 0.750000 0.125000
vt 0.812500 0.125000
vt 0.812500 0.062500
vt 0.750000 0.062500
vn 0.000000 0.000000 1.000000
usemtl bone_sword_v2_atlas
f 69/193/49 70/194/49 71/195/49 72/196/49
vt 0.750000 0.125000
vt 0.812500 0.125000
vt 0.812500 0.062500
vt 0.750000 0.062500
vn 0.000000 0.000000 -1.000000
f 66/197/50 65/198/50 68/199/50 67/200/50
vt 0.750000 0.125000
vt 0.812500 0.125000
vt 0.812500 0.062500
vt 0.750000 0.062500
vn -1.000000 0.000000 0.000000
f 65/201/51 69/202/51 72/203/51 68/204/51
vt 0.750000 0.125000
vt 0.812500 0.125000
vt 0.812500 0.062500
vt 0.750000 0.062500
vn 1.000000 0.000000 0.000000
f 70/205/52 66/206/52 67/207/52 71/208/52
vt 0.750000 0.125000
vt 0.812500 0.125000
vt 0.812500 0.062500
vt 0.750000 0.062500
vn 0.000000 1.000000 0.000000
f 72/209/53 71/210/53 67/211/53 68/212/53
vt 0.750000 0.125000
vt 0.812500 0.125000
vt 0.812500 0.062500
vt 0.750000 0.062500
vn 0.000000 -1.000000 0.000000
f 65/213/54 66/214/54 70/215/54 69/216/54
# part: pommel_lobe_right
v 0.521875 0.207500 0.462500
v 0.571875 0.207500 0.462500
v 0.571875 0.237500 0.462500
v 0.521875 0.237500 0.462500
v 0.521875 0.207500 0.537500
v 0.571875 0.207500 0.537500
v 0.571875 0.237500 0.537500
v 0.521875 0.237500 0.537500
vt 0.781250 0.078125
vt 0.843750 0.078125
vt 0.843750 0.015625
vt 0.781250 0.015625
vn 0.000000 0.000000 1.000000
usemtl bone_sword_v2_atlas
f 77/217/55 78/218/55 79/219/55 80/220/55
vt 0.781250 0.078125
vt 0.843750 0.078125
vt 0.843750 0.015625
vt 0.781250 0.015625
vn 0.000000 0.000000 -1.000000
f 74/221/56 73/222/56 76/223/56 75/224/56
vt 0.781250 0.078125
vt 0.843750 0.078125
vt 0.843750 0.015625
vt 0.781250 0.015625
vn -1.000000 0.000000 0.000000
f 73/225/57 77/226/57 80/227/57 76/228/57
vt 0.781250 0.078125
vt 0.843750 0.078125
vt 0.843750 0.015625
vt 0.781250 0.015625
vn 1.000000 0.000000 0.000000
f 78/229/58 74/230/58 75/231/58 79/232/58
vt 0.781250 0.078125
vt 0.843750 0.078125
vt 0.843750 0.015625
vt 0.781250 0.015625
vn 0.000000 1.000000 0.000000
f 80/233/59 79/234/59 75/235/59 76/236/59
vt 0.781250 0.078125
vt 0.843750 0.078125
vt 0.843750 0.015625
vt 0.781250 0.015625
vn 0.000000 -1.000000 0.000000
f 73/237/60 74/238/60 78/239/60 77/240/60
# part: pommel_fossa
v 0.481250 0.218750 0.471875
v 0.518750 0.218750 0.471875
v 0.518750 0.259375 0.471875
v 0.481250 0.259375 0.471875
v 0.481250 0.218750 0.528125
v 0.518750 0.218750 0.528125
v 0.518750 0.259375 0.528125
v 0.481250 0.259375 0.528125
vt 0.812500 0.468750
vt 0.875000 0.468750
vt 0.875000 0.406250
vt 0.812500 0.406250
vn 0.000000 0.000000 1.000000
usemtl bone_sword_v2_atlas
f 85/241/61 86/242/61 87/243/61 88/244/61
vt 0.812500 0.468750
vt 0.875000 0.468750
vt 0.875000 0.406250
vt 0.812500 0.406250
vn 0.000000 0.000000 -1.000000
f 82/245/62 81/246/62 84/247/62 83/248/62
vt 0.812500 0.468750
vt 0.875000 0.468750
vt 0.875000 0.406250
vt 0.812500 0.406250
vn -1.000000 0.000000 0.000000
f 81/249/63 85/250/63 88/251/63 84/252/63
vt 0.812500 0.468750
vt 0.875000 0.468750
vt 0.875000 0.406250
vt 0.812500 0.406250
vn 1.000000 0.000000 0.000000
f 86/253/64 82/254/64 83/255/64 87/256/64
vt 0.812500 0.468750
vt 0.875000 0.468750
vt 0.875000 0.406250
vt 0.812500 0.406250
vn 0.000000 1.000000 0.000000
f 88/257/65 87/258/65 83/259/65 84/260/65
vt 0.812500 0.468750
vt 0.875000 0.468750
vt 0.875000 0.406250
vt 0.812500 0.406250
vn 0.000000 -1.000000 0.000000
f 81/261/66 82/262/66 86/263/66 85/264/66
# part: grip_core_0
v 0.462500 0.343750 0.462500
v 0.537500 0.343750 0.462500
v 0.537500 0.656250 0.462500
v 0.462500 0.656250 0.462500
v 0.462500 0.343750 0.537500
v 0.537500 0.343750 0.537500
v 0.537500 0.656250 0.537500
v 0.462500 0.656250 0.537500
vt 0.343750 0.421875
vt 0.406250 0.421875
vt 0.406250 0.359375
vt 0.343750 0.359375
vn 0.000000 0.000000 1.000000
usemtl bone_sword_v2_atlas
f 93/265/67 94/266/67 95/267/67 96/268/67
vt 0.343750 0.421875
vt 0.406250 0.421875
vt 0.406250 0.359375
vt 0.343750 0.359375
vn 0.000000 0.000000 -1.000000
f 90/269/68 89/270/68 92/271/68 91/272/68
vt 0.343750 0.421875
vt 0.406250 0.421875
vt 0.406250 0.359375
vt 0.343750 0.359375
vn -1.000000 0.000000 0.000000
f 89/273/69 93/274/69 96/275/69 92/276/69
vt 0.343750 0.421875
vt 0.406250 0.421875
vt 0.406250 0.359375
vt 0.343750 0.359375
vn 1.000000 0.000000 0.000000
f 94/277/70 90/278/70 91/279/70 95/280/70
vt 0.343750 0.421875
vt 0.406250 0.421875
vt 0.406250 0.359375
vt 0.343750 0.359375
vn 0.000000 1.000000 0.000000
f 96/281/71 95/282/71 91/283/71 92/284/71
vt 0.343750 0.421875
vt 0.406250 0.421875
vt 0.406250 0.359375
vt 0.343750 0.359375
vn 0.000000 -1.000000 0.000000
f 89/285/72 90/286/72 94/287/72 93/288/72
# part: grip_core_45
v 0.449619 0.344375 0.500000
v 0.500000 0.344375 0.449619
v 0.500000 0.655625 0.449619
v 0.449619 0.655625 0.500000
v 0.500000 0.344375 0.550381
v 0.550381 0.344375 0.500000
v 0.550381 0.655625 0.500000
v 0.500000 0.655625 0.550381
vt 0.375000 0.375000
vt 0.437500 0.375000
vt 0.437500 0.312500
vt 0.375000 0.312500
vn 0.707107 0.000000 0.707107
usemtl bone_sword_v2_atlas
f 101/289/73 102/290/73 103/291/73 104/292/73
vt 0.375000 0.375000
vt 0.437500 0.375000
vt 0.437500 0.312500
vt 0.375000 0.312500
vn -0.707107 0.000000 -0.707107
f 98/293/74 97/294/74 100/295/74 99/296/74
vt 0.375000 0.375000
vt 0.437500 0.375000
vt 0.437500 0.312500
vt 0.375000 0.312500
vn -0.707107 0.000000 0.707107
f 97/297/75 101/298/75 104/299/75 100/300/75
vt 0.375000 0.375000
vt 0.437500 0.375000
vt 0.437500 0.312500
vt 0.375000 0.312500
vn 0.707107 0.000000 -0.707107
f 102/301/76 98/302/76 99/303/76 103/304/76
vt 0.375000 0.375000
vt 0.437500 0.375000
vt 0.437500 0.312500
vt 0.375000 0.312500
vn 0.000000 1.000000 0.000000
f 104/305/77 103/306/77 99/307/77 100/308/77
vt 0.375000 0.375000
vt 0.437500 0.375000
vt 0.437500 0.312500
vt 0.375000 0.312500
vn 0.000000 -1.000000 0.000000
f 97/309/78 98/310/78 102/311/78 101/312/78
# part: grip_strap_0_0
v 0.450000 0.347500 0.450000
v 0.550000 0.347500 0.450000
v 0.550000 0.402500 0.450000
v 0.450000 0.402500 0.450000
v 0.450000 0.347500 0.550000
v 0.550000 0.347500 0.550000
v 0.550000 0.402500 0.550000
v 0.450000 0.402500 0.550000
vt 0.406250 0.328125
vt 0.468750 0.328125
vt 0.468750 0.265625
vt 0.406250 0.265625
vn 0.000000 0.000000 1.000000
usemtl bone_sword_v2_atlas
f 109/313/79 110/314/79 111/315/79 112/316/79
vt 0.406250 0.328125
vt 0.468750 0.328125
vt 0.468750 0.265625
vt 0.406250 0.265625
vn 0.000000 0.000000 -1.000000
f 106/317/80 105/318/80 108/319/80 107/320/80
vt 0.406250 0.328125
vt 0.468750 0.328125
vt 0.468750 0.265625
vt 0.406250 0.265625
vn -1.000000 0.000000 0.000000
f 105/321/81 109/322/81 112/323/81 108/324/81
vt 0.406250 0.328125
vt 0.468750 0.328125
vt 0.468750 0.265625
vt 0.406250 0.265625
vn 1.000000 0.000000 0.000000
f 110/325/82 106/326/82 107/327/82 111/328/82
vt 0.406250 0.328125
vt 0.468750 0.328125
vt 0.468750 0.265625
vt 0.406250 0.265625
vn 0.000000 1.000000 0.000000
f 112/329/83 111/330/83 107/331/83 108/332/83
vt 0.406250 0.328125
vt 0.468750 0.328125
vt 0.468750 0.265625
vt 0.406250 0.265625
vn 0.000000 -1.000000 0.000000
f 105/333/84 106/334/84 110/335/84 109/336/84
# part: grip_strap_0_45
v 0.431941 0.348125 0.500000
v 0.500000 0.348125 0.431941
v 0.500000 0.401875 0.431941
v 0.431941 0.401875 0.500000
v 0.500000 0.348125 0.568059
v 0.568059 0.348125 0.500000
v 0.568059 0.401875 0.500000
v 0.500000 0.401875 0.568059
vt 0.000000 0.281250
vt 0.062500 0.281250
vt 0.062500 0.218750
vt 0.000000 0.218750
vn 0.707107 0.000000 0.707107
usemtl bone_sword_v2_atlas
f 117/337/85 118/338/85 119/339/85 120/340/85
vt 0.000000 0.281250
vt 0.062500 0.281250
vt 0.062500 0.218750
vt 0.000000 0.218750
vn -0.707107 0.000000 -0.707107
f 114/341/86 113/342/86 116/343/86 115/344/86
vt 0.000000 0.281250
vt 0.062500 0.281250
vt 0.062500 0.218750
vt 0.000000 0.218750
vn -0.707107 0.000000 0.707107
f 113/345/87 117/346/87 120/347/87 116/348/87
vt 0.000000 0.281250
vt 0.062500 0.281250
vt 0.062500 0.218750
vt 0.000000 0.218750
vn 0.707107 0.000000 -0.707107
f 118/349/88 114/350/88 115/351/88 119/352/88
vt 0.000000 0.281250
vt 0.062500 0.281250
vt 0.062500 0.218750
vt 0.000000 0.218750
vn 0.000000 1.000000 0.000000
f 120/353/89 119/354/89 115/355/89 116/356/89
vt 0.000000 0.281250
vt 0.062500 0.281250
vt 0.062500 0.218750
vt 0.000000 0.218750
vn 0.000000 -1.000000 0.000000
f 113/357/90 114/358/90 118/359/90 117/360/90
# part: grip_strap_1_0
v 0.450000 0.410000 0.450000
v 0.550000 0.410000 0.450000
v 0.550000 0.465000 0.450000
v 0.450000 0.465000 0.450000
v 0.450000 0.410000 0.550000
v 0.550000 0.410000 0.550000
v 0.550000 0.465000 0.550000
v 0.450000 0.465000 0.550000
vt 0.031250 0.234375
vt 0.093750 0.234375
vt 0.093750 0.171875
vt 0.031250 0.171875
vn 0.000000 0.000000 1.000000
usemtl bone_sword_v2_atlas
f 125/361/91 126/362/91 127/363/91 128/364/91
vt 0.031250 0.234375
vt 0.093750 0.234375
vt 0.093750 0.171875
vt 0.031250 0.171875
vn 0.000000 0.000000 -1.000000
f 122/365/92 121/366/92 124/367/92 123/368/92
vt 0.031250 0.234375
vt 0.093750 0.234375
vt 0.093750 0.171875
vt 0.031250 0.171875
vn -1.000000 0.000000 0.000000
f 121/369/93 125/370/93 128/371/93 124/372/93
vt 0.031250 0.234375
vt 0.093750 0.234375
vt 0.093750 0.171875
vt 0.031250 0.171875
vn 1.000000 0.000000 0.000000
f 126/373/94 122/374/94 123/375/94 127/376/94
vt 0.031250 0.234375
vt 0.093750 0.234375
vt 0.093750 0.171875
vt 0.031250 0.171875
vn 0.000000 1.000000 0.000000
f 128/377/95 127/378/95 123/379/95 124/380/95
vt 0.031250 0.234375
vt 0.093750 0.234375
vt 0.093750 0.171875
vt 0.031250 0.171875
vn 0.000000 -1.000000 0.000000
f 121/381/96 122/382/96 126/383/96 125/384/96
# part: grip_strap_1_45
v 0.431941 0.410625 0.500000
v 0.500000 0.410625 0.431941
v 0.500000 0.464375 0.431941
v 0.431941 0.464375 0.500000
v 0.500000 0.410625 0.568059
v 0.568059 0.410625 0.500000
v 0.568059 0.464375 0.500000
v 0.500000 0.464375 0.568059
vt 0.062500 0.187500
vt 0.125000 0.187500
vt 0.125000 0.125000
vt 0.062500 0.125000
vn 0.707107 0.000000 0.707107
usemtl bone_sword_v2_atlas
f 133/385/97 134/386/97 135/387/97 136/388/97
vt 0.062500 0.187500
vt 0.125000 0.187500
vt 0.125000 0.125000
vt 0.062500 0.125000
vn -0.707107 0.000000 -0.707107
f 130/389/98 129/390/98 132/391/98 131/392/98
vt 0.062500 0.187500
vt 0.125000 0.187500
vt 0.125000 0.125000
vt 0.062500 0.125000
vn -0.707107 0.000000 0.707107
f 129/393/99 133/394/99 136/395/99 132/396/99
vt 0.062500 0.187500
vt 0.125000 0.187500
vt 0.125000 0.125000
vt 0.062500 0.125000
vn 0.707107 0.000000 -0.707107
f 134/397/100 130/398/100 131/399/100 135/400/100
vt 0.062500 0.187500
vt 0.125000 0.187500
vt 0.125000 0.125000
vt 0.062500 0.125000
vn 0.000000 1.000000 0.000000
f 136/401/101 135/402/101 131/403/101 132/404/101
vt 0.062500 0.187500
vt 0.125000 0.187500
vt 0.125000 0.125000
vt 0.062500 0.125000
vn 0.000000 -1.000000 0.000000
f 129/405/102 130/406/102 134/407/102 133/408/102
# part: grip_strap_2_0
v 0.450000 0.472500 0.450000
v 0.550000 0.472500 0.450000
v 0.550000 0.527500 0.450000
v 0.450000 0.527500 0.450000
v 0.450000 0.472500 0.550000
v 0.550000 0.472500 0.550000
v 0.550000 0.527500 0.550000
v 0.450000 0.527500 0.550000
vt 0.093750 0.140625
vt 0.156250 0.140625
vt 0.156250 0.078125
vt 0.093750 0.078125
vn 0.000000 0.000000 1.000000
usemtl bone_sword_v2_atlas
f 141/409/103 142/410/103 143/411/103 144/412/103
vt 0.093750 0.140625
vt 0.156250 0.140625
vt 0.156250 0.078125
vt 0.093750 0.078125
vn 0.000000 0.000000 -1.000000
f 138/413/104 137/414/104 140/415/104 139/416/104
vt 0.093750 0.140625
vt 0.156250 0.140625
vt 0.156250 0.078125
vt 0.093750 0.078125
vn -1.000000 0.000000 0.000000
f 137/417/105 141/418/105 144/419/105 140/420/105
vt 0.093750 0.140625
vt 0.156250 0.140625
vt 0.156250 0.078125
vt 0.093750 0.078125
vn 1.000000 0.000000 0.000000
f 142/421/106 138/422/106 139/423/106 143/424/106
vt 0.093750 0.140625
vt 0.156250 0.140625
vt 0.156250 0.078125
vt 0.093750 0.078125
vn 0.000000 1.000000 0.000000
f 144/425/107 143/426/107 139/427/107 140/428/107
vt 0.093750 0.140625
vt 0.156250 0.140625
vt 0.156250 0.078125
vt 0.093750 0.078125
vn 0.000000 -1.000000 0.000000
f 137/429/108 138/430/108 142/431/108 141/432/108
# part: grip_strap_2_45
v 0.431941 0.473125 0.500000
v 0.500000 0.473125 0.431941
v 0.500000 0.526875 0.431941
v 0.431941 0.526875 0.500000
v 0.500000 0.473125 0.568059
v 0.568059 0.473125 0.500000
v 0.568059 0.526875 0.500000
v 0.500000 0.526875 0.568059
vt 0.125000 0.093750
vt 0.187500 0.093750
vt 0.187500 0.031250
vt 0.125000 0.031250
vn 0.707107 0.000000 0.707107
usemtl bone_sword_v2_atlas
f 149/433/109 150/434/109 151/435/109 152/436/109
vt 0.125000 0.093750
vt 0.187500 0.093750
vt 0.187500 0.031250
vt 0.125000 0.031250
vn -0.707107 0.000000 -0.707107
f 146/437/110 145/438/110 148/439/110 147/440/110
vt 0.125000 0.093750
vt 0.187500 0.093750
vt 0.187500 0.031250
vt 0.125000 0.031250
vn -0.707107 0.000000 0.707107
f 145/441/111 149/442/111 152/443/111 148/444/111
vt 0.125000 0.093750
vt 0.187500 0.093750
vt 0.187500 0.031250
vt 0.125000 0.031250
vn 0.707107 0.000000 -0.707107
f 150/445/112 146/446/112 147/447/112 151/448/112
vt 0.125000 0.093750
vt 0.187500 0.093750
vt 0.187500 0.031250
vt 0.125000 0.031250
vn 0.000000 1.000000 0.000000
f 152/449/113 151/450/113 147/451/113 148/452/113
vt 0.125000 0.093750
vt 0.187500 0.093750
vt 0.187500 0.031250
vt 0.125000 0.031250
vn 0.000000 -1.000000 0.000000
f 145/453/114 146/454/114 150/455/114 149/456/114
# part: grip_strap_3_0
v 0.450000 0.535000 0.450000
v 0.550000 0.535000 0.450000
v 0.550000 0.590000 0.450000
v 0.450000 0.590000 0.450000
v 0.450000 0.535000 0.550000
v 0.550000 0.535000 0.550000
v 0.550000 0.590000 0.550000
v 0.450000 0.590000 0.550000
vt 0.156250 0.484375
vt 0.218750 0.484375
vt 0.218750 0.421875
vt 0.156250 0.421875
vn 0.000000 0.000000 1.000000
usemtl bone_sword_v2_atlas
f 157/457/115 158/458/115 159/459/115 160/460/115
vt 0.156250 0.484375
vt 0.218750 0.484375
vt 0.218750 0.421875
vt 0.156250 0.421875
vn 0.000000 0.000000 -1.000000
f 154/461/116 153/462/116 156/463/116 155/464/116
vt 0.156250 0.484375
vt 0.218750 0.484375
vt 0.218750 0.421875
vt 0.156250 0.421875
vn -1.000000 0.000000 0.000000
f 153/465/117 157/466/117 160/467/117 156/468/117
vt 0.156250 0.484375
vt 0.218750 0.484375
vt 0.218750 0.421875
vt 0.156250 0.421875
vn 1.000000 0.000000 0.000000
f 158/469/118 154/470/118 155/471/118 159/472/118
vt 0.156250 0.484375
vt 0.218750 0.484375
vt 0.218750 0.421875
vt 0.156250 0.421875
vn 0.000000 1.000000 0.000000
f 160/473/119 159/474/119 155/475/119 156/476/119
vt 0.156250 0.484375
vt 0.218750 0.484375
vt 0.218750 0.421875
vt 0.156250 0.421875
vn 0.000000 -1.000000 0.000000
f 153/477/120 154/478/120 158/479/120 157/480/120
# part: grip_strap_3_45
v 0.431941 0.535625 0.500000
v 0.500000 0.535625 0.431941
v 0.500000 0.589375 0.431941
v 0.431941 0.589375 0.500000
v 0.500000 0.535625 0.568059
v 0.568059 0.535625 0.500000
v 0.568059 0.589375 0.500000
v 0.500000 0.589375 0.568059
vt 0.187500 0.437500
vt 0.250000 0.437500
vt 0.250000 0.375000
vt 0.187500 0.375000
vn 0.707107 0.000000 0.707107
usemtl bone_sword_v2_atlas
f 165/481/121 166/482/121 167/483/121 168/484/121
vt 0.187500 0.437500
vt 0.250000 0.437500
vt 0.250000 0.375000
vt 0.187500 0.375000
vn -0.707107 0.000000 -0.707107
f 162/485/122 161/486/122 164/487/122 163/488/122
vt 0.187500 0.437500
vt 0.250000 0.437500
vt 0.250000 0.375000
vt 0.187500 0.375000
vn -0.707107 0.000000 0.707107
f 161/489/123 165/490/123 168/491/123 164/492/123
vt 0.187500 0.437500
vt 0.250000 0.437500
vt 0.250000 0.375000
vt 0.187500 0.375000
vn 0.707107 0.000000 -0.707107
f 166/493/124 162/494/124 163/495/124 167/496/124
vt 0.187500 0.437500
vt 0.250000 0.437500
vt 0.250000 0.375000
vt 0.187500 0.375000
vn 0.000000 1.000000 0.000000
f 168/497/125 167/498/125 163/499/125 164/500/125
vt 0.187500 0.437500
vt 0.250000 0.437500
vt 0.250000 0.375000
vt 0.187500 0.375000
vn 0.000000 -1.000000 0.000000
f 161/501/126 162/502/126 166/503/126 165/504/126
# part: grip_strap_4_0
v 0.450000 0.597500 0.450000
v 0.550000 0.597500 0.450000
v 0.550000 0.652500 0.450000
v 0.450000 0.652500 0.450000
v 0.450000 0.597500 0.550000
v 0.550000 0.597500 0.550000
v 0.550000 0.652500 0.550000
v 0.450000 0.652500 0.550000
vt 0.218750 0.390625
vt 0.281250 0.390625
vt 0.281250 0.328125
vt 0.218750 0.328125
vn 0.000000 0.000000 1.000000
usemtl bone_sword_v2_atlas
f 173/505/127 174/506/127 175/507/127 176/508/127
vt 0.218750 0.390625
vt 0.281250 0.390625
vt 0.281250 0.328125
vt 0.218750 0.328125
vn 0.000000 0.000000 -1.000000
f 170/509/128 169/510/128 172/511/128 171/512/128
vt 0.218750 0.390625
vt 0.281250 0.390625
vt 0.281250 0.328125
vt 0.218750 0.328125
vn -1.000000 0.000000 0.000000
f 169/513/129 173/514/129 176/515/129 172/516/129
vt 0.218750 0.390625
vt 0.281250 0.390625
vt 0.281250 0.328125
vt 0.218750 0.328125
vn 1.000000 0.000000 0.000000
f 174/517/130 170/518/130 171/519/130 175/520/130
vt 0.218750 0.390625
vt 0.281250 0.390625
vt 0.281250 0.328125
vt 0.218750 0.328125
vn 0.000000 1.000000 0.000000
f 176/521/131 175/522/131 171/523/131 172/524/131
vt 0.218750 0.390625
vt 0.281250 0.390625
vt 0.281250 0.328125
vt 0.218750 0.328125
vn 0.000000 -1.000000 0.000000
f 169/525/132 170/526/132 174/527/132 173/528/132
# part: grip_strap_4_45
v 0.431941 0.598125 0.500000
v 0.500000 0.598125 0.431941
v 0.500000 0.651875 0.431941
v 0.431941 0.651875 0.500000
v 0.500000 0.598125 0.568059
v 0.568059 0.598125 0.500000
v 0.568059 0.651875 0.500000
v 0.500000 0.651875 0.568059
vt 0.250000 0.343750
vt 0.312500 0.343750
vt 0.312500 0.281250
vt 0.250000 0.281250
vn 0.707107 0.000000 0.707107
usemtl bone_sword_v2_atlas
f 181/529/133 182/530/133 183/531/133 184/532/133
vt 0.250000 0.343750
vt 0.312500 0.343750
vt 0.312500 0.281250
vt 0.250000 0.281250
vn -0.707107 0.000000 -0.707107
f 178/533/134 177/534/134 180/535/134 179/536/134
vt 0.250000 0.343750
vt 0.312500 0.343750
vt 0.312500 0.281250
vt 0.250000 0.281250
vn -0.707107 0.000000 0.707107
f 177/537/135 181/538/135 184/539/135 180/540/135
vt 0.250000 0.343750
vt 0.312500 0.343750
vt 0.312500 0.281250
vt 0.250000 0.281250
vn 0.707107 0.000000 -0.707107
f 182/541/136 178/542/136 179/543/136 183/544/136
vt 0.250000 0.343750
vt 0.312500 0.343750
vt 0.312500 0.281250
vt 0.250000 0.281250
vn 0.000000 1.000000 0.000000
f 184/545/137 183/546/137 179/547/137 180/548/137
vt 0.250000 0.343750
vt 0.312500 0.343750
vt 0.312500 0.281250
vt 0.250000 0.281250
vn 0.000000 -1.000000 0.000000
f 177/549/138 178/550/138 182/551/138 181/552/138
# part: guard_center_socket
v 0.418750 0.656250 0.446875
v 0.581250 0.656250 0.446875
v 0.581250 0.750000 0.446875
v 0.418750 0.750000 0.446875
v 0.418750 0.656250 0.553125
v 0.581250 0.656250 0.553125
v 0.581250 0.750000 0.553125
v 0.418750 0.750000 0.553125
vt 0.781250 0.796875
vt 0.843750 0.796875
vt 0.843750 0.734375
vt 0.781250 0.734375
vn 0.000000 0.000000 1.000000
usemtl bone_sword_v2_atlas
f 189/553/139 190/554/139 191/555/139 192/556/139
vt 0.781250 0.796875
vt 0.843750 0.796875
vt 0.843750 0.734375
vt 0.781250 0.734375
vn 0.000000 0.000000 -1.000000
f 186/557/140 185/558/140 188/559/140 187/560/140
vt 0.781250 0.796875
vt 0.843750 0.796875
vt 0.843750 0.734375
vt 0.781250 0.734375
vn -1.000000 0.000000 0.000000
f 185/561/141 189/562/141 192/563/141 188/564/141
vt 0.781250 0.796875
vt 0.843750 0.796875
vt 0.843750 0.734375
vt 0.781250 0.734375
vn 1.000000 0.000000 0.000000
f 190/565/142 186/566/142 187/567/142 191/568/142
vt 0.781250 0.796875
vt 0.843750 0.796875
vt 0.843750 0.734375
vt 0.781250 0.734375
vn 0.000000 1.000000 0.000000
f 192/569/143 191/570/143 187/571/143 188/572/143
vt 0.781250 0.796875
vt 0.843750 0.796875
vt 0.843750 0.734375
vt 0.781250 0.734375
vn 0.000000 -1.000000 0.000000
f 185/573/144 186/574/144 190/575/144 189/576/144
# part: guard_leather_wrap
v 0.409375 0.668750 0.438750
v 0.590625 0.668750 0.438750
v 0.590625 0.737500 0.438750
v 0.409375 0.737500 0.438750
v 0.409375 0.668750 0.561250
v 0.590625 0.668750 0.561250
v 0.590625 0.737500 0.561250
v 0.409375 0.737500 0.561250
vt 0.312500 0.250000
vt 0.375000 0.250000
vt 0.375000 0.187500
vt 0.312500 0.187500
vn 0.000000 0.000000 1.000000
usemtl bone_sword_v2_atlas
f 197/577/145 198/578/145 199/579/145 200/580/145
vt 0.312500 0.250000
vt 0.375000 0.250000
vt 0.375000 0.187500
vt 0.312500 0.187500
vn 0.000000 0.000000 -1.000000
f 194/581/146 193/582/146 196/583/146 195/584/146
vt 0.312500 0.250000
vt 0.375000 0.250000
vt 0.375000 0.187500
vt 0.312500 0.187500
vn -1.000000 0.000000 0.000000
f 193/585/147 197/586/147 200/587/147 196/588/147
vt 0.312500 0.250000
vt 0.375000 0.250000
vt 0.375000 0.187500
vt 0.312500 0.187500
vn 1.000000 0.000000 0.000000
f 198/589/148 194/590/148 195/591/148 199/592/148
vt 0.312500 0.250000
vt 0.375000 0.250000
vt 0.375000 0.187500
vt 0.312500 0.187500
vn 0.000000 1.000000 0.000000
f 200/593/149 199/594/149 195/595/149 196/596/149
vt 0.312500 0.250000
vt 0.375000 0.250000
vt 0.375000 0.187500
vt 0.312500 0.187500
vn 0.000000 -1.000000 0.000000
f 193/597/150 194/598/150 198/599/150 197/600/150
# part: guard_leather_knot_f
v 0.468750 0.678125 0.560000
v 0.531250 0.678125 0.560000
v 0.531250 0.728125 0.560000
v 0.468750 0.728125 0.560000
v 0.468750 0.678125 0.571875
v 0.531250 0.678125 0.571875
v 0.531250 0.728125 0.571875
v 0.468750 0.728125 0.571875
vt 0.343750 0.203125
vt 0.406250 0.203125
vt 0.406250 0.140625
vt 0.343750 0.140625
vn 0.000000 0.000000 1.000000
usemtl bone_sword_v2_atlas
f 205/601/151 206/602/151 207/603/151 208/604/151
vt 0.343750 0.203125
vt 0.406250 0.203125
vt 0.406250 0.140625
vt 0.343750 0.140625
vn 0.000000 0.000000 -1.000000
f 202/605/152 201/606/152 204/607/152 203/608/152
vt 0.343750 0.203125
vt 0.406250 0.203125
vt 0.406250 0.140625
vt 0.343750 0.140625
vn -1.000000 0.000000 0.000000
f 201/609/153 205/610/153 208/611/153 204/612/153
vt 0.343750 0.203125
vt 0.406250 0.203125
vt 0.406250 0.140625
vt 0.343750 0.140625
vn 1.000000 0.000000 0.000000
f 206/613/154 202/614/154 203/615/154 207/616/154
vt 0.343750 0.203125
vt 0.406250 0.203125
vt 0.406250 0.140625
vt 0.343750 0.140625
vn 0.000000 1.000000 0.000000
f 208/617/155 207/618/155 203/619/155 204/620/155
vt 0.343750 0.203125
vt 0.406250 0.203125
vt 0.406250 0.140625
vt 0.343750 0.140625
vn 0.000000 -1.000000 0.000000
f 201/621/156 202/622/156 206/623/156 205/624/156
# part: guard_leather_knot_b
v 0.468750 0.678125 0.428125
v 0.531250 0.678125 0.428125
v 0.531250 0.728125 0.428125
v 0.468750 0.728125 0.428125
v 0.468750 0.678125 0.440000
v 0.531250 0.678125 0.440000
v 0.531250 0.728125 0.440000
v 0.468750 0.728125 0.440000
vt 0.375000 0.156250
vt 0.437500 0.156250
vt 0.437500 0.093750
vt 0.375000 0.093750
vn 0.000000 0.000000 1.000000
usemtl bone_sword_v2_atlas
f 213/625/157 214/626/157 215/627/157 216/628/157
vt 0.375000 0.156250
vt 0.437500 0.156250
vt 0.437500 0.093750
vt 0.375000 0.093750
vn 0.000000 0.000000 -1.000000
f 210/629/158 209/630/158 212/631/158 211/632/158
vt 0.375000 0.156250
vt 0.437500 0.156250
vt 0.437500 0.093750
vt 0.375000 0.093750
vn -1.000000 0.000000 0.000000
f 209/633/159 213/634/159 216/635/159 212/636/159
vt 0.375000 0.156250
vt 0.437500 0.156250
vt 0.437500 0.093750
vt 0.375000 0.093750
vn 1.000000 0.000000 0.000000
f 214/637/160 210/638/160 211/639/160 215/640/160
vt 0.375000 0.156250
vt 0.437500 0.156250
vt 0.437500 0.093750
vt 0.375000 0.093750
vn 0.000000 1.000000 0.000000
f 216/641/161 215/642/161 211/643/161 212/644/161
vt 0.375000 0.156250
vt 0.437500 0.156250
vt 0.437500 0.093750
vt 0.375000 0.093750
vn 0.000000 -1.000000 0.000000
f 209/645/162 210/646/162 214/647/162 213/648/162
# part: guard_horn_root_l
v 0.350000 0.675000 0.459375
v 0.418750 0.675000 0.459375
v 0.418750 0.740625 0.459375
v 0.350000 0.740625 0.459375
v 0.350000 0.675000 0.540625
v 0.418750 0.675000 0.540625
v 0.418750 0.740625 0.540625
v 0.350000 0.740625 0.540625
vt 0.906250 0.609375
vt 0.968750 0.609375
vt 0.968750 0.546875
vt 0.906250 0.546875
vn 0.000000 0.000000 1.000000
usemtl bone_sword_v2_atlas
f 221/649/163 222/650/163 223/651/163 224/652/163
vt 0.906250 0.609375
vt 0.968750 0.609375
vt 0.968750 0.546875
vt 0.906250 0.546875
vn 0.000000 0.000000 -1.000000
f 218/653/164 217/654/164 220/655/164 219/656/164
vt 0.906250 0.609375
vt 0.968750 0.609375
vt 0.968750 0.546875
vt 0.906250 0.546875
vn -1.000000 0.000000 0.000000
f 217/657/165 221/658/165 224/659/165 220/660/165
vt 0.906250 0.609375
vt 0.968750 0.609375
vt 0.968750 0.546875
vt 0.906250 0.546875
vn 1.000000 0.000000 0.000000
f 222/661/166 218/662/166 219/663/166 223/664/166
vt 0.906250 0.609375
vt 0.968750 0.609375
vt 0.968750 0.546875
vt 0.906250 0.546875
vn 0.000000 1.000000 0.000000
f 224/665/167 223/666/167 219/667/167 220/668/167
vt 0.906250 0.609375
vt 0.968750 0.609375
vt 0.968750 0.546875
vt 0.906250 0.546875
vn 0.000000 -1.000000 0.000000
f 217/669/168 218/670/168 222/671/168 221/672/168
# part: guard_horn_mid_l
v 0.293294 0.696251 0.465625
v 0.363771 0.721903 0.465625
v 0.331706 0.809999 0.465625
v 0.261229 0.784347 0.465625
v 0.293294 0.696251 0.534375
v 0.363771 0.721903 0.534375
v 0.331706 0.809999 0.534375
v 0.261229 0.784347 0.534375
vt 0.500000 1.000000
vt 0.562500 1.000000
vt 0.562500 0.937500
vt 0.500000 0.937500
vn 0.000000 0.000000 1.000000
usemtl bone_sword_v2_atlas
f 229/673/169 230/674/169 231/675/169 232/676/169
vt 0.500000 1.000000
vt 0.562500 1.000000
vt 0.562500 0.937500
vt 0.500000 0.937500
vn 0.000000 0.000000 -1.000000
f 226/677/170 225/678/170 228/679/170 227/680/170
vt 0.500000 1.000000
vt 0.562500 1.000000
vt 0.562500 0.937500
vt 0.500000 0.937500
vn -0.939693 -0.342020 0.000000
f 225/681/171 229/682/171 232/683/171 228/684/171
vt 0.500000 1.000000
vt 0.562500 1.000000
vt 0.562500 0.937500
vt 0.500000 0.937500
vn 0.939693 0.342020 0.000000
f 230/685/172 226/686/172 227/687/172 231/688/172
vt 0.500000 1.000000
vt 0.562500 1.000000
vt 0.562500 0.937500
vt 0.500000 0.937500
vn -0.342020 0.939693 0.000000
f 232/689/173 231/690/173 227/691/173 228/692/173
vt 0.500000 1.000000
vt 0.562500 1.000000
vt 0.562500 0.937500
vt 0.500000 0.937500
vn 0.342020 -0.939693 0.000000
f 225/693/174 226/694/174 230/695/174 229/696/174
# part: guard_horn_tip_l
v 0.249994 0.759788 0.471875
v 0.302997 0.792908 0.471875
v 0.250006 0.877712 0.471875
v 0.197003 0.844592 0.471875
v 0.249994 0.759788 0.528125
v 0.302997 0.792908 0.528125
v 0.250006 0.877712 0.528125
v 0.197003 0.844592 0.528125
vt 0.531250 0.953125
vt 0.593750 0.953125
vt 0.593750 0.890625
vt 0.531250 0.890625
vn 0.000000 0.000000 1.000000
usemtl bone_sword_v2_atlas
f 237/697/175 238/698/175 239/699/175 240/700/175
vt 0.531250 0.953125
vt 0.593750 0.953125
vt 0.593750 0.890625
vt 0.531250 0.890625
vn 0.000000 0.000000 -1.000000
f 234/701/176 233/702/176 236/703/176 235/704/176
vt 0.531250 0.953125
vt 0.593750 0.953125
vt 0.593750 0.890625
vt 0.531250 0.890625
vn -0.848048 -0.529919 0.000000
f 233/705/177 237/706/177 240/707/177 236/708/177
vt 0.531250 0.953125
vt 0.593750 0.953125
vt 0.593750 0.890625
vt 0.531250 0.890625
vn 0.848048 0.529919 0.000000
f 238/709/178 234/710/178 235/711/178 239/712/178
vt 0.531250 0.953125
vt 0.593750 0.953125
vt 0.593750 0.890625
vt 0.531250 0.890625
vn -0.529919 0.848048 0.000000
f 240/713/179 239/714/179 235/715/179 236/716/179
vt 0.531250 0.953125
vt 0.593750 0.953125
vt 0.593750 0.890625
vt 0.531250 0.890625
vn 0.529919 -0.848048 0.000000
f 233/717/180 234/718/180 238/719/180 237/720/180
# part: guard_knob_nodule_l
v 0.184375 0.843750 0.461250
v 0.240625 0.843750 0.461250
v 0.240625 0.906250 0.461250
v 0.184375 0.906250 0.461250
v 0.184375 0.843750 0.538750
v 0.240625 0.843750 0.538750
v 0.240625 0.906250 0.538750
v 0.184375 0.906250 0.538750
vt 0.562500 0.906250
vt 0.625000 0.906250
vt 0.625000 0.843750
vt 0.562500 0.843750
vn 0.000000 0.000000 1.000000
usemtl bone_sword_v2_atlas
f 245/721/181 246/722/181 247/723/181 248/724/181
vt 0.562500 0.906250
vt 0.625000 0.906250
vt 0.625000 0.843750
vt 0.562500 0.843750
vn 0.000000 0.000000 -1.000000
f 242/725/182 241/726/182 244/727/182 243/728/182
vt 0.562500 0.906250
vt 0.625000 0.906250
vt 0.625000 0.843750
vt 0.562500 0.843750
vn -1.000000 0.000000 0.000000
f 241/729/183 245/730/183 248/731/183 244/732/183
vt 0.562500 0.906250
vt 0.625000 0.906250
vt 0.625000 0.843750
vt 0.562500 0.843750
vn 1.000000 0.000000 0.000000
f 246/733/184 242/734/184 243/735/184 247/736/184
vt 0.562500 0.906250
vt 0.625000 0.906250
vt 0.625000 0.843750
vt 0.562500 0.843750
vn 0.000000 1.000000 0.000000
f 248/737/185 247/738/185 243/739/185 244/740/185
vt 0.562500 0.906250
vt 0.625000 0.906250
vt 0.625000 0.843750
vt 0.562500 0.843750
vn 0.000000 -1.000000 0.000000
f 241/741/186 242/742/186 246/743/186 245/744/186
# part: guard_horn_root_r
v 0.581250 0.675000 0.459375
v 0.650000 0.675000 0.459375
v 0.650000 0.740625 0.459375
v 0.581250 0.740625 0.459375
v 0.581250 0.675000 0.540625
v 0.650000 0.675000 0.540625
v 0.650000 0.740625 0.540625
v 0.581250 0.740625 0.540625
vt 0.593750 0.859375
vt 0.656250 0.859375
vt 0.656250 0.796875
vt 0.593750 0.796875
vn 0.000000 0.000000 1.000000
usemtl bone_sword_v2_atlas
f 253/745/187 254/746/187 255/747/187 256/748/187
vt 0.593750 0.859375
vt 0.656250 0.859375
vt 0.656250 0.796875
vt 0.593750 0.796875
vn 0.000000 0.000000 -1.000000
f 250/749/188 249/750/188 252/751/188 251/752/188
vt 0.593750 0.859375
vt 0.656250 0.859375
vt 0.656250 0.796875
vt 0.593750 0.796875
vn -1.000000 0.000000 0.000000
f 249/753/189 253/754/189 256/755/189 252/756/189
vt 0.593750 0.859375
vt 0.656250 0.859375
vt 0.656250 0.796875
vt 0.593750 0.796875
vn 1.000000 0.000000 0.000000
f 254/757/190 250/758/190 251/759/190 255/760/190
vt 0.593750 0.859375
vt 0.656250 0.859375
vt 0.656250 0.796875
vt 0.593750 0.796875
vn 0.000000 1.000000 0.000000
f 256/761/191 255/762/191 251/763/191 252/764/191
vt 0.593750 0.859375
vt 0.656250 0.859375
vt 0.656250 0.796875
vt 0.593750 0.796875
vn 0.000000 -1.000000 0.000000
f 249/765/192 250/766/192 254/767/192 253/768/192
# part: guard_horn_mid_r
v 0.636229 0.721903 0.465625
v 0.706706 0.696251 0.465625
v 0.738771 0.784347 0.465625
v 0.668294 0.809999 0.465625
v 0.636229 0.721903 0.534375
v 0.706706 0.696251 0.534375
v 0.738771 0.784347 0.534375
v 0.668294 0.809999 0.534375
vt 0.625000 0.812500
vt 0.687500 0.812500
vt 0.687500 0.750000
vt 0.625000 0.750000
vn 0.000000 0.000000 1.000000
usemtl bone_sword_v2_atlas
f 261/769/193 262/770/193 263/771/193 264/772/193
vt 0.625000 0.812500
vt 0.687500 0.812500
vt 0.687500 0.750000
vt 0.625000 0.750000
vn 0.000000 0.000000 -1.000000
f 258/773/194 257/774/194 260/775/194 259/776/194
vt 0.625000 0.812500
vt 0.687500 0.812500
vt 0.687500 0.750000
vt 0.625000 0.750000
vn -0.939693 0.342020 0.000000
f 257/777/195 261/778/195 264/779/195 260/780/195
vt 0.625000 0.812500
vt 0.687500 0.812500
vt 0.687500 0.750000
vt 0.625000 0.750000
vn 0.939693 -0.342020 0.000000
f 262/781/196 258/782/196 259/783/196 263/784/196
vt 0.625000 0.812500
vt 0.687500 0.812500
vt 0.687500 0.750000
vt 0.625000 0.750000
vn 0.342020 0.939693 0.000000
f 264/785/197 263/786/197 259/787/197 260/788/197
vt 0.625000 0.812500
vt 0.687500 0.812500
vt 0.687500 0.750000
vt 0.625000 0.750000
vn -0.342020 -0.939693 0.000000
f 257/789/198 258/790/198 262/791/198 261/792/198
# part: guard_horn_tip_r
v 0.697003 0.792908 0.471875
v 0.750006 0.759788 0.471875
v 0.802997 0.844592 0.471875
v 0.749994 0.877712 0.471875
v 0.697003 0.792908 0.528125
v 0.750006 0.759788 0.528125
v 0.802997 0.844592 0.528125
v 0.749994 0.877712 0.528125
vt 0.656250 0.765625
vt 0.718750 0.765625
vt 0.718750 0.703125
vt 0.656250 0.703125
vn 0.000000 0.000000 1.000000
usemtl bone_sword_v2_atlas
f 269/793/199 270/794/199 271/795/199 272/796/199
vt 0.656250 0.765625
vt 0.718750 0.765625
vt 0.718750 0.703125
vt 0.656250 0.703125
vn 0.000000 0.000000 -1.000000
f 266/797/200 265/798/200 268/799/200 267/800/200
vt 0.656250 0.765625
vt 0.718750 0.765625
vt 0.718750 0.703125
vt 0.656250 0.703125
vn -0.848048 0.529919 0.000000
f 265/801/201 269/802/201 272/803/201 268/804/201
vt 0.656250 0.765625
vt 0.718750 0.765625
vt 0.718750 0.703125
vt 0.656250 0.703125
vn 0.848048 -0.529919 0.000000
f 270/805/202 266/806/202 267/807/202 271/808/202
vt 0.656250 0.765625
vt 0.718750 0.765625
vt 0.718750 0.703125
vt 0.656250 0.703125
vn 0.529919 0.848048 0.000000
f 272/809/203 271/810/203 267/811/203 268/812/203
vt 0.656250 0.765625
vt 0.718750 0.765625
vt 0.718750 0.703125
vt 0.656250 0.703125
vn -0.529919 -0.848048 0.000000
f 265/813/204 266/814/204 270/815/204 269/816/204
# part: guard_knob_nodule_r
v 0.759375 0.843750 0.461250
v 0.815625 0.843750 0.461250
v 0.815625 0.906250 0.461250
v 0.759375 0.906250 0.461250
v 0.759375 0.843750 0.538750
v 0.815625 0.843750 0.538750
v 0.815625 0.906250 0.538750
v 0.759375 0.906250 0.538750
vt 0.687500 0.718750
vt 0.750000 0.718750
vt 0.750000 0.656250
vt 0.687500 0.656250
vn 0.000000 0.000000 1.000000
usemtl bone_sword_v2_atlas
f 277/817/205 278/818/205 279/819/205 280/820/205
vt 0.687500 0.718750
vt 0.750000 0.718750
vt 0.750000 0.656250
vt 0.687500 0.656250
vn 0.000000 0.000000 -1.000000
f 274/821/206 273/822/206 276/823/206 275/824/206
vt 0.687500 0.718750
vt 0.750000 0.718750
vt 0.750000 0.656250
vt 0.687500 0.656250
vn -1.000000 0.000000 0.000000
f 273/825/207 277/826/207 280/827/207 276/828/207
vt 0.687500 0.718750
vt 0.750000 0.718750
vt 0.750000 0.656250
vt 0.687500 0.656250
vn 1.000000 0.000000 0.000000
f 278/829/208 274/830/208 275/831/208 279/832/208
vt 0.687500 0.718750
vt 0.750000 0.718750
vt 0.750000 0.656250
vt 0.687500 0.656250
vn 0.000000 1.000000 0.000000
f 280/833/209 279/834/209 275/835/209 276/836/209
vt 0.687500 0.718750
vt 0.750000 0.718750
vt 0.750000 0.656250
vt 0.687500 0.656250
vn 0.000000 -1.000000 0.000000
f 273/837/210 274/838/210 278/839/210 277/840/210
# part: blade_marrow_mid_0
v 0.488750 0.831250 0.488750
v 0.511250 0.831250 0.488750
v 0.511250 0.868750 0.488750
v 0.488750 0.868750 0.488750
v 0.488750 0.831250 0.511250
v 0.511250 0.831250 0.511250
v 0.511250 0.868750 0.511250
v 0.488750 0.868750 0.511250
vt 0.218750 0.609375
vt 0.281250 0.609375
vt 0.281250 0.546875
vt 0.218750 0.546875
vn 0.000000 0.000000 1.000000
usemtl bone_sword_v2_atlas
f 285/841/211 286/842/211 287/843/211 288/844/211
vt 0.218750 0.609375
vt 0.281250 0.609375
vt 0.281250 0.546875
vt 0.218750 0.546875
vn 0.000000 0.000000 -1.000000
f 282/845/212 281/846/212 284/847/212 283/848/212
vt 0.218750 0.609375
vt 0.281250 0.609375
vt 0.281250 0.546875
vt 0.218750 0.546875
vn -1.000000 0.000000 0.000000
f 281/849/213 285/850/213 288/851/213 284/852/213
vt 0.218750 0.609375
vt 0.281250 0.609375
vt 0.281250 0.546875
vt 0.218750 0.546875
vn 1.000000 0.000000 0.000000
f 286/853/214 282/854/214 283/855/214 287/856/214
vt 0.218750 0.609375
vt 0.281250 0.609375
vt 0.281250 0.546875
vt 0.218750 0.546875
vn 0.000000 1.000000 0.000000
f 288/857/215 287/858/215 283/859/215 284/860/215
vt 0.218750 0.609375
vt 0.281250 0.609375
vt 0.281250 0.546875
vt 0.218750 0.546875
vn 0.000000 -1.000000 0.000000
f 281/861/216 282/862/216 286/863/216 285/864/216
# part: blade_marrow_top_0
v 0.493750 0.868750 0.490000
v 0.506250 0.868750 0.490000
v 0.506250 0.887500 0.490000
v 0.493750 0.887500 0.490000
v 0.493750 0.868750 0.510000
v 0.506250 0.868750 0.510000
v 0.506250 0.887500 0.510000
v 0.493750 0.887500 0.510000
vt 0.250000 0.625000
vt 0.312500 0.625000
vt 0.312500 0.562500
vt 0.250000 0.562500
vn 0.000000 0.000000 1.000000
usemtl bone_sword_v2_atlas
f 293/865/217 294/866/217 295/867/217 296/868/217
vt 0.250000 0.625000
vt 0.312500 0.625000
vt 0.312500 0.562500
vt 0.250000 0.562500
vn 0.000000 0.000000 -1.000000
f 290/869/218 289/870/218 292/871/218 291/872/218
vt 0.250000 0.625000
vt 0.312500 0.625000
vt 0.312500 0.562500
vt 0.250000 0.562500
vn -1.000000 0.000000 0.000000
f 289/873/219 293/874/219 296/875/219 292/876/219
vt 0.250000 0.625000
vt 0.312500 0.625000
vt 0.312500 0.562500
vt 0.250000 0.562500
vn 1.000000 0.000000 0.000000
f 294/877/220 290/878/220 291/879/220 295/880/220
vt 0.250000 0.625000
vt 0.312500 0.625000
vt 0.312500 0.562500
vt 0.250000 0.562500
vn 0.000000 1.000000 0.000000
f 296/881/221 295/882/221 291/883/221 292/884/221
vt 0.250000 0.625000
vt 0.312500 0.625000
vt 0.312500 0.562500
vt 0.250000 0.562500
vn 0.000000 -1.000000 0.000000
f 289/885/222 290/886/222 294/887/222 293/888/222
# part: blade_marrow_bot_0
v 0.493750 0.812500 0.490000
v 0.506250 0.812500 0.490000
v 0.506250 0.831250 0.490000
v 0.493750 0.831250 0.490000
v 0.493750 0.812500 0.510000
v 0.506250 0.812500 0.510000
v 0.506250 0.831250 0.510000
v 0.493750 0.831250 0.510000
vt 0.281250 0.578125
vt 0.343750 0.578125
vt 0.343750 0.515625
vt 0.281250 0.515625
vn 0.000000 0.000000 1.000000
usemtl bone_sword_v2_atlas
f 301/889/223 302/890/223 303/891/223 304/892/223
vt 0.281250 0.578125
vt 0.343750 0.578125
vt 0.343750 0.515625
vt 0.281250 0.515625
vn 0.000000 0.000000 -1.000000
f 298/893/224 297/894/224 300/895/224 299/896/224
vt 0.281250 0.578125
vt 0.343750 0.578125
vt 0.343750 0.515625
vt 0.281250 0.515625
vn -1.000000 0.000000 0.000000
f 297/897/225 301/898/225 304/899/225 300/900/225
vt 0.281250 0.578125
vt 0.343750 0.578125
vt 0.343750 0.515625
vt 0.281250 0.515625
vn 1.000000 0.000000 0.000000
f 302/901/226 298/902/226 299/903/226 303/904/226
vt 0.281250 0.578125
vt 0.343750 0.578125
vt 0.343750 0.515625
vt 0.281250 0.515625
vn 0.000000 1.000000 0.000000
f 304/905/227 303/906/227 299/907/227 300/908/227
vt 0.281250 0.578125
vt 0.343750 0.578125
vt 0.343750 0.515625
vt 0.281250 0.515625
vn 0.000000 -1.000000 0.000000
f 297/909/228 298/910/228 302/911/228 301/912/228
# part: blade_marrow_mid_1
v 0.488750 0.968750 0.488750
v 0.511250 0.968750 0.488750
v 0.511250 1.006250 0.488750
v 0.488750 1.006250 0.488750
v 0.488750 0.968750 0.511250
v 0.511250 0.968750 0.511250
v 0.511250 1.006250 0.511250
v 0.488750 1.006250 0.511250
vt 0.312500 0.593750
vt 0.375000 0.593750
vt 0.375000 0.531250
vt 0.312500 0.531250
vn 0.000000 0.000000 1.000000
usemtl bone_sword_v2_atlas
f 309/913/229 310/914/229 311/915/229 312/916/229
vt 0.312500 0.593750
vt 0.375000 0.593750
vt 0.375000 0.531250
vt 0.312500 0.531250
vn 0.000000 0.000000 -1.000000
f 306/917/230 305/918/230 308/919/230 307/920/230
vt 0.312500 0.593750
vt 0.375000 0.593750
vt 0.375000 0.531250
vt 0.312500 0.531250
vn -1.000000 0.000000 0.000000
f 305/921/231 309/922/231 312/923/231 308/924/231
vt 0.312500 0.593750
vt 0.375000 0.593750
vt 0.375000 0.531250
vt 0.312500 0.531250
vn 1.000000 0.000000 0.000000
f 310/925/232 306/926/232 307/927/232 311/928/232
vt 0.312500 0.593750
vt 0.375000 0.593750
vt 0.375000 0.531250
vt 0.312500 0.531250
vn 0.000000 1.000000 0.000000
f 312/929/233 311/930/233 307/931/233 308/932/233
vt 0.312500 0.593750
vt 0.375000 0.593750
vt 0.375000 0.531250
vt 0.312500 0.531250
vn 0.000000 -1.000000 0.000000
f 305/933/234 306/934/234 310/935/234 309/936/234
# part: blade_marrow_top_1
v 0.493750 1.006250 0.490000
v 0.506250 1.006250 0.490000
v 0.506250 1.025000 0.490000
v 0.493750 1.025000 0.490000
v 0.493750 1.006250 0.510000
v 0.506250 1.006250 0.510000
v 0.506250 1.025000 0.510000
v 0.493750 1.025000 0.510000
vt 0.343750 0.609375
vt 0.406250 0.609375
vt 0.406250 0.546875
vt 0.343750 0.546875
vn 0.000000 0.000000 1.000000
usemtl bone_sword_v2_atlas
f 317/937/235 318/938/235 319/939/235 320/940/235
vt 0.343750 0.609375
vt 0.406250 0.609375
vt 0.406250 0.546875
vt 0.343750 0.546875
vn 0.000000 0.000000 -1.000000
f 314/941/236 313/942/236 316/943/236 315/944/236
vt 0.343750 0.609375
vt 0.406250 0.609375
vt 0.406250 0.546875
vt 0.343750 0.546875
vn -1.000000 0.000000 0.000000
f 313/945/237 317/946/237 320/947/237 316/948/237
vt 0.343750 0.609375
vt 0.406250 0.609375
vt 0.406250 0.546875
vt 0.343750 0.546875
vn 1.000000 0.000000 0.000000
f 318/949/238 314/950/238 315/951/238 319/952/238
vt 0.343750 0.609375
vt 0.406250 0.609375
vt 0.406250 0.546875
vt 0.343750 0.546875
vn 0.000000 1.000000 0.000000
f 320/953/239 319/954/239 315/955/239 316/956/239
vt 0.343750 0.609375
vt 0.406250 0.609375
vt 0.406250 0.546875
vt 0.343750 0.546875
vn 0.000000 -1.000000 0.000000
f 313/957/240 314/958/240 318/959/240 317/960/240
# part: blade_marrow_bot_1
v 0.493750 0.950000 0.490000
v 0.506250 0.950000 0.490000
v 0.506250 0.968750 0.490000
v 0.493750 0.968750 0.490000
v 0.493750 0.950000 0.510000
v 0.506250 0.950000 0.510000
v 0.506250 0.968750 0.510000
v 0.493750 0.968750 0.510000
vt 0.375000 0.625000
vt 0.437500 0.625000
vt 0.437500 0.562500
vt 0.375000 0.562500
vn 0.000000 0.000000 1.000000
usemtl bone_sword_v2_atlas
f 325/961/241 326/962/241 327/963/241 328/964/241
vt 0.375000 0.625000
vt 0.437500 0.625000
vt 0.437500 0.562500
vt 0.375000 0.562500
vn 0.000000 0.000000 -1.000000
f 322/965/242 321/966/242 324/967/242 323/968/242
vt 0.375000 0.625000
vt 0.437500 0.625000
vt 0.437500 0.562500
vt 0.375000 0.562500
vn -1.000000 0.000000 0.000000
f 321/969/243 325/970/243 328/971/243 324/972/243
vt 0.375000 0.625000
vt 0.437500 0.625000
vt 0.437500 0.562500
vt 0.375000 0.562500
vn 1.000000 0.000000 0.000000
f 326/973/244 322/974/244 323/975/244 327/976/244
vt 0.375000 0.625000
vt 0.437500 0.625000
vt 0.437500 0.562500
vt 0.375000 0.562500
vn 0.000000 1.000000 0.000000
f 328/977/245 327/978/245 323/979/245 324/980/245
vt 0.375000 0.625000
vt 0.437500 0.625000
vt 0.437500 0.562500
vt 0.375000 0.562500
vn 0.000000 -1.000000 0.000000
f 321/981/246 322/982/246 326/983/246 325/984/246
# part: blade_marrow_mid_2
v 0.488750 1.106250 0.488750
v 0.511250 1.106250 0.488750
v 0.511250 1.143750 0.488750
v 0.488750 1.143750 0.488750
v 0.488750 1.106250 0.511250
v 0.511250 1.106250 0.511250
v 0.511250 1.143750 0.511250
v 0.488750 1.143750 0.511250
vt 0.406250 0.578125
vt 0.468750 0.578125
vt 0.468750 0.515625
vt 0.406250 0.515625
vn 0.000000 0.000000 1.000000
usemtl bone_sword_v2_atlas
f 333/985/247 334/986/247 335/987/247 336/988/247
vt 0.406250 0.578125
vt 0.468750 0.578125
vt 0.468750 0.515625
vt 0.406250 0.515625
vn 0.000000 0.000000 -1.000000
f 330/989/248 329/990/248 332/991/248 331/992/248
vt 0.406250 0.578125
vt 0.468750 0.578125
vt 0.468750 0.515625
vt 0.406250 0.515625
vn -1.000000 0.000000 0.000000
f 329/993/249 333/994/249 336/995/249 332/996/249
vt 0.406250 0.578125
vt 0.468750 0.578125
vt 0.468750 0.515625
vt 0.406250 0.515625
vn 1.000000 0.000000 0.000000
f 334/997/250 330/998/250 331/999/250 335/1000/250
vt 0.406250 0.578125
vt 0.468750 0.578125
vt 0.468750 0.515625
vt 0.406250 0.515625
vn 0.000000 1.000000 0.000000
f 336/1001/251 335/1002/251 331/1003/251 332/1004/251
vt 0.406250 0.578125
vt 0.468750 0.578125
vt 0.468750 0.515625
vt 0.406250 0.515625
vn 0.000000 -1.000000 0.000000
f 329/1005/252 330/1006/252 334/1007/252 333/1008/252
# part: blade_marrow_top_2
v 0.493750 1.143750 0.490000
v 0.506250 1.143750 0.490000
v 0.506250 1.162500 0.490000
v 0.493750 1.162500 0.490000
v 0.493750 1.143750 0.510000
v 0.506250 1.143750 0.510000
v 0.506250 1.162500 0.510000
v 0.493750 1.162500 0.510000
vt 0.000000 0.593750
vt 0.062500 0.593750
vt 0.062500 0.531250
vt 0.000000 0.531250
vn 0.000000 0.000000 1.000000
usemtl bone_sword_v2_atlas
f 341/1009/253 342/1010/253 343/1011/253 344/1012/253
vt 0.000000 0.593750
vt 0.062500 0.593750
vt 0.062500 0.531250
vt 0.000000 0.531250
vn 0.000000 0.000000 -1.000000
f 338/1013/254 337/1014/254 340/1015/254 339/1016/254
vt 0.000000 0.593750
vt 0.062500 0.593750
vt 0.062500 0.531250
vt 0.000000 0.531250
vn -1.000000 0.000000 0.000000
f 337/1017/255 341/1018/255 344/1019/255 340/1020/255
vt 0.000000 0.593750
vt 0.062500 0.593750
vt 0.062500 0.531250
vt 0.000000 0.531250
vn 1.000000 0.000000 0.000000
f 342/1021/256 338/1022/256 339/1023/256 343/1024/256
vt 0.000000 0.593750
vt 0.062500 0.593750
vt 0.062500 0.531250
vt 0.000000 0.531250
vn 0.000000 1.000000 0.000000
f 344/1025/257 343/1026/257 339/1027/257 340/1028/257
vt 0.000000 0.593750
vt 0.062500 0.593750
vt 0.062500 0.531250
vt 0.000000 0.531250
vn 0.000000 -1.000000 0.000000
f 337/1029/258 338/1030/258 342/1031/258 341/1032/258
# part: blade_marrow_bot_2
v 0.493750 1.087500 0.490000
v 0.506250 1.087500 0.490000
v 0.506250 1.106250 0.490000
v 0.493750 1.106250 0.490000
v 0.493750 1.087500 0.510000
v 0.506250 1.087500 0.510000
v 0.506250 1.106250 0.510000
v 0.493750 1.106250 0.510000
vt 0.031250 0.609375
vt 0.093750 0.609375
vt 0.093750 0.546875
vt 0.031250 0.546875
vn 0.000000 0.000000 1.000000
usemtl bone_sword_v2_atlas
f 349/1033/259 350/1034/259 351/1035/259 352/1036/259
vt 0.031250 0.609375
vt 0.093750 0.609375
vt 0.093750 0.546875
vt 0.031250 0.546875
vn 0.000000 0.000000 -1.000000
f 346/1037/260 345/1038/260 348/1039/260 347/1040/260
vt 0.031250 0.609375
vt 0.093750 0.609375
vt 0.093750 0.546875
vt 0.031250 0.546875
vn -1.000000 0.000000 0.000000
f 345/1041/261 349/1042/261 352/1043/261 348/1044/261
vt 0.031250 0.609375
vt 0.093750 0.609375
vt 0.093750 0.546875
vt 0.031250 0.546875
vn 1.000000 0.000000 0.000000
f 350/1045/262 346/1046/262 347/1047/262 351/1048/262
vt 0.031250 0.609375
vt 0.093750 0.609375
vt 0.093750 0.546875
vt 0.031250 0.546875
vn 0.000000 1.000000 0.000000
f 352/1049/263 351/1050/263 347/1051/263 348/1052/263
vt 0.031250 0.609375
vt 0.093750 0.609375
vt 0.093750 0.546875
vt 0.031250 0.546875
vn 0.000000 -1.000000 0.000000
f 345/1053/264 346/1054/264 350/1055/264 349/1056/264
# part: blade_marrow_mid_3
v 0.488750 1.243750 0.488750
v 0.511250 1.243750 0.488750
v 0.511250 1.281250 0.488750
v 0.488750 1.281250 0.488750
v 0.488750 1.243750 0.511250
v 0.511250 1.243750 0.511250
v 0.511250 1.281250 0.511250
v 0.488750 1.281250 0.511250
vt 0.062500 0.625000
vt 0.125000 0.625000
vt 0.125000 0.562500
vt 0.062500 0.562500
vn 0.000000 0.000000 1.000000
usemtl bone_sword_v2_atlas
f 357/1057/265 358/1058/265 359/1059/265 360/1060/265
vt 0.062500 0.625000
vt 0.125000 0.625000
vt 0.125000 0.562500
vt 0.062500 0.562500
vn 0.000000 0.000000 -1.000000
f 354/1061/266 353/1062/266 356/1063/266 355/1064/266
vt 0.062500 0.625000
vt 0.125000 0.625000
vt 0.125000 0.562500
vt 0.062500 0.562500
vn -1.000000 0.000000 0.000000
f 353/1065/267 357/1066/267 360/1067/267 356/1068/267
vt 0.062500 0.625000
vt 0.125000 0.625000
vt 0.125000 0.562500
vt 0.062500 0.562500
vn 1.000000 0.000000 0.000000
f 358/1069/268 354/1070/268 355/1071/268 359/1072/268
vt 0.062500 0.625000
vt 0.125000 0.625000
vt 0.125000 0.562500
vt 0.062500 0.562500
vn 0.000000 1.000000 0.000000
f 360/1073/269 359/1074/269 355/1075/269 356/1076/269
vt 0.062500 0.625000
vt 0.125000 0.625000
vt 0.125000 0.562500
vt 0.062500 0.562500
vn 0.000000 -1.000000 0.000000
f 353/1077/270 354/1078/270 358/1079/270 357/1080/270
# part: blade_marrow_top_3
v 0.493750 1.281250 0.490000
v 0.506250 1.281250 0.490000
v 0.506250 1.300000 0.490000
v 0.493750 1.300000 0.490000
v 0.493750 1.281250 0.510000
v 0.506250 1.281250 0.510000
v 0.506250 1.300000 0.510000
v 0.493750 1.300000 0.510000
vt 0.093750 0.578125
vt 0.156250 0.578125
vt 0.156250 0.515625
vt 0.093750 0.515625
vn 0.000000 0.000000 1.000000
usemtl bone_sword_v2_atlas
f 365/1081/271 366/1082/271 367/1083/271 368/1084/271
vt 0.093750 0.578125
vt 0.156250 0.578125
vt 0.156250 0.515625
vt 0.093750 0.515625
vn 0.000000 0.000000 -1.000000
f 362/1085/272 361/1086/272 364/1087/272 363/1088/272
vt 0.093750 0.578125
vt 0.156250 0.578125
vt 0.156250 0.515625
vt 0.093750 0.515625
vn -1.000000 0.000000 0.000000
f 361/1089/273 365/1090/273 368/1091/273 364/1092/273
vt 0.093750 0.578125
vt 0.156250 0.578125
vt 0.156250 0.515625
vt 0.093750 0.515625
vn 1.000000 0.000000 0.000000
f 366/1093/274 362/1094/274 363/1095/274 367/1096/274
vt 0.093750 0.578125
vt 0.156250 0.578125
vt 0.156250 0.515625
vt 0.093750 0.515625
vn 0.000000 1.000000 0.000000
f 368/1097/275 367/1098/275 363/1099/275 364/1100/275
vt 0.093750 0.578125
vt 0.156250 0.578125
vt 0.156250 0.515625
vt 0.093750 0.515625
vn 0.000000 -1.000000 0.000000
f 361/1101/276 362/1102/276 366/1103/276 365/1104/276
# part: blade_marrow_bot_3
v 0.493750 1.225000 0.490000
v 0.506250 1.225000 0.490000
v 0.506250 1.243750 0.490000
v 0.493750 1.243750 0.490000
v 0.493750 1.225000 0.510000
v 0.506250 1.225000 0.510000
v 0.506250 1.243750 0.510000
v 0.493750 1.243750 0.510000
vt 0.125000 0.593750
vt 0.187500 0.593750
vt 0.187500 0.531250
vt 0.125000 0.531250
vn 0.000000 0.000000 1.000000
usemtl bone_sword_v2_atlas
f 373/1105/277 374/1106/277 375/1107/277 376/1108/277
vt 0.125000 0.593750
vt 0.187500 0.593750
vt 0.187500 0.531250
vt 0.125000 0.531250
vn 0.000000 0.000000 -1.000000
f 370/1109/278 369/1110/278 372/1111/278 371/1112/278
vt 0.125000 0.593750
vt 0.187500 0.593750
vt 0.187500 0.531250
vt 0.125000 0.531250
vn -1.000000 0.000000 0.000000
f 369/1113/279 373/1114/279 376/1115/279 372/1116/279
vt 0.125000 0.593750
vt 0.187500 0.593750
vt 0.187500 0.531250
vt 0.125000 0.531250
vn 1.000000 0.000000 0.000000
f 374/1117/280 370/1118/280 371/1119/280 375/1120/280
vt 0.125000 0.593750
vt 0.187500 0.593750
vt 0.187500 0.531250
vt 0.125000 0.531250
vn 0.000000 1.000000 0.000000
f 376/1121/281 375/1122/281 371/1123/281 372/1124/281
vt 0.125000 0.593750
vt 0.187500 0.593750
vt 0.187500 0.531250
vt 0.125000 0.531250
vn 0.000000 -1.000000 0.000000
f 369/1125/282 370/1126/282 374/1127/282 373/1128/282
# part: blade_marrow_mid_4
v 0.488750 1.381250 0.488750
v 0.511250 1.381250 0.488750
v 0.511250 1.418750 0.488750
v 0.488750 1.418750 0.488750
v 0.488750 1.381250 0.511250
v 0.511250 1.381250 0.511250
v 0.511250 1.418750 0.511250
v 0.488750 1.418750 0.511250
vt 0.156250 0.609375
vt 0.218750 0.609375
vt 0.218750 0.546875
vt 0.156250 0.546875
vn 0.000000 0.000000 1.000000
usemtl bone_sword_v2_atlas
f 381/1129/283 382/1130/283 383/1131/283 384/1132/283
vt 0.156250 0.609375
vt 0.218750 0.609375
vt 0.218750 0.546875
vt 0.156250 0.546875
vn 0.000000 0.000000 -1.000000
f 378/1133/284 377/1134/284 380/1135/284 379/1136/284
vt 0.156250 0.609375
vt 0.218750 0.609375
vt 0.218750 0.546875
vt 0.156250 0.546875
vn -1.000000 0.000000 0.000000
f 377/1137/285 381/1138/285 384/1139/285 380/1140/285
vt 0.156250 0.609375
vt 0.218750 0.609375
vt 0.218750 0.546875
vt 0.156250 0.546875
vn 1.000000 0.000000 0.000000
f 382/1141/286 378/1142/286 379/1143/286 383/1144/286
vt 0.156250 0.609375
vt 0.218750 0.609375
vt 0.218750 0.546875
vt 0.156250 0.546875
vn 0.000000 1.000000 0.000000
f 384/1145/287 383/1146/287 379/1147/287 380/1148/287
vt 0.156250 0.609375
vt 0.218750 0.609375
vt 0.218750 0.546875
vt 0.156250 0.546875
vn 0.000000 -1.000000 0.000000
f 377/1149/288 378/1150/288 382/1151/288 381/1152/288
# part: blade_marrow_top_4
v 0.493750 1.418750 0.490000
v 0.506250 1.418750 0.490000
v 0.506250 1.437500 0.490000
v 0.493750 1.437500 0.490000
v 0.493750 1.418750 0.510000
v 0.506250 1.418750 0.510000
v 0.506250 1.437500 0.510000
v 0.493750 1.437500 0.510000
vt 0.187500 0.625000
vt 0.250000 0.625000
vt 0.250000 0.562500
vt 0.187500 0.562500
vn 0.000000 0.000000 1.000000
usemtl bone_sword_v2_atlas
f 389/1153/289 390/1154/289 391/1155/289 392/1156/289
vt 0.187500 0.625000
vt 0.250000 0.625000
vt 0.250000 0.562500
vt 0.187500 0.562500
vn 0.000000 0.000000 -1.000000
f 386/1157/290 385/1158/290 388/1159/290 387/1160/290
vt 0.187500 0.625000
vt 0.250000 0.625000
vt 0.250000 0.562500
vt 0.187500 0.562500
vn -1.000000 0.000000 0.000000
f 385/1161/291 389/1162/291 392/1163/291 388/1164/291
vt 0.187500 0.625000
vt 0.250000 0.625000
vt 0.250000 0.562500
vt 0.187500 0.562500
vn 1.000000 0.000000 0.000000
f 390/1165/292 386/1166/292 387/1167/292 391/1168/292
vt 0.187500 0.625000
vt 0.250000 0.625000
vt 0.250000 0.562500
vt 0.187500 0.562500
vn 0.000000 1.000000 0.000000
f 392/1169/293 391/1170/293 387/1171/293 388/1172/293
vt 0.187500 0.625000
vt 0.250000 0.625000
vt 0.250000 0.562500
vt 0.187500 0.562500
vn 0.000000 -1.000000 0.000000
f 385/1173/294 386/1174/294 390/1175/294 389/1176/294
# part: blade_marrow_bot_4
v 0.493750 1.362500 0.490000
v 0.506250 1.362500 0.490000
v 0.506250 1.381250 0.490000
v 0.493750 1.381250 0.490000
v 0.493750 1.362500 0.510000
v 0.506250 1.362500 0.510000
v 0.506250 1.381250 0.510000
v 0.493750 1.381250 0.510000
vt 0.218750 0.578125
vt 0.281250 0.578125
vt 0.281250 0.515625
vt 0.218750 0.515625
vn 0.000000 0.000000 1.000000
usemtl bone_sword_v2_atlas
f 397/1177/295 398/1178/295 399/1179/295 400/1180/295
vt 0.218750 0.578125
vt 0.281250 0.578125
vt 0.281250 0.515625
vt 0.218750 0.515625
vn 0.000000 0.000000 -1.000000
f 394/1181/296 393/1182/296 396/1183/296 395/1184/296
vt 0.218750 0.578125
vt 0.281250 0.578125
vt 0.281250 0.515625
vt 0.218750 0.515625
vn -1.000000 0.000000 0.000000
f 393/1185/297 397/1186/297 400/1187/297 396/1188/297
vt 0.218750 0.578125
vt 0.281250 0.578125
vt 0.281250 0.515625
vt 0.218750 0.515625
vn 1.000000 0.000000 0.000000
f 398/1189/298 394/1190/298 395/1191/298 399/1192/298
vt 0.218750 0.578125
vt 0.281250 0.578125
vt 0.281250 0.515625
vt 0.218750 0.515625
vn 0.000000 1.000000 0.000000
f 400/1193/299 399/1194/299 395/1195/299 396/1196/299
vt 0.218750 0.578125
vt 0.281250 0.578125
vt 0.281250 0.515625
vt 0.218750 0.515625
vn 0.000000 -1.000000 0.000000
f 393/1197/300 394/1198/300 398/1199/300 397/1200/300
# part: blade_marrow_mid_5
v 0.488750 1.518750 0.488750
v 0.511250 1.518750 0.488750
v 0.511250 1.556250 0.488750
v 0.488750 1.556250 0.488750
v 0.488750 1.518750 0.511250
v 0.511250 1.518750 0.511250
v 0.511250 1.556250 0.511250
v 0.488750 1.556250 0.511250
vt 0.250000 0.593750
vt 0.312500 0.593750
vt 0.312500 0.531250
vt 0.250000 0.531250
vn 0.000000 0.000000 1.000000
usemtl bone_sword_v2_atlas
f 405/1201/301 406/1202/301 407/1203/301 408/1204/301
vt 0.250000 0.593750
vt 0.312500 0.593750
vt 0.312500 0.531250
vt 0.250000 0.531250
vn 0.000000 0.000000 -1.000000
f 402/1205/302 401/1206/302 404/1207/302 403/1208/302
vt 0.250000 0.593750
vt 0.312500 0.593750
vt 0.312500 0.531250
vt 0.250000 0.531250
vn -1.000000 0.000000 0.000000
f 401/1209/303 405/1210/303 408/1211/303 404/1212/303
vt 0.250000 0.593750
vt 0.312500 0.593750
vt 0.312500 0.531250
vt 0.250000 0.531250
vn 1.000000 0.000000 0.000000
f 406/1213/304 402/1214/304 403/1215/304 407/1216/304
vt 0.250000 0.593750
vt 0.312500 0.593750
vt 0.312500 0.531250
vt 0.250000 0.531250
vn 0.000000 1.000000 0.000000
f 408/1217/305 407/1218/305 403/1219/305 404/1220/305
vt 0.250000 0.593750
vt 0.312500 0.593750
vt 0.312500 0.531250
vt 0.250000 0.531250
vn 0.000000 -1.000000 0.000000
f 401/1221/306 402/1222/306 406/1223/306 405/1224/306
# part: blade_marrow_top_5
v 0.493750 1.556250 0.490000
v 0.506250 1.556250 0.490000
v 0.506250 1.575000 0.490000
v 0.493750 1.575000 0.490000
v 0.493750 1.556250 0.510000
v 0.506250 1.556250 0.510000
v 0.506250 1.575000 0.510000
v 0.493750 1.575000 0.510000
vt 0.281250 0.609375
vt 0.343750 0.609375
vt 0.343750 0.546875
vt 0.281250 0.546875
vn 0.000000 0.000000 1.000000
usemtl bone_sword_v2_atlas
f 413/1225/307 414/1226/307 415/1227/307 416/1228/307
vt 0.281250 0.609375
vt 0.343750 0.609375
vt 0.343750 0.546875
vt 0.281250 0.546875
vn 0.000000 0.000000 -1.000000
f 410/1229/308 409/1230/308 412/1231/308 411/1232/308
vt 0.281250 0.609375
vt 0.343750 0.609375
vt 0.343750 0.546875
vt 0.281250 0.546875
vn -1.000000 0.000000 0.000000
f 409/1233/309 413/1234/309 416/1235/309 412/1236/309
vt 0.281250 0.609375
vt 0.343750 0.609375
vt 0.343750 0.546875
vt 0.281250 0.546875
vn 1.000000 0.000000 0.000000
f 414/1237/310 410/1238/310 411/1239/310 415/1240/310
vt 0.281250 0.609375
vt 0.343750 0.609375
vt 0.343750 0.546875
vt 0.281250 0.546875
vn 0.000000 1.000000 0.000000
f 416/1241/311 415/1242/311 411/1243/311 412/1244/311
vt 0.281250 0.609375
vt 0.343750 0.609375
vt 0.343750 0.546875
vt 0.281250 0.546875
vn 0.000000 -1.000000 0.000000
f 409/1245/312 410/1246/312 414/1247/312 413/1248/312
# part: blade_marrow_bot_5
v 0.493750 1.500000 0.490000
v 0.506250 1.500000 0.490000
v 0.506250 1.518750 0.490000
v 0.493750 1.518750 0.490000
v 0.493750 1.500000 0.510000
v 0.506250 1.500000 0.510000
v 0.506250 1.518750 0.510000
v 0.493750 1.518750 0.510000
vt 0.312500 0.625000
vt 0.375000 0.625000
vt 0.375000 0.562500
vt 0.312500 0.562500
vn 0.000000 0.000000 1.000000
usemtl bone_sword_v2_atlas
f 421/1249/313 422/1250/313 423/1251/313 424/1252/313
vt 0.312500 0.625000
vt 0.375000 0.625000
vt 0.375000 0.562500
vt 0.312500 0.562500
vn 0.000000 0.000000 -1.000000
f 418/1253/314 417/1254/314 420/1255/314 419/1256/314
vt 0.312500 0.625000
vt 0.375000 0.625000
vt 0.375000 0.562500
vt 0.312500 0.562500
vn -1.000000 0.000000 0.000000
f 417/1257/315 421/1258/315 424/1259/315 420/1260/315
vt 0.312500 0.625000
vt 0.375000 0.625000
vt 0.375000 0.562500
vt 0.312500 0.562500
vn 1.000000 0.000000 0.000000
f 422/1261/316 418/1262/316 419/1263/316 423/1264/316
vt 0.312500 0.625000
vt 0.375000 0.625000
vt 0.375000 0.562500
vt 0.312500 0.562500
vn 0.000000 1.000000 0.000000
f 424/1265/317 423/1266/317 419/1267/317 420/1268/317
vt 0.312500 0.625000
vt 0.375000 0.625000
vt 0.375000 0.562500
vt 0.312500 0.562500
vn 0.000000 -1.000000 0.000000
f 417/1269/318 418/1270/318 422/1271/318 421/1272/318
# part: blade_channel_wall_l
v 0.471250 0.750000 0.476250
v 0.486250 0.750000 0.476250
v 0.486250 1.581250 0.476250
v 0.471250 1.581250 0.476250
v 0.471250 0.750000 0.523750
v 0.486250 0.750000 0.523750
v 0.486250 1.581250 0.523750
v 0.471250 1.581250 0.523750
vt 0.343750 0.703125
vt 0.406250 0.703125
vt 0.406250 0.640625
vt 0.343750 0.640625
vn 0.000000 0.000000 1.000000
usemtl bone_sword_v2_atlas
f 429/1273/319 430/1274/319 431/1275/319 432/1276/319
vt 0.343750 0.703125
vt 0.406250 0.703125
vt 0.406250 0.640625
vt 0.343750 0.640625
vn 0.000000 0.000000 -1.000000
f 426/1277/320 425/1278/320 428/1279/320 427/1280/320
vt 0.343750 0.703125
vt 0.406250 0.703125
vt 0.406250 0.640625
vt 0.343750 0.640625
vn -1.000000 0.000000 0.000000
f 425/1281/321 429/1282/321 432/1283/321 428/1284/321
vt 0.343750 0.703125
vt 0.406250 0.703125
vt 0.406250 0.640625
vt 0.343750 0.640625
vn 1.000000 0.000000 0.000000
f 430/1285/322 426/1286/322 427/1287/322 431/1288/322
vt 0.343750 0.703125
vt 0.406250 0.703125
vt 0.406250 0.640625
vt 0.343750 0.640625
vn 0.000000 1.000000 0.000000
f 432/1289/323 431/1290/323 427/1291/323 428/1292/323
vt 0.343750 0.703125
vt 0.406250 0.703125
vt 0.406250 0.640625
vt 0.343750 0.640625
vn 0.000000 -1.000000 0.000000
f 425/1293/324 426/1294/324 430/1295/324 429/1296/324
# part: blade_channel_wall_r
v 0.513750 0.750000 0.476250
v 0.528750 0.750000 0.476250
v 0.528750 1.581250 0.476250
v 0.513750 1.581250 0.476250
v 0.513750 0.750000 0.523750
v 0.528750 0.750000 0.523750
v 0.528750 1.581250 0.523750
v 0.513750 1.581250 0.523750
vt 0.375000 0.968750
vt 0.437500 0.968750
vt 0.437500 0.906250
vt 0.375000 0.906250
vn 0.000000 0.000000 1.000000
usemtl bone_sword_v2_atlas
f 437/1297/325 438/1298/325 439/1299/325 440/1300/325
vt 0.375000 0.968750
vt 0.437500 0.968750
vt 0.437500 0.906250
vt 0.375000 0.906250
vn 0.000000 0.000000 -1.000000
f 434/1301/326 433/1302/326 436/1303/326 435/1304/326
vt 0.375000 0.968750
vt 0.437500 0.968750
vt 0.437500 0.906250
vt 0.375000 0.906250
vn -1.000000 0.000000 0.000000
f 433/1305/327 437/1306/327 440/1307/327 436/1308/327
vt 0.375000 0.968750
vt 0.437500 0.968750
vt 0.437500 0.906250
vt 0.375000 0.906250
vn 1.000000 0.000000 0.000000
f 438/1309/328 434/1310/328 435/1311/328 439/1312/328
vt 0.375000 0.968750
vt 0.437500 0.968750
vt 0.437500 0.906250
vt 0.375000 0.906250
vn 0.000000 1.000000 0.000000
f 440/1313/329 439/1314/329 435/1315/329 436/1316/329
vt 0.375000 0.968750
vt 0.437500 0.968750
vt 0.437500 0.906250
vt 0.375000 0.906250
vn 0.000000 -1.000000 0.000000
f 433/1317/330 434/1318/330 438/1319/330 437/1320/330
# part: blade_marrow_bridge_0
v 0.486250 0.750000 0.477500
v 0.513750 0.750000 0.477500
v 0.513750 0.812500 0.477500
v 0.486250 0.812500 0.477500
v 0.486250 0.750000 0.522500
v 0.513750 0.750000 0.522500
v 0.513750 0.812500 0.522500
v 0.486250 0.812500 0.522500
vt 0.406250 0.921875
vt 0.468750 0.921875
vt 0.468750 0.859375
vt 0.406250 0.859375
vn 0.000000 0.000000 1.000000
usemtl bone_sword_v2_atlas
f 445/1321/331 446/1322/331 447/1323/331 448/1324/331
vt 0.406250 0.921875
vt 0.468750 0.921875
vt 0.468750 0.859375
vt 0.406250 0.859375
vn 0.000000 0.000000 -1.000000
f 442/1325/332 441/1326/332 444/1327/332 443/1328/332
vt 0.406250 0.921875
vt 0.468750 0.921875
vt 0.468750 0.859375
vt 0.406250 0.859375
vn -1.000000 0.000000 0.000000
f 441/1329/333 445/1330/333 448/1331/333 444/1332/333
vt 0.406250 0.921875
vt 0.468750 0.921875
vt 0.468750 0.859375
vt 0.406250 0.859375
vn 1.000000 0.000000 0.000000
f 446/1333/334 442/1334/334 443/1335/334 447/1336/334
vt 0.406250 0.921875
vt 0.468750 0.921875
vt 0.468750 0.859375
vt 0.406250 0.859375
vn 0.000000 1.000000 0.000000
f 448/1337/335 447/1338/335 443/1339/335 444/1340/335
vt 0.406250 0.921875
vt 0.468750 0.921875
vt 0.468750 0.859375
vt 0.406250 0.859375
vn 0.000000 -1.000000 0.000000
f 441/1341/336 442/1342/336 446/1343/336 445/1344/336
# part: blade_marrow_bridge_1
v 0.486250 0.887500 0.477500
v 0.513750 0.887500 0.477500
v 0.513750 0.950000 0.477500
v 0.486250 0.950000 0.477500
v 0.486250 0.887500 0.522500
v 0.513750 0.887500 0.522500
v 0.513750 0.950000 0.522500
v 0.486250 0.950000 0.522500
vt 0.000000 0.875000
vt 0.062500 0.875000
vt 0.062500 0.812500
vt 0.000000 0.812500
vn 0.000000 0.000000 1.000000
usemtl bone_sword_v2_atlas
f 453/1345/337 454/1346/337 455/1347/337 456/1348/337
vt 0.000000 0.875000
vt 0.062500 0.875000
vt 0.062500 0.812500
vt 0.000000 0.812500
vn 0.000000 0.000000 -1.000000
f 450/1349/338 449/1350/338 452/1351/338 451/1352/338
vt 0.000000 0.875000
vt 0.062500 0.875000
vt 0.062500 0.812500
vt 0.000000 0.812500
vn -1.000000 0.000000 0.000000
f 449/1353/339 453/1354/339 456/1355/339 452/1356/339
vt 0.000000 0.875000
vt 0.062500 0.875000
vt 0.062500 0.812500
vt 0.000000 0.812500
vn 1.000000 0.000000 0.000000
f 454/1357/340 450/1358/340 451/1359/340 455/1360/340
vt 0.000000 0.875000
vt 0.062500 0.875000
vt 0.062500 0.812500
vt 0.000000 0.812500
vn 0.000000 1.000000 0.000000
f 456/1361/341 455/1362/341 451/1363/341 452/1364/341
vt 0.000000 0.875000
vt 0.062500 0.875000
vt 0.062500 0.812500
vt 0.000000 0.812500
vn 0.000000 -1.000000 0.000000
f 449/1365/342 450/1366/342 454/1367/342 453/1368/342
# part: blade_marrow_bridge_2
v 0.486250 1.025000 0.477500
v 0.513750 1.025000 0.477500
v 0.513750 1.087500 0.477500
v 0.486250 1.087500 0.477500
v 0.486250 1.025000 0.522500
v 0.513750 1.025000 0.522500
v 0.513750 1.087500 0.522500
v 0.486250 1.087500 0.522500
vt 0.031250 0.828125
vt 0.093750 0.828125
vt 0.093750 0.765625
vt 0.031250 0.765625
vn 0.000000 0.000000 1.000000
usemtl bone_sword_v2_atlas
f 461/1369/343 462/1370/343 463/1371/343 464/1372/343
vt 0.031250 0.828125
vt 0.093750 0.828125
vt 0.093750 0.765625
vt 0.031250 0.765625
vn 0.000000 0.000000 -1.000000
f 458/1373/344 457/1374/344 460/1375/344 459/1376/344
vt 0.031250 0.828125
vt 0.093750 0.828125
vt 0.093750 0.765625
vt 0.031250 0.765625
vn -1.000000 0.000000 0.000000
f 457/1377/345 461/1378/345 464/1379/345 460/1380/345
vt 0.031250 0.828125
vt 0.093750 0.828125
vt 0.093750 0.765625
vt 0.031250 0.765625
vn 1.000000 0.000000 0.000000
f 462/1381/346 458/1382/346 459/1383/346 463/1384/346
vt 0.031250 0.828125
vt 0.093750 0.828125
vt 0.093750 0.765625
vt 0.031250 0.765625
vn 0.000000 1.000000 0.000000
f 464/1385/347 463/1386/347 459/1387/347 460/1388/347
vt 0.031250 0.828125
vt 0.093750 0.828125
vt 0.093750 0.765625
vt 0.031250 0.765625
vn 0.000000 -1.000000 0.000000
f 457/1389/348 458/1390/348 462/1391/348 461/1392/348
# part: blade_marrow_bridge_3
v 0.486250 1.162500 0.477500
v 0.513750 1.162500 0.477500
v 0.513750 1.225000 0.477500
v 0.486250 1.225000 0.477500
v 0.486250 1.162500 0.522500
v 0.513750 1.162500 0.522500
v 0.513750 1.225000 0.522500
v 0.486250 1.225000 0.522500
vt 0.062500 0.781250
vt 0.125000 0.781250
vt 0.125000 0.718750
vt 0.062500 0.718750
vn 0.000000 0.000000 1.000000
usemtl bone_sword_v2_atlas
f 469/1393/349 470/1394/349 471/1395/349 472/1396/349
vt 0.062500 0.781250
vt 0.125000 0.781250
vt 0.125000 0.718750
vt 0.062500 0.718750
vn 0.000000 0.000000 -1.000000
f 466/1397/350 465/1398/350 468/1399/350 467/1400/350
vt 0.062500 0.781250
vt 0.125000 0.781250
vt 0.125000 0.718750
vt 0.062500 0.718750
vn -1.000000 0.000000 0.000000
f 465/1401/351 469/1402/351 472/1403/351 468/1404/351
vt 0.062500 0.781250
vt 0.125000 0.781250
vt 0.125000 0.718750
vt 0.062500 0.718750
vn 1.000000 0.000000 0.000000
f 470/1405/352 466/1406/352 467/1407/352 471/1408/352
vt 0.062500 0.781250
vt 0.125000 0.781250
vt 0.125000 0.718750
vt 0.062500 0.718750
vn 0.000000 1.000000 0.000000
f 472/1409/353 471/1410/353 467/1411/353 468/1412/353
vt 0.062500 0.781250
vt 0.125000 0.781250
vt 0.125000 0.718750
vt 0.062500 0.718750
vn 0.000000 -1.000000 0.000000
f 465/1413/354 466/1414/354 470/1415/354 469/1416/354
# part: blade_marrow_bridge_4
v 0.486250 1.300000 0.477500
v 0.513750 1.300000 0.477500
v 0.513750 1.362500 0.477500
v 0.486250 1.362500 0.477500
v 0.486250 1.300000 0.522500
v 0.513750 1.300000 0.522500
v 0.513750 1.362500 0.522500
v 0.486250 1.362500 0.522500
vt 0.093750 0.734375
vt 0.156250 0.734375
vt 0.156250 0.671875
vt 0.093750 0.671875
vn 0.000000 0.000000 1.000000
usemtl bone_sword_v2_atlas
f 477/1417/355 478/1418/355 479/1419/355 480/1420/355
vt 0.093750 0.734375
vt 0.156250 0.734375
vt 0.156250 0.671875
vt 0.093750 0.671875
vn 0.000000 0.000000 -1.000000
f 474/1421/356 473/1422/356 476/1423/356 475/1424/356
vt 0.093750 0.734375
vt 0.156250 0.734375
vt 0.156250 0.671875
vt 0.093750 0.671875
vn -1.000000 0.000000 0.000000
f 473/1425/357 477/1426/357 480/1427/357 476/1428/357
vt 0.093750 0.734375
vt 0.156250 0.734375
vt 0.156250 0.671875
vt 0.093750 0.671875
vn 1.000000 0.000000 0.000000
f 478/1429/358 474/1430/358 475/1431/358 479/1432/358
vt 0.093750 0.734375
vt 0.156250 0.734375
vt 0.156250 0.671875
vt 0.093750 0.671875
vn 0.000000 1.000000 0.000000
f 480/1433/359 479/1434/359 475/1435/359 476/1436/359
vt 0.093750 0.734375
vt 0.156250 0.734375
vt 0.156250 0.671875
vt 0.093750 0.671875
vn 0.000000 -1.000000 0.000000
f 473/1437/360 474/1438/360 478/1439/360 477/1440/360
# part: blade_marrow_bridge_5
v 0.486250 1.437500 0.477500
v 0.513750 1.437500 0.477500
v 0.513750 1.500000 0.477500
v 0.486250 1.500000 0.477500
v 0.486250 1.437500 0.522500
v 0.513750 1.437500 0.522500
v 0.513750 1.500000 0.522500
v 0.486250 1.500000 0.522500
vt 0.125000 1.000000
vt 0.187500 1.000000
vt 0.187500 0.937500
vt 0.125000 0.937500
vn 0.000000 0.000000 1.000000
usemtl bone_sword_v2_atlas
f 485/1441/361 486/1442/361 487/1443/361 488/1444/361
vt 0.125000 1.000000
vt 0.187500 1.000000
vt 0.187500 0.937500
vt 0.125000 0.937500
vn 0.000000 0.000000 -1.000000
f 482/1445/362 481/1446/362 484/1447/362 483/1448/362
vt 0.125000 1.000000
vt 0.187500 1.000000
vt 0.187500 0.937500
vt 0.125000 0.937500
vn -1.000000 0.000000 0.000000
f 481/1449/363 485/1450/363 488/1451/363 484/1452/363
vt 0.125000 1.000000
vt 0.187500 1.000000
vt 0.187500 0.937500
vt 0.125000 0.937500
vn 1.000000 0.000000 0.000000
f 486/1453/364 482/1454/364 483/1455/364 487/1456/364
vt 0.125000 1.000000
vt 0.187500 1.000000
vt 0.187500 0.937500
vt 0.125000 0.937500
vn 0.000000 1.000000 0.000000
f 488/1457/365 487/1458/365 483/1459/365 484/1460/365
vt 0.125000 1.000000
vt 0.187500 1.000000
vt 0.187500 0.937500
vt 0.125000 0.937500
vn 0.000000 -1.000000 0.000000
f 481/1461/366 482/1462/366 486/1463/366 485/1464/366
# part: blade_edge_lower_l1
v 0.415625 0.750000 0.488750
v 0.471250 0.750000 0.488750
v 0.471250 0.918750 0.488750
v 0.415625 0.918750 0.488750
v 0.415625 0.750000 0.511250
v 0.471250 0.750000 0.511250
v 0.471250 0.918750 0.511250
v 0.415625 0.918750 0.511250
vt 0.156250 0.953125
vt 0.218750 0.953125
vt 0.218750 0.890625
vt 0.156250 0.890625
vn 0.000000 0.000000 1.000000
usemtl bone_sword_v2_atlas
f 493/1465/367 494/1466/367 495/1467/367 496/1468/367
vt 0.156250 0.953125
vt 0.218750 0.953125
vt 0.218750 0.890625
vt 0.156250 0.890625
vn 0.000000 0.000000 -1.000000
f 490/1469/368 489/1470/368 492/1471/368 491/1472/368
vt 0.156250 0.953125
vt 0.218750 0.953125
vt 0.218750 0.890625
vt 0.156250 0.890625
vn -1.000000 0.000000 0.000000
f 489/1473/369 493/1474/369 496/1475/369 492/1476/369
vt 0.156250 0.953125
vt 0.218750 0.953125
vt 0.218750 0.890625
vt 0.156250 0.890625
vn 1.000000 0.000000 0.000000
f 494/1477/370 490/1478/370 491/1479/370 495/1480/370
vt 0.156250 0.953125
vt 0.218750 0.953125
vt 0.218750 0.890625
vt 0.156250 0.890625
vn 0.000000 1.000000 0.000000
f 496/1481/371 495/1482/371 491/1483/371 492/1484/371
vt 0.156250 0.953125
vt 0.218750 0.953125
vt 0.218750 0.890625
vt 0.156250 0.890625
vn 0.000000 -1.000000 0.000000
f 489/1485/372 490/1486/372 494/1487/372 493/1488/372
# part: blade_notch_l1
v 0.440625 0.918750 0.491250
v 0.471250 0.918750 0.491250
v 0.471250 0.956250 0.491250
v 0.440625 0.956250 0.491250
v 0.440625 0.918750 0.508750
v 0.471250 0.918750 0.508750
v 0.471250 0.956250 0.508750
v 0.440625 0.956250 0.508750
vt 0.187500 0.906250
vt 0.250000 0.906250
vt 0.250000 0.843750
vt 0.187500 0.843750
vn 0.000000 0.000000 1.000000
usemtl bone_sword_v2_atlas
f 501/1489/373 502/1490/373 503/1491/373 504/1492/373
vt 0.187500 0.906250
vt 0.250000 0.906250
vt 0.250000 0.843750
vt 0.187500 0.843750
vn 0.000000 0.000000 -1.000000
f 498/1493/374 497/1494/374 500/1495/374 499/1496/374
vt 0.187500 0.906250
vt 0.250000 0.906250
vt 0.250000 0.843750
vt 0.187500 0.843750
vn -1.000000 0.000000 0.000000
f 497/1497/375 501/1498/375 504/1499/375 500/1500/375
vt 0.187500 0.906250
vt 0.250000 0.906250
vt 0.250000 0.843750
vt 0.187500 0.843750
vn 1.000000 0.000000 0.000000
f 502/1501/376 498/1502/376 499/1503/376 503/1504/376
vt 0.187500 0.906250
vt 0.250000 0.906250
vt 0.250000 0.843750
vt 0.187500 0.843750
vn 0.000000 1.000000 0.000000
f 504/1505/377 503/1506/377 499/1507/377 500/1508/377
vt 0.187500 0.906250
vt 0.250000 0.906250
vt 0.250000 0.843750
vt 0.187500 0.843750
vn 0.000000 -1.000000 0.000000
f 497/1509/378 498/1510/378 502/1511/378 501/1512/378
# part: blade_edge_lower_l2
v 0.415625 0.956250 0.488750
v 0.471250 0.956250 0.488750
v 0.471250 1.187500 0.488750
v 0.415625 1.187500 0.488750
v 0.415625 0.956250 0.511250
v 0.471250 0.956250 0.511250
v 0.471250 1.187500 0.511250
v 0.415625 1.187500 0.511250
vt 0.218750 0.859375
vt 0.281250 0.859375
vt 0.281250 0.796875
vt 0.218750 0.796875
vn 0.000000 0.000000 1.000000
usemtl bone_sword_v2_atlas
f 509/1513/379 510/1514/379 511/1515/379 512/1516/379
vt 0.218750 0.859375
vt 0.281250 0.859375
vt 0.281250 0.796875
vt 0.218750 0.796875
vn 0.000000 0.000000 -1.000000
f 506/1517/380 505/1518/380 508/1519/380 507/1520/380
vt 0.218750 0.859375
vt 0.281250 0.859375
vt 0.281250 0.796875
vt 0.218750 0.796875
vn -1.000000 0.000000 0.000000
f 505/1521/381 509/1522/381 512/1523/381 508/1524/381
vt 0.218750 0.859375
vt 0.281250 0.859375
vt 0.281250 0.796875
vt 0.218750 0.796875
vn 1.000000 0.000000 0.000000
f 510/1525/382 506/1526/382 507/1527/382 511/1528/382
vt 0.218750 0.859375
vt 0.281250 0.859375
vt 0.281250 0.796875
vt 0.218750 0.796875
vn 0.000000 1.000000 0.000000
f 512/1529/383 511/1530/383 507/1531/383 508/1532/383
vt 0.218750 0.859375
vt 0.281250 0.859375
vt 0.281250 0.796875
vt 0.218750 0.796875
vn 0.000000 -1.000000 0.000000
f 505/1533/384 506/1534/384 510/1535/384 509/1536/384
# part: blade_edge_lower_r1
v 0.528750 0.750000 0.488750
v 0.584375 0.750000 0.488750
v 0.584375 1.062500 0.488750
v 0.528750 1.062500 0.488750
v 0.528750 0.750000 0.511250
v 0.584375 0.750000 0.511250
v 0.584375 1.062500 0.511250
v 0.528750 1.062500 0.511250
vt 0.250000 0.812500
vt 0.312500 0.812500
vt 0.312500 0.750000
vt 0.250000 0.750000
vn 0.000000 0.000000 1.000000
usemtl bone_sword_v2_atlas
f 517/1537/385 518/1538/385 519/1539/385 520/1540/385
vt 0.250000 0.812500
vt 0.312500 0.812500
vt 0.312500 0.750000
vt 0.250000 0.750000
vn 0.000000 0.000000 -1.000000
f 514/1541/386 513/1542/386 516/1543/386 515/1544/386
vt 0.250000 0.812500
vt 0.312500 0.812500
vt 0.312500 0.750000
vt 0.250000 0.750000
vn -1.000000 0.000000 0.000000
f 513/1545/387 517/1546/387 520/1547/387 516/1548/387
vt 0.250000 0.812500
vt 0.312500 0.812500
vt 0.312500 0.750000
vt 0.250000 0.750000
vn 1.000000 0.000000 0.000000
f 518/1549/388 514/1550/388 515/1551/388 519/1552/388
vt 0.250000 0.812500
vt 0.312500 0.812500
vt 0.312500 0.750000
vt 0.250000 0.750000
vn 0.000000 1.000000 0.000000
f 520/1553/389 519/1554/389 515/1555/389 516/1556/389
vt 0.250000 0.812500
vt 0.312500 0.812500
vt 0.312500 0.750000
vt 0.250000 0.750000
vn 0.000000 -1.000000 0.000000
f 513/1557/390 514/1558/390 518/1559/390 517/1560/390
# part: blade_notch_r1
v 0.528750 1.062500 0.491250
v 0.559375 1.062500 0.491250
v 0.559375 1.100000 0.491250
v 0.528750 1.100000 0.491250
v 0.528750 1.062500 0.508750
v 0.559375 1.062500 0.508750
v 0.559375 1.100000 0.508750
v 0.528750 1.100000 0.508750
vt 0.281250 0.765625
vt 0.343750 0.765625
vt 0.343750 0.703125
vt 0.281250 0.703125
vn 0.000000 0.000000 1.000000
usemtl bone_sword_v2_atlas
f 525/1561/391 526/1562/391 527/1563/391 528/1564/391
vt 0.281250 0.765625
vt 0.343750 0.765625
vt 0.343750 0.703125
vt 0.281250 0.703125
vn 0.000000 0.000000 -1.000000
f 522/1565/392 521/1566/392 524/1567/392 523/1568/392
vt 0.281250 0.765625
vt 0.343750 0.765625
vt 0.343750 0.703125
vt 0.281250 0.703125
vn -1.000000 0.000000 0.000000
f 521/1569/393 525/1570/393 528/1571/393 524/1572/393
vt 0.281250 0.765625
vt 0.343750 0.765625
vt 0.343750 0.703125
vt 0.281250 0.703125
vn 1.000000 0.000000 0.000000
f 526/1573/394 522/1574/394 523/1575/394 527/1576/394
vt 0.281250 0.765625
vt 0.343750 0.765625
vt 0.343750 0.703125
vt 0.281250 0.703125
vn 0.000000 1.000000 0.000000
f 528/1577/395 527/1578/395 523/1579/395 524/1580/395
vt 0.281250 0.765625
vt 0.343750 0.765625
vt 0.343750 0.703125
vt 0.281250 0.703125
vn 0.000000 -1.000000 0.000000
f 521/1581/396 522/1582/396 526/1583/396 525/1584/396
# part: blade_edge_lower_r2
v 0.528750 1.100000 0.488750
v 0.584375 1.100000 0.488750
v 0.584375 1.187500 0.488750
v 0.528750 1.187500 0.488750
v 0.528750 1.100000 0.511250
v 0.584375 1.100000 0.511250
v 0.584375 1.187500 0.511250
v 0.528750 1.187500 0.511250
vt 0.312500 0.718750
vt 0.375000 0.718750
vt 0.375000 0.656250
vt 0.312500 0.656250
vn 0.000000 0.000000 1.000000
usemtl bone_sword_v2_atlas
f 533/1585/397 534/1586/397 535/1587/397 536/1588/397
vt 0.312500 0.718750
vt 0.375000 0.718750
vt 0.375000 0.656250
vt 0.312500 0.656250
vn 0.000000 0.000000 -1.000000
f 530/1589/398 529/1590/398 532/1591/398 531/1592/398
vt 0.312500 0.718750
vt 0.375000 0.718750
vt 0.375000 0.656250
vt 0.312500 0.656250
vn -1.000000 0.000000 0.000000
f 529/1593/399 533/1594/399 536/1595/399 532/1596/399
vt 0.312500 0.718750
vt 0.375000 0.718750
vt 0.375000 0.656250
vt 0.312500 0.656250
vn 1.000000 0.000000 0.000000
f 534/1597/400 530/1598/400 531/1599/400 535/1600/400
vt 0.312500 0.718750
vt 0.375000 0.718750
vt 0.375000 0.656250
vt 0.312500 0.656250
vn 0.000000 1.000000 0.000000
f 536/1601/401 535/1602/401 531/1603/401 532/1604/401
vt 0.312500 0.718750
vt 0.375000 0.718750
vt 0.375000 0.656250
vt 0.312500 0.656250
vn 0.000000 -1.000000 0.000000
f 529/1605/402 530/1606/402 534/1607/402 533/1608/402
# part: blade_edge_mid_l
v 0.423750 1.187500 0.490000
v 0.471250 1.187500 0.490000
v 0.471250 1.581250 0.490000
v 0.423750 1.581250 0.490000
v 0.423750 1.187500 0.510000
v 0.471250 1.187500 0.510000
v 0.471250 1.581250 0.510000
v 0.423750 1.581250 0.510000
vt 0.343750 0.984375
vt 0.406250 0.984375
vt 0.406250 0.921875
vt 0.343750 0.921875
vn 0.000000 0.000000 1.000000
usemtl bone_sword_v2_atlas
f 541/1609/403 542/1610/403 543/1611/403 544/1612/403
vt 0.343750 0.984375
vt 0.406250 0.984375
vt 0.406250 0.921875
vt 0.343750 0.921875
vn 0.000000 0.000000 -1.000000
f 538/1613/404 537/1614/404 540/1615/404 539/1616/404
vt 0.343750 0.984375
vt 0.406250 0.984375
vt 0.406250 0.921875
vt 0.343750 0.921875
vn -1.000000 0.000000 0.000000
f 537/1617/405 541/1618/405 544/1619/405 540/1620/405
vt 0.343750 0.984375
vt 0.406250 0.984375
vt 0.406250 0.921875
vt 0.343750 0.921875
vn 1.000000 0.000000 0.000000
f 542/1621/406 538/1622/406 539/1623/406 543/1624/406
vt 0.343750 0.984375
vt 0.406250 0.984375
vt 0.406250 0.921875
vt 0.343750 0.921875
vn 0.000000 1.000000 0.000000
f 544/1625/407 543/1626/407 539/1627/407 540/1628/407
vt 0.343750 0.984375
vt 0.406250 0.984375
vt 0.406250 0.921875
vt 0.343750 0.921875
vn 0.000000 -1.000000 0.000000
f 537/1629/408 538/1630/408 542/1631/408 541/1632/408
# part: blade_edge_mid_r1
v 0.528750 1.187500 0.490000
v 0.576250 1.187500 0.490000
v 0.576250 1.356250 0.490000
v 0.528750 1.356250 0.490000
v 0.528750 1.187500 0.510000
v 0.576250 1.187500 0.510000
v 0.576250 1.356250 0.510000
v 0.528750 1.356250 0.510000
vt 0.375000 0.937500
vt 0.437500 0.937500
vt 0.437500 0.875000
vt 0.375000 0.875000
vn 0.000000 0.000000 1.000000
usemtl bone_sword_v2_atlas
f 549/1633/409 550/1634/409 551/1635/409 552/1636/409
vt 0.375000 0.937500
vt 0.437500 0.937500
vt 0.437500 0.875000
vt 0.375000 0.875000
vn 0.000000 0.000000 -1.000000
f 546/1637/410 545/1638/410 548/1639/410 547/1640/410
vt 0.375000 0.937500
vt 0.437500 0.937500
vt 0.437500 0.875000
vt 0.375000 0.875000
vn -1.000000 0.000000 0.000000
f 545/1641/411 549/1642/411 552/1643/411 548/1644/411
vt 0.375000 0.937500
vt 0.437500 0.937500
vt 0.437500 0.875000
vt 0.375000 0.875000
vn 1.000000 0.000000 0.000000
f 550/1645/412 546/1646/412 547/1647/412 551/1648/412
vt 0.375000 0.937500
vt 0.437500 0.937500
vt 0.437500 0.875000
vt 0.375000 0.875000
vn 0.000000 1.000000 0.000000
f 552/1649/413 551/1650/413 547/1651/413 548/1652/413
vt 0.375000 0.937500
vt 0.437500 0.937500
vt 0.437500 0.875000
vt 0.375000 0.875000
vn 0.000000 -1.000000 0.000000
f 545/1653/414 546/1654/414 550/1655/414 549/1656/414
# part: blade_notch_r2
v 0.528750 1.356250 0.492500
v 0.555000 1.356250 0.492500
v 0.555000 1.387500 0.492500
v 0.528750 1.387500 0.492500
v 0.528750 1.356250 0.507500
v 0.555000 1.356250 0.507500
v 0.555000 1.387500 0.507500
v 0.528750 1.387500 0.507500
vt 0.406250 0.890625
vt 0.468750 0.890625
vt 0.468750 0.828125
vt 0.406250 0.828125
vn 0.000000 0.000000 1.000000
usemtl bone_sword_v2_atlas
f 557/1657/415 558/1658/415 559/1659/415 560/1660/415
vt 0.406250 0.890625
vt 0.468750 0.890625
vt 0.468750 0.828125
vt 0.406250 0.828125
vn 0.000000 0.000000 -1.000000
f 554/1661/416 553/1662/416 556/1663/416 555/1664/416
vt 0.406250 0.890625
vt 0.468750 0.890625
vt 0.468750 0.828125
vt 0.406250 0.828125
vn -1.000000 0.000000 0.000000
f 553/1665/417 557/1666/417 560/1667/417 556/1668/417
vt 0.406250 0.890625
vt 0.468750 0.890625
vt 0.468750 0.828125
vt 0.406250 0.828125
vn 1.000000 0.000000 0.000000
f 558/1669/418 554/1670/418 555/1671/418 559/1672/418
vt 0.406250 0.890625
vt 0.468750 0.890625
vt 0.468750 0.828125
vt 0.406250 0.828125
vn 0.000000 1.000000 0.000000
f 560/1673/419 559/1674/419 555/1675/419 556/1676/419
vt 0.406250 0.890625
vt 0.468750 0.890625
vt 0.468750 0.828125
vt 0.406250 0.828125
vn 0.000000 -1.000000 0.000000
f 553/1677/420 554/1678/420 558/1679/420 557/1680/420
# part: blade_edge_mid_r2
v 0.528750 1.387500 0.490000
v 0.576250 1.387500 0.490000
v 0.576250 1.581250 0.490000
v 0.528750 1.581250 0.490000
v 0.528750 1.387500 0.510000
v 0.576250 1.387500 0.510000
v 0.576250 1.581250 0.510000
v 0.528750 1.581250 0.510000
vt 0.000000 0.843750
vt 0.062500 0.843750
vt 0.062500 0.781250
vt 0.000000 0.781250
vn 0.000000 0.000000 1.000000
usemtl bone_sword_v2_atlas
f 565/1681/421 566/1682/421 567/1683/421 568/1684/421
vt 0.000000 0.843750
vt 0.062500 0.843750
vt 0.062500 0.781250
vt 0.000000 0.781250
vn 0.000000 0.000000 -1.000000
f 562/1685/422 561/1686/422 564/1687/422 563/1688/422
vt 0.000000 0.843750
vt 0.062500 0.843750
vt 0.062500 0.781250
vt 0.000000 0.781250
vn -1.000000 0.000000 0.000000
f 561/1689/423 565/1690/423 568/1691/423 564/1692/423
vt 0.000000 0.843750
vt 0.062500 0.843750
vt 0.062500 0.781250
vt 0.000000 0.781250
vn 1.000000 0.000000 0.000000
f 566/1693/424 562/1694/424 563/1695/424 567/1696/424
vt 0.000000 0.843750
vt 0.062500 0.843750
vt 0.062500 0.781250
vt 0.000000 0.781250
vn 0.000000 1.000000 0.000000
f 568/1697/425 567/1698/425 563/1699/425 564/1700/425
vt 0.000000 0.843750
vt 0.062500 0.843750
vt 0.062500 0.781250
vt 0.000000 0.781250
vn 0.000000 -1.000000 0.000000
f 561/1701/426 562/1702/426 566/1703/426 565/1704/426
# part: blade_taper_tier_1
v 0.453125 1.581250 0.486250
v 0.546875 1.581250 0.486250
v 0.546875 1.643750 0.486250
v 0.453125 1.643750 0.486250
v 0.453125 1.581250 0.513750
v 0.546875 1.581250 0.513750
v 0.546875 1.643750 0.513750
v 0.453125 1.643750 0.513750
vt 0.031250 0.796875
vt 0.093750 0.796875
vt 0.093750 0.734375
vt 0.031250 0.734375
vn 0.000000 0.000000 1.000000
usemtl bone_sword_v2_atlas
f 573/1705/427 574/1706/427 575/1707/427 576/1708/427
vt 0.031250 0.796875
vt 0.093750 0.796875
vt 0.093750 0.734375
vt 0.031250 0.734375
vn 0.000000 0.000000 -1.000000
f 570/1709/428 569/1710/428 572/1711/428 571/1712/428
vt 0.031250 0.796875
vt 0.093750 0.796875
vt 0.093750 0.734375
vt 0.031250 0.734375
vn -1.000000 0.000000 0.000000
f 569/1713/429 573/1714/429 576/1715/429 572/1716/429
vt 0.031250 0.796875
vt 0.093750 0.796875
vt 0.093750 0.734375
vt 0.031250 0.734375
vn 1.000000 0.000000 0.000000
f 574/1717/430 570/1718/430 571/1719/430 575/1720/430
vt 0.031250 0.796875
vt 0.093750 0.796875
vt 0.093750 0.734375
vt 0.031250 0.734375
vn 0.000000 1.000000 0.000000
f 576/1721/431 575/1722/431 571/1723/431 572/1724/431
vt 0.031250 0.796875
vt 0.093750 0.796875
vt 0.093750 0.734375
vt 0.031250 0.734375
vn 0.000000 -1.000000 0.000000
f 569/1725/432 570/1726/432 574/1727/432 573/1728/432
# part: blade_taper_tier_2
v 0.471250 1.643750 0.488750
v 0.528750 1.643750 0.488750
v 0.528750 1.693750 0.488750
v 0.471250 1.693750 0.488750
v 0.471250 1.643750 0.511250
v 0.528750 1.643750 0.511250
v 0.528750 1.693750 0.511250
v 0.471250 1.693750 0.511250
vt 0.062500 0.750000
vt 0.125000 0.750000
vt 0.125000 0.687500
vt 0.062500 0.687500
vn 0.000000 0.000000 1.000000
usemtl bone_sword_v2_atlas
f 581/1729/433 582/1730/433 583/1731/433 584/1732/433
vt 0.062500 0.750000
vt 0.125000 0.750000
vt 0.125000 0.687500
vt 0.062500 0.687500
vn 0.000000 0.000000 -1.000000
f 578/1733/434 577/1734/434 580/1735/434 579/1736/434
vt 0.062500 0.750000
vt 0.125000 0.750000
vt 0.125000 0.687500
vt 0.062500 0.687500
vn -1.000000 0.000000 0.000000
f 577/1737/435 581/1738/435 584/1739/435 580/1740/435
vt 0.062500 0.750000
vt 0.125000 0.750000
vt 0.125000 0.687500
vt 0.062500 0.687500
vn 1.000000 0.000000 0.000000
f 582/1741/436 578/1742/436 579/1743/436 583/1744/436
vt 0.062500 0.750000
vt 0.125000 0.750000
vt 0.125000 0.687500
vt 0.062500 0.687500
vn 0.000000 1.000000 0.000000
f 584/1745/437 583/1746/437 579/1747/437 580/1748/437
vt 0.062500 0.750000
vt 0.125000 0.750000
vt 0.125000 0.687500
vt 0.062500 0.687500
vn 0.000000 -1.000000 0.000000
f 577/1749/438 578/1750/438 582/1751/438 581/1752/438
# part: blade_taper_tier_3
v 0.484375 1.693750 0.491250
v 0.515625 1.693750 0.491250
v 0.515625 1.737500 0.491250
v 0.484375 1.737500 0.491250
v 0.484375 1.693750 0.508750
v 0.515625 1.693750 0.508750
v 0.515625 1.737500 0.508750
v 0.484375 1.737500 0.508750
vt 0.093750 0.703125
vt 0.156250 0.703125
vt 0.156250 0.640625
vt 0.093750 0.640625
vn 0.000000 0.000000 1.000000
usemtl bone_sword_v2_atlas
f 589/1753/439 590/1754/439 591/1755/439 592/1756/439
vt 0.093750 0.703125
vt 0.156250 0.703125
vt 0.156250 0.640625
vt 0.093750 0.640625
vn 0.000000 0.000000 -1.000000
f 586/1757/440 585/1758/440 588/1759/440 587/1760/440
vt 0.093750 0.703125
vt 0.156250 0.703125
vt 0.156250 0.640625
vt 0.093750 0.640625
vn -1.000000 0.000000 0.000000
f 585/1761/441 589/1762/441 592/1763/441 588/1764/441
vt 0.093750 0.703125
vt 0.156250 0.703125
vt 0.156250 0.640625
vt 0.093750 0.640625
vn 1.000000 0.000000 0.000000
f 590/1765/442 586/1766/442 587/1767/442 591/1768/442
vt 0.093750 0.703125
vt 0.156250 0.703125
vt 0.156250 0.640625
vt 0.093750 0.640625
vn 0.000000 1.000000 0.000000
f 592/1769/443 591/1770/443 587/1771/443 588/1772/443
vt 0.093750 0.703125
vt 0.156250 0.703125
vt 0.156250 0.640625
vt 0.093750 0.640625
vn 0.000000 -1.000000 0.000000
f 585/1773/444 586/1774/444 590/1775/444 589/1776/444
# part: blade_taper_tier_4
v 0.493750 1.737500 0.494375
v 0.506250 1.737500 0.494375
v 0.506250 1.771875 0.494375
v 0.493750 1.771875 0.494375
v 0.493750 1.737500 0.505625
v 0.506250 1.737500 0.505625
v 0.506250 1.771875 0.505625
v 0.493750 1.771875 0.505625
vt 0.125000 0.968750
vt 0.187500 0.968750
vt 0.187500 0.906250
vt 0.125000 0.906250
vn 0.000000 0.000000 1.000000
usemtl bone_sword_v2_atlas
f 597/1777/445 598/1778/445 599/1779/445 600/1780/445
vt 0.125000 0.968750
vt 0.187500 0.968750
vt 0.187500 0.906250
vt 0.125000 0.906250
vn 0.000000 0.000000 -1.000000
f 594/1781/446 593/1782/446 596/1783/446 595/1784/446
vt 0.125000 0.968750
vt 0.187500 0.968750
vt 0.187500 0.906250
vt 0.125000 0.906250
vn -1.000000 0.000000 0.000000
f 593/1785/447 597/1786/447 600/1787/447 596/1788/447
vt 0.125000 0.968750
vt 0.187500 0.968750
vt 0.187500 0.906250
vt 0.125000 0.906250
vn 1.000000 0.000000 0.000000
f 598/1789/448 594/1790/448 595/1791/448 599/1792/448
vt 0.125000 0.968750
vt 0.187500 0.968750
vt 0.187500 0.906250
vt 0.125000 0.906250
vn 0.000000 1.000000 0.000000
f 600/1793/449 599/1794/449 595/1795/449 596/1796/449
vt 0.125000 0.968750
vt 0.187500 0.968750
vt 0.187500 0.906250
vt 0.125000 0.906250
vn 0.000000 -1.000000 0.000000
f 593/1797/450 594/1798/450 598/1799/450 597/1800/450
# part: blade_tip_single_point
v 0.497500 1.771875 0.496875
v 0.502500 1.771875 0.496875
v 0.502500 1.796875 0.496875
v 0.497500 1.796875 0.496875
v 0.497500 1.771875 0.503125
v 0.502500 1.771875 0.503125
v 0.502500 1.796875 0.503125
v 0.497500 1.796875 0.503125
vt 0.156250 0.921875
vt 0.218750 0.921875
vt 0.218750 0.859375
vt 0.156250 0.859375
vn 0.000000 0.000000 1.000000
usemtl bone_sword_v2_atlas
f 605/1801/451 606/1802/451 607/1803/451 608/1804/451
vt 0.156250 0.921875
vt 0.218750 0.921875
vt 0.218750 0.859375
vt 0.156250 0.859375
vn 0.000000 0.000000 -1.000000
f 602/1805/452 601/1806/452 604/1807/452 603/1808/452
vt 0.156250 0.921875
vt 0.218750 0.921875
vt 0.218750 0.859375
vt 0.156250 0.859375
vn -1.000000 0.000000 0.000000
f 601/1809/453 605/1810/453 608/1811/453 604/1812/453
vt 0.156250 0.921875
vt 0.218750 0.921875
vt 0.218750 0.859375
vt 0.156250 0.859375
vn 1.000000 0.000000 0.000000
f 606/1813/454 602/1814/454 603/1815/454 607/1816/454
vt 0.156250 0.921875
vt 0.218750 0.921875
vt 0.218750 0.859375
vt 0.156250 0.859375
vn 0.000000 1.000000 0.000000
f 608/1817/455 607/1818/455 603/1819/455 604/1820/455
vt 0.156250 0.921875
vt 0.218750 0.921875
vt 0.218750 0.859375
vt 0.156250 0.859375
vn 0.000000 -1.000000 0.000000
f 601/1821/456 602/1822/456 606/1823/456 605/1824/456
