<?xml version="1.0" encoding="UTF-8"?>
<!--
  plan-hotbar-modify-v1 · UI mockup v2（按现网 outerRow 真实结构重绘）
  设计稿尺寸 920×580。

  v1 错误：把 1-9 战斗 Hotbar 画在 InspectScreen 底部横排（800×48）。
  v2 修订：现网 InspectScreen.outerRow 是 horizontalFlow（line 163），
           远左是 hotbarStrip + quickUseStrip 两条 verticalFlow（line 167-171），
           中间 mainPanel（line 175），远右 discardStrip（line 475）。
           「战斗·修炼」tab 内 ⑤ 不再重画 1-9 槽 —— 与左侧 hotbarStrip 是同一组件，
           工作台 ①②③④ 选中态联动，拖目标即左侧已有的 strip slot。

  色板对齐：client.combat.inspect.TechniquesListPanel.Grade + MeridianChannel.baseColor()
  GridSlotComponent.CELL_SIZE = 28 → strip width = 28+6 = 34（含 padding=3）
-->
<svg xmlns="http://www.w3.org/2000/svg" viewBox="0 0 920 580"
     font-family="'PingFang SC', 'Noto Sans CJK SC', monospace" font-size="11">

  <!-- ================== 全局背景 ================== -->
  <rect x="0" y="0" width="920" height="580" fill="#0e0e0e"/>
  <text x="14" y="20" fill="#7a7a7a" font-size="10">
    InspectScreen · root.surface(VANILLA_TRANSLUCENT) · OwoUIAdapter ⇒ Containers::verticalFlow（centered）
  </text>

  <!-- ================== outerRow horizontalFlow ================== -->
  <g id="outer-row" transform="translate(20,40)">
    <rect x="0" y="0" width="880" height="466" fill="#161618" stroke="#2a2a2a" stroke-dasharray="4 3"/>
    <text x="6" y="-6" fill="#999" font-size="10">
      outerRow = Containers.horizontalFlow(content,content) · gap=2 · vAlign=CENTER · InspectScreen.java:163
    </text>

    <!-- ============ FAR LEFT 1: hotbarStrip (1-9 战斗) ============ -->
    <g id="hotbar" transform="translate(8,8)">
      <rect x="0" y="0" width="34" height="266" fill="#141414"
            stroke="#FFE080" stroke-opacity="0.45"/>
      <text x="17" y="-4" fill="#FFE080" font-size="9" text-anchor="middle" font-weight="bold">1–9</text>
      <text x="17" y="6"  fill="#FFE080" font-size="7" text-anchor="middle" opacity="0.6">战斗</text>
      <text x="17" y="-15" fill="#FFE080" font-size="8" text-anchor="middle" opacity="0.7">verticalFlow</text>

      <!-- slot 1: 崩拳（绑定示例 + 选中联动金边） -->
      <g transform="translate(3,12)">
        <rect width="28" height="28" fill="#3a2a1a" stroke="#FFE080" stroke-width="1.6"/>
        <text x="3" y="9" fill="#FFE080" font-size="8">1</text>
        <text x="14" y="22" fill="#FFE080" text-anchor="middle" font-size="13" font-weight="bold">崩</text>
      </g>
      <!-- slot 2: 贴山靠（冷却中蒙灰） -->
      <g transform="translate(3,41)">
        <rect width="28" height="28" fill="#2a2a32" stroke="#FFE080" stroke-opacity="0.5"/>
        <text x="3" y="9" fill="#FFE080" font-size="8">2</text>
        <text x="14" y="22" fill="#dcdcdc" text-anchor="middle" font-size="12">靠</text>
        <rect width="28" height="28" fill="#000" opacity="0.55"/>
        <text x="14" y="20" fill="#fff" text-anchor="middle" font-size="9">2.1s</text>
      </g>
      <!-- slot 3: 逆脉护体（toggle on, 绿描边） -->
      <g transform="translate(3,70)">
        <rect width="28" height="28" fill="#2a3a2a" stroke="#66AA88" stroke-width="1.4"/>
        <text x="3" y="9" fill="#66AA88" font-size="8">3</text>
        <text x="14" y="22" fill="#66AA88" text-anchor="middle" font-size="12">逆</text>
        <circle cx="25" cy="3" r="2" fill="#66AA88"/>
      </g>
      <!-- slot 4: 物品（剑 / server-driven hotbar 切换） -->
      <g transform="translate(3,99)">
        <rect width="28" height="28" fill="#23232a" stroke="#80C0FF" stroke-opacity="0.55"/>
        <text x="3" y="9" fill="#80C0FF" font-size="8">4</text>
        <text x="14" y="22" fill="#80C0FF" text-anchor="middle" font-size="12">剑</text>
      </g>
      <!-- slot 5–8: 空 -->
      <g transform="translate(3,128)">
        <rect width="28" height="28" fill="#1a1a1c" stroke="#3a3a3a" stroke-dasharray="2 2"/>
        <text x="3" y="9" fill="#666" font-size="8">5</text>
      </g>
      <g transform="translate(3,157)">
        <rect width="28" height="28" fill="#1a1a1c" stroke="#3a3a3a" stroke-dasharray="2 2"/>
        <text x="3" y="9" fill="#666" font-size="8">6</text>
      </g>
      <g transform="translate(3,186)">
        <rect width="28" height="28" fill="#1a1a1c" stroke="#3a3a3a" stroke-dasharray="2 2"/>
        <text x="3" y="9" fill="#666" font-size="8">7</text>
      </g>
      <g transform="translate(3,215)">
        <rect width="28" height="28" fill="#1a1a1c" stroke="#3a3a3a" stroke-dasharray="2 2"/>
        <text x="3" y="9" fill="#666" font-size="8">8</text>
      </g>
      <!-- slot 9: 拖目标 hover 高亮 -->
      <g transform="translate(3,244)">
        <rect width="28" height="28" fill="#3a2a1a"
              stroke="#FFE080" stroke-width="1.6" stroke-dasharray="3 2"/>
        <text x="3" y="9" fill="#FFE080" font-size="8">9</text>
        <text x="14" y="22" fill="#FFE080" text-anchor="middle" font-size="11">＋</text>
      </g>
    </g>

    <!-- ============ FAR LEFT 2: quickUseStrip (F1-F9 物品快捷) ============ -->
    <g id="quickuse" transform="translate(44,8)">
      <rect x="0" y="0" width="34" height="266" fill="#0F1A14"
            stroke="#66AA88" stroke-opacity="0.35"/>
      <text x="17" y="-4" fill="#66AA88" font-size="9" text-anchor="middle" font-weight="bold">F1–F9</text>
      <text x="17" y="6"  fill="#66AA88" font-size="7" text-anchor="middle" opacity="0.6">快捷</text>
      <text x="17" y="-15" fill="#66AA88" font-size="8" text-anchor="middle" opacity="0.7">verticalFlow</text>

      <g transform="translate(3,12)">
        <rect width="28" height="28" fill="#23232a" stroke="#80C0FF" stroke-opacity="0.6"/>
        <text x="3" y="9" fill="#80C0FF" font-size="8">F1</text>
        <text x="14" y="22" fill="#80C0FF" text-anchor="middle" font-size="11">丹</text>
      </g>
      <g transform="translate(3,41)">
        <rect width="28" height="28" fill="#23232a" stroke="#80C0FF" stroke-opacity="0.6"/>
        <text x="3" y="9" fill="#80C0FF" font-size="8">F2</text>
        <text x="14" y="22" fill="#80C0FF" text-anchor="middle" font-size="11">绷</text>
      </g>
      <g transform="translate(3,70)">
        <rect width="28" height="28" fill="#1a1a1c" stroke="#3a3a3a" stroke-dasharray="2 2"/>
        <text x="3" y="9" fill="#666" font-size="8">F3</text>
      </g>
      <g transform="translate(3,99)">
        <rect width="28" height="28" fill="#1a1a1c" stroke="#3a3a3a" stroke-dasharray="2 2"/>
        <text x="3" y="9" fill="#666" font-size="8">F4</text>
      </g>
      <g transform="translate(3,128)">
        <rect width="28" height="28" fill="#1a1a1c" stroke="#3a3a3a" stroke-dasharray="2 2"/>
        <text x="3" y="9" fill="#666" font-size="8">F5</text>
      </g>
      <g transform="translate(3,157)">
        <rect width="28" height="28" fill="#1a1a1c" stroke="#3a3a3a" stroke-dasharray="2 2"/>
        <text x="3" y="9" fill="#666" font-size="8">F6</text>
      </g>
      <g transform="translate(3,186)">
        <rect width="28" height="28" fill="#1a1a1c" stroke="#3a3a3a" stroke-dasharray="2 2"/>
        <text x="3" y="9" fill="#666" font-size="8">F7</text>
      </g>
      <g transform="translate(3,215)">
        <rect width="28" height="28" fill="#1a1a1c" stroke="#3a3a3a" stroke-dasharray="2 2"/>
        <text x="3" y="9" fill="#666" font-size="8">F8</text>
      </g>
      <g transform="translate(3,244)">
        <rect width="28" height="28" fill="#1a1a1c" stroke="#3a3a3a" stroke-dasharray="2 2"/>
        <text x="3" y="9" fill="#666" font-size="8">F9</text>
      </g>
    </g>

    <!-- ============ CENTER: mainPanel ============ -->
    <g id="main-panel" transform="translate(82,8)">
      <rect x="0" y="0" width="752" height="450" fill="#1A1A1A" stroke="#2a2a2a"/>
      <text x="6" y="-4" fill="#999" font-size="10">
        mainPanel = verticalFlow · surface(0xFF1A1A1A) · padding(4) · gap(2) · InspectScreen.java:175
      </text>

      <!-- Tab bar -->
      <g id="tab-bar" transform="translate(8,8)">
        <text x="0"   y="14" fill="#9a9a9a">装备</text>
        <text x="40"  y="14" fill="#9a9a9a">修仙</text>
        <text x="80"  y="14" fill="#9a9a9a">技艺</text>
        <text x="120" y="14" fill="#FFE080" font-weight="bold">战斗 · 修炼</text>
        <line x1="120" y1="20" x2="200" y2="20" stroke="#FFE080" stroke-width="1.5"/>
        <text x="220" y="14" fill="#7a7a7a" font-size="9">← 本 plan 新增 tab（tabNames[3]）</text>

        <text x="540" y="14" fill="#9a9a9a">境界</text>
        <text x="580" y="14" fill="#80C0FF" font-weight="bold">凝脉一层</text>
        <text x="650" y="14" fill="#9a9a9a">XP</text>
        <rect x="675" y="6" width="60" height="10" fill="#2a2a2a"/>
        <rect x="675" y="6" width="42" height="10" fill="#80C0FF" opacity="0.8"/>
      </g>
      <line x1="8" y1="32" x2="744" y2="32" stroke="#3a3a3a"/>

      <!-- ============ middle 上半: ① 列表 + ② 详情 ============ -->
      <g id="middle-top" transform="translate(8,40)">

        <!-- ① 已学列表 -->
        <g id="list-panel">
          <rect x="0" y="0" width="360" height="220" fill="#202024" stroke="#2c2c30"/>
          <text x="10" y="16" fill="#e0e0e0" font-weight="bold">① 已学列表 · 拖至左侧 1–9 战斗 strip</text>
          <line x1="10" y1="22" x2="350" y2="22" stroke="#2c2c30"/>
          <text x="10" y="36" fill="#80C0FF" font-size="10" font-weight="bold">─ 功法 ─</text>

          <!-- 崩拳（选中态） -->
          <g transform="translate(8,42)">
            <rect width="344" height="30" fill="#2a2a32" stroke="#FFE080" stroke-width="1.5"/>
            <rect x="6" y="5" width="20" height="20" fill="#3a2a1a" stroke="#FFE080" stroke-opacity="0.5"/>
            <text x="16" y="19" fill="#FFE080" text-anchor="middle" font-size="10">崩</text>
            <text x="34" y="13" fill="#FFE080" font-weight="bold">崩拳</text>
            <text x="76" y="13" fill="#FFE080" opacity="0.7" font-size="10">黄阶</text>
            <text x="110" y="13" fill="#9a9a9a" font-size="10">已掌握 0.85</text>
            <rect x="34" y="19" width="180" height="3" fill="#2a2a2a"/>
            <rect x="34" y="19" width="153" height="3" fill="#FFE080"/>
            <text x="320" y="19" fill="#888" font-size="9">需臂三阳</text>
          </g>
          <!-- 贴山靠 -->
          <g transform="translate(8,76)">
            <rect width="344" height="30" fill="#23232a"/>
            <rect x="6" y="5" width="20" height="20" fill="#2a2a32"/>
            <text x="16" y="19" fill="#FFE080" text-anchor="middle" font-size="10">靠</text>
            <text x="34" y="13" fill="#dcdcdc">贴山靠</text>
            <text x="76" y="13" fill="#FFE080" opacity="0.7" font-size="10">黄阶</text>
            <text x="110" y="13" fill="#9a9a9a" font-size="10">已掌握 0.62</text>
            <rect x="34" y="19" width="180" height="3" fill="#2a2a2a"/>
            <rect x="34" y="19" width="111" height="3" fill="#FFE080"/>
            <text x="320" y="19" fill="#888" font-size="9">任督</text>
          </g>
          <!-- 血崩步（境界锁） -->
          <g transform="translate(8,110)">
            <rect width="344" height="30" fill="#23232a"/>
            <rect x="6" y="5" width="20" height="20" fill="#2a2a32" opacity="0.4"/>
            <text x="16" y="19" fill="#80C0FF" text-anchor="middle" font-size="10" opacity="0.4">步</text>
            <text x="34" y="13" fill="#666">血崩步</text>
            <text x="76" y="13" fill="#80C0FF" opacity="0.4" font-size="10">玄阶</text>
            <text x="110" y="13" fill="#666" font-size="10">境界 不足 (需 凝脉三层)</text>
            <text x="320" y="19" fill="#CC4466" font-size="9">🔒 锁</text>
          </g>
          <!-- 逆脉护体（toggle 维持中） -->
          <g transform="translate(8,144)">
            <rect width="344" height="30" fill="#23232a"/>
            <rect x="6" y="5" width="20" height="20" fill="#2a3a2a" stroke="#66AA88"/>
            <text x="16" y="19" fill="#66AA88" text-anchor="middle" font-size="10">逆</text>
            <text x="34" y="13" fill="#dcdcdc">逆脉护体</text>
            <text x="76" y="13" fill="#FFE080" opacity="0.7" font-size="10">黄阶</text>
            <text x="110" y="13" fill="#66AA88" font-size="10">⊙ 维持中</text>
            <text x="320" y="19" fill="#888" font-size="9">手太阴</text>
          </g>
          <!-- 段头：技艺 -->
          <line x1="10" y1="184" x2="350" y2="184" stroke="#2c2c30"/>
          <text x="10" y="196" fill="#80C0FF" font-size="10" font-weight="bold">─ 技艺（不可入战斗 strip）─</text>
          <g transform="translate(8,202)" font-size="9">
            <text x="0" y="9" fill="#bbb">采药</text>
            <rect x="32" y="2" width="60" height="6" fill="#2a2a2a"/>
            <rect x="32" y="2" width="18" height="6" fill="#66AA88"/>
            <text x="100" y="9" fill="#9a9a9a">lv2 30%</text>

            <text x="160" y="9" fill="#bbb">炼丹</text>
            <rect x="192" y="2" width="60" height="6" fill="#2a2a2a"/>
            <rect x="192" y="2" width="36" height="6" fill="#66AA88"/>
            <text x="260" y="9" fill="#9a9a9a">lv4 60%</text>

            <text x="320" y="9" fill="#bbb">锻造 lv1 0%</text>
          </g>
        </g>

        <!-- ② 功法详情卡 -->
        <g id="detail-panel" transform="translate(370,0)">
          <rect x="0" y="0" width="366" height="220" fill="#202024" stroke="#2c2c30"/>
          <text x="10" y="16" fill="#e0e0e0" font-weight="bold">② 功法详情卡 · 选中联动</text>
          <line x1="10" y1="22" x2="356" y2="22" stroke="#2c2c30"/>

          <!-- 头部 -->
          <rect x="10" y="32" width="40" height="40" fill="#3a2a1a" stroke="#FFE080"/>
          <text x="30" y="58" fill="#FFE080" text-anchor="middle" font-size="20" font-weight="bold">崩</text>
          <text x="58" y="44" fill="#FFE080" font-size="15" font-weight="bold">崩拳</text>
          <text x="58" y="58" fill="#FFE080" opacity="0.7" font-size="10">黄阶 · 已掌握 0.85</text>
          <text x="58" y="69" fill="#9a9a9a" font-size="9">id: burst_meridian.beng_quan</text>

          <line x1="10" y1="78" x2="356" y2="78" stroke="#2c2c30"/>

          <!-- 描述 / 需求（左） -->
          <text x="10" y="92"  fill="#dcdcdc" font-weight="bold" font-size="10">描述</text>
          <text x="10" y="106" fill="#bbb" font-size="9">零距灌真元 · 起手即出招，</text>
          <text x="10" y="118" fill="#bbb" font-size="9">不需挥臂蓄力，反震劲走任督。</text>

          <text x="10" y="138" fill="#dcdcdc" font-weight="bold" font-size="10">需求</text>
          <text x="10" y="152" fill="#bbb" font-size="9">· 境界 ≥ 醒灵</text>
          <text x="10" y="164" fill="#bbb" font-size="9">· 经脉 LI · 健康</text>
          <text x="10" y="176" fill="#bbb" font-size="9">· 经脉 TE · 健康</text>

          <!-- 招式数值（右） -->
          <text x="190" y="92"  fill="#dcdcdc" font-weight="bold" font-size="10">招式</text>
          <text x="190" y="106" fill="#9a9a9a" font-size="9">真元消耗</text>
          <text x="350" y="106" fill="#88BBDD" font-size="9" text-anchor="end">30 / 360</text>
          <text x="190" y="118" fill="#9a9a9a" font-size="9">前摇 cast</text>
          <text x="350" y="118" fill="#dcdcdc" font-size="9" text-anchor="end">8t (0.4s)</text>
          <text x="190" y="130" fill="#9a9a9a" font-size="9">冷却</text>
          <text x="350" y="130" fill="#dcdcdc" font-size="9" text-anchor="end">60t (3.0s)</text>
          <text x="190" y="142" fill="#9a9a9a" font-size="9">射程</text>
          <text x="350" y="142" fill="#dcdcdc" font-size="9" text-anchor="end">近身 1.8m</text>
          <text x="190" y="154" fill="#9a9a9a" font-size="9">伤害类型</text>
          <text x="350" y="154" fill="#CC4466" font-size="9" text-anchor="end">爆破·反震</text>

          <!-- 已绑定提示 -->
          <line x1="10" y1="180" x2="356" y2="180" stroke="#2c2c30"/>
          <rect x="10" y="186" width="346" height="26" fill="#2a2a32"
                stroke="#FFE080" stroke-opacity="0.3"/>
          <text x="20" y="200" fill="#FFE080" font-size="10">▶ 已绑定 · 左侧 1–9 战斗 strip · 槽 1（按 1 直接出招）</text>
          <text x="20" y="210" fill="#9a9a9a" font-size="9">右键左侧槽位 = 清空 / 拖到 [丢弃] 区 = 解除绑定</text>
        </g>
      </g>

      <!-- ============ middle 下半: ③ 经脉 + ④ 状态 ============ -->
      <g id="middle-bottom" transform="translate(8,268)">

        <!-- ③ 经脉缩略图 -->
        <g id="meridian-mini">
          <rect x="0" y="0" width="360" height="138" fill="#202024" stroke="#2c2c30"/>
          <text x="10" y="16" fill="#e0e0e0" font-weight="bold">③ 经脉视图 · 高亮所选功法所需</text>
          <text x="218" y="16" fill="#7a7a7a" font-size="9">12 正经 + 8 奇经 = 20 条</text>

          <!-- 简化人体剪影 -->
          <g transform="translate(90,24)" stroke="#666" fill="none" stroke-width="1.2">
            <circle cx="64" cy="14" r="10" stroke="#9a9a9a"/>
            <path d="M 50 24 L 78 24 L 80 70 L 48 70 Z" stroke="#9a9a9a"/>
            <!-- 左臂（手三阴） -->
            <path d="M 50 28 Q 30 46 28 88" stroke="#88BBDD" stroke-width="2"/>
            <!-- 右臂（手三阳，崩拳所需，高亮） -->
            <path d="M 78 28 Q 98 46 100 88" stroke="#FFE080" stroke-width="2.6"/>
            <circle cx="100" cy="88" r="3" fill="#FFE080"/>
            <path d="M 56 70 L 50 116" stroke="#9a9a9a"/>
            <path d="M 72 70 L 78 116" stroke="#9a9a9a"/>
            <!-- 任脉 -->
            <line x1="64" y1="24" x2="64" y2="70" stroke="#44AACC" stroke-dasharray="2 2"/>
          </g>

          <!-- legend -->
          <g transform="translate(220,28)" font-size="9">
            <rect x="0" y="2"  width="10" height="6" fill="#FFE080"/>
            <text x="14" y="9" fill="#FFE080">手阳明大肠经 LI</text>
            <text x="100" y="9" fill="#66AA88">健康</text>

            <rect x="0" y="18" width="10" height="6" fill="#FFE080"/>
            <text x="14" y="25" fill="#FFE080">手少阳三焦经 TE</text>
            <text x="100" y="25" fill="#66AA88">健康</text>

            <rect x="0" y="34" width="10" height="6" fill="#88BBDD" opacity="0.6"/>
            <text x="14" y="41" fill="#888">手太阴肺经 LU</text>
            <text x="100" y="41" fill="#888">无关</text>

            <line x1="0" y1="52" x2="120" y2="52" stroke="#2c2c30"/>
            <text x="0" y="65" fill="#9a9a9a">污染度 0.12 / 1.00</text>
            <rect x="0" y="71" width="120" height="6" fill="#2a2a2a"/>
            <rect x="0" y="71" width="14" height="6" fill="#CC4466"/>
            <text x="0" y="92" fill="#7a7a7a" font-size="8">[详情] → 切到 修仙·tab 看完整 20 经</text>
          </g>
        </g>

        <!-- ④ 修士状态 -->
        <g id="status-panel" transform="translate(370,0)">
          <rect x="0" y="0" width="366" height="138" fill="#202024" stroke="#2c2c30"/>
          <text x="10" y="16" fill="#e0e0e0" font-weight="bold">④ 修士状态</text>

          <!-- 真元 -->
          <text x="10" y="36" fill="#88BBDD" font-size="10">真元</text>
          <rect x="10" y="40" width="346" height="9" fill="#2a2a2a"/>
          <rect x="10" y="40" width="269" height="9" fill="#88BBDD"/>
          <text x="352" y="48" fill="#dcdcdc" font-size="9" text-anchor="end">280 / 360</text>

          <!-- 体力 -->
          <text x="10" y="64" fill="#CC8855" font-size="10">体力</text>
          <rect x="10" y="68" width="346" height="9" fill="#2a2a2a"/>
          <rect x="10" y="68" width="318" height="9" fill="#CC8855"/>
          <text x="352" y="76" fill="#dcdcdc" font-size="9" text-anchor="end">92 / 100</text>

          <!-- 因果 / 综合 / 区域 -->
          <text x="10"  y="94" fill="#9a9a9a" font-size="9">因果</text>
          <text x="42"  y="94" fill="#66AA88" font-size="10" font-weight="bold">+0.32</text>
          <text x="100" y="94" fill="#9a9a9a" font-size="9">综合实力</text>
          <text x="160" y="94" fill="#FFE080" font-size="10" font-weight="bold">1240</text>
          <text x="220" y="94" fill="#9a9a9a" font-size="9">区域</text>
          <text x="250" y="94" fill="#80C0FF" font-size="10">青云脉</text>

          <line x1="10" y1="105" x2="356" y2="105" stroke="#2c2c30"/>
          <text x="10" y="120" fill="#7a7a7a" font-size="9">⑤ 1–9 战斗 strip = 左侧已存在的 hotbarStrip（不重画）</text>
          <text x="10" y="131" fill="#7a7a7a" font-size="9">  拖目标即左侧 strip slot · F1–F9 镜像同理（quickUseStrip）</text>
        </g>
      </g>

      <!-- bottomBar（现网持有） -->
      <g id="bottombar" transform="translate(8,412)">
        <rect x="0" y="0" width="728" height="28" fill="#181818" stroke="#2a2a2a"/>
        <text x="8" y="13" fill="#7a7a7a" font-size="9">BottomInfoBar · 现网持有（不动） · InspectScreen.java:469</text>
        <text x="8" y="24" fill="#666"   font-size="9">提示文本 / 物品 lore / 操作 hint</text>
      </g>
    </g>

    <!-- ============ FAR RIGHT: discardStrip ============ -->
    <g id="discard" transform="translate(842,8)">
      <rect x="0" y="0" width="34" height="266" fill="#201010"
            stroke="#CC4466" stroke-opacity="0.4"/>
      <text x="17" y="-4" fill="#CC4466" font-size="9" text-anchor="middle" font-weight="bold">丢弃</text>
      <text x="17" y="-15" fill="#CC4466" font-size="8" text-anchor="middle" opacity="0.7">verticalFlow</text>
      <text x="17" y="135" fill="#CC4466" text-anchor="middle" font-size="14" font-weight="bold">丢</text>
      <text x="17" y="158" fill="#CC4466" text-anchor="middle" font-size="14" font-weight="bold">弃</text>
    </g>
  </g>

  <!-- ================== 拖拽流向：① 列表 → 左侧 hotbarStrip ================== -->
  <g id="drag-flow" font-size="10">
    <!-- 全局坐标系（已含 outerRow translate(20,40)）-->
    <!-- source: ① 列表"崩拳"行左缘 ≈ (118, 145)
         target: hotbar slot 1 中心  ≈  (45, 74) -->
    <path d="M 130 145 Q 80 110 52 80"
          stroke="#FFE080" stroke-width="1.6" fill="none"
          stroke-dasharray="5 3" opacity="0.95"/>
    <polygon points="52,80 60,82 58,74" fill="#FFE080" opacity="0.95"/>
    <text x="62" y="118" fill="#FFE080" font-weight="bold">拖入 = 绑技能</text>
    <text x="62" y="130" fill="#FFE080" opacity="0.75" font-size="9">源 ① 列表 → 左侧 1–9 战斗 strip</text>
  </g>

  <!-- ================== 底部图例 / 修订说明 ================== -->
  <g transform="translate(20,520)" font-size="10">
    <text x="0" y="0" fill="#cdcdcd" font-weight="bold">v2 修订要点（按现网 InspectScreen 真实结构对齐）：</text>
    <text x="0" y="14" fill="#bbb">  · outerRow = horizontalFlow（line 163）三段：[hotbarStrip 34][quickUseStrip 34][mainPanel][discardStrip 34]</text>
    <text x="0" y="28" fill="#bbb">  · hotbarStrip / quickUseStrip 都是 verticalFlow，9 槽竖排 — v1 错画为底部横排 760×48 已修正</text>
    <text x="0" y="42" fill="#bbb">  · 「战斗·修炼」tab 内仅 ①②③④ 四区联动；⑤ = 左侧已有 hotbarStrip，不在 tab 内重画（避免双份 1–9）</text>
  </g>

</svg>
